<svg width="72" height="43" viewBox="0 0 72 43" xmlns="http://www.w3.org/2000/svg">
    <path fill-rule="evenodd" clip-rule="evenodd" d="M0.0500488 37.1201H22.3101V42.4901H0.0500488V37.1201Z"/>
    <path fill-rule="evenodd" clip-rule="evenodd" d="M0.0500488 29.74H22.3101V35.11H0.0500488V29.74Z"/>
    <path fill-rule="evenodd" clip-rule="evenodd" d="M0.0500488 22.3599H22.3101V27.7299H0.0500488V22.3599Z"/>
    <path fill-rule="evenodd" clip-rule="evenodd" d="M0.0500488 14.98H22.3101V20.35H0.0500488V14.98Z"/>
    <path fill-rule="evenodd" clip-rule="evenodd" d="M0.0500488 7.6001H22.3101V12.9701H0.0500488V7.6001Z"/>
    <path fill-rule="evenodd" clip-rule="evenodd" d="M0.0500488 0.219971H22.3101V5.58997H0.0500488V0.219971Z"/>
    <path fill-rule="evenodd" clip-rule="evenodd" d="M24.75 37.1201H47.01V42.4901H24.75V37.1201Z"/>
    <path fill-rule="evenodd" clip-rule="evenodd" d="M24.75 29.74H47.01V35.11H24.75V29.74Z"/>
    <path fill-rule="evenodd" clip-rule="evenodd" d="M24.75 22.3599H47.01V27.7299H24.75V22.3599Z"/>
    <path fill-rule="evenodd" clip-rule="evenodd" d="M24.75 14.98H47.01V20.35H24.75V14.98Z"/>
    <path fill-rule="evenodd" clip-rule="evenodd" d="M49.45 37.1201H71.7099V42.4901H49.45V37.1201Z"/>
    <path fill-rule="evenodd" clip-rule="evenodd" d="M49.45 29.74H71.7099V35.11H49.45V29.74Z"/>
    <path fill-rule="evenodd" clip-rule="evenodd" d="M49.45 22.3599H71.7099V27.7299H49.45V22.3599Z"/>
    <path fill-rule="evenodd" clip-rule="evenodd" d="M49.45 14.98H71.7099V20.35H49.45V14.98Z"/>
    <path fill-rule="evenodd" clip-rule="evenodd" d="M49.45 7.6001H71.7099V12.9701H49.45V7.6001Z"/>
</svg>
