<svg width="121" height="62" viewBox="0 0 121 62" xmlns="http://www.w3.org/2000/svg">
    <path d="M60.4399 29.59C73.88 29.59 86.0499 31.17 94.8599 33.71C103.67 36.25 109.28 39.88 109.28 43.89C109.28 47.9 103.77 51.5 94.8599 54.07C85.95 56.64 73.8599 58.19 60.4399 58.19C47.02 58.19 34.8299 56.62 25.9999 54.08C17.1699 51.54 11.5999 47.91 11.5999 43.89C11.5999 39.87 17.1099 36.28 26.0199 33.71C34.9299 31.14 47.02 29.59 60.4399 29.59ZM60.4399 26.26C77.06 26.26 92.1099 28.21 103.01 31.36C113.91 34.51 120.81 38.97 120.81 43.9C120.81 48.83 114.01 53.26 103.01 56.44C92.0099 59.62 77.06 61.54 60.4399 61.54C43.8199 61.54 28.7699 59.59 17.8699 56.44C6.96995 53.29 0.0699463 48.83 0.0699463 43.9C0.0699463 38.97 6.86995 34.54 17.8699 31.36C28.8699 28.18 43.8199 26.26 60.4399 26.26ZM102.86 31.88C92.0099 28.75 77.0099 26.81 60.4399 26.81C43.8699 26.81 28.8699 28.75 17.9999 31.88C7.12995 35.01 0.599947 39.24 0.599947 43.88C0.599947 48.52 7.24995 52.79 17.9999 55.88C28.7499 58.97 43.8699 61 60.4399 61C77.0099 61 91.9999 59 102.86 55.91C113.72 52.82 120.26 48.55 120.26 43.91C120.26 39.27 113.61 35 102.86 31.91V31.88ZM94.7099 34.23C85.9499 31.7 73.8299 30.13 60.4399 30.13C47.0499 30.13 34.9399 31.7 26.1699 34.23C17.3999 36.76 12.1699 40.15 12.1699 43.89C12.1699 47.63 17.5299 51.04 26.1699 53.55C34.8099 56.06 47.0499 57.65 60.4399 57.65C73.8299 57.65 85.9399 56.08 94.7099 53.55C103.48 51.02 108.71 47.63 108.71 43.89C108.71 40.15 103.35 36.74 94.7099 34.23Z"/>
    <path d="M34.1899 21.8699H36.6899V43.6299H34.1899V21.8699ZM84.1899 0.109863H86.6899V43.6199H84.1899V0.119873V0.109863ZM79.1899 2.78989H81.6899V43.6199H79.1899V2.79987V2.78989ZM74.1899 11.1099H76.6899V43.6199H74.1899V11.1199V11.1099ZM69.1899 19.4299H71.6899V43.6199H69.1899V19.4399V19.4299ZM64.1899 6.42987H66.6899V43.6599H64.1899V6.39987V6.42987ZM59.1899 9.57986H61.6899V43.6699H59.1899V9.54987V9.57986ZM54.1899 0.149872H56.6899V43.6599H54.1899V0.119873V0.149872ZM49.1899 4.14987H51.6899V43.6299H49.1899V4.14987ZM44.1899 15.8399H46.6899V43.6299H44.1899V15.8399ZM39.1899 27.0399H41.6899V43.6299H39.1899V26.9999V27.0399Z"/>
</svg>
