<svg width="377" height="80" viewBox="0 0 377 80" fill="none" xmlns="http://www.w3.org/2000/svg">
    <path d="M48.87 19.28H46.45L45.24 21.37L46.45 23.47H48.87L50.08 21.37L48.87 19.28Z" stroke="#9F60F4" stroke-width="0.57" stroke-miterlimit="10"/>
    <path d="M331.5 19.28H329.08L327.87 21.37L329.08 23.47H331.5L332.71 21.37L331.5 19.28Z" stroke="#9F60F4" stroke-width="0.57" stroke-miterlimit="10"/>
    <path d="M47.66 21.3401H330.29" stroke="#9F60F4" stroke-width="0.29" stroke-linecap="round" stroke-linejoin="round"/>
    <path d="M64.14 2.55006L92.56 30.9701H280.99L311.39 0.570068" stroke="#9F60F4" stroke-width="0.57" stroke-miterlimit="10"/>
    <path style="mix-blend-mode:color-dodge" d="M99.5399 23.99H97.6899V28.19H99.5399V23.99Z" fill="url(#paint0_linear_135_11728)"/>
    <path style="mix-blend-mode:color-dodge" d="M105.59 23.99H103.74V28.19H105.59V23.99Z" fill="url(#paint1_linear_135_11728)"/>
    <path style="mix-blend-mode:color-dodge" d="M111.63 23.99H109.78V28.19H111.63V23.99Z" fill="url(#paint2_linear_135_11728)"/>
    <path style="mix-blend-mode:color-dodge" d="M117.68 23.99H115.83V28.19H117.68V23.99Z" fill="url(#paint3_linear_135_11728)"/>
    <path style="mix-blend-mode:color-dodge" d="M123.73 23.99H121.88V28.19H123.73V23.99Z" fill="url(#paint4_linear_135_11728)"/>
    <path style="mix-blend-mode:color-dodge" d="M129.77 23.99H127.92V28.19H129.77V23.99Z" fill="url(#paint5_linear_135_11728)"/>
    <path style="mix-blend-mode:color-dodge" d="M135.82 23.99H133.97V28.19H135.82V23.99Z" fill="url(#paint6_linear_135_11728)"/>
    <path style="mix-blend-mode:color-dodge" d="M141.87 23.99H140.02V28.19H141.87V23.99Z" fill="url(#paint7_linear_135_11728)"/>
    <path style="mix-blend-mode:color-dodge" d="M147.91 23.99H146.06V28.19H147.91V23.99Z" fill="url(#paint8_linear_135_11728)"/>
    <path style="mix-blend-mode:color-dodge" d="M153.96 23.99H152.11V28.19H153.96V23.99Z" fill="url(#paint9_linear_135_11728)"/>
    <path style="mix-blend-mode:color-dodge" d="M160 23.99H158.15V28.19H160V23.99Z" fill="url(#paint10_linear_135_11728)"/>
    <path style="mix-blend-mode:color-dodge" d="M276.21 28.2H278.06V24H276.21V28.2Z" fill="url(#paint11_linear_135_11728)"/>
    <path style="mix-blend-mode:color-dodge" d="M270.15 28.2H272V24H270.15V28.2Z" fill="url(#paint12_linear_135_11728)"/>
    <path style="mix-blend-mode:color-dodge" d="M264.11 28.2H265.96V24H264.11V28.2Z" fill="url(#paint13_linear_135_11728)"/>
    <path style="mix-blend-mode:color-dodge" d="M258.07 28.2H259.92V24H258.07V28.2Z" fill="url(#paint14_linear_135_11728)"/>
    <path style="mix-blend-mode:color-dodge" d="M252.02 28.2H253.87V24H252.02V28.2Z" fill="url(#paint15_linear_135_11728)"/>
    <path style="mix-blend-mode:color-dodge" d="M245.97 28.2H247.82V24H245.97V28.2Z" fill="url(#paint16_linear_135_11728)"/>
    <path style="mix-blend-mode:color-dodge" d="M239.92 28.2H241.77V24H239.92V28.2Z" fill="url(#paint17_linear_135_11728)"/>
    <path style="mix-blend-mode:color-dodge" d="M233.88 28.2H235.73V24H233.88V28.2Z" fill="url(#paint18_linear_135_11728)"/>
    <path style="mix-blend-mode:color-dodge" d="M227.84 28.2H229.69V24H227.84V28.2Z" fill="url(#paint19_linear_135_11728)"/>
    <path style="mix-blend-mode:color-dodge" d="M221.78 28.2H223.63V24H221.78V28.2Z" fill="url(#paint20_linear_135_11728)"/>
    <path style="mix-blend-mode:color-dodge" d="M215.74 28.2H217.59V24H215.74V28.2Z" fill="url(#paint21_linear_135_11728)"/>
    <path style="mix-blend-mode:overlay" d="M181.82 34.0001C182.74 33.0334 183.663 32.0767 184.59 31.1301L184.99 30.7301C183.767 29.4838 183.053 27.8253 182.99 26.0801H178.4C178.472 29.0632 179.698 31.9021 181.82 34.0001Z" fill="url(#paint22_linear_135_11728)"/>
    <path style="mix-blend-mode:overlay" d="M197 26.0801C196.932 27.8271 196.213 29.4855 194.985 30.7291C193.756 31.9727 192.106 32.7115 190.36 32.8001V37.3601C193.313 37.2665 196.118 36.0471 198.2 33.9516C200.283 31.8561 201.485 29.0434 201.56 26.0901L197 26.0801Z" fill="url(#paint23_linear_135_11728)"/>
    <path style="mix-blend-mode:overlay" d="M198.14 17.61C196.06 15.5263 193.263 14.317 190.32 14.23V18.79C191.939 18.8703 193.48 19.51 194.68 20.6C195.81 19.58 197 18.59 198.14 17.61Z" fill="url(#paint24_linear_135_11728)"/>
    <path style="mix-blend-mode:overlay" d="M195.08 21C196.204 22.2003 196.87 23.7581 196.96 25.4H201.52C201.427 22.665 200.364 20.0524 198.52 18.03C197.37 19 196.21 20 195.08 21Z" fill="url(#paint25_linear_135_11728)"/>
    <path style="mix-blend-mode:overlay" d="M183 25.4C183.096 23.6559 183.841 22.0108 185.088 20.7878C186.335 19.5648 187.994 18.8522 189.74 18.79V14.23C186.788 14.2997 183.975 15.4953 181.876 17.5719C179.777 19.6486 178.551 22.4491 178.45 25.4H183Z" fill="url(#paint26_linear_135_11728)"/>
    <path style="mix-blend-mode:overlay" d="M185.15 31.3701C184.17 32.3701 183.197 33.3701 182.23 34.3701C184.278 36.2359 186.93 37.3009 189.7 37.3701V32.8001C188.118 32.7425 186.602 32.1502 185.4 31.1201L185.15 31.3701Z" fill="url(#paint27_linear_135_11728)"/>
    <path style="mix-blend-mode:overlay" d="M67.16 29C67.8267 29.6667 68.4933 30.3333 69.16 31L69.44 31.28C68.555 32.1672 68.0403 33.3575 68 34.61H64.74C64.7887 32.4969 65.6564 30.4855 67.16 29Z" fill="url(#paint28_linear_135_11728)"/>
    <path style="mix-blend-mode:overlay" d="M77.87 34.6099C77.8105 33.3778 77.2976 32.2113 76.4301 31.3345C75.5625 30.4576 74.4014 29.9325 73.17 29.8599V26.6399C75.2634 26.706 77.2516 27.5725 78.7251 29.0608C80.1985 30.5492 81.045 32.546 81.09 34.6399L77.87 34.6099Z" fill="url(#paint29_linear_135_11728)"/>
    <path style="mix-blend-mode:overlay" d="M78.7 40.6C77.2312 42.0774 75.2524 42.9362 73.17 43V39.78C74.3141 39.7233 75.4028 39.2708 76.25 38.5C77.06 39.21 77.88 39.91 78.7 40.6Z" fill="url(#paint30_linear_135_11728)"/>
    <path style="mix-blend-mode:overlay" d="M76.54 38.2001C77.3355 37.3522 77.8065 36.251 77.87 35.0901H81.09C81.0347 37.0229 80.2939 38.8731 79 40.3101C78.16 39.6201 77.34 38.9201 76.54 38.2001Z" fill="url(#paint31_linear_135_11728)"/>
    <path style="mix-blend-mode:overlay" d="M68 35.1001C68.0775 36.3295 68.6062 37.4871 69.4846 38.3508C70.3631 39.2144 71.5294 39.7234 72.76 39.7801V43.0001C70.6695 42.9553 68.6755 42.1116 67.1876 40.6424C65.6998 39.1731 64.8311 37.1899 64.76 35.1001H68Z" fill="url(#paint32_linear_135_11728)"/>
    <path style="mix-blend-mode:overlay" d="M69.51 30.8699C68.8433 30.1632 68.1566 29.4499 67.45 28.7299C68.9025 27.4228 70.7763 26.6811 72.73 26.6399V29.8599C71.6249 29.9095 70.5685 30.3285 69.73 31.0499L69.51 30.8699Z" fill="url(#paint33_linear_135_11728)"/>
    <path style="mix-blend-mode:overlay" d="M298.87 29C299.537 29.6667 300.203 30.3333 300.87 31L301.15 31.28C300.278 32.1587 299.768 33.3329 299.72 34.57H296.5C296.546 32.4779 297.394 30.4836 298.87 29Z" fill="url(#paint34_linear_135_11728)"/>
    <path style="mix-blend-mode:overlay" d="M309.58 34.6099C309.52 33.3778 309.008 32.2113 308.14 31.3345C307.272 30.4576 306.111 29.9325 304.88 29.8599V26.6399C306.973 26.706 308.962 27.5725 310.435 29.0608C311.909 30.5492 312.755 32.546 312.8 34.6399L309.58 34.6099Z" fill="url(#paint35_linear_135_11728)"/>
    <path style="mix-blend-mode:overlay" d="M310.41 40.6C308.94 42.0737 306.961 42.9289 304.88 42.99V39.77C306.024 39.7133 307.113 39.2608 307.96 38.49C308.76 39.21 309.59 39.91 310.41 40.6Z" fill="url(#paint36_linear_135_11728)"/>
    <path style="mix-blend-mode:overlay" d="M308.25 38.2001C309.045 37.3522 309.516 36.251 309.58 35.0901H312.8C312.737 37.022 311.989 38.8686 310.69 40.3001C309.86 39.6201 309 38.9201 308.25 38.2001Z" fill="url(#paint37_linear_135_11728)"/>
    <path style="mix-blend-mode:overlay" d="M299.68 35.1001C299.757 36.3295 300.286 37.4871 301.165 38.3508C302.043 39.2144 303.209 39.7234 304.44 39.7801V43.0001C302.349 42.9553 300.355 42.1116 298.868 40.6424C297.38 39.1731 296.511 37.1899 296.44 35.1001H299.68Z" fill="url(#paint38_linear_135_11728)"/>
    <path style="mix-blend-mode:overlay" d="M301.22 30.8699C300.553 30.1632 299.867 29.4499 299.16 28.7299C300.613 27.4228 302.486 26.6811 304.44 26.6399V29.8599C303.335 29.9095 302.279 30.3285 301.44 31.0499L301.22 30.8699Z" fill="url(#paint39_linear_135_11728)"/>
    <path d="M72.92 34.6099H45.24L1 78.8599" stroke="#9F60F4" stroke-width="0.5" stroke-miterlimit="10"/>
    <path d="M304.08 34.6099H331.76L376 78.8599" stroke="#9F60F4" stroke-width="0.5" stroke-miterlimit="10"/>
    <defs>
        <linearGradient id="paint0_linear_135_11728" x1="91.5799" y1="26.09" x2="207.16" y2="26.09" gradientUnits="userSpaceOnUse">
            <stop stop-color="white"/>
            <stop offset="1" stop-opacity="0"/>
        </linearGradient>
        <linearGradient id="paint1_linear_135_11728" x1="91.58" y1="26.09" x2="207.16" y2="26.09" gradientUnits="userSpaceOnUse">
            <stop stop-color="white"/>
            <stop offset="1" stop-opacity="0"/>
        </linearGradient>
        <linearGradient id="paint2_linear_135_11728" x1="91.58" y1="26.09" x2="207.16" y2="26.09" gradientUnits="userSpaceOnUse">
            <stop stop-color="white"/>
            <stop offset="1" stop-opacity="0"/>
        </linearGradient>
        <linearGradient id="paint3_linear_135_11728" x1="91.58" y1="26.09" x2="207.16" y2="26.09" gradientUnits="userSpaceOnUse">
            <stop stop-color="white"/>
            <stop offset="1" stop-opacity="0"/>
        </linearGradient>
        <linearGradient id="paint4_linear_135_11728" x1="91.5802" y1="26.09" x2="207.16" y2="26.09" gradientUnits="userSpaceOnUse">
            <stop stop-color="white"/>
            <stop offset="1" stop-opacity="0"/>
        </linearGradient>
        <linearGradient id="paint5_linear_135_11728" x1="91.5799" y1="26.09" x2="207.16" y2="26.09" gradientUnits="userSpaceOnUse">
            <stop stop-color="white"/>
            <stop offset="1" stop-opacity="0"/>
        </linearGradient>
        <linearGradient id="paint6_linear_135_11728" x1="91.5798" y1="26.09" x2="207.16" y2="26.09" gradientUnits="userSpaceOnUse">
            <stop stop-color="white"/>
            <stop offset="1" stop-opacity="0"/>
        </linearGradient>
        <linearGradient id="paint7_linear_135_11728" x1="91.5803" y1="26.09" x2="207.16" y2="26.09" gradientUnits="userSpaceOnUse">
            <stop stop-color="white"/>
            <stop offset="1" stop-opacity="0"/>
        </linearGradient>
        <linearGradient id="paint8_linear_135_11728" x1="91.5799" y1="26.09" x2="207.16" y2="26.09" gradientUnits="userSpaceOnUse">
            <stop stop-color="white"/>
            <stop offset="1" stop-opacity="0"/>
        </linearGradient>
        <linearGradient id="paint9_linear_135_11728" x1="91.5798" y1="26.09" x2="207.16" y2="26.09" gradientUnits="userSpaceOnUse">
            <stop stop-color="white"/>
            <stop offset="1" stop-opacity="0"/>
        </linearGradient>
        <linearGradient id="paint10_linear_135_11728" x1="91.5798" y1="26.09" x2="207.16" y2="26.09" gradientUnits="userSpaceOnUse">
            <stop stop-color="white"/>
            <stop offset="1" stop-opacity="0"/>
        </linearGradient>
        <linearGradient id="paint11_linear_135_11728" x1="284.17" y1="26.09" x2="168.592" y2="26.09" gradientUnits="userSpaceOnUse">
            <stop stop-color="white"/>
            <stop offset="1" stop-opacity="0"/>
        </linearGradient>
        <linearGradient id="paint12_linear_135_11728" x1="284.16" y1="26.09" x2="168.58" y2="26.09" gradientUnits="userSpaceOnUse">
            <stop stop-color="white"/>
            <stop offset="1" stop-opacity="0"/>
        </linearGradient>
        <linearGradient id="paint13_linear_135_11728" x1="284.16" y1="26.09" x2="168.58" y2="26.09" gradientUnits="userSpaceOnUse">
            <stop stop-color="white"/>
            <stop offset="1" stop-opacity="0"/>
        </linearGradient>
        <linearGradient id="paint14_linear_135_11728" x1="284.17" y1="26.09" x2="168.59" y2="26.09" gradientUnits="userSpaceOnUse">
            <stop stop-color="white"/>
            <stop offset="1" stop-opacity="0"/>
        </linearGradient>
        <linearGradient id="paint15_linear_135_11728" x1="284.17" y1="26.09" x2="168.58" y2="26.09" gradientUnits="userSpaceOnUse">
            <stop stop-color="white"/>
            <stop offset="1" stop-opacity="0"/>
        </linearGradient>
        <linearGradient id="paint16_linear_135_11728" x1="284.16" y1="26.09" x2="168.58" y2="26.09" gradientUnits="userSpaceOnUse">
            <stop stop-color="white"/>
            <stop offset="1" stop-opacity="0"/>
        </linearGradient>
        <linearGradient id="paint17_linear_135_11728" x1="284.16" y1="26.09" x2="168.58" y2="26.09" gradientUnits="userSpaceOnUse">
            <stop stop-color="white"/>
            <stop offset="1" stop-opacity="0"/>
        </linearGradient>
        <linearGradient id="paint18_linear_135_11728" x1="284.17" y1="26.09" x2="168.59" y2="26.09" gradientUnits="userSpaceOnUse">
            <stop stop-color="white"/>
            <stop offset="1" stop-opacity="0"/>
        </linearGradient>
        <linearGradient id="paint19_linear_135_11728" x1="284.17" y1="26.09" x2="168.59" y2="26.09" gradientUnits="userSpaceOnUse">
            <stop stop-color="white"/>
            <stop offset="1" stop-opacity="0"/>
        </linearGradient>
        <linearGradient id="paint20_linear_135_11728" x1="284.16" y1="26.09" x2="168.58" y2="26.09" gradientUnits="userSpaceOnUse">
            <stop stop-color="white"/>
            <stop offset="1" stop-opacity="0"/>
        </linearGradient>
        <linearGradient id="paint21_linear_135_11728" x1="284.17" y1="26.09" x2="168.59" y2="26.09" gradientUnits="userSpaceOnUse">
            <stop stop-color="white"/>
            <stop offset="1" stop-opacity="0"/>
        </linearGradient>
        <linearGradient id="paint22_linear_135_11728" x1="193.38" y1="2.59008" x2="177.03" y2="38.7001" gradientUnits="userSpaceOnUse">
            <stop stop-color="white"/>
            <stop offset="0.04" stop-color="white" stop-opacity="0.96"/>
            <stop offset="0.4" stop-color="white" stop-opacity="0.55"/>
            <stop offset="0.69" stop-color="white" stop-opacity="0.26"/>
            <stop offset="0.9" stop-color="white" stop-opacity="0.07"/>
            <stop offset="1" stop-color="white" stop-opacity="0"/>
        </linearGradient>
        <linearGradient id="paint23_linear_135_11728" x1="206" y1="8.30011" x2="189.65" y2="44.4101" gradientUnits="userSpaceOnUse">
            <stop stop-color="white"/>
            <stop offset="0.04" stop-color="white" stop-opacity="0.96"/>
            <stop offset="0.4" stop-color="white" stop-opacity="0.55"/>
            <stop offset="0.69" stop-color="white" stop-opacity="0.26"/>
            <stop offset="0.9" stop-color="white" stop-opacity="0.07"/>
            <stop offset="1" stop-color="white" stop-opacity="0"/>
        </linearGradient>
        <linearGradient id="paint24_linear_135_11728" x1="199.1" y1="5.17997" x2="182.75" y2="41.29" gradientUnits="userSpaceOnUse">
            <stop stop-color="white"/>
            <stop offset="0.04" stop-color="white" stop-opacity="0.96"/>
            <stop offset="0.4" stop-color="white" stop-opacity="0.55"/>
            <stop offset="0.69" stop-color="white" stop-opacity="0.26"/>
            <stop offset="0.9" stop-color="white" stop-opacity="0.07"/>
            <stop offset="1" stop-color="white" stop-opacity="0"/>
        </linearGradient>
        <linearGradient id="paint25_linear_135_11728" x1="205.21" y1="7.95004" x2="188.86" y2="44.05" gradientUnits="userSpaceOnUse">
            <stop stop-color="white"/>
            <stop offset="0.04" stop-color="white" stop-opacity="0.96"/>
            <stop offset="0.4" stop-color="white" stop-opacity="0.55"/>
            <stop offset="0.69" stop-color="white" stop-opacity="0.26"/>
            <stop offset="0.9" stop-color="white" stop-opacity="0.07"/>
            <stop offset="1" stop-color="white" stop-opacity="0"/>
        </linearGradient>
        <linearGradient id="paint26_linear_135_11728" x1="192.57" y1="2.21998" x2="176.22" y2="38.33" gradientUnits="userSpaceOnUse">
            <stop stop-color="white"/>
            <stop offset="0.04" stop-color="white" stop-opacity="0.96"/>
            <stop offset="0.4" stop-color="white" stop-opacity="0.55"/>
            <stop offset="0.69" stop-color="white" stop-opacity="0.26"/>
            <stop offset="0.9" stop-color="white" stop-opacity="0.07"/>
            <stop offset="1" stop-color="white" stop-opacity="0"/>
        </linearGradient>
        <linearGradient id="paint27_linear_135_11728" x1="199.73" y1="5.47012" x2="183.38" y2="41.5701" gradientUnits="userSpaceOnUse">
            <stop stop-color="white"/>
            <stop offset="0.04" stop-color="white" stop-opacity="0.96"/>
            <stop offset="0.4" stop-color="white" stop-opacity="0.55"/>
            <stop offset="0.69" stop-color="white" stop-opacity="0.26"/>
            <stop offset="0.9" stop-color="white" stop-opacity="0.07"/>
            <stop offset="1" stop-color="white" stop-opacity="0"/>
        </linearGradient>
        <linearGradient id="paint28_linear_135_11728" x1="75.33" y1="51.2199" x2="63.7701" y2="25.69" gradientUnits="userSpaceOnUse">
            <stop stop-color="white"/>
            <stop offset="0.04" stop-color="white" stop-opacity="0.96"/>
            <stop offset="0.4" stop-color="white" stop-opacity="0.55"/>
            <stop offset="0.69" stop-color="white" stop-opacity="0.26"/>
            <stop offset="0.9" stop-color="white" stop-opacity="0.07"/>
            <stop offset="1" stop-color="white" stop-opacity="0"/>
        </linearGradient>
        <linearGradient id="paint29_linear_135_11728" x1="84.26" y1="47.1799" x2="72.69" y2="21.6499" gradientUnits="userSpaceOnUse">
            <stop stop-color="white"/>
            <stop offset="0.04" stop-color="white" stop-opacity="0.96"/>
            <stop offset="0.4" stop-color="white" stop-opacity="0.55"/>
            <stop offset="0.69" stop-color="white" stop-opacity="0.26"/>
            <stop offset="0.9" stop-color="white" stop-opacity="0.07"/>
            <stop offset="1" stop-color="white" stop-opacity="0"/>
        </linearGradient>
        <linearGradient id="paint30_linear_135_11728" x1="79.38" y1="49.39" x2="67.81" y2="23.86" gradientUnits="userSpaceOnUse">
            <stop stop-color="white"/>
            <stop offset="0.04" stop-color="white" stop-opacity="0.96"/>
            <stop offset="0.4" stop-color="white" stop-opacity="0.55"/>
            <stop offset="0.69" stop-color="white" stop-opacity="0.26"/>
            <stop offset="0.9" stop-color="white" stop-opacity="0.07"/>
            <stop offset="1" stop-color="white" stop-opacity="0"/>
        </linearGradient>
        <linearGradient id="paint31_linear_135_11728" x1="83.7" y1="47.4301" x2="72.14" y2="21.9001" gradientUnits="userSpaceOnUse">
            <stop stop-color="white"/>
            <stop offset="0.04" stop-color="white" stop-opacity="0.96"/>
            <stop offset="0.4" stop-color="white" stop-opacity="0.55"/>
            <stop offset="0.69" stop-color="white" stop-opacity="0.26"/>
            <stop offset="0.9" stop-color="white" stop-opacity="0.07"/>
            <stop offset="1" stop-color="white" stop-opacity="0"/>
        </linearGradient>
        <linearGradient id="paint32_linear_135_11728" x1="74.76" y1="51.4801" x2="63.2" y2="25.9501" gradientUnits="userSpaceOnUse">
            <stop stop-color="white"/>
            <stop offset="0.04" stop-color="white" stop-opacity="0.96"/>
            <stop offset="0.4" stop-color="white" stop-opacity="0.55"/>
            <stop offset="0.69" stop-color="white" stop-opacity="0.26"/>
            <stop offset="0.9" stop-color="white" stop-opacity="0.07"/>
            <stop offset="1" stop-color="white" stop-opacity="0"/>
        </linearGradient>
        <linearGradient id="paint33_linear_135_11728" x1="79.83" y1="49.1899" x2="68.26" y2="23.6499" gradientUnits="userSpaceOnUse">
            <stop stop-color="white"/>
            <stop offset="0.04" stop-color="white" stop-opacity="0.96"/>
            <stop offset="0.4" stop-color="white" stop-opacity="0.55"/>
            <stop offset="0.69" stop-color="white" stop-opacity="0.26"/>
            <stop offset="0.9" stop-color="white" stop-opacity="0.07"/>
            <stop offset="1" stop-color="white" stop-opacity="0"/>
        </linearGradient>
        <linearGradient id="paint34_linear_135_11728" x1="307.04" y1="51.22" x2="295.48" y2="25.69" gradientUnits="userSpaceOnUse">
            <stop stop-color="white"/>
            <stop offset="0.04" stop-color="white" stop-opacity="0.96"/>
            <stop offset="0.4" stop-color="white" stop-opacity="0.55"/>
            <stop offset="0.69" stop-color="white" stop-opacity="0.26"/>
            <stop offset="0.9" stop-color="white" stop-opacity="0.07"/>
            <stop offset="1" stop-color="white" stop-opacity="0"/>
        </linearGradient>
        <linearGradient id="paint35_linear_135_11728" x1="315.96" y1="47.1799" x2="304.4" y2="21.6499" gradientUnits="userSpaceOnUse">
            <stop stop-color="white"/>
            <stop offset="0.04" stop-color="white" stop-opacity="0.96"/>
            <stop offset="0.4" stop-color="white" stop-opacity="0.55"/>
            <stop offset="0.69" stop-color="white" stop-opacity="0.26"/>
            <stop offset="0.9" stop-color="white" stop-opacity="0.07"/>
            <stop offset="1" stop-color="white" stop-opacity="0"/>
        </linearGradient>
        <linearGradient id="paint36_linear_135_11728" x1="311.09" y1="49.39" x2="299.52" y2="23.86" gradientUnits="userSpaceOnUse">
            <stop stop-color="white"/>
            <stop offset="0.04" stop-color="white" stop-opacity="0.96"/>
            <stop offset="0.4" stop-color="white" stop-opacity="0.55"/>
            <stop offset="0.69" stop-color="white" stop-opacity="0.26"/>
            <stop offset="0.9" stop-color="white" stop-opacity="0.07"/>
            <stop offset="1" stop-color="white" stop-opacity="0"/>
        </linearGradient>
        <linearGradient id="paint37_linear_135_11728" x1="315.41" y1="47.4301" x2="303.85" y2="21.9001" gradientUnits="userSpaceOnUse">
            <stop stop-color="white"/>
            <stop offset="0.04" stop-color="white" stop-opacity="0.96"/>
            <stop offset="0.4" stop-color="white" stop-opacity="0.55"/>
            <stop offset="0.69" stop-color="white" stop-opacity="0.26"/>
            <stop offset="0.9" stop-color="white" stop-opacity="0.07"/>
            <stop offset="1" stop-color="white" stop-opacity="0"/>
        </linearGradient>
        <linearGradient id="paint38_linear_135_11728" x1="306.47" y1="51.4801" x2="294.91" y2="25.9501" gradientUnits="userSpaceOnUse">
            <stop stop-color="white"/>
            <stop offset="0.04" stop-color="white" stop-opacity="0.96"/>
            <stop offset="0.4" stop-color="white" stop-opacity="0.55"/>
            <stop offset="0.69" stop-color="white" stop-opacity="0.26"/>
            <stop offset="0.9" stop-color="white" stop-opacity="0.07"/>
            <stop offset="1" stop-color="white" stop-opacity="0"/>
        </linearGradient>
        <linearGradient id="paint39_linear_135_11728" x1="311.53" y1="49.1899" x2="299.97" y2="23.6499" gradientUnits="userSpaceOnUse">
            <stop stop-color="white"/>
            <stop offset="0.04" stop-color="white" stop-opacity="0.96"/>
            <stop offset="0.4" stop-color="white" stop-opacity="0.55"/>
            <stop offset="0.69" stop-color="white" stop-opacity="0.26"/>
            <stop offset="0.9" stop-color="white" stop-opacity="0.07"/>
            <stop offset="1" stop-color="white" stop-opacity="0"/>
        </linearGradient>
    </defs>
</svg>
