<svg width="349" height="22" viewBox="0 0 349 22" xmlns="http://www.w3.org/2000/svg">
    <path d="M135.6 7.18998H202.48L196.84 0.819977L197.37 0.349976L203.43 7.17998H236.25L236.37 7.70998L237.06 10.71H255.29V11.41H237.2L237.52 12.81H250.78V13.37H338.78L348.25 19.59V20.4L338.58 14.05H250.78V14.57H211.46V12.83H236.14L235.82 11.43H206.24L206.13 11.31L203.67 8.53998H136.13L135.53 11.15H194.67V11.85H135.37L134.79 14.39H161.79C161.904 14.0582 162.101 13.7609 162.362 13.526C162.623 13.2912 162.939 13.1265 163.281 13.0475C163.623 12.9686 163.98 12.9778 164.317 13.0744C164.654 13.1711 164.962 13.3519 165.21 13.6C165.402 13.7924 165.555 14.0208 165.659 14.2721C165.763 14.5235 165.817 14.7929 165.817 15.065C165.817 15.3371 165.763 15.6065 165.659 15.8578C165.555 16.1092 165.402 16.3376 165.21 16.53C165.018 16.7224 164.789 16.875 164.538 16.9791C164.286 17.0832 164.017 17.1368 163.745 17.1368C163.473 17.1368 163.204 17.0832 162.952 16.9791C162.701 16.875 162.472 16.7224 162.28 16.53C162.059 16.307 161.892 16.0369 161.79 15.74H134.48L133.89 18.31H132.51L133.1 15.74H105.1V15.48H10.42L0.75 21.83V21L10.22 14.78H105.12V14.36H133.4L133.98 11.82H119.6L119.49 11.7L114.84 6.45998L115.37 5.98997L119.91 11.12H134.15L134.94 7.67998L135.06 7.14998L135.6 7.18998ZM200.5 18.19V15.11H203.81V18.42H200.5V18.18V18.19ZM200.97 15.58V18H203.34V15.6L200.97 15.58ZM196.39 18.19V15.11H199.7V18.42H196.39V18.18V18.19ZM196.86 15.58V18H199.23V15.6L196.86 15.58ZM192.28 18.19V15.11H195.59V18.42H192.28V18.18V18.19ZM192.75 15.58V18H195.12V15.6L192.75 15.58ZM235.67 10.71L235.17 8.51997H204.61L206.55 10.71H235.67ZM164.77 14.07C164.505 13.8048 164.145 13.6558 163.77 13.6558C163.395 13.6558 163.035 13.8048 162.77 14.07C162.505 14.3352 162.356 14.6949 162.356 15.07C162.356 15.445 162.505 15.8048 162.77 16.07C163.035 16.3352 163.395 16.4842 163.77 16.4842C164.145 16.4842 164.505 16.3352 164.77 16.07C165.035 15.8048 165.184 15.445 165.184 15.07C165.184 14.6949 165.035 14.3352 164.77 14.07Z"/>
</svg>
