<svg width="349" height="22" viewBox="0 0 349 22" xmlns="http://www.w3.org/2000/svg">
    <path d="M135.6 15.0001H135.06L134.94 14.4701L134.15 11.0301H119.91L115.37 16.1601L114.84 15.6901L119.49 10.4501L119.6 10.3301H134L133.42 7.79008H105.12V7.37009H10.22L0.75 1.15009V0.340088L10.42 6.69009H105.12V6.43008H133.12L132.53 3.86009H133.91L134.5 6.43008H161.83C161.932 6.13316 162.099 5.86308 162.32 5.64009C162.512 5.4477 162.741 5.2951 162.992 5.19098C163.243 5.08686 163.513 5.03326 163.785 5.03326C164.057 5.03326 164.326 5.08686 164.578 5.19098C164.829 5.2951 165.058 5.4477 165.25 5.64009C165.442 5.83248 165.595 6.06088 165.699 6.31224C165.803 6.56361 165.857 6.83301 165.857 7.10509C165.857 7.37716 165.803 7.64658 165.699 7.89795C165.595 8.14931 165.442 8.37771 165.25 8.5701C165.002 8.81815 164.694 8.99899 164.357 9.09563C164.02 9.19226 163.663 9.20152 163.321 9.12253C162.979 9.04353 162.663 8.87887 162.402 8.64404C162.141 8.40921 161.944 8.11192 161.83 7.78009H134.83L135.41 10.3201H194.72V11.0201H135.53L136.13 13.6301H203.67L206.13 10.8601L206.24 10.7401H235.82L236.14 9.34009H211.46V7.6001H250.78V8.12009H338.58L348.25 1.7701V2.58009L338.78 8.80009H250.78V9.36009H237.52L237.2 10.7601H255.27V11.4601H237L236.31 14.4601L236.19 14.9901H203.41L197.35 21.8201L196.82 21.3501L202.46 14.9801L135.6 15.0001ZM200.5 4.00009V3.76009H203.81V7.0701H200.5V4.00009ZM200.97 6.61009H203.34V4.2401H201V6.61009H200.97ZM196.38 4.00009V3.76009H199.69V7.0701H196.38V4.00009ZM196.85 6.61009H199.22V4.2401H196.85V6.61009ZM192.27 4.00009V3.76009H195.58V7.0701H192.27V4.00009ZM192.74 6.61009H195.11V4.2401H192.74V6.61009ZM235.66 11.4801H206.55L204.61 13.6701H235.15L235.65 11.4801H235.66ZM164.76 8.12009C165.025 7.85487 165.174 7.49516 165.174 7.12009C165.174 6.74501 165.025 6.3853 164.76 6.12009C164.495 5.85487 164.135 5.70587 163.76 5.70587C163.385 5.70587 163.025 5.85487 162.76 6.12009C162.495 6.3853 162.346 6.74501 162.346 7.12009C162.346 7.49516 162.495 7.85487 162.76 8.12009C163.025 8.3853 163.385 8.5343 163.76 8.5343C164.135 8.5343 164.495 8.3853 164.76 8.12009Z"/>
</svg>
