<?xml version="1.0" encoding="UTF-8"?>
<svg id="_图层_2" data-name="图层 2" xmlns="http://www.w3.org/2000/svg" xmlns:xlink="http://www.w3.org/1999/xlink" viewBox="0 0 376.01 51.33">
  <defs>
    <style>
      .cls-1 {
        fill: url(#_未命名的渐变_7-3);
      }

      .cls-2 {
        fill: url(#_未命名的渐变_7-19);
      }

      .cls-3 {
        fill: url(#_未命名的渐变_7-15);
      }

      .cls-4 {
        stroke-linecap: round;
        stroke-linejoin: round;
        stroke-width: .29px;
      }

      .cls-4, .cls-5, .cls-6 {
        fill: none;
        stroke: #9f60f4;
      }

      .cls-7 {
        fill: url(#_未命名的渐变_7-6);
      }

      .cls-8 {
        fill: url(#_未命名的渐变_4-11);
      }

      .cls-9 {
        fill: url(#_未命名的渐变_4-14);
      }

      .cls-10 {
        fill: url(#_未命名的渐变_4-2);
      }

      .cls-11 {
        fill: url(#_未命名的渐变_4-15);
      }

      .cls-12 {
        fill: url(#_未命名的渐变_7-11);
      }

      .cls-13 {
        fill: url(#_未命名的渐变_4-8);
      }

      .cls-14 {
        fill: url(#_未命名的渐变_4-18);
      }

      .cls-15 {
        fill: url(#_未命名的渐变_4-5);
      }

      .cls-16 {
        fill: url(#_未命名的渐变_4);
      }

      .cls-17 {
        fill: url(#_未命名的渐变_7-14);
      }

      .cls-18 {
        fill: url(#_未命名的渐变_7-18);
      }

      .cls-19 {
        fill: url(#_未命名的渐变_7-8);
      }

      .cls-20 {
        fill: url(#_未命名的渐变_4-10);
      }

      .cls-21 {
        fill: url(#_未命名的渐变_4-12);
      }

      .cls-22 {
        fill: url(#_未命名的渐变_4-4);
      }

      .cls-23 {
        fill: url(#_未命名的渐变_7-10);
      }

      .cls-24 {
        fill: url(#_未命名的渐变_7-7);
      }

      .cls-25 {
        fill: url(#_未命名的渐变_7-17);
      }

      .cls-26 {
        fill: url(#_未命名的渐变_7-9);
      }

      .cls-27 {
        fill: url(#_未命名的渐变_4-3);
      }

      .cls-28 {
        fill: url(#_未命名的渐变_4-13);
      }

      .cls-29 {
        fill: url(#_未命名的渐变_4-6);
      }

      .cls-30 {
        fill: url(#_未命名的渐变_7-13);
      }

      .cls-31 {
        fill: url(#_未命名的渐变_7-2);
      }

      .cls-32 {
        fill: url(#_未命名的渐变_4-17);
      }

      .cls-33 {
        fill: url(#_未命名的渐变_7-16);
      }

      .cls-34 {
        fill: url(#_未命名的渐变_4-7);
      }

      .cls-35 {
        fill: url(#_未命名的渐变_4-9);
      }

      .cls-36 {
        fill: url(#_未命名的渐变_7-12);
      }

      .cls-5 {
        stroke-width: .57px;
      }

      .cls-5, .cls-6 {
        stroke-miterlimit: 10;
      }

      .cls-6 {
        stroke-width: .5px;
      }

      .cls-37 {
        fill: url(#_未命名的渐变_4-16);
      }

      .cls-38 {
        fill: url(#_未命名的渐变_7-4);
      }

      .cls-39 {
        fill: url(#_未命名的渐变_7-20);
      }

      .cls-40 {
        fill: url(#_未命名的渐变_7-5);
      }

      .cls-41 {
        fill: url(#_未命名的渐变_7);
      }
    </style>
    <linearGradient id="_未命名的渐变_7" data-name="未命名的渐变 7" x1="91.05" y1="-3027.43" x2="206.63" y2="-3027.43" gradientTransform="translate(.04 -3001.71) scale(1 -1)" gradientUnits="userSpaceOnUse">
      <stop offset="0" stop-color="#fff"/>
      <stop offset="1" stop-color="#000" stop-opacity="0"/>
    </linearGradient>
    <linearGradient id="_未命名的渐变_7-2" data-name="未命名的渐变 7" x1="91.05" x2="206.62" xlink:href="#_未命名的渐变_7"/>
    <linearGradient id="_未命名的渐变_7-3" data-name="未命名的渐变 7" x1="91.05" xlink:href="#_未命名的渐变_7"/>
    <linearGradient id="_未命名的渐变_7-4" data-name="未命名的渐变 7" x1="91.05" xlink:href="#_未命名的渐变_7"/>
    <linearGradient id="_未命名的渐变_7-5" data-name="未命名的渐变 7" x1="91.04" xlink:href="#_未命名的渐变_7"/>
    <linearGradient id="_未命名的渐变_7-6" data-name="未命名的渐变 7" x1="91.05" xlink:href="#_未命名的渐变_7"/>
    <linearGradient id="_未命名的渐变_7-7" data-name="未命名的渐变 7" x1="91.04" xlink:href="#_未命名的渐变_7"/>
    <linearGradient id="_未命名的渐变_7-8" data-name="未命名的渐变 7" x1="91.04" xlink:href="#_未命名的渐变_7"/>
    <linearGradient id="_未命名的渐变_7-9" data-name="未命名的渐变 7" x1="91.05" xlink:href="#_未命名的渐变_7"/>
    <linearGradient id="_未命名的渐变_7-10" data-name="未命名的渐变 7" x1="283.64" y1="-3027.44" x2="168.06" y2="-3027.44" xlink:href="#_未命名的渐变_7"/>
    <linearGradient id="_未命名的渐变_7-11" data-name="未命名的渐变 7" x1="283.63" y1="-3027.44" x2="168.05" y2="-3027.44" xlink:href="#_未命名的渐变_7"/>
    <linearGradient id="_未命名的渐变_7-12" data-name="未命名的渐变 7" x1="283.63" y1="-3027.44" x2="168.05" y2="-3027.44" xlink:href="#_未命名的渐变_7"/>
    <linearGradient id="_未命名的渐变_7-13" data-name="未命名的渐变 7" x1="283.64" y1="-3027.44" x2="168.06" y2="-3027.44" xlink:href="#_未命名的渐变_7"/>
    <linearGradient id="_未命名的渐变_7-14" data-name="未命名的渐变 7" x1="283.64" y1="-3027.44" x2="168.06" y2="-3027.44" xlink:href="#_未命名的渐变_7"/>
    <linearGradient id="_未命名的渐变_7-15" data-name="未命名的渐变 7" x1="283.63" y1="-3027.44" x2="168.05" y2="-3027.44" xlink:href="#_未命名的渐变_7"/>
    <linearGradient id="_未命名的渐变_7-16" data-name="未命名的渐变 7" x1="283.63" y1="-3027.44" x2="168.05" y2="-3027.44" xlink:href="#_未命名的渐变_7"/>
    <linearGradient id="_未命名的渐变_7-17" data-name="未命名的渐变 7" x1="283.64" y1="-3027.44" x2="168.06" y2="-3027.44" xlink:href="#_未命名的渐变_7"/>
    <linearGradient id="_未命名的渐变_7-18" data-name="未命名的渐变 7" x1="283.63" y1="-3027.44" x2="168.05" y2="-3027.44" xlink:href="#_未命名的渐变_7"/>
    <linearGradient id="_未命名的渐变_7-19" data-name="未命名的渐变 7" x1="283.63" y1="-3027.44" x2="168.05" y2="-3027.44" xlink:href="#_未命名的渐变_7"/>
    <linearGradient id="_未命名的渐变_7-20" data-name="未命名的渐变 7" x1="283.64" y1="-3027.44" x2="168.06" y2="-3027.44" xlink:href="#_未命名的渐变_7"/>
    <linearGradient id="_未命名的渐变_4" data-name="未命名的渐变 4" x1="192.86" y1="-3003.94" x2="176.51" y2="-3040.05" gradientTransform="translate(.04 -3001.71) scale(1 -1)" gradientUnits="userSpaceOnUse">
      <stop offset="0" stop-color="#fff"/>
      <stop offset=".04" stop-color="#fff" stop-opacity=".96"/>
      <stop offset=".4" stop-color="#fff" stop-opacity=".55"/>
      <stop offset=".69" stop-color="#fff" stop-opacity=".26"/>
      <stop offset=".9" stop-color="#fff" stop-opacity=".07"/>
      <stop offset="1" stop-color="#fff" stop-opacity="0"/>
    </linearGradient>
    <linearGradient id="_未命名的渐变_4-2" data-name="未命名的渐变 4" x1="205.47" y1="-3009.64" x2="189.12" y2="-3045.75" xlink:href="#_未命名的渐变_4"/>
    <linearGradient id="_未命名的渐变_4-3" data-name="未命名的渐变 4" x1="198.56" y1="-3006.52" x2="182.21" y2="-3042.63" xlink:href="#_未命名的渐变_4"/>
    <linearGradient id="_未命名的渐变_4-4" data-name="未命名的渐变 4" x1="204.67" y1="-3009.29" x2="188.32" y2="-3045.39" xlink:href="#_未命名的渐变_4"/>
    <linearGradient id="_未命名的渐变_4-5" data-name="未命名的渐变 4" x1="192.04" y1="-3003.56" x2="175.69" y2="-3039.67" xlink:href="#_未命名的渐变_4"/>
    <linearGradient id="_未命名的渐变_4-6" data-name="未命名的渐变 4" x1="199.2" y1="-3006.81" x2="182.85" y2="-3042.91" xlink:href="#_未命名的渐变_4"/>
    <linearGradient id="_未命名的渐变_4-7" data-name="未命名的渐变 4" x1="74.85" y1="-3052.54" x2="63.29" y2="-3027.01" xlink:href="#_未命名的渐变_4"/>
    <linearGradient id="_未命名的渐变_4-8" data-name="未命名的渐变 4" x1="83.72" y1="-3048.52" x2="72.15" y2="-3022.99" xlink:href="#_未命名的渐变_4"/>
    <linearGradient id="_未命名的渐变_4-9" data-name="未命名的渐变 4" x1="78.84" y1="-3050.73" x2="67.27" y2="-3025.2" xlink:href="#_未命名的渐变_4"/>
    <linearGradient id="_未命名的渐变_4-10" data-name="未命名的渐变 4" x1="83.16" y1="-3048.77" x2="71.6" y2="-3023.24" xlink:href="#_未命名的渐变_4"/>
    <linearGradient id="_未命名的渐变_4-11" data-name="未命名的渐变 4" x1="74.22" y1="-3052.83" x2="62.66" y2="-3027.3" xlink:href="#_未命名的渐变_4"/>
    <linearGradient id="_未命名的渐变_4-12" data-name="未命名的渐变 4" x1="79.3" y1="-3050.53" x2="67.73" y2="-3024.99" xlink:href="#_未命名的渐变_4"/>
    <linearGradient id="_未命名的渐变_4-13" data-name="未命名的渐变 4" x1="306.56" y1="-3052.54" x2="295" y2="-3027.01" xlink:href="#_未命名的渐变_4"/>
    <linearGradient id="_未命名的渐变_4-14" data-name="未命名的渐变 4" x1="315.43" y1="-3048.52" x2="303.87" y2="-3022.99" xlink:href="#_未命名的渐变_4"/>
    <linearGradient id="_未命名的渐变_4-15" data-name="未命名的渐变 4" x1="310.55" y1="-3050.73" x2="298.98" y2="-3025.2" xlink:href="#_未命名的渐变_4"/>
    <linearGradient id="_未命名的渐变_4-16" data-name="未命名的渐变 4" x1="314.87" y1="-3048.77" x2="303.31" y2="-3023.24" xlink:href="#_未命名的渐变_4"/>
    <linearGradient id="_未命名的渐变_4-17" data-name="未命名的渐变 4" x1="305.93" y1="-3052.83" x2="294.37" y2="-3027.3" xlink:href="#_未命名的渐变_4"/>
    <linearGradient id="_未命名的渐变_4-18" data-name="未命名的渐变 4" x1="311" y1="-3050.53" x2="299.44" y2="-3024.99" xlink:href="#_未命名的渐变_4"/>
  </defs>
  <g id="_图层_1-2" data-name="图层 1">
    <g>
      <path class="cls-5" d="m48.37,18.91h-2.42l-1.21,2.09,1.21,2.1h2.42l1.21-2.1-1.21-2.09Z"/>
      <path class="cls-5" d="m331,18.91h-2.42l-1.21,2.09,1.21,2.1h2.42l1.21-2.1-1.21-2.09Z"/>
      <path class="cls-4" d="m47.16,20.97h282.63"/>
      <path class="cls-5" d="m63.64,2.18l28.42,28.42h188.43L310.89.2"/>
      <path class="cls-41" d="m99.04,23.62h-1.85v4.2h1.85v-4.2Z"/>
      <path class="cls-31" d="m105.09,23.62h-1.85v4.2h1.85v-4.2Z"/>
      <path class="cls-1" d="m111.13,23.62h-1.85v4.2h1.85v-4.2Z"/>
      <path class="cls-41" d="m117.18,23.62h-1.85v4.2h1.85v-4.2Z"/>
      <path class="cls-38" d="m123.23,23.62h-1.85v4.2h1.85v-4.2Z"/>
      <path class="cls-41" d="m129.27,23.62h-1.85v4.2h1.85v-4.2Z"/>
      <path class="cls-40" d="m135.32,23.62h-1.85v4.2h1.85v-4.2Z"/>
      <path class="cls-7" d="m141.37,23.62h-1.85v4.2h1.85v-4.2Z"/>
      <path class="cls-24" d="m147.41,23.62h-1.85v4.2h1.85v-4.2Z"/>
      <path class="cls-19" d="m153.46,23.62h-1.85v4.2h1.85v-4.2Z"/>
      <path class="cls-26" d="m159.5,23.62h-1.85v4.2h1.85v-4.2Z"/>
      <path class="cls-23" d="m275.71,27.83h1.85v-4.2h-1.85v4.2Z"/>
      <path class="cls-12" d="m269.65,27.83h1.85v-4.2h-1.85v4.2Z"/>
      <path class="cls-36" d="m263.61,27.83h1.85v-4.2h-1.85v4.2Z"/>
      <path class="cls-30" d="m257.57,27.83h1.85v-4.2h-1.85v4.2Z"/>
      <path class="cls-17" d="m251.52,27.83h1.85v-4.2h-1.85v4.2Z"/>
      <path class="cls-3" d="m245.47,27.83h1.85v-4.2h-1.85v4.2Z"/>
      <path class="cls-33" d="m239.43,27.83h1.85v-4.2h-1.85v4.2Z"/>
      <path class="cls-25" d="m233.38,27.83h1.85v-4.2h-1.85v4.2Z"/>
      <path class="cls-18" d="m227.33,27.83h1.85v-4.2h-1.85v4.2Z"/>
      <path class="cls-2" d="m221.28,27.83h1.85v-4.2h-1.85v4.2Z"/>
      <path class="cls-39" d="m215.24,27.83h1.85v-4.2h-1.85v4.2Z"/>
      <path class="cls-16" d="m181.32,33.63c.92-.97,1.84-1.92,2.77-2.87l.4-.4c-1.22-1.25-1.94-2.9-2-4.65h-4.56c.06,2.98,1.28,5.82,3.39,7.92Z"/>
      <path class="cls-10" d="m196.47,25.71c-.07,1.75-.79,3.4-2.01,4.65-1.23,1.24-2.88,1.98-4.62,2.07v4.56c2.95-.09,5.76-1.31,7.84-3.41,2.08-2.1,3.29-4.91,3.36-7.86h-4.56Z"/>
      <path class="cls-27" d="m197.64,17.24c-2.08-2.08-4.88-3.29-7.82-3.38v4.56c1.62.08,3.16.72,4.36,1.81,1.13-1.02,2.29-2.01,3.46-2.99Z"/>
      <path class="cls-22" d="m194.58,20.63c1.12,1.2,1.79,2.76,1.88,4.4h4.56c-.09-2.74-1.16-5.35-3-7.37-1.15.97-2.31,1.96-3.44,2.97Z"/>
      <path class="cls-15" d="m182.46,25.02c.1-1.74.84-3.39,2.09-4.61,1.25-1.22,2.91-1.94,4.65-2v-4.56c-2.95.07-5.76,1.27-7.86,3.34-2.1,2.08-3.32,4.88-3.43,7.83h4.55Z"/>
      <path class="cls-29" d="m184.65,31c-.98,1-1.95,2-2.92,3,2.05,1.87,4.7,2.93,7.47,3v-4.56c-1.58-.06-3.1-.65-4.3-1.68l-.25.24Z"/>
      <path class="cls-34" d="m66.66,28.64c.67.67,1.33,1.33,2,2l.28.28c-.87.88-1.38,2.05-1.43,3.29h-3.22c.05-2.09.89-4.09,2.37-5.57Z"/>
      <path class="cls-13" d="m77.37,34.24c-.06-1.23-.57-2.4-1.44-3.27-.87-.88-2.03-1.4-3.26-1.48v-3.22c2.09.07,4.08.93,5.56,2.42,1.47,1.49,2.32,3.49,2.36,5.58l-3.22-.03Z"/>
      <path class="cls-35" d="m78.2,40.23c-1.47,1.47-3.45,2.33-5.53,2.39v-3.22c1.14-.06,2.23-.51,3.08-1.28.83.72,1.63,1.41,2.45,2.11Z"/>
      <path class="cls-20" d="m76.04,37.83c.8-.85,1.27-1.95,1.33-3.11h3.21c-.06,1.93-.81,3.78-2.11,5.21-.81-.68-1.63-1.38-2.43-2.1Z"/>
      <path class="cls-8" d="m67.47,34.73c.08,1.23.61,2.39,1.48,3.25.88.86,2.04,1.37,3.28,1.43v3.22c-2.09-.04-4.08-.89-5.57-2.36-1.49-1.47-2.36-3.45-2.43-5.54h3.24Z"/>
      <path class="cls-21" d="m69.01,30.5c-.67-.71-1.35-1.42-2.06-2.14,1.45-1.31,3.33-2.05,5.28-2.09v3.22c-1.1.05-2.16.47-3,1.19l-.22-.18Z"/>
      <path class="cls-28" d="m298.37,28.64l2,2,.28.28c-.87.88-1.38,2.05-1.43,3.29h-3.22c.05-2.09.89-4.09,2.37-5.57Z"/>
      <path class="cls-9" d="m309.08,34.24c-.06-1.23-.57-2.4-1.44-3.27-.87-.88-2.03-1.4-3.26-1.48v-3.22c2.09.07,4.08.93,5.55,2.42,1.47,1.49,2.32,3.49,2.36,5.58l-3.22-.03Z"/>
      <path class="cls-11" d="m309.91,40.23c-1.47,1.47-3.45,2.33-5.53,2.39v-3.22c1.14-.06,2.23-.51,3.08-1.28.8.72,1.62,1.41,2.45,2.11Z"/>
      <path class="cls-37" d="m307.75,37.83c.8-.85,1.27-1.95,1.33-3.11h3.22c-.06,1.93-.81,3.78-2.11,5.21-.83-.68-1.61-1.38-2.44-2.1Z"/>
      <path class="cls-32" d="m299.18,34.73c.08,1.23.61,2.39,1.49,3.25.88.86,2.04,1.37,3.27,1.43v3.22c-2.09-.04-4.08-.89-5.57-2.36-1.49-1.47-2.36-3.45-2.43-5.54h3.24Z"/>
      <path class="cls-14" d="m300.72,30.5c-.67-.71-1.35-1.42-2.06-2.14,1.45-1.31,3.33-2.05,5.28-2.09v3.22c-1.11.05-2.16.47-3,1.19l-.22-.18Z"/>
      <path class="cls-6" d="m72.42,34.24h-27.68L.09,51.09"/>
      <path class="cls-6" d="m303.58,34.24h27.68l44.66,16.85"/>
    </g>
  </g>
</svg>
