<?xml version="1.0" encoding="utf-8"?>
<!-- Generator: Adobe Illustrator 27.5.0, SVG Export Plug-In . SVG Version: 6.00 Build 0)  -->
<svg version="1.1" id="_图层_2" xmlns="http://www.w3.org/2000/svg" xmlns:xlink="http://www.w3.org/1999/xlink" x="0px" y="0px"
	 viewBox="0 0 376 51.3" style="enable-background:new 0 0 376 51.3;" xml:space="preserve">
<style type="text/css">
	.st0{fill:none;stroke:#9F60F4;stroke-width:0.57;stroke-miterlimit:10;}
	.st1{fill:none;stroke:#9F60F4;stroke-width:0.29;stroke-linecap:round;stroke-linejoin:round;}
	.st2{fill:url(#SVGID_1_);}
	.st3{fill:url(#SVGID_00000028298316295913028870000015937994444702651524_);}
	.st4{fill:url(#SVGID_00000064340168283187382760000006781232395005563046_);}
	.st5{fill:url(#SVGID_00000134239203226724480340000004456503551989395120_);}
	.st6{fill:url(#SVGID_00000009584551251665722910000012899564975317645746_);}
	.st7{fill:url(#SVGID_00000104683687283475670990000004708712817254594469_);}
	.st8{fill:url(#SVGID_00000075150223874494356760000004763465764339278249_);}
	.st9{fill:url(#SVGID_00000060002255403734168230000011821795347407233707_);}
	.st10{fill:url(#SVGID_00000057110042819223965280000010019304009096132753_);}
	.st11{fill:url(#SVGID_00000152951012782050305910000003986495487121290371_);}
	.st12{fill:url(#SVGID_00000181057807170462134120000003518353016406463135_);}
	.st13{fill:url(#SVGID_00000103960190077215167690000006635841662547362711_);}
	.st14{fill:url(#SVGID_00000012451656790845806180000007557117118515777431_);}
	.st15{fill:url(#SVGID_00000181054223727826933990000003043728524196842123_);}
	.st16{fill:url(#SVGID_00000062888474535520721660000015309744561399577249_);}
	.st17{fill:url(#SVGID_00000088103147047948833840000011889103634667382947_);}
	.st18{fill:url(#SVGID_00000111167745937614836520000014135729943989624466_);}
	.st19{fill:url(#SVGID_00000147217506343517739040000000882488503623028653_);}
	.st20{fill:url(#SVGID_00000023972937899137100500000015696951506162693547_);}
	.st21{fill:url(#SVGID_00000176724940915469163870000005708958928725312429_);}
	.st22{fill:url(#SVGID_00000048482673745691273260000000995287754214414266_);}
	.st23{fill:url(#SVGID_00000093882973751603423400000009176326565310858934_);}
	.st24{fill:url(#SVGID_00000054951612503434417420000014992108084482697856_);}
	.st25{fill:url(#SVGID_00000155833305517396778270000013325282372469734826_);}
	.st26{fill:url(#SVGID_00000085972739431091750010000007821220296788641959_);}
	.st27{fill:url(#SVGID_00000019667737595701384440000011975244075332294074_);}
	.st28{fill:url(#SVGID_00000124145751293602681030000003020898204643118779_);}
	.st29{fill:url(#SVGID_00000150786336603123871080000011905457402951890363_);}
	.st30{fill:url(#SVGID_00000125594148583551437470000000453215433982629808_);}
	.st31{fill:url(#SVGID_00000001660779974565258580000014250194672603414974_);}
	.st32{fill:url(#SVGID_00000011723184099013010380000014673054352568182401_);}
	.st33{fill:url(#SVGID_00000131348620183843364200000003207352137312972191_);}
	.st34{fill:url(#SVGID_00000180326933799299864790000013716739127707817128_);}
	.st35{fill:url(#SVGID_00000083792395131292166210000007334134644379643520_);}
	.st36{fill:url(#SVGID_00000110465248952762828190000017441027066017006783_);}
	.st37{fill:url(#SVGID_00000117658419373428844960000015987449388722744470_);}
	.st38{fill:url(#SVGID_00000084525998519296078730000002189397316679003576_);}
	.st39{fill:url(#SVGID_00000155842316681306309340000014326576732167934084_);}
	.st40{fill:url(#SVGID_00000086683714294635120350000007243594322321062787_);}
	.st41{fill:url(#SVGID_00000157269606780457159640000017130202672934230425_);}
	.st42{fill:none;stroke:#9F60F4;stroke-width:0.5;stroke-miterlimit:10;}
</style>
<g id="_图层_1-2">
	<g>
		<path class="st0" d="M327.6,32.4h2.4l1.2-2.1l-1.2-2.1h-2.4l-1.2,2.1C326.4,30.3,327.6,32.4,327.6,32.4z"/>
		<path class="st0" d="M45,32.4h2.4l1.2-2.1l-1.2-2.1H45l-1.2,2.1L45,32.4z"/>
		<path class="st1" d="M328.8,30.3H46.2"/>
		<path class="st0" d="M312.4,49.1l-28.4-28.4H95.5L65.1,51.1"/>

			<linearGradient id="SVGID_1_" gradientUnits="userSpaceOnUse" x1="91.05" y1="3869.3198" x2="206.63" y2="3869.3198" gradientTransform="matrix(-1 0 0 -1 375.97 3894.8899)">
			<stop  offset="0" style="stop-color:#FFFFFF"/>
			<stop  offset="1" style="stop-color:#000000;stop-opacity:0"/>
		</linearGradient>
		<path class="st2" d="M277,27.7h1.9v-4.2H277C277,23.5,277,27.7,277,27.7z"/>

			<linearGradient id="SVGID_00000133525598492210255920000002872276121512620711_" gradientUnits="userSpaceOnUse" x1="91.05" y1="3869.3198" x2="206.62" y2="3869.3198" gradientTransform="matrix(-1 0 0 -1 375.97 3894.8899)">
			<stop  offset="0" style="stop-color:#FFFFFF"/>
			<stop  offset="1" style="stop-color:#000000;stop-opacity:0"/>
		</linearGradient>
		<path style="fill:url(#SVGID_00000133525598492210255920000002872276121512620711_);" d="M270.9,27.7h1.9v-4.2h-1.9
			C270.9,23.5,270.9,27.7,270.9,27.7z"/>

			<linearGradient id="SVGID_00000093137263049914886640000003081853363280957375_" gradientUnits="userSpaceOnUse" x1="91.05" y1="3869.3198" x2="206.63" y2="3869.3198" gradientTransform="matrix(-1 0 0 -1 375.97 3894.8899)">
			<stop  offset="0" style="stop-color:#FFFFFF"/>
			<stop  offset="1" style="stop-color:#000000;stop-opacity:0"/>
		</linearGradient>
		<path style="fill:url(#SVGID_00000093137263049914886640000003081853363280957375_);" d="M264.9,27.7h1.9v-4.2h-1.9
			C264.9,23.5,264.9,27.7,264.9,27.7z"/>

			<linearGradient id="SVGID_00000083060523761589209940000001025531035896070281_" gradientUnits="userSpaceOnUse" x1="91.05" y1="3869.3198" x2="206.63" y2="3869.3198" gradientTransform="matrix(-1 0 0 -1 375.97 3894.8899)">
			<stop  offset="0" style="stop-color:#FFFFFF"/>
			<stop  offset="1" style="stop-color:#000000;stop-opacity:0"/>
		</linearGradient>
		<path style="fill:url(#SVGID_00000083060523761589209940000001025531035896070281_);" d="M258.8,27.7h1.9v-4.2h-1.9
			C258.8,23.5,258.8,27.7,258.8,27.7z"/>

			<linearGradient id="SVGID_00000063619802458267713220000007173978031026035119_" gradientUnits="userSpaceOnUse" x1="91.05" y1="3869.3198" x2="206.63" y2="3869.3198" gradientTransform="matrix(-1 0 0 -1 375.97 3894.8899)">
			<stop  offset="0" style="stop-color:#FFFFFF"/>
			<stop  offset="1" style="stop-color:#000000;stop-opacity:0"/>
		</linearGradient>
		<path style="fill:url(#SVGID_00000063619802458267713220000007173978031026035119_);" d="M252.8,27.7h1.8v-4.2h-1.8
			C252.8,23.5,252.8,27.7,252.8,27.7z"/>

			<linearGradient id="SVGID_00000111193148146660606750000018270887934486551196_" gradientUnits="userSpaceOnUse" x1="91.05" y1="3869.3198" x2="206.63" y2="3869.3198" gradientTransform="matrix(-1 0 0 -1 375.97 3894.8899)">
			<stop  offset="0" style="stop-color:#FFFFFF"/>
			<stop  offset="1" style="stop-color:#000000;stop-opacity:0"/>
		</linearGradient>
		<path style="fill:url(#SVGID_00000111193148146660606750000018270887934486551196_);" d="M246.7,27.7h1.9v-4.2h-1.9
			C246.7,23.5,246.7,27.7,246.7,27.7z"/>

			<linearGradient id="SVGID_00000106138189149880809210000002011466471909649589_" gradientUnits="userSpaceOnUse" x1="91.04" y1="3869.3198" x2="206.63" y2="3869.3198" gradientTransform="matrix(-1 0 0 -1 375.97 3894.8899)">
			<stop  offset="0" style="stop-color:#FFFFFF"/>
			<stop  offset="1" style="stop-color:#000000;stop-opacity:0"/>
		</linearGradient>
		<path style="fill:url(#SVGID_00000106138189149880809210000002011466471909649589_);" d="M240.7,27.7h1.9v-4.2h-1.9
			C240.7,23.5,240.7,27.7,240.7,27.7z"/>

			<linearGradient id="SVGID_00000147937313872487604510000000623127678768224402_" gradientUnits="userSpaceOnUse" x1="91.05" y1="3869.3198" x2="206.63" y2="3869.3198" gradientTransform="matrix(-1 0 0 -1 375.97 3894.8899)">
			<stop  offset="0" style="stop-color:#FFFFFF"/>
			<stop  offset="1" style="stop-color:#000000;stop-opacity:0"/>
		</linearGradient>
		<path style="fill:url(#SVGID_00000147937313872487604510000000623127678768224402_);" d="M234.6,27.7h1.9v-4.2h-1.9
			C234.6,23.5,234.6,27.7,234.6,27.7z"/>

			<linearGradient id="SVGID_00000132060492455322600420000006759067936505678747_" gradientUnits="userSpaceOnUse" x1="91.04" y1="3869.3198" x2="206.63" y2="3869.3198" gradientTransform="matrix(-1 0 0 -1 375.97 3894.8899)">
			<stop  offset="0" style="stop-color:#FFFFFF"/>
			<stop  offset="1" style="stop-color:#000000;stop-opacity:0"/>
		</linearGradient>
		<path style="fill:url(#SVGID_00000132060492455322600420000006759067936505678747_);" d="M228.6,27.7h1.9v-4.2h-1.9
			C228.6,23.5,228.6,27.7,228.6,27.7z"/>

			<linearGradient id="SVGID_00000148627810991555124010000011564376904631240329_" gradientUnits="userSpaceOnUse" x1="91.04" y1="3869.3198" x2="206.63" y2="3869.3198" gradientTransform="matrix(-1 0 0 -1 375.97 3894.8899)">
			<stop  offset="0" style="stop-color:#FFFFFF"/>
			<stop  offset="1" style="stop-color:#000000;stop-opacity:0"/>
		</linearGradient>
		<path style="fill:url(#SVGID_00000148627810991555124010000011564376904631240329_);" d="M222.5,27.7h1.9v-4.2h-1.9
			C222.5,23.5,222.5,27.7,222.5,27.7z"/>

			<linearGradient id="SVGID_00000024715566158333204180000004733657241571631021_" gradientUnits="userSpaceOnUse" x1="91.05" y1="3869.3198" x2="206.63" y2="3869.3198" gradientTransform="matrix(-1 0 0 -1 375.97 3894.8899)">
			<stop  offset="0" style="stop-color:#FFFFFF"/>
			<stop  offset="1" style="stop-color:#000000;stop-opacity:0"/>
		</linearGradient>
		<path style="fill:url(#SVGID_00000024715566158333204180000004733657241571631021_);" d="M216.5,27.7h1.9v-4.2h-1.9
			C216.5,23.5,216.5,27.7,216.5,27.7z"/>

			<linearGradient id="SVGID_00000016759692271274178270000018031284729336159671_" gradientUnits="userSpaceOnUse" x1="283.64" y1="3869.3298" x2="168.06" y2="3869.3298" gradientTransform="matrix(-1 0 0 -1 375.97 3894.8899)">
			<stop  offset="0" style="stop-color:#FFFFFF"/>
			<stop  offset="1" style="stop-color:#000000;stop-opacity:0"/>
		</linearGradient>
		<path style="fill:url(#SVGID_00000016759692271274178270000018031284729336159671_);" d="M100.3,23.5h-1.9v4.2h1.9
			C100.3,27.7,100.3,23.5,100.3,23.5z"/>

			<linearGradient id="SVGID_00000011712979317975316480000016228260620909866676_" gradientUnits="userSpaceOnUse" x1="283.63" y1="3869.3298" x2="168.05" y2="3869.3298" gradientTransform="matrix(-1 0 0 -1 375.97 3894.8899)">
			<stop  offset="0" style="stop-color:#FFFFFF"/>
			<stop  offset="1" style="stop-color:#000000;stop-opacity:0"/>
		</linearGradient>
		<path style="fill:url(#SVGID_00000011712979317975316480000016228260620909866676_);" d="M106.4,23.5h-1.9v4.2h1.9
			C106.4,27.7,106.4,23.5,106.4,23.5z"/>

			<linearGradient id="SVGID_00000164489484315457005410000007208988428766011275_" gradientUnits="userSpaceOnUse" x1="283.63" y1="3869.3298" x2="168.05" y2="3869.3298" gradientTransform="matrix(-1 0 0 -1 375.97 3894.8899)">
			<stop  offset="0" style="stop-color:#FFFFFF"/>
			<stop  offset="1" style="stop-color:#000000;stop-opacity:0"/>
		</linearGradient>
		<path style="fill:url(#SVGID_00000164489484315457005410000007208988428766011275_);" d="M112.4,23.5h-1.9v4.2h1.9
			C112.4,27.7,112.4,23.5,112.4,23.5z"/>

			<linearGradient id="SVGID_00000147194651800264578770000015595026143479760552_" gradientUnits="userSpaceOnUse" x1="283.64" y1="3869.3298" x2="168.06" y2="3869.3298" gradientTransform="matrix(-1 0 0 -1 375.97 3894.8899)">
			<stop  offset="0" style="stop-color:#FFFFFF"/>
			<stop  offset="1" style="stop-color:#000000;stop-opacity:0"/>
		</linearGradient>
		<path style="fill:url(#SVGID_00000147194651800264578770000015595026143479760552_);" d="M118.4,23.5h-1.9v4.2h1.9
			C118.4,27.7,118.4,23.5,118.4,23.5z"/>

			<linearGradient id="SVGID_00000112599704397231320250000018051119917343905924_" gradientUnits="userSpaceOnUse" x1="283.64" y1="3869.3298" x2="168.06" y2="3869.3298" gradientTransform="matrix(-1 0 0 -1 375.97 3894.8899)">
			<stop  offset="0" style="stop-color:#FFFFFF"/>
			<stop  offset="1" style="stop-color:#000000;stop-opacity:0"/>
		</linearGradient>
		<path style="fill:url(#SVGID_00000112599704397231320250000018051119917343905924_);" d="M124.5,23.5h-1.9v4.2h1.9
			C124.5,27.7,124.5,23.5,124.5,23.5z"/>

			<linearGradient id="SVGID_00000024680291236368324410000011590974341561855423_" gradientUnits="userSpaceOnUse" x1="283.63" y1="3869.3298" x2="168.05" y2="3869.3298" gradientTransform="matrix(-1 0 0 -1 375.97 3894.8899)">
			<stop  offset="0" style="stop-color:#FFFFFF"/>
			<stop  offset="1" style="stop-color:#000000;stop-opacity:0"/>
		</linearGradient>
		<path style="fill:url(#SVGID_00000024680291236368324410000011590974341561855423_);" d="M130.5,23.5h-1.9v4.2h1.9
			C130.5,27.7,130.5,23.5,130.5,23.5z"/>

			<linearGradient id="SVGID_00000018229126822574507110000014383311878109511311_" gradientUnits="userSpaceOnUse" x1="283.63" y1="3869.3298" x2="168.05" y2="3869.3298" gradientTransform="matrix(-1 0 0 -1 375.97 3894.8899)">
			<stop  offset="0" style="stop-color:#FFFFFF"/>
			<stop  offset="1" style="stop-color:#000000;stop-opacity:0"/>
		</linearGradient>
		<path style="fill:url(#SVGID_00000018229126822574507110000014383311878109511311_);" d="M136.6,23.5h-1.9v4.2h1.9
			C136.6,27.7,136.6,23.5,136.6,23.5z"/>

			<linearGradient id="SVGID_00000062882489346348336610000006118885465551463595_" gradientUnits="userSpaceOnUse" x1="283.64" y1="3869.3298" x2="168.06" y2="3869.3298" gradientTransform="matrix(-1 0 0 -1 375.97 3894.8899)">
			<stop  offset="0" style="stop-color:#FFFFFF"/>
			<stop  offset="1" style="stop-color:#000000;stop-opacity:0"/>
		</linearGradient>
		<path style="fill:url(#SVGID_00000062882489346348336610000006118885465551463595_);" d="M142.6,23.5h-1.9v4.2h1.9
			C142.6,27.7,142.6,23.5,142.6,23.5z"/>

			<linearGradient id="SVGID_00000023984394864538105190000005976093481663199923_" gradientUnits="userSpaceOnUse" x1="283.63" y1="3869.3298" x2="168.05" y2="3869.3298" gradientTransform="matrix(-1 0 0 -1 375.97 3894.8899)">
			<stop  offset="0" style="stop-color:#FFFFFF"/>
			<stop  offset="1" style="stop-color:#000000;stop-opacity:0"/>
		</linearGradient>
		<path style="fill:url(#SVGID_00000023984394864538105190000005976093481663199923_);" d="M148.7,23.5h-1.9v4.2h1.9
			C148.7,27.7,148.7,23.5,148.7,23.5z"/>

			<linearGradient id="SVGID_00000139976339313194573020000012657295383658064817_" gradientUnits="userSpaceOnUse" x1="283.63" y1="3869.3298" x2="168.05" y2="3869.3298" gradientTransform="matrix(-1 0 0 -1 375.97 3894.8899)">
			<stop  offset="0" style="stop-color:#FFFFFF"/>
			<stop  offset="1" style="stop-color:#000000;stop-opacity:0"/>
		</linearGradient>
		<path style="fill:url(#SVGID_00000139976339313194573020000012657295383658064817_);" d="M154.7,23.5h-1.9v4.2h1.9
			C154.7,27.7,154.7,23.5,154.7,23.5z"/>

			<linearGradient id="SVGID_00000061463766858240428920000015454242644807380885_" gradientUnits="userSpaceOnUse" x1="283.64" y1="3869.3298" x2="168.06" y2="3869.3298" gradientTransform="matrix(-1 0 0 -1 375.97 3894.8899)">
			<stop  offset="0" style="stop-color:#FFFFFF"/>
			<stop  offset="1" style="stop-color:#000000;stop-opacity:0"/>
		</linearGradient>
		<path style="fill:url(#SVGID_00000061463766858240428920000015454242644807380885_);" d="M160.8,23.5h-1.9v4.2h1.9
			C160.8,27.7,160.8,23.5,160.8,23.5z"/>

			<linearGradient id="SVGID_00000017513307214138167710000002495531017411731594_" gradientUnits="userSpaceOnUse" x1="192.8551" y1="3845.8276" x2="176.5051" y2="3881.9377" gradientTransform="matrix(-1 0 0 -1 375.97 3894.8899)">
			<stop  offset="0" style="stop-color:#FFFFFF"/>
			<stop  offset="4.000000e-02" style="stop-color:#FFFFFF;stop-opacity:0.96"/>
			<stop  offset="0.4" style="stop-color:#FFFFFF;stop-opacity:0.55"/>
			<stop  offset="0.69" style="stop-color:#FFFFFF;stop-opacity:0.26"/>
			<stop  offset="0.9" style="stop-color:#FFFFFF;stop-opacity:7.000000e-02"/>
			<stop  offset="1" style="stop-color:#FFFFFF;stop-opacity:0"/>
		</linearGradient>
		<path style="fill:url(#SVGID_00000017513307214138167710000002495531017411731594_);" d="M194.7,17.7c-0.9,1-1.8,1.9-2.8,2.9
			l-0.4,0.4c1.2,1.2,1.9,2.9,2,4.6h4.6C198,22.6,196.8,19.8,194.7,17.7z"/>

			<linearGradient id="SVGID_00000024684851459541787970000015255961789920045188_" gradientUnits="userSpaceOnUse" x1="205.4735" y1="3851.5312" x2="189.1235" y2="3887.6414" gradientTransform="matrix(-1 0 0 -1 375.97 3894.8899)">
			<stop  offset="0" style="stop-color:#FFFFFF"/>
			<stop  offset="4.000000e-02" style="stop-color:#FFFFFF;stop-opacity:0.96"/>
			<stop  offset="0.4" style="stop-color:#FFFFFF;stop-opacity:0.55"/>
			<stop  offset="0.69" style="stop-color:#FFFFFF;stop-opacity:0.26"/>
			<stop  offset="0.9" style="stop-color:#FFFFFF;stop-opacity:7.000000e-02"/>
			<stop  offset="1" style="stop-color:#FFFFFF;stop-opacity:0"/>
		</linearGradient>
		<path style="fill:url(#SVGID_00000024684851459541787970000015255961789920045188_);" d="M179.5,25.6c0.1-1.8,0.8-3.4,2-4.6
			c1.2-1.2,2.9-2,4.6-2.1v-4.6c-2.9,0.1-5.8,1.3-7.8,3.4s-3.3,4.9-3.4,7.9L179.5,25.6L179.5,25.6z"/>

			<linearGradient id="SVGID_00000146469762126233679770000008986482870007636363_" gradientUnits="userSpaceOnUse" x1="198.5541" y1="3848.4072" x2="182.2041" y2="3884.5171" gradientTransform="matrix(-1 0 0 -1 375.97 3894.8899)">
			<stop  offset="0" style="stop-color:#FFFFFF"/>
			<stop  offset="4.000000e-02" style="stop-color:#FFFFFF;stop-opacity:0.96"/>
			<stop  offset="0.4" style="stop-color:#FFFFFF;stop-opacity:0.55"/>
			<stop  offset="0.69" style="stop-color:#FFFFFF;stop-opacity:0.26"/>
			<stop  offset="0.9" style="stop-color:#FFFFFF;stop-opacity:7.000000e-02"/>
			<stop  offset="1" style="stop-color:#FFFFFF;stop-opacity:0"/>
		</linearGradient>
		<path style="fill:url(#SVGID_00000146469762126233679770000008986482870007636363_);" d="M178.4,34.1c2.1,2.1,4.9,3.3,7.8,3.4
			v-4.6c-1.6-0.1-3.2-0.7-4.4-1.8C180.7,32.1,179.5,33.1,178.4,34.1z"/>

			<linearGradient id="SVGID_00000141432237560768496750000011423526662911171758_" gradientUnits="userSpaceOnUse" x1="204.6674" y1="3851.1787" x2="188.3174" y2="3887.2786" gradientTransform="matrix(-1 0 0 -1 375.97 3894.8899)">
			<stop  offset="0" style="stop-color:#FFFFFF"/>
			<stop  offset="4.000000e-02" style="stop-color:#FFFFFF;stop-opacity:0.96"/>
			<stop  offset="0.4" style="stop-color:#FFFFFF;stop-opacity:0.55"/>
			<stop  offset="0.69" style="stop-color:#FFFFFF;stop-opacity:0.26"/>
			<stop  offset="0.9" style="stop-color:#FFFFFF;stop-opacity:7.000000e-02"/>
			<stop  offset="1" style="stop-color:#FFFFFF;stop-opacity:0"/>
		</linearGradient>
		<path style="fill:url(#SVGID_00000141432237560768496750000011423526662911171758_);" d="M181.4,30.7c-1.1-1.2-1.8-2.8-1.9-4.4
			H175c0.1,2.7,1.2,5.4,3,7.4C179.1,32.7,180.3,31.7,181.4,30.7z"/>

			<linearGradient id="SVGID_00000075880683787612211890000017971390549010107531_" gradientUnits="userSpaceOnUse" x1="192.0343" y1="3845.4473" x2="175.6844" y2="3881.5571" gradientTransform="matrix(-1 0 0 -1 375.97 3894.8899)">
			<stop  offset="0" style="stop-color:#FFFFFF"/>
			<stop  offset="4.000000e-02" style="stop-color:#FFFFFF;stop-opacity:0.96"/>
			<stop  offset="0.4" style="stop-color:#FFFFFF;stop-opacity:0.55"/>
			<stop  offset="0.69" style="stop-color:#FFFFFF;stop-opacity:0.26"/>
			<stop  offset="0.9" style="stop-color:#FFFFFF;stop-opacity:7.000000e-02"/>
			<stop  offset="1" style="stop-color:#FFFFFF;stop-opacity:0"/>
		</linearGradient>
		<path style="fill:url(#SVGID_00000075880683787612211890000017971390549010107531_);" d="M193.5,26.3c-0.1,1.7-0.8,3.4-2.1,4.6
			c-1.2,1.2-2.9,1.9-4.6,2v4.6c2.9-0.1,5.8-1.3,7.9-3.3c2.1-2.1,3.3-4.9,3.4-7.8H193.5z"/>

			<linearGradient id="SVGID_00000098927050047795269960000016636190789892107930_" gradientUnits="userSpaceOnUse" x1="199.1945" y1="3848.6975" x2="182.8445" y2="3884.7974" gradientTransform="matrix(-1 0 0 -1 375.97 3894.8899)">
			<stop  offset="0" style="stop-color:#FFFFFF"/>
			<stop  offset="4.000000e-02" style="stop-color:#FFFFFF;stop-opacity:0.96"/>
			<stop  offset="0.4" style="stop-color:#FFFFFF;stop-opacity:0.55"/>
			<stop  offset="0.69" style="stop-color:#FFFFFF;stop-opacity:0.26"/>
			<stop  offset="0.9" style="stop-color:#FFFFFF;stop-opacity:7.000000e-02"/>
			<stop  offset="1" style="stop-color:#FFFFFF;stop-opacity:0"/>
		</linearGradient>
		<path style="fill:url(#SVGID_00000098927050047795269960000016636190789892107930_);" d="M191.4,20.3c1-1,1.9-2,2.9-3
			c-2.1-1.9-4.7-2.9-7.5-3v4.6c1.6,0.1,3.1,0.6,4.3,1.7C191.1,20.5,191.4,20.3,191.4,20.3z"/>

			<linearGradient id="SVGID_00000003806228479912290100000015117705403349685430_" gradientUnits="userSpaceOnUse" x1="74.8462" y1="3894.4316" x2="63.2862" y2="3868.9016" gradientTransform="matrix(-1 0 0 -1 375.97 3894.8899)">
			<stop  offset="0" style="stop-color:#FFFFFF"/>
			<stop  offset="4.000000e-02" style="stop-color:#FFFFFF;stop-opacity:0.96"/>
			<stop  offset="0.4" style="stop-color:#FFFFFF;stop-opacity:0.55"/>
			<stop  offset="0.69" style="stop-color:#FFFFFF;stop-opacity:0.26"/>
			<stop  offset="0.9" style="stop-color:#FFFFFF;stop-opacity:7.000000e-02"/>
			<stop  offset="1" style="stop-color:#FFFFFF;stop-opacity:0"/>
		</linearGradient>
		<path style="fill:url(#SVGID_00000003806228479912290100000015117705403349685430_);" d="M309.3,22.7c-0.7-0.7-1.3-1.3-2-2
			l-0.3-0.3c0.9-0.9,1.4-2.1,1.4-3.3h3.2C311.7,19.2,310.8,21.2,309.3,22.7z"/>

			<linearGradient id="SVGID_00000181056820810935298890000007633370851528299400_" gradientUnits="userSpaceOnUse" x1="83.7191" y1="3890.4102" x2="72.1491" y2="3864.8801" gradientTransform="matrix(-1 0 0 -1 375.97 3894.8899)">
			<stop  offset="0" style="stop-color:#FFFFFF"/>
			<stop  offset="4.000000e-02" style="stop-color:#FFFFFF;stop-opacity:0.96"/>
			<stop  offset="0.4" style="stop-color:#FFFFFF;stop-opacity:0.55"/>
			<stop  offset="0.69" style="stop-color:#FFFFFF;stop-opacity:0.26"/>
			<stop  offset="0.9" style="stop-color:#FFFFFF;stop-opacity:7.000000e-02"/>
			<stop  offset="1" style="stop-color:#FFFFFF;stop-opacity:0"/>
		</linearGradient>
		<path style="fill:url(#SVGID_00000181056820810935298890000007633370851528299400_);" d="M298.6,17.1c0.1,1.2,0.6,2.4,1.4,3.3
			c0.9,0.9,2,1.4,3.3,1.5V25c-2.1-0.1-4.1-0.9-5.6-2.4c-1.5-1.5-2.3-3.5-2.4-5.6C295.4,17,298.6,17,298.6,17.1z"/>

			<linearGradient id="SVGID_00000039848938343553088660000015646281312614906252_" gradientUnits="userSpaceOnUse" x1="78.8375" y1="3892.6208" x2="67.2675" y2="3867.0908" gradientTransform="matrix(-1 0 0 -1 375.97 3894.8899)">
			<stop  offset="0" style="stop-color:#FFFFFF"/>
			<stop  offset="4.000000e-02" style="stop-color:#FFFFFF;stop-opacity:0.96"/>
			<stop  offset="0.4" style="stop-color:#FFFFFF;stop-opacity:0.55"/>
			<stop  offset="0.69" style="stop-color:#FFFFFF;stop-opacity:0.26"/>
			<stop  offset="0.9" style="stop-color:#FFFFFF;stop-opacity:7.000000e-02"/>
			<stop  offset="1" style="stop-color:#FFFFFF;stop-opacity:0"/>
		</linearGradient>
		<path style="fill:url(#SVGID_00000039848938343553088660000015646281312614906252_);" d="M297.8,11.1c1.5-1.5,3.4-2.3,5.5-2.4v3.2
			c-1.1,0.1-2.2,0.5-3.1,1.3C299.4,12.5,298.6,11.8,297.8,11.1z"/>

			<linearGradient id="SVGID_00000072255802525309300730000001136815599030629053_" gradientUnits="userSpaceOnUse" x1="83.1546" y1="3890.6624" x2="71.5946" y2="3865.1323" gradientTransform="matrix(-1 0 0 -1 375.97 3894.8899)">
			<stop  offset="0" style="stop-color:#FFFFFF"/>
			<stop  offset="4.000000e-02" style="stop-color:#FFFFFF;stop-opacity:0.96"/>
			<stop  offset="0.4" style="stop-color:#FFFFFF;stop-opacity:0.55"/>
			<stop  offset="0.69" style="stop-color:#FFFFFF;stop-opacity:0.26"/>
			<stop  offset="0.9" style="stop-color:#FFFFFF;stop-opacity:7.000000e-02"/>
			<stop  offset="1" style="stop-color:#FFFFFF;stop-opacity:0"/>
		</linearGradient>
		<path style="fill:url(#SVGID_00000072255802525309300730000001136815599030629053_);" d="M300,13.5c-0.8,0.8-1.3,2-1.3,3.1h-3.2
			c0.1-1.9,0.8-3.8,2.1-5.2C298.3,12,299.2,12.7,300,13.5z"/>

			<linearGradient id="SVGID_00000016787549970885938000000005322666954275403415_" gradientUnits="userSpaceOnUse" x1="74.2143" y1="3894.7224" x2="62.6543" y2="3869.1924" gradientTransform="matrix(-1 0 0 -1 375.97 3894.8899)">
			<stop  offset="0" style="stop-color:#FFFFFF"/>
			<stop  offset="4.000000e-02" style="stop-color:#FFFFFF;stop-opacity:0.96"/>
			<stop  offset="0.4" style="stop-color:#FFFFFF;stop-opacity:0.55"/>
			<stop  offset="0.69" style="stop-color:#FFFFFF;stop-opacity:0.26"/>
			<stop  offset="0.9" style="stop-color:#FFFFFF;stop-opacity:7.000000e-02"/>
			<stop  offset="1" style="stop-color:#FFFFFF;stop-opacity:0"/>
		</linearGradient>
		<path style="fill:url(#SVGID_00000016787549970885938000000005322666954275403415_);" d="M308.5,16.6c-0.1-1.2-0.6-2.4-1.5-3.3
			c-0.9-0.9-2-1.4-3.3-1.4V8.7c2.1,0,4.1,0.9,5.6,2.4s2.4,3.5,2.4,5.5H308.5z"/>

			<linearGradient id="SVGID_00000043441648354471983440000000943496716420778683_" gradientUnits="userSpaceOnUse" x1="79.2934" y1="3892.4229" x2="67.7234" y2="3866.8828" gradientTransform="matrix(-1 0 0 -1 375.97 3894.8899)">
			<stop  offset="0" style="stop-color:#FFFFFF"/>
			<stop  offset="4.000000e-02" style="stop-color:#FFFFFF;stop-opacity:0.96"/>
			<stop  offset="0.4" style="stop-color:#FFFFFF;stop-opacity:0.55"/>
			<stop  offset="0.69" style="stop-color:#FFFFFF;stop-opacity:0.26"/>
			<stop  offset="0.9" style="stop-color:#FFFFFF;stop-opacity:7.000000e-02"/>
			<stop  offset="1" style="stop-color:#FFFFFF;stop-opacity:0"/>
		</linearGradient>
		<path style="fill:url(#SVGID_00000043441648354471983440000000943496716420778683_);" d="M307,20.8c0.7,0.7,1.4,1.4,2.1,2.1
			c-1.4,1.3-3.3,2-5.3,2.1v-3.2c1.1,0,2.2-0.5,3-1.2L307,20.8z"/>

			<linearGradient id="SVGID_00000025419718588819496530000001262587554472183450_" gradientUnits="userSpaceOnUse" x1="306.5562" y1="3894.4316" x2="294.9962" y2="3868.9016" gradientTransform="matrix(-1 0 0 -1 375.97 3894.8899)">
			<stop  offset="0" style="stop-color:#FFFFFF"/>
			<stop  offset="4.000000e-02" style="stop-color:#FFFFFF;stop-opacity:0.96"/>
			<stop  offset="0.4" style="stop-color:#FFFFFF;stop-opacity:0.55"/>
			<stop  offset="0.69" style="stop-color:#FFFFFF;stop-opacity:0.26"/>
			<stop  offset="0.9" style="stop-color:#FFFFFF;stop-opacity:7.000000e-02"/>
			<stop  offset="1" style="stop-color:#FFFFFF;stop-opacity:0"/>
		</linearGradient>
		<path style="fill:url(#SVGID_00000025419718588819496530000001262587554472183450_);" d="M77.6,22.7l-2-2l-0.3-0.3
			c0.9-0.9,1.4-2.1,1.4-3.3H80C80,19.2,79.1,21.2,77.6,22.7z"/>

			<linearGradient id="SVGID_00000183227693486309731830000018006147776143097222_" gradientUnits="userSpaceOnUse" x1="315.4195" y1="3890.4146" x2="303.8595" y2="3864.8845" gradientTransform="matrix(-1 0 0 -1 375.97 3894.8899)">
			<stop  offset="0" style="stop-color:#FFFFFF"/>
			<stop  offset="4.000000e-02" style="stop-color:#FFFFFF;stop-opacity:0.96"/>
			<stop  offset="0.4" style="stop-color:#FFFFFF;stop-opacity:0.55"/>
			<stop  offset="0.69" style="stop-color:#FFFFFF;stop-opacity:0.26"/>
			<stop  offset="0.9" style="stop-color:#FFFFFF;stop-opacity:7.000000e-02"/>
			<stop  offset="1" style="stop-color:#FFFFFF;stop-opacity:0"/>
		</linearGradient>
		<path style="fill:url(#SVGID_00000183227693486309731830000018006147776143097222_);" d="M66.9,17.1c0.1,1.2,0.6,2.4,1.4,3.3
			c0.9,0.9,2,1.4,3.3,1.5V25c-2.1-0.1-4.1-0.9-5.5-2.4s-2.3-3.5-2.4-5.6L66.9,17.1L66.9,17.1z"/>

			<linearGradient id="SVGID_00000070832292338401789850000001591407358263578522_" gradientUnits="userSpaceOnUse" x1="310.5475" y1="3892.6208" x2="298.9775" y2="3867.0908" gradientTransform="matrix(-1 0 0 -1 375.97 3894.8899)">
			<stop  offset="0" style="stop-color:#FFFFFF"/>
			<stop  offset="4.000000e-02" style="stop-color:#FFFFFF;stop-opacity:0.96"/>
			<stop  offset="0.4" style="stop-color:#FFFFFF;stop-opacity:0.55"/>
			<stop  offset="0.69" style="stop-color:#FFFFFF;stop-opacity:0.26"/>
			<stop  offset="0.9" style="stop-color:#FFFFFF;stop-opacity:7.000000e-02"/>
			<stop  offset="1" style="stop-color:#FFFFFF;stop-opacity:0"/>
		</linearGradient>
		<path style="fill:url(#SVGID_00000070832292338401789850000001591407358263578522_);" d="M66.1,11.1c1.5-1.5,3.5-2.3,5.5-2.4v3.2
			c-1.1,0.1-2.2,0.5-3.1,1.3C67.8,12.5,66.9,11.8,66.1,11.1z"/>

			<linearGradient id="SVGID_00000049908292681574493380000003137835172879430335_" gradientUnits="userSpaceOnUse" x1="314.8687" y1="3890.6604" x2="303.3087" y2="3865.1304" gradientTransform="matrix(-1 0 0 -1 375.97 3894.8899)">
			<stop  offset="0" style="stop-color:#FFFFFF"/>
			<stop  offset="4.000000e-02" style="stop-color:#FFFFFF;stop-opacity:0.96"/>
			<stop  offset="0.4" style="stop-color:#FFFFFF;stop-opacity:0.55"/>
			<stop  offset="0.69" style="stop-color:#FFFFFF;stop-opacity:0.26"/>
			<stop  offset="0.9" style="stop-color:#FFFFFF;stop-opacity:7.000000e-02"/>
			<stop  offset="1" style="stop-color:#FFFFFF;stop-opacity:0"/>
		</linearGradient>
		<path style="fill:url(#SVGID_00000049908292681574493380000003137835172879430335_);" d="M68.3,13.5c-0.8,0.8-1.3,2-1.3,3.1h-3.2
			c0.1-1.9,0.8-3.8,2.1-5.2C66.6,12,67.4,12.7,68.3,13.5z"/>

			<linearGradient id="SVGID_00000170992132576178624550000007910685364177195165_" gradientUnits="userSpaceOnUse" x1="305.9242" y1="3894.7224" x2="294.3642" y2="3869.1924" gradientTransform="matrix(-1 0 0 -1 375.97 3894.8899)">
			<stop  offset="0" style="stop-color:#FFFFFF"/>
			<stop  offset="4.000000e-02" style="stop-color:#FFFFFF;stop-opacity:0.96"/>
			<stop  offset="0.4" style="stop-color:#FFFFFF;stop-opacity:0.55"/>
			<stop  offset="0.69" style="stop-color:#FFFFFF;stop-opacity:0.26"/>
			<stop  offset="0.9" style="stop-color:#FFFFFF;stop-opacity:7.000000e-02"/>
			<stop  offset="1" style="stop-color:#FFFFFF;stop-opacity:0"/>
		</linearGradient>
		<path style="fill:url(#SVGID_00000170992132576178624550000007910685364177195165_);" d="M76.8,16.6c-0.1-1.2-0.6-2.4-1.5-3.3
			s-2-1.4-3.3-1.4V8.7c2.1,0,4.1,0.9,5.6,2.4c1.5,1.5,2.4,3.5,2.4,5.5H76.8L76.8,16.6z"/>

			<linearGradient id="SVGID_00000039833396202176406730000010560236288797944454_" gradientUnits="userSpaceOnUse" x1="310.9948" y1="3892.4221" x2="299.4348" y2="3866.8821" gradientTransform="matrix(-1 0 0 -1 375.97 3894.8899)">
			<stop  offset="0" style="stop-color:#FFFFFF"/>
			<stop  offset="4.000000e-02" style="stop-color:#FFFFFF;stop-opacity:0.96"/>
			<stop  offset="0.4" style="stop-color:#FFFFFF;stop-opacity:0.55"/>
			<stop  offset="0.69" style="stop-color:#FFFFFF;stop-opacity:0.26"/>
			<stop  offset="0.9" style="stop-color:#FFFFFF;stop-opacity:7.000000e-02"/>
			<stop  offset="1" style="stop-color:#FFFFFF;stop-opacity:0"/>
		</linearGradient>
		<path style="fill:url(#SVGID_00000039833396202176406730000010560236288797944454_);" d="M75.3,20.8c0.7,0.7,1.4,1.4,2.1,2.1
			c-1.5,1.3-3.3,2-5.3,2.1v-3.2c1.1,0,2.2-0.5,3-1.2L75.3,20.8z"/>
		<path class="st42" d="M303.6,17.1h27.7l44.6-16.8"/>
		<path class="st42" d="M72.4,17.1H44.8L0.1,0.2"/>
	</g>
</g>
</svg>
