<svg width="391" height="743" viewBox="0 0 391 743" fill="none" xmlns="http://www.w3.org/2000/svg">
<g opacity="0.55">
<g opacity="0.21">
<path d="M193 485.78V793.58H151.69V494.34L35.04 377.69H-36.5V336.38H43.6C49.0727 336.365 54.3275 338.523 58.21 342.38L186.95 471.18C190.822 475.052 192.998 480.304 193 485.78Z" fill="url(#paint0_linear_135_11756)"/>
<path d="M426.18 402.55V443.86H302.5C297.027 443.875 291.773 441.717 287.89 437.86L173.7 323.62C169.843 319.737 167.685 314.483 167.7 309.01V0.419922H209.01V300.42L311.05 402.55H426.18Z" fill="url(#paint1_linear_135_11756)"/>
<path d="M426.18 299.84V341.15H321.5L90.07 572.62C86.1868 576.476 80.9324 578.634 75.46 578.62H-36.5V537.36H66.91L298.38 305.89C302.263 302.033 307.517 299.875 312.99 299.89L426.18 299.84Z" fill="url(#paint2_linear_135_11756)"/>
<path d="M426.18 132.34V173.65H386.9L339.9 220.65C336.017 224.507 330.763 226.665 325.29 226.65H122.04C116.568 226.664 111.313 224.506 107.43 220.65L55.76 169C51.9031 165.117 49.745 159.863 49.76 154.39V0.419922H91.07V145.8L130.65 185.38H316.75L363.75 138.38C367.633 134.524 372.888 132.366 378.36 132.38L426.18 132.34Z" fill="url(#paint3_linear_135_11756)"/>
<path d="M426.18 484.95V526.26H253.71L60.43 719.54V793.54H19.12V711C19.1061 705.527 21.264 700.273 25.12 696.39L230.5 491C234.383 487.143 239.637 484.985 245.11 485L426.18 484.95Z" fill="url(#paint4_linear_135_11756)"/>
<path d="M357.01 558V793.58H315.7V566.58L21.02 271.89H-36.5V230.58H29.57C35.0424 230.566 40.2968 232.724 44.18 236.58L350.96 543.41C354.829 547.28 357.005 552.527 357.01 558Z" fill="url(#paint5_linear_135_11756)"/>
</g>
<path d="M196.68 308.22V0.419922H237.99V299.66L354.64 416.31H426.18V457.62H346.08C340.607 457.634 335.353 455.476 331.47 451.62L202.73 322.82C198.858 318.947 196.682 313.696 196.68 308.22Z" fill="url(#paint6_linear_135_11756)"/>
<g style="mix-blend-mode:screen" opacity="0.24">
<path d="M209.88 290.51V129.75L221.61 118.01V0.419922H225.74V119.73L214.01 131.46V288.79L353.31 428.1H426.18V432.23H351.6L351 431.63L209.88 290.51Z" fill="#F9FAFF"/>
</g>
<path d="M-36.5 391.45V350.14H87.18C92.6527 350.125 97.9075 352.283 101.79 356.14L215.98 470.37C219.837 474.252 221.995 479.507 221.98 484.98V793.58H180.71V493.58L78.63 391.45H-36.5Z" fill="url(#paint7_linear_135_11756)"/>
<g style="mix-blend-mode:screen" opacity="0.24">
<path d="M-36.5 381.24V377.11H89.23L164.19 452.07H178.46L209.44 483.04V740.14L199.34 750.24V793.58H195.2V748.53L205.31 738.43V484.75L176.75 456.2H162.48L87.52 381.24H-36.5Z" fill="#F9FAFF"/>
</g>
<g style="mix-blend-mode:screen" opacity="0.24">
<path d="M166.4 479.22L170.38 475.25H179.12L197.18 493.31V732.2L190.51 738.87V793.58H186.38V737.16L193.04 730.49V495.02L177.41 479.38H172.09L169.32 482.14L166.4 479.22Z" fill="#F9FAFF"/>
</g>
<path d="M-36.5 494.16V452.85H68.14L299.61 221.38C303.493 217.524 308.748 215.366 314.22 215.38H426.22V256.69H322.77L91.3 488.11C87.4175 491.967 82.1627 494.125 76.69 494.11L-36.5 494.16Z" fill="url(#paint8_linear_135_11756)"/>
<path d="M-36.5 661.66V620.35H2.78L49.78 573.35C53.6625 569.493 58.9173 567.335 64.39 567.35H267.64C273.112 567.336 278.367 569.494 282.25 573.35L333.92 625C337.777 628.882 339.935 634.137 339.92 639.61V793.58H298.66V648.2L259.08 608.62H72.92L25.92 655.62C22.0368 659.476 16.7824 661.634 11.31 661.62L-36.5 661.66Z" fill="url(#paint9_linear_135_11756)"/>
<path d="M-36.5 309V267.74H135.97L329.25 74.46V0.459961H370.56V83C370.574 88.4724 368.416 93.7268 364.56 97.61L159.13 303C157.205 304.912 154.922 306.426 152.412 307.456C149.902 308.485 147.213 309.01 144.5 309H-36.5Z" fill="url(#paint10_linear_135_11756)"/>
<g style="mix-blend-mode:screen" opacity="0.24">
<path d="M-36.5 482.51V478.38H-8.59L-2.35 472.14H71.01L139.15 404H154.59L277.52 281.06V268.48L322.71 223.29H426.18V227.43H324.42L281.65 270.19V282.77L281.05 283.38L156.3 408.13H140.86L72.72 476.27H-0.639999L-6.87 482.51H-36.5Z" fill="#F9FAFF"/>
</g>
<g style="mix-blend-mode:screen" opacity="0.24">
<path d="M5.38 494.16V486.97L11.11 481.25H72.61L137.16 416.7H150.38L286.02 281.06V271.67L325.05 232.64H426.18V236.77H326.76L290.15 273.38V282.77L289.54 283.38L152.09 420.83H138.88L74.32 485.38H12.82L9.51 488.68V494.16H5.38Z" fill="#F9FAFF"/>
</g>
<g style="mix-blend-mode:screen" opacity="0.24">
<path d="M-36.5 638.65V634.52H10.97L52.47 593.02H193.8L202.25 584.57H276.3L332.64 640.91V793.58H328.51V642.63L274.59 588.7H203.96L195.51 597.15H54.18L12.68 638.65H-36.5Z" fill="#F9FAFF"/>
</g>
<g style="mix-blend-mode:screen" opacity="0.24">
<path d="M206.35 608.63V600.69L212.8 594.24H268.33L321.95 647.86V793.58H317.81V649.57L266.62 598.37H214.51L210.48 602.4V608.63H206.35Z" fill="#F9FAFF"/>
</g>
<g style="mix-blend-mode:screen" opacity="0.24">
<path d="M-36.5 289.51V285.38H11.3L18.05 278.64H149.66L360.59 67.7099V0.419922H364.72V69.4199L364.12 70.0299L151.38 282.77H19.76L13.01 289.51H-36.5Z" fill="#F9FAFF"/>
</g>
<g style="mix-blend-mode:screen" opacity="0.24">
<path d="M161.54 242.17L164.46 239.25L166.14 240.93H171.65L350.39 62.1899V0.419922H354.52V63.8999L353.92 64.4999L173.36 245.06H164.43L161.54 242.17Z" fill="#F9FAFF"/>
</g>
<path d="M32.67 236V0.419922H73.98V227.42L368.66 522.11H426.18V563.42H360.11C354.638 563.434 349.383 561.276 345.5 557.42L38.72 250.59C34.8505 246.72 32.6747 241.473 32.67 236Z" fill="url(#paint11_linear_135_11756)"/>
<g style="mix-blend-mode:screen" opacity="0.24">
<path d="M60.18 239.81V0.419922H64.31V238.1L130.81 304.6V315.01L360.86 545.06H426.18V549.19H359.14L358.54 548.58L126.68 316.72V306.31L60.18 239.81Z" fill="#F9FAFF"/>
</g>
<g style="mix-blend-mode:screen" opacity="0.24">
<path d="M51.25 246.61V0.419922H55.39V244.9L117.21 306.72V320.12L112.73 324.6L109.81 321.68L113.08 318.41V308.44L51.25 246.61Z" fill="#F9FAFF"/>
</g>
<path d="M249.42 392.98L226.6 370.16V362.99L325.79 263.8H426.18V265.38H326.44L228.18 363.64V369.5L250.54 391.86L249.42 392.98Z" fill="white"/>
<path d="M426.18 572.65H347.46L226.68 451.88H215.78V450.29H227.34L348.11 571.07H426.18V572.65Z" fill="white"/>
<path d="M293.48 793.58H291.9V651.3L258.51 617.92H185.64V616.34H259.16L293.48 650.65V793.58Z" fill="white"/>
<path d="M97.3 237.47L83.44 223.62V0.419922H85.02V222.97L98.41 236.36L97.3 237.47Z" fill="white"/>
<path d="M140.16 371.53H138.57V361.87L95.06 318.36H-36.5V316.77H95.71L140.16 361.21V371.53Z" fill="white"/>
<path d="M271.59 122.156L148.391 245.355L149.508 246.473L272.707 123.273L271.59 122.156Z" fill="white"/>
<path d="M416.19 209.58H327.77L321.21 203.02V195.19H322.8V202.37L328.42 208H416.19V209.58Z" fill="white"/>
<path d="M107.28 561.4H55.97L42.12 547.55V536.39H43.7V546.9L56.62 559.82H107.28V561.4Z" fill="white"/>
<path d="M34.06 444.25H-36.5V445.83H34.06V444.25Z" fill="white"/>
<path d="M347.72 699.77H346.14V793.58H347.72V699.77Z" fill="white"/>
<path d="M173.08 713.15H171.5V775.19H173.08V713.15Z" fill="white"/>
<path d="M188.63 125.59H185.64V124.01H187.97L191.33 120.65V43.0698H192.92V121.3L188.63 125.59Z" fill="white"/>
<path d="M387.3 70.0699H380.6L374.89 64.3599V0.419922H376.48V63.7099L381.25 68.4899H387.3V70.0699Z" fill="white"/>
<g opacity="0.5">
<path d="M64.72 83.3699H62.73C62.7079 83.3699 62.69 83.3878 62.69 83.4099V83.6499C62.69 83.672 62.7079 83.6899 62.73 83.6899H64.72C64.7421 83.6899 64.76 83.672 64.76 83.6499V83.4099C64.76 83.3878 64.7421 83.3699 64.72 83.3699Z" fill="white"/>
<path d="M64.72 85.4099H62.73C62.7079 85.4099 62.69 85.4278 62.69 85.4499V85.6899C62.69 85.712 62.7079 85.7299 62.73 85.7299H64.72C64.7421 85.7299 64.76 85.712 64.76 85.6899V85.4499C64.76 85.4278 64.7421 85.4099 64.72 85.4099Z" fill="white"/>
<path d="M64.72 87.45H62.73C62.7079 87.45 62.69 87.4679 62.69 87.49V87.7299C62.69 87.752 62.7079 87.77 62.73 87.77H64.72C64.7421 87.77 64.76 87.752 64.76 87.7299V87.49C64.76 87.4679 64.7421 87.45 64.72 87.45Z" fill="white"/>
<path d="M62.72 89.8198H64.71C64.7321 89.8198 64.75 89.8019 64.75 89.7798V89.5398C64.75 89.5177 64.7321 89.4998 64.71 89.4998H62.72C62.6979 89.4998 62.68 89.5177 62.68 89.5398V89.7798C62.68 89.8019 62.6979 89.8198 62.72 89.8198Z" fill="white"/>
<path d="M62.72 91.8499H64.71C64.7321 91.8499 64.75 91.8319 64.75 91.8098V91.5698C64.75 91.5477 64.7321 91.5298 64.71 91.5298H62.72C62.6979 91.5298 62.68 91.5477 62.68 91.5698V91.8098C62.68 91.8319 62.6979 91.8499 62.72 91.8499Z" fill="white"/>
<path d="M62.55 80.8899H61.82V81.6199H62.55V80.8899Z" fill="white"/>
<path d="M64.76 80.8899H63.37V81.6199H64.76V80.8899Z" fill="white"/>
<path d="M62.55 93.6799H61.82V94.4099H62.55V93.6799Z" fill="white"/>
<path opacity="0.4" d="M64.76 93.6799H63.37V94.4099H64.76V93.6799Z" fill="white"/>
<path d="M332.84 191.29H330.85C330.828 191.29 330.81 191.308 330.81 191.33V191.57C330.81 191.592 330.828 191.61 330.85 191.61H332.84C332.862 191.61 332.88 191.592 332.88 191.57V191.33C332.88 191.308 332.862 191.29 332.84 191.29Z" fill="white"/>
<path d="M332.84 193.33H330.85C330.828 193.33 330.81 193.348 330.81 193.37V193.61C330.81 193.632 330.828 193.65 330.85 193.65H332.84C332.862 193.65 332.88 193.632 332.88 193.61V193.37C332.88 193.348 332.862 193.33 332.84 193.33Z" fill="white"/>
<path d="M332.84 195.37H330.85C330.828 195.37 330.81 195.388 330.81 195.41V195.65C330.81 195.672 330.828 195.69 330.85 195.69H332.84C332.862 195.69 332.88 195.672 332.88 195.65V195.41C332.88 195.388 332.862 195.37 332.84 195.37Z" fill="white"/>
<path d="M330.85 197.73H332.84C332.862 197.73 332.88 197.712 332.88 197.69V197.45C332.88 197.428 332.862 197.41 332.84 197.41H330.85C330.828 197.41 330.81 197.428 330.81 197.45V197.69C330.81 197.712 330.828 197.73 330.85 197.73Z" fill="white"/>
<path d="M330.85 199.77H332.84C332.862 199.77 332.88 199.752 332.88 199.73V199.49C332.88 199.468 332.862 199.45 332.84 199.45H330.85C330.828 199.45 330.81 199.468 330.81 199.49V199.73C330.81 199.752 330.828 199.77 330.85 199.77Z" fill="white"/>
<path d="M330.67 188.81H329.94V189.54H330.67V188.81Z" fill="white"/>
<path d="M332.88 188.81H331.49V189.54H332.88V188.81Z" fill="white"/>
<path d="M330.67 201.6H329.94V202.33H330.67V201.6Z" fill="white"/>
<path opacity="0.4" d="M332.88 201.6H331.49V202.33H332.88V201.6Z" fill="white"/>
<path d="M66.31 275.14H64.32C64.2979 275.14 64.28 275.158 64.28 275.18V275.42C64.28 275.442 64.2979 275.46 64.32 275.46H66.31C66.3321 275.46 66.35 275.442 66.35 275.42V275.18C66.35 275.158 66.3321 275.14 66.31 275.14Z" fill="white"/>
<path d="M66.31 277.18H64.32C64.2979 277.18 64.28 277.198 64.28 277.22V277.46C64.28 277.482 64.2979 277.5 64.32 277.5H66.31C66.3321 277.5 66.35 277.482 66.35 277.46V277.22C66.35 277.198 66.3321 277.18 66.31 277.18Z" fill="white"/>
<path d="M66.31 279.23H64.32C64.2979 279.23 64.28 279.248 64.28 279.27V279.51C64.28 279.532 64.2979 279.55 64.32 279.55H66.31C66.3321 279.55 66.35 279.532 66.35 279.51V279.27C66.35 279.248 66.3321 279.23 66.31 279.23Z" fill="white"/>
<path d="M64.32 281.58H66.31C66.3321 281.58 66.35 281.562 66.35 281.54V281.3C66.35 281.278 66.3321 281.26 66.31 281.26H64.32C64.2979 281.26 64.28 281.278 64.28 281.3V281.54C64.28 281.562 64.2979 281.58 64.32 281.58Z" fill="white"/>
<path d="M64.32 283.63H66.31C66.3321 283.63 66.35 283.612 66.35 283.59V283.35C66.35 283.328 66.3321 283.31 66.31 283.31H64.32C64.2979 283.31 64.28 283.328 64.28 283.35V283.59C64.28 283.612 64.2979 283.63 64.32 283.63Z" fill="white"/>
<path d="M64.14 272.66H63.41V273.39H64.14V272.66Z" fill="white"/>
<path d="M66.35 272.66H64.96V273.39H66.35V272.66Z" fill="white"/>
<path d="M64.14 285.46H63.41V286.19H64.14V285.46Z" fill="white"/>
<path opacity="0.4" d="M66.35 285.46H64.96V286.19H66.35V285.46Z" fill="white"/>
<path d="M270.83 458.81H268.84C268.818 458.81 268.8 458.828 268.8 458.85V459.09C268.8 459.112 268.818 459.13 268.84 459.13H270.83C270.852 459.13 270.87 459.112 270.87 459.09V458.85C270.87 458.828 270.852 458.81 270.83 458.81Z" fill="white"/>
<path d="M270.83 460.86H268.84C268.818 460.86 268.8 460.878 268.8 460.9V461.14C268.8 461.162 268.818 461.18 268.84 461.18H270.83C270.852 461.18 270.87 461.162 270.87 461.14V460.9C270.87 460.878 270.852 460.86 270.83 460.86Z" fill="white"/>
<path d="M270.83 462.9H268.84C268.818 462.9 268.8 462.918 268.8 462.94V463.18C268.8 463.202 268.818 463.22 268.84 463.22H270.83C270.852 463.22 270.87 463.202 270.87 463.18V462.94C270.87 462.918 270.852 462.9 270.83 462.9Z" fill="white"/>
<path d="M268.85 465.26H270.84C270.862 465.26 270.88 465.242 270.88 465.22V464.98C270.88 464.958 270.862 464.94 270.84 464.94H268.85C268.828 464.94 268.81 464.958 268.81 464.98V465.22C268.81 465.242 268.828 465.26 268.85 465.26Z" fill="white"/>
<path d="M268.85 467.3H270.84C270.862 467.3 270.88 467.282 270.88 467.26V467.02C270.88 466.998 270.862 466.98 270.84 466.98H268.85C268.828 466.98 268.81 466.998 268.81 467.02V467.26C268.81 467.282 268.828 467.3 268.85 467.3Z" fill="white"/>
<path d="M268.66 456.34H267.93V457.07H268.66V456.34Z" fill="white"/>
<path d="M270.87 456.34H269.48V457.07H270.87V456.34Z" fill="white"/>
<path d="M268.66 469.13H267.93V469.86H268.66V469.13Z" fill="white"/>
<path opacity="0.4" d="M270.87 469.13H269.48V469.86H270.87V469.13Z" fill="white"/>
<path d="M6.47001 516.1H4.48C4.45791 516.1 4.44 516.118 4.44 516.14V516.38C4.44 516.402 4.45791 516.42 4.48 516.42H6.47001C6.4921 516.42 6.51 516.402 6.51 516.38V516.14C6.51 516.118 6.4921 516.1 6.47001 516.1Z" fill="white"/>
<path d="M6.47001 518.14H4.48C4.45791 518.14 4.44 518.158 4.44 518.18V518.42C4.44 518.442 4.45791 518.46 4.48 518.46H6.47001C6.4921 518.46 6.51 518.442 6.51 518.42V518.18C6.51 518.158 6.4921 518.14 6.47001 518.14Z" fill="white"/>
<path d="M6.47001 520.18H4.48C4.45791 520.18 4.44 520.198 4.44 520.22V520.46C4.44 520.482 4.45791 520.5 4.48 520.5H6.47001C6.4921 520.5 6.51 520.482 6.51 520.46V520.22C6.51 520.198 6.4921 520.18 6.47001 520.18Z" fill="white"/>
<path d="M4.49002 522.54H6.48002C6.50211 522.54 6.52002 522.522 6.52002 522.5V522.26C6.52002 522.238 6.50211 522.22 6.48002 522.22H4.49002C4.46793 522.22 4.45002 522.238 4.45002 522.26V522.5C4.45002 522.522 4.46793 522.54 4.49002 522.54Z" fill="white"/>
<path d="M4.49002 524.59H6.48002C6.50211 524.59 6.52002 524.572 6.52002 524.55V524.31C6.52002 524.288 6.50211 524.27 6.48002 524.27H4.49002C4.46793 524.27 4.45002 524.288 4.45002 524.31V524.55C4.45002 524.572 4.46793 524.59 4.49002 524.59Z" fill="white"/>
<path d="M4.30001 513.62H3.57001V514.35H4.30001V513.62Z" fill="white"/>
<path d="M6.50999 513.62H5.12V514.35H6.50999V513.62Z" fill="white"/>
<path d="M4.30001 526.41H3.57001V527.14H4.30001V526.41Z" fill="white"/>
<path opacity="0.4" d="M6.50999 526.41H5.12V527.14H6.50999V526.41Z" fill="white"/>
<path d="M269.97 634.22H267.98C267.958 634.22 267.94 634.238 267.94 634.26V634.5C267.94 634.522 267.958 634.54 267.98 634.54H269.97C269.992 634.54 270.01 634.522 270.01 634.5V634.26C270.01 634.238 269.992 634.22 269.97 634.22Z" fill="white"/>
<path d="M269.97 636.26H267.98C267.958 636.26 267.94 636.278 267.94 636.3V636.54C267.94 636.562 267.958 636.58 267.98 636.58H269.97C269.992 636.58 270.01 636.562 270.01 636.54V636.3C270.01 636.278 269.992 636.26 269.97 636.26Z" fill="white"/>
<path d="M269.97 638.3H267.98C267.958 638.3 267.94 638.318 267.94 638.34V638.58C267.94 638.602 267.958 638.62 267.98 638.62H269.97C269.992 638.62 270.01 638.602 270.01 638.58V638.34C270.01 638.318 269.992 638.3 269.97 638.3Z" fill="white"/>
<path d="M267.98 640.66H269.97C269.992 640.66 270.01 640.642 270.01 640.62V640.38C270.01 640.358 269.992 640.34 269.97 640.34H267.98C267.958 640.34 267.94 640.358 267.94 640.38V640.62C267.94 640.642 267.958 640.66 267.98 640.66Z" fill="white"/>
<path d="M267.98 642.71H269.97C269.992 642.71 270.01 642.692 270.01 642.67V642.43C270.01 642.408 269.992 642.39 269.97 642.39H267.98C267.958 642.39 267.94 642.408 267.94 642.43V642.67C267.94 642.692 267.958 642.71 267.98 642.71Z" fill="white"/>
<path d="M267.8 631.74H267.07V632.47H267.8V631.74Z" fill="white"/>
<path d="M270.01 631.74H268.62V632.47H270.01V631.74Z" fill="white"/>
<path d="M267.8 644.53H267.07V645.26H267.8V644.53Z" fill="white"/>
<path opacity="0.4" d="M270.01 644.53H268.62V645.26H270.01V644.53Z" fill="white"/>
<path d="M289.74 154.41H286.7C286.545 154.41 286.42 154.535 286.42 154.69V155.86C286.42 156.015 286.545 156.14 286.7 156.14H289.74C289.895 156.14 290.02 156.015 290.02 155.86V154.69C290.02 154.535 289.895 154.41 289.74 154.41Z" fill="white"/>
<path opacity="0.2" d="M289.74 157.77H286.7C286.545 157.77 286.42 157.895 286.42 158.05V159.22C286.42 159.375 286.545 159.5 286.7 159.5H289.74C289.895 159.5 290.02 159.375 290.02 159.22V158.05C290.02 157.895 289.895 157.77 289.74 157.77Z" fill="white"/>
<path d="M289.74 161.13H286.7C286.545 161.13 286.42 161.255 286.42 161.41V162.58C286.42 162.735 286.545 162.86 286.7 162.86H289.74C289.895 162.86 290.02 162.735 290.02 162.58V161.41C290.02 161.255 289.895 161.13 289.74 161.13Z" fill="white"/>
<path opacity="0.2" d="M289.74 164.49H286.7C286.545 164.49 286.42 164.615 286.42 164.77V165.94C286.42 166.095 286.545 166.22 286.7 166.22H289.74C289.895 166.22 290.02 166.095 290.02 165.94V164.77C290.02 164.615 289.895 164.49 289.74 164.49Z" fill="white"/>
<path d="M243.37 107.21H240.33C240.175 107.21 240.05 107.335 240.05 107.49V108.66C240.05 108.815 240.175 108.94 240.33 108.94H243.37C243.525 108.94 243.65 108.815 243.65 108.66V107.49C243.65 107.335 243.525 107.21 243.37 107.21Z" fill="white"/>
<path opacity="0.2" d="M243.37 110.57H240.33C240.175 110.57 240.05 110.695 240.05 110.85V112.02C240.05 112.174 240.175 112.3 240.33 112.3H243.37C243.525 112.3 243.65 112.174 243.65 112.02V110.85C243.65 110.695 243.525 110.57 243.37 110.57Z" fill="white"/>
<path d="M243.37 113.93H240.33C240.175 113.93 240.05 114.055 240.05 114.21V115.38C240.05 115.535 240.175 115.66 240.33 115.66H243.37C243.525 115.66 243.65 115.535 243.65 115.38V114.21C243.65 114.055 243.525 113.93 243.37 113.93Z" fill="white"/>
<path opacity="0.2" d="M243.37 117.28H240.33C240.175 117.28 240.05 117.405 240.05 117.56V118.73C240.05 118.884 240.175 119.01 240.33 119.01H243.37C243.525 119.01 243.65 118.884 243.65 118.73V117.56C243.65 117.405 243.525 117.28 243.37 117.28Z" fill="white"/>
<path d="M26.46 362.92H23.42C23.2654 362.92 23.14 363.045 23.14 363.2V364.37C23.14 364.525 23.2654 364.65 23.42 364.65H26.46C26.6147 364.65 26.74 364.525 26.74 364.37V363.2C26.74 363.045 26.6147 362.92 26.46 362.92Z" fill="white"/>
<path opacity="0.2" d="M26.46 366.27H23.42C23.2654 366.27 23.14 366.395 23.14 366.55V367.72C23.14 367.875 23.2654 368 23.42 368H26.46C26.6147 368 26.74 367.875 26.74 367.72V366.55C26.74 366.395 26.6147 366.27 26.46 366.27Z" fill="white"/>
<path d="M26.46 369.63H23.42C23.2654 369.63 23.14 369.755 23.14 369.91V371.08C23.14 371.235 23.2654 371.36 23.42 371.36H26.46C26.6147 371.36 26.74 371.235 26.74 371.08V369.91C26.74 369.755 26.6147 369.63 26.46 369.63Z" fill="white"/>
<path opacity="0.2" d="M26.46 372.99H23.42C23.2654 372.99 23.14 373.115 23.14 373.27V374.44C23.14 374.595 23.2654 374.72 23.42 374.72H26.46C26.6147 374.72 26.74 374.595 26.74 374.44V373.27C26.74 373.115 26.6147 372.99 26.46 372.99Z" fill="white"/>
<path d="M243.04 362.1H240C239.845 362.1 239.72 362.225 239.72 362.38V363.55C239.72 363.704 239.845 363.83 240 363.83H243.04C243.195 363.83 243.32 363.704 243.32 363.55V362.38C243.32 362.225 243.195 362.1 243.04 362.1Z" fill="white"/>
<path opacity="0.2" d="M243.04 365.46H240C239.845 365.46 239.72 365.585 239.72 365.74V366.91C239.72 367.065 239.845 367.19 240 367.19H243.04C243.195 367.19 243.32 367.065 243.32 366.91V365.74C243.32 365.585 243.195 365.46 243.04 365.46Z" fill="white"/>
<path d="M243.04 368.82H240C239.845 368.82 239.72 368.945 239.72 369.1V370.27C239.72 370.424 239.845 370.55 240 370.55H243.04C243.195 370.55 243.32 370.424 243.32 370.27V369.1C243.32 368.945 243.195 368.82 243.04 368.82Z" fill="white"/>
<path opacity="0.2" d="M243.04 372.18H240C239.845 372.18 239.72 372.305 239.72 372.46V373.63C239.72 373.785 239.845 373.91 240 373.91H243.04C243.195 373.91 243.32 373.785 243.32 373.63V372.46C243.32 372.305 243.195 372.18 243.04 372.18Z" fill="white"/>
<path d="M385.83 503.91H382.79C382.635 503.91 382.51 504.035 382.51 504.19V505.36C382.51 505.515 382.635 505.64 382.79 505.64H385.83C385.985 505.64 386.11 505.515 386.11 505.36V504.19C386.11 504.035 385.985 503.91 385.83 503.91Z" fill="white"/>
<path opacity="0.2" d="M385.83 507.27H382.79C382.635 507.27 382.51 507.395 382.51 507.55V508.72C382.51 508.875 382.635 509 382.79 509H385.83C385.985 509 386.11 508.875 386.11 508.72V507.55C386.11 507.395 385.985 507.27 385.83 507.27Z" fill="white"/>
<path d="M385.83 510.63H382.79C382.635 510.63 382.51 510.755 382.51 510.91V512.08C382.51 512.235 382.635 512.36 382.79 512.36H385.83C385.985 512.36 386.11 512.235 386.11 512.08V510.91C386.11 510.755 385.985 510.63 385.83 510.63Z" fill="white"/>
<path opacity="0.2" d="M385.83 513.99H382.79C382.635 513.99 382.51 514.115 382.51 514.27V515.44C382.51 515.595 382.635 515.72 382.79 515.72H385.83C385.985 515.72 386.11 515.595 386.11 515.44V514.27C386.11 514.115 385.985 513.99 385.83 513.99Z" fill="white"/>
<path d="M119.57 628.31H116.53C116.375 628.31 116.25 628.435 116.25 628.59V629.76C116.25 629.915 116.375 630.04 116.53 630.04H119.57C119.725 630.04 119.85 629.915 119.85 629.76V628.59C119.85 628.435 119.725 628.31 119.57 628.31Z" fill="white"/>
<path opacity="0.2" d="M119.57 631.67H116.53C116.375 631.67 116.25 631.795 116.25 631.95V633.12C116.25 633.275 116.375 633.4 116.53 633.4H119.57C119.725 633.4 119.85 633.275 119.85 633.12V631.95C119.85 631.795 119.725 631.67 119.57 631.67Z" fill="white"/>
<path d="M119.57 635.03H116.53C116.375 635.03 116.25 635.155 116.25 635.31V636.48C116.25 636.634 116.375 636.76 116.53 636.76H119.57C119.725 636.76 119.85 636.634 119.85 636.48V635.31C119.85 635.155 119.725 635.03 119.57 635.03Z" fill="white"/>
<path opacity="0.2" d="M119.57 638.39H116.53C116.375 638.39 116.25 638.515 116.25 638.67V639.84C116.25 639.995 116.375 640.12 116.53 640.12H119.57C119.725 640.12 119.85 639.995 119.85 639.84V638.67C119.85 638.515 119.725 638.39 119.57 638.39Z" fill="white"/>
<path d="M234.81 739.11H231.77C231.615 739.11 231.49 739.235 231.49 739.39V740.56C231.49 740.715 231.615 740.84 231.77 740.84H234.81C234.965 740.84 235.09 740.715 235.09 740.56V739.39C235.09 739.235 234.965 739.11 234.81 739.11Z" fill="white"/>
<path opacity="0.2" d="M234.81 742.47H231.77C231.615 742.47 231.49 742.595 231.49 742.75V743.92C231.49 744.074 231.615 744.2 231.77 744.2H234.81C234.965 744.2 235.09 744.074 235.09 743.92V742.75C235.09 742.595 234.965 742.47 234.81 742.47Z" fill="white"/>
<path d="M83.85 154.41H82.53V155.72H83.85V154.41Z" fill="white"/>
<path opacity="0.2" d="M89.27 154.41H85.62V155.72H89.27V154.41Z" fill="white"/>
<path d="M107.42 154.41H103.38V155.72H107.42V154.41Z" fill="white"/>
<path d="M189.03 52.3999H187.72V53.7099H189.03V52.3999Z" fill="white"/>
<path opacity="0.2" d="M194.47 52.3999H190.82V53.7099H194.47V52.3999Z" fill="white"/>
<path d="M212.62 52.3999H208.58V53.7099H212.62V52.3999Z" fill="white"/>
<path d="M345.73 278.2H344.41V279.52H345.73V278.2Z" fill="white"/>
<path opacity="0.2" d="M351.16 278.2H347.51V279.52H351.16V278.2Z" fill="white"/>
<path d="M369.31 278.2H365.27V279.52H369.31V278.2Z" fill="white"/>
<path d="M51.33 222.03H50.02V223.34H51.33V222.03Z" fill="white"/>
<path opacity="0.2" d="M56.76 222.03H53.11V223.34H56.76V222.03Z" fill="white"/>
<path d="M74.91 222.03H70.87V223.34H74.91V222.03Z" fill="white"/>
<path d="M350.64 372.86H349.33V374.17H350.64V372.86Z" fill="white"/>
<path opacity="0.2" d="M356.08 372.86H352.43V374.17H356.08V372.86Z" fill="white"/>
<path d="M374.23 372.86H370.19V374.17H374.23V372.86Z" fill="white"/>
<path d="M53.62 590.64H52.31V591.96H53.62V590.64Z" fill="white"/>
<path opacity="0.2" d="M59.06 590.64H55.41V591.96H59.06V590.64Z" fill="white"/>
<path d="M77.21 590.64H73.17V591.96H77.21V590.64Z" fill="white"/>
<path d="M309.59 609.3H308.27V610.61H309.59V609.3Z" fill="white"/>
<path opacity="0.2" d="M315.02 609.3H311.37V610.61H315.02V609.3Z" fill="white"/>
<path d="M333.17 609.3H329.13V610.61H333.17V609.3Z" fill="white"/>
<path d="M110.38 675.68H109.07V676.99H110.38V675.68Z" fill="white"/>
<path opacity="0.2" d="M115.81 675.68H112.16V676.99H115.81V675.68Z" fill="white"/>
<path d="M133.96 675.68H129.92V676.99H133.96V675.68Z" fill="white"/>
<path d="M249.44 707.64H248.13V708.96H249.44V707.64Z" fill="white"/>
<path opacity="0.2" d="M254.88 707.64H251.23V708.96H254.88V707.64Z" fill="white"/>
<path d="M273.03 707.64H268.99V708.96H273.03V707.64Z" fill="white"/>
</g>
</g>
<defs>
<linearGradient id="paint0_linear_135_11756" x1="-30.02" y1="1107.14" x2="144.62" y2="232.67" gradientUnits="userSpaceOnUse">
<stop stop-color="white"/>
<stop offset="1"/>
</linearGradient>
<linearGradient id="paint1_linear_135_11756" x1="675.42" y1="371.85" x2="15.11" y2="137.3" gradientUnits="userSpaceOnUse">
<stop stop-color="white"/>
<stop offset="1"/>
</linearGradient>
<linearGradient id="paint2_linear_135_11756" x1="-126.01" y1="660.09" x2="485.86" y2="238.15" gradientUnits="userSpaceOnUse">
<stop stop-color="white"/>
<stop offset="1"/>
</linearGradient>
<linearGradient id="paint3_linear_135_11756" x1="18.58" y1="-132.89" x2="430.32" y2="392.29" gradientUnits="userSpaceOnUse">
<stop stop-color="white"/>
<stop offset="1"/>
</linearGradient>
<linearGradient id="paint4_linear_135_11756" x1="-0.630013" y1="984.15" x2="407.28" y2="311.1" gradientUnits="userSpaceOnUse">
<stop stop-color="white"/>
<stop offset="1"/>
</linearGradient>
<linearGradient id="paint5_linear_135_11756" x1="39.24" y1="756.46" x2="303.11" y2="223.62" gradientUnits="userSpaceOnUse">
<stop stop-color="white"/>
<stop offset="1"/>
</linearGradient>
<linearGradient id="paint6_linear_135_11756" x1="419.71" y1="-313.14" x2="245.07" y2="561.32" gradientUnits="userSpaceOnUse">
<stop stop-color="white"/>
<stop offset="1"/>
</linearGradient>
<linearGradient id="paint7_linear_135_11756" x1="-285.74" y1="422.14" x2="374.58" y2="656.7" gradientUnits="userSpaceOnUse">
<stop stop-color="white"/>
<stop offset="1"/>
</linearGradient>
<linearGradient id="paint8_linear_135_11756" x1="515.7" y1="133.91" x2="-96.1699" y2="555.84" gradientUnits="userSpaceOnUse">
<stop stop-color="white"/>
<stop offset="1"/>
</linearGradient>
<linearGradient id="paint9_linear_135_11756" x1="371.1" y1="926.89" x2="-40.63" y2="401.7" gradientUnits="userSpaceOnUse">
<stop stop-color="white"/>
<stop offset="1"/>
</linearGradient>
<linearGradient id="paint10_linear_135_11756" x1="390.32" y1="-190.16" x2="-17.6" y2="482.9" gradientUnits="userSpaceOnUse">
<stop stop-color="white"/>
<stop offset="1"/>
</linearGradient>
<linearGradient id="paint11_linear_135_11756" x1="350.44" y1="37.5399" x2="86.58" y2="570.38" gradientUnits="userSpaceOnUse">
<stop stop-color="white"/>
<stop offset="1"/>
</linearGradient>
</defs>
</svg>
