<svg width="391" height="409" viewBox="0 0 391 409" fill="none" xmlns="http://www.w3.org/2000/svg">
<mask id="mask0_979_393" style="mask-type:luminance" maskUnits="userSpaceOnUse" x="0" y="0" width="391" height="409">
<path d="M371 0H20C8.9543 0 0 8.9543 0 20V389C0 400.046 8.9543 409 20 409H371C382.046 409 391 400.046 391 389V20C391 8.9543 382.046 0 371 0Z" fill="white"/>
</mask>
<g mask="url(#mask0_979_393)">
<path d="M418.22 99.4199H-27.2299C-31.6261 99.4199 -35.1899 102.984 -35.1899 107.38V884.62C-35.1899 889.016 -31.6261 892.58 -27.2299 892.58H418.22C422.616 892.58 426.18 889.016 426.18 884.62V107.38C426.18 102.984 422.616 99.4199 418.22 99.4199Z" fill="#121212"/>
<g opacity="0.55">
<g opacity="0.21">
<path d="M426.18 501.55V542.86H302.5C297.027 542.875 291.773 540.717 287.89 536.86L173.7 422.62C169.843 418.737 167.685 413.483 167.7 408.01V99.4199H209.01V399.42L311.05 501.55H426.18Z" fill="url(#paint0_linear_979_393)"/>
<path d="M426.18 398.84V440.15H321.5L90.07 671.62C86.1868 675.476 80.9324 677.634 75.46 677.62H-36.5V636.36H66.91L298.38 404.89C302.263 401.033 307.517 398.875 312.99 398.89L426.18 398.84Z" fill="url(#paint1_linear_979_393)"/>
<path d="M426.18 231.34V272.65H386.9L339.9 319.65C336.018 323.507 330.763 325.665 325.29 325.65H122.04C116.568 325.664 111.313 323.506 107.43 319.65L55.7601 268C51.9031 264.117 49.7451 258.863 49.7601 253.39V99.4199H91.0701V244.8L130.65 284.38H316.75L363.75 237.38C367.633 233.524 372.888 231.366 378.36 231.38L426.18 231.34Z" fill="url(#paint2_linear_979_393)"/>
<path d="M357.01 657V892.58H315.7V665.58L21.02 370.89H-36.5V329.58H29.57C35.0424 329.566 40.2968 331.724 44.18 335.58L350.96 642.41C354.829 646.28 357.005 651.527 357.01 657Z" fill="url(#paint3_linear_979_393)"/>
</g>
<path d="M196.68 407.22V99.4199H237.99V398.66L354.64 515.31H426.18V556.62H346.08C340.607 556.634 335.353 554.476 331.47 550.62L202.73 421.82C198.858 417.947 196.682 412.696 196.68 407.22Z" fill="url(#paint4_linear_979_393)"/>
<g style="mix-blend-mode:screen" opacity="0.24">
<path d="M209.88 389.51V228.75L221.61 217.01V99.4199H225.74V218.73L214.01 230.46V387.79L353.31 527.1H426.18V531.23H351.6L351 530.63L209.88 389.51Z" fill="#F9FAFF"/>
</g>
<path d="M-36.5 593.16V551.85H68.14L299.61 320.38C303.493 316.524 308.748 314.366 314.22 314.38H426.22V355.69H322.77L91.3 587.11C87.4175 590.967 82.1627 593.125 76.69 593.11L-36.5 593.16Z" fill="url(#paint5_linear_979_393)"/>
<path d="M-36.5 408V366.74H135.97L329.25 173.46V99.46H370.56V182C370.574 187.472 368.416 192.727 364.56 196.61L159.13 402C157.205 403.912 154.922 405.426 152.412 406.456C149.902 407.485 147.213 408.01 144.5 408H-36.5Z" fill="url(#paint6_linear_979_393)"/>
<g style="mix-blend-mode:screen" opacity="0.24">
<path d="M-36.5 581.51V577.38H-8.59L-2.35 571.14H71.01L139.15 503H154.59L277.52 380.06V367.48L322.71 322.29H426.18V326.43H324.42L281.65 369.19V381.77L281.05 382.38L156.3 507.13H140.86L72.72 575.27H-0.639999L-6.87 581.51H-36.5Z" fill="#F9FAFF"/>
</g>
<g style="mix-blend-mode:screen" opacity="0.24">
<path d="M5.37988 593.16V585.97L11.1099 580.25H72.6099L137.16 515.7H150.38L286.02 380.06V370.67L325.05 331.64H426.18V335.77H326.76L290.15 372.38V381.77L289.54 382.38L152.09 519.83H138.88L74.3199 584.38H12.8199L9.50988 587.68V593.16H5.37988Z" fill="#F9FAFF"/>
</g>
<g style="mix-blend-mode:screen" opacity="0.24">
<path d="M-36.5 388.51V384.38H11.3L18.05 377.64H149.66L360.59 166.71V99.4199H364.72V168.42L364.12 169.03L151.38 381.77H19.76L13.01 388.51H-36.5Z" fill="#F9FAFF"/>
</g>
<g style="mix-blend-mode:screen" opacity="0.24">
<path d="M161.54 341.17L164.46 338.25L166.14 339.93H171.65L350.39 161.19V99.4199H354.52V162.9L353.92 163.5L173.36 344.06H164.43L161.54 341.17Z" fill="#F9FAFF"/>
</g>
<path d="M32.6699 335V99.4199H73.9799V326.42L368.66 621.11H426.18V662.42H360.11C354.637 662.434 349.383 660.276 345.5 656.42L38.7199 349.59C34.8505 345.72 32.6746 340.473 32.6699 335Z" fill="url(#paint7_linear_979_393)"/>
<g style="mix-blend-mode:screen" opacity="0.24">
<path d="M60.1799 338.81V99.4199H64.3099V337.1L130.81 403.6V414.01L360.86 644.06H426.18V648.19H359.14L358.54 647.58L126.68 415.72V405.31L60.1799 338.81Z" fill="#F9FAFF"/>
</g>
<g style="mix-blend-mode:screen" opacity="0.24">
<path d="M51.25 345.61V99.4199H55.39V343.9L117.21 405.72V419.12L112.73 423.6L109.81 420.68L113.08 417.41V407.44L51.25 345.61Z" fill="#F9FAFF"/>
</g>
<path d="M249.42 491.98L226.6 469.16V461.99L325.79 362.8H426.18V364.38H326.44L228.18 462.64V468.5L250.54 490.86L249.42 491.98Z" fill="white"/>
<path d="M97.2999 336.47L83.4399 322.62V99.4199H85.0199V321.97L98.4099 335.36L97.2999 336.47Z" fill="white"/>
<path d="M271.59 221.156L148.391 344.355L149.508 345.473L272.707 222.273L271.59 221.156Z" fill="white"/>
<path d="M416.19 308.58H327.77L321.21 302.02V294.19H322.8V301.37L328.42 307H416.19V308.58Z" fill="white"/>
<path d="M188.63 224.59H185.64V223.01H187.97L191.33 219.65V142.07H192.92V220.3L188.63 224.59Z" fill="white"/>
<path d="M387.3 169.07H380.6L374.89 163.36V99.4199H376.48V162.71L381.25 167.49H387.3V169.07Z" fill="white"/>
<g opacity="0.5">
<path d="M64.7202 182.37H62.7302C62.7081 182.37 62.6902 182.388 62.6902 182.41V182.65C62.6902 182.672 62.7081 182.69 62.7302 182.69H64.7202C64.7423 182.69 64.7602 182.672 64.7602 182.65V182.41C64.7602 182.388 64.7423 182.37 64.7202 182.37Z" fill="white"/>
<path d="M64.7202 184.41H62.7302C62.7081 184.41 62.6902 184.428 62.6902 184.45V184.69C62.6902 184.712 62.7081 184.73 62.7302 184.73H64.7202C64.7423 184.73 64.7602 184.712 64.7602 184.69V184.45C64.7602 184.428 64.7423 184.41 64.7202 184.41Z" fill="white"/>
<path d="M64.7202 186.45H62.7302C62.7081 186.45 62.6902 186.468 62.6902 186.49V186.73C62.6902 186.752 62.7081 186.77 62.7302 186.77H64.7202C64.7423 186.77 64.7602 186.752 64.7602 186.73V186.49C64.7602 186.468 64.7423 186.45 64.7202 186.45Z" fill="white"/>
<path d="M62.72 188.82H64.71C64.7321 188.82 64.75 188.802 64.75 188.78V188.54C64.75 188.518 64.7321 188.5 64.71 188.5H62.72C62.6979 188.5 62.68 188.518 62.68 188.54V188.78C62.68 188.802 62.6979 188.82 62.72 188.82Z" fill="white"/>
<path d="M62.72 190.85H64.71C64.7321 190.85 64.75 190.832 64.75 190.81V190.57C64.75 190.548 64.7321 190.53 64.71 190.53H62.72C62.6979 190.53 62.68 190.548 62.68 190.57V190.81C62.68 190.832 62.6979 190.85 62.72 190.85Z" fill="white"/>
<path d="M62.5501 179.89H61.8201V180.62H62.5501V179.89Z" fill="white"/>
<path d="M64.7601 179.89H63.3701V180.62H64.7601V179.89Z" fill="white"/>
<path d="M62.5501 192.68H61.8201V193.41H62.5501V192.68Z" fill="white"/>
<path opacity="0.4" d="M64.7601 192.68H63.3701V193.41H64.7601V192.68Z" fill="white"/>
<path d="M332.84 290.29H330.85C330.828 290.29 330.81 290.308 330.81 290.33V290.57C330.81 290.592 330.828 290.61 330.85 290.61H332.84C332.862 290.61 332.88 290.592 332.88 290.57V290.33C332.88 290.308 332.862 290.29 332.84 290.29Z" fill="white"/>
<path d="M332.84 292.33H330.85C330.828 292.33 330.81 292.348 330.81 292.37V292.61C330.81 292.632 330.828 292.65 330.85 292.65H332.84C332.862 292.65 332.88 292.632 332.88 292.61V292.37C332.88 292.348 332.862 292.33 332.84 292.33Z" fill="white"/>
<path d="M332.84 294.37H330.85C330.828 294.37 330.81 294.388 330.81 294.41V294.65C330.81 294.672 330.828 294.69 330.85 294.69H332.84C332.862 294.69 332.88 294.672 332.88 294.65V294.41C332.88 294.388 332.862 294.37 332.84 294.37Z" fill="white"/>
<path d="M330.85 296.73H332.84C332.862 296.73 332.88 296.712 332.88 296.69V296.45C332.88 296.428 332.862 296.41 332.84 296.41H330.85C330.828 296.41 330.81 296.428 330.81 296.45V296.69C330.81 296.712 330.828 296.73 330.85 296.73Z" fill="white"/>
<path d="M330.85 298.77H332.84C332.862 298.77 332.88 298.752 332.88 298.73V298.49C332.88 298.468 332.862 298.45 332.84 298.45H330.85C330.828 298.45 330.81 298.468 330.81 298.49V298.73C330.81 298.752 330.828 298.77 330.85 298.77Z" fill="white"/>
<path d="M330.67 287.81H329.94V288.54H330.67V287.81Z" fill="white"/>
<path d="M332.88 287.81H331.49V288.54H332.88V287.81Z" fill="white"/>
<path d="M330.67 300.6H329.94V301.33H330.67V300.6Z" fill="white"/>
<path opacity="0.4" d="M332.88 300.6H331.49V301.33H332.88V300.6Z" fill="white"/>
<path d="M66.31 374.14H64.32C64.2979 374.14 64.28 374.158 64.28 374.18V374.42C64.28 374.442 64.2979 374.46 64.32 374.46H66.31C66.3321 374.46 66.35 374.442 66.35 374.42V374.18C66.35 374.158 66.3321 374.14 66.31 374.14Z" fill="white"/>
<path d="M66.31 376.18H64.32C64.2979 376.18 64.28 376.198 64.28 376.22V376.46C64.28 376.482 64.2979 376.5 64.32 376.5H66.31C66.3321 376.5 66.35 376.482 66.35 376.46V376.22C66.35 376.198 66.3321 376.18 66.31 376.18Z" fill="white"/>
<path d="M66.31 378.23H64.32C64.2979 378.23 64.28 378.248 64.28 378.27V378.51C64.28 378.532 64.2979 378.55 64.32 378.55H66.31C66.3321 378.55 66.35 378.532 66.35 378.51V378.27C66.35 378.248 66.3321 378.23 66.31 378.23Z" fill="white"/>
<path d="M64.3201 380.58H66.3101C66.3322 380.58 66.3501 380.562 66.3501 380.54V380.3C66.3501 380.278 66.3322 380.26 66.3101 380.26H64.3201C64.298 380.26 64.2801 380.278 64.2801 380.3V380.54C64.2801 380.562 64.298 380.58 64.3201 380.58Z" fill="white"/>
<path d="M64.3201 382.63H66.3101C66.3322 382.63 66.3501 382.612 66.3501 382.59V382.35C66.3501 382.328 66.3322 382.31 66.3101 382.31H64.3201C64.298 382.31 64.2801 382.328 64.2801 382.35V382.59C64.2801 382.612 64.298 382.63 64.3201 382.63Z" fill="white"/>
<path d="M64.1402 371.66H63.4102V372.39H64.1402V371.66Z" fill="white"/>
<path d="M66.35 371.66H64.96V372.39H66.35V371.66Z" fill="white"/>
<path d="M64.1402 384.46H63.4102V385.19H64.1402V384.46Z" fill="white"/>
<path opacity="0.4" d="M66.35 384.46H64.96V385.19H66.35V384.46Z" fill="white"/>
<path d="M289.74 253.41H286.7C286.546 253.41 286.42 253.535 286.42 253.69V254.86C286.42 255.015 286.546 255.14 286.7 255.14H289.74C289.895 255.14 290.02 255.015 290.02 254.86V253.69C290.02 253.535 289.895 253.41 289.74 253.41Z" fill="white"/>
<path opacity="0.2" d="M289.74 256.77H286.7C286.546 256.77 286.42 256.895 286.42 257.05V258.22C286.42 258.375 286.546 258.5 286.7 258.5H289.74C289.895 258.5 290.02 258.375 290.02 258.22V257.05C290.02 256.895 289.895 256.77 289.74 256.77Z" fill="white"/>
<path d="M289.74 260.13H286.7C286.546 260.13 286.42 260.255 286.42 260.41V261.58C286.42 261.735 286.546 261.86 286.7 261.86H289.74C289.895 261.86 290.02 261.735 290.02 261.58V260.41C290.02 260.255 289.895 260.13 289.74 260.13Z" fill="white"/>
<path opacity="0.2" d="M289.74 263.49H286.7C286.546 263.49 286.42 263.615 286.42 263.77V264.94C286.42 265.095 286.546 265.22 286.7 265.22H289.74C289.895 265.22 290.02 265.095 290.02 264.94V263.77C290.02 263.615 289.895 263.49 289.74 263.49Z" fill="white"/>
<path d="M243.37 206.21H240.33C240.175 206.21 240.05 206.335 240.05 206.49V207.66C240.05 207.815 240.175 207.94 240.33 207.94H243.37C243.525 207.94 243.65 207.815 243.65 207.66V206.49C243.65 206.335 243.525 206.21 243.37 206.21Z" fill="white"/>
<path opacity="0.2" d="M243.37 209.57H240.33C240.175 209.57 240.05 209.695 240.05 209.85V211.02C240.05 211.174 240.175 211.3 240.33 211.3H243.37C243.525 211.3 243.65 211.174 243.65 211.02V209.85C243.65 209.695 243.525 209.57 243.37 209.57Z" fill="white"/>
<path d="M243.37 212.93H240.33C240.175 212.93 240.05 213.055 240.05 213.21V214.38C240.05 214.535 240.175 214.66 240.33 214.66H243.37C243.525 214.66 243.65 214.535 243.65 214.38V213.21C243.65 213.055 243.525 212.93 243.37 212.93Z" fill="white"/>
<path opacity="0.2" d="M243.37 216.28H240.33C240.175 216.28 240.05 216.405 240.05 216.56V217.73C240.05 217.884 240.175 218.01 240.33 218.01H243.37C243.525 218.01 243.65 217.884 243.65 217.73V216.56C243.65 216.405 243.525 216.28 243.37 216.28Z" fill="white"/>
<path d="M83.85 253.41H82.53V254.72H83.85V253.41Z" fill="white"/>
<path opacity="0.2" d="M89.2701 253.41H85.6201V254.72H89.2701V253.41Z" fill="white"/>
<path d="M107.42 253.41H103.38V254.72H107.42V253.41Z" fill="white"/>
<path d="M189.03 151.4H187.72V152.71H189.03V151.4Z" fill="white"/>
<path opacity="0.2" d="M194.47 151.4H190.82V152.71H194.47V151.4Z" fill="white"/>
<path d="M212.62 151.4H208.58V152.71H212.62V151.4Z" fill="white"/>
<path d="M345.73 377.2H344.41V378.52H345.73V377.2Z" fill="white"/>
<path opacity="0.2" d="M351.16 377.2H347.51V378.52H351.16V377.2Z" fill="white"/>
<path d="M369.31 377.2H365.27V378.52H369.31V377.2Z" fill="white"/>
<path d="M51.33 321.03H50.02V322.34H51.33V321.03Z" fill="white"/>
<path opacity="0.2" d="M56.7601 321.03H53.1101V322.34H56.7601V321.03Z" fill="white"/>
<path d="M74.9101 321.03H70.8701V322.34H74.9101V321.03Z" fill="white"/>
</g>
</g>
<path style="mix-blend-mode:multiply" d="M-26.37 99.4199H416.05C418.737 99.4199 421.313 100.487 423.213 102.387C425.113 104.287 426.18 106.863 426.18 109.55V348.84H-36.5V109.54C-36.4973 106.855 -35.4289 104.281 -33.5295 102.383C-31.63 100.486 -29.0549 99.4199 -26.37 99.4199Z" fill="url(#paint8_linear_979_393)"/>
<path style="mix-blend-mode:multiply" d="M-36.5 880.81L-36.5 111.19C-36.5 108.068 -35.2599 105.075 -33.0526 102.867C-30.8453 100.66 -27.8516 99.4201 -24.73 99.4201H212.92L212.92 892.58H-24.73C-27.8516 892.58 -30.8453 891.34 -33.0526 889.133C-35.2599 886.925 -36.5 883.932 -36.5 880.81Z" fill="url(#paint9_linear_979_393)"/>
<path style="mix-blend-mode:multiply" d="M426.18 111.19L426.18 880.81C426.18 883.932 424.94 886.925 422.733 889.133C420.525 891.34 417.532 892.58 414.41 892.58H176.76L176.76 99.4199L414.41 99.4199C417.532 99.4199 420.525 100.66 422.733 102.867C424.94 105.075 426.18 108.068 426.18 111.19Z" fill="url(#paint10_linear_979_393)"/>
</g>
<defs>
<linearGradient id="paint0_linear_979_393" x1="675.42" y1="470.85" x2="15.11" y2="236.3" gradientUnits="userSpaceOnUse">
<stop stop-color="white"/>
<stop offset="1"/>
</linearGradient>
<linearGradient id="paint1_linear_979_393" x1="-126.01" y1="759.09" x2="485.86" y2="337.15" gradientUnits="userSpaceOnUse">
<stop stop-color="white"/>
<stop offset="1"/>
</linearGradient>
<linearGradient id="paint2_linear_979_393" x1="18.5801" y1="-33.8901" x2="430.32" y2="491.29" gradientUnits="userSpaceOnUse">
<stop stop-color="white"/>
<stop offset="1"/>
</linearGradient>
<linearGradient id="paint3_linear_979_393" x1="39.24" y1="855.46" x2="303.11" y2="322.62" gradientUnits="userSpaceOnUse">
<stop stop-color="white"/>
<stop offset="1"/>
</linearGradient>
<linearGradient id="paint4_linear_979_393" x1="419.71" y1="-214.14" x2="245.07" y2="660.32" gradientUnits="userSpaceOnUse">
<stop stop-color="white"/>
<stop offset="1"/>
</linearGradient>
<linearGradient id="paint5_linear_979_393" x1="515.7" y1="232.91" x2="-96.1699" y2="654.84" gradientUnits="userSpaceOnUse">
<stop stop-color="white"/>
<stop offset="1"/>
</linearGradient>
<linearGradient id="paint6_linear_979_393" x1="390.32" y1="-91.16" x2="-17.6" y2="581.9" gradientUnits="userSpaceOnUse">
<stop stop-color="white"/>
<stop offset="1"/>
</linearGradient>
<linearGradient id="paint7_linear_979_393" x1="350.44" y1="136.54" x2="86.5799" y2="669.38" gradientUnits="userSpaceOnUse">
<stop stop-color="white"/>
<stop offset="1"/>
</linearGradient>
<linearGradient id="paint8_linear_979_393" x1="194.84" y1="348.84" x2="194.84" y2="99.4199" gradientUnits="userSpaceOnUse">
<stop stop-color="white"/>
<stop offset="0.18" stop-color="#FCFCFC"/>
<stop offset="0.31" stop-color="#F2F2F2"/>
<stop offset="0.43" stop-color="#E2E2E2"/>
<stop offset="0.54" stop-color="#CBCBCB"/>
<stop offset="0.64" stop-color="#AEAEAE"/>
<stop offset="0.74" stop-color="#8A8A8A"/>
<stop offset="0.83" stop-color="#5F5F5F"/>
<stop offset="0.92" stop-color="#2E2E2E"/>
<stop offset="1"/>
</linearGradient>
<linearGradient id="paint9_linear_979_393" x1="212.91" y1="496" x2="-36.51" y2="496" gradientUnits="userSpaceOnUse">
<stop stop-color="white"/>
<stop offset="0.18" stop-color="#FCFCFC"/>
<stop offset="0.31" stop-color="#F2F2F2"/>
<stop offset="0.43" stop-color="#E2E2E2"/>
<stop offset="0.54" stop-color="#CBCBCB"/>
<stop offset="0.64" stop-color="#AEAEAE"/>
<stop offset="0.74" stop-color="#8A8A8A"/>
<stop offset="0.83" stop-color="#5F5F5F"/>
<stop offset="0.92" stop-color="#2E2E2E"/>
<stop offset="1"/>
</linearGradient>
<linearGradient id="paint10_linear_979_393" x1="176.76" y1="496" x2="426.18" y2="496" gradientUnits="userSpaceOnUse">
<stop stop-color="white"/>
<stop offset="0.18" stop-color="#FCFCFC"/>
<stop offset="0.31" stop-color="#F2F2F2"/>
<stop offset="0.43" stop-color="#E2E2E2"/>
<stop offset="0.54" stop-color="#CBCBCB"/>
<stop offset="0.64" stop-color="#AEAEAE"/>
<stop offset="0.74" stop-color="#8A8A8A"/>
<stop offset="0.83" stop-color="#5F5F5F"/>
<stop offset="0.92" stop-color="#2E2E2E"/>
<stop offset="1"/>
</linearGradient>
</defs>
</svg>
