<svg width="377" height="77" viewBox="0 0 377 77" fill="none" xmlns="http://www.w3.org/2000/svg">
    <path d="M48.87 53.8401H46.45L45.24 55.9301L46.45 58.0301H48.87L50.08 55.9301L48.87 53.8401Z" stroke="#9F60F4" stroke-width="0.57" stroke-miterlimit="10"/>
    <path d="M331.5 53.8401H329.08L327.87 55.9301L329.08 58.0301H331.5L332.71 55.9301L331.5 53.8401Z" stroke="#9F60F4" stroke-width="0.57" stroke-miterlimit="10"/>
    <path d="M47.66 55.8999H330.29" stroke="#9F60F4" stroke-width="0.29" stroke-linecap="round" stroke-linejoin="round"/>
    <path d="M311.39 74.0601L282.97 45.6401H94.55L64.14 76.0401" stroke="#9F60F4" stroke-width="0.57" stroke-miterlimit="10"/>
    <path style="mix-blend-mode:color-dodge" d="M99.5399 48.6001H97.6899V52.8001H99.5399V48.6001Z" fill="url(#paint0_linear_135_11729)"/>
    <path style="mix-blend-mode:color-dodge" d="M105.59 48.6001H103.74V52.8001H105.59V48.6001Z" fill="url(#paint1_linear_135_11729)"/>
    <path style="mix-blend-mode:color-dodge" d="M111.63 48.6001H109.78V52.8001H111.63V48.6001Z" fill="url(#paint2_linear_135_11729)"/>
    <path style="mix-blend-mode:color-dodge" d="M117.68 48.6001H115.83V52.8001H117.68V48.6001Z" fill="url(#paint3_linear_135_11729)"/>
    <path style="mix-blend-mode:color-dodge" d="M123.73 48.6001H121.88V52.8001H123.73V48.6001Z" fill="url(#paint4_linear_135_11729)"/>
    <path style="mix-blend-mode:color-dodge" d="M129.77 48.6001H127.92V52.8001H129.77V48.6001Z" fill="url(#paint5_linear_135_11729)"/>
    <path style="mix-blend-mode:color-dodge" d="M135.82 48.6001H133.97V52.8001H135.82V48.6001Z" fill="url(#paint6_linear_135_11729)"/>
    <path style="mix-blend-mode:color-dodge" d="M141.87 48.6001H140.02V52.8001H141.87V48.6001Z" fill="url(#paint7_linear_135_11729)"/>
    <path style="mix-blend-mode:color-dodge" d="M147.91 48.6001H146.06V52.8001H147.91V48.6001Z" fill="url(#paint8_linear_135_11729)"/>
    <path style="mix-blend-mode:color-dodge" d="M153.96 48.6001H152.11V52.8001H153.96V48.6001Z" fill="url(#paint9_linear_135_11729)"/>
    <path style="mix-blend-mode:color-dodge" d="M160 48.6001H158.15V52.8001H160V48.6001Z" fill="url(#paint10_linear_135_11729)"/>
    <path style="mix-blend-mode:color-dodge" d="M276.21 52.8H278.06V48.6H276.21V52.8Z" fill="url(#paint11_linear_135_11729)"/>
    <path style="mix-blend-mode:color-dodge" d="M270.15 52.8H272V48.6H270.15V52.8Z" fill="url(#paint12_linear_135_11729)"/>
    <path style="mix-blend-mode:color-dodge" d="M264.11 52.8H265.96V48.6H264.11V52.8Z" fill="url(#paint13_linear_135_11729)"/>
    <path style="mix-blend-mode:color-dodge" d="M258.07 52.8H259.92V48.6H258.07V52.8Z" fill="url(#paint14_linear_135_11729)"/>
    <path style="mix-blend-mode:color-dodge" d="M252.02 52.8H253.87V48.6H252.02V52.8Z" fill="url(#paint15_linear_135_11729)"/>
    <path style="mix-blend-mode:color-dodge" d="M245.97 52.8H247.82V48.6H245.97V52.8Z" fill="url(#paint16_linear_135_11729)"/>
    <path style="mix-blend-mode:color-dodge" d="M239.92 52.8H241.77V48.6H239.92V52.8Z" fill="url(#paint17_linear_135_11729)"/>
    <path style="mix-blend-mode:color-dodge" d="M233.88 52.8H235.73V48.6H233.88V52.8Z" fill="url(#paint18_linear_135_11729)"/>
    <path style="mix-blend-mode:color-dodge" d="M227.84 52.8H229.69V48.6H227.84V52.8Z" fill="url(#paint19_linear_135_11729)"/>
    <path style="mix-blend-mode:color-dodge" d="M221.78 52.8H223.63V48.6H221.78V52.8Z" fill="url(#paint20_linear_135_11729)"/>
    <path style="mix-blend-mode:color-dodge" d="M215.74 52.8H217.59V48.6H215.74V52.8Z" fill="url(#paint21_linear_135_11729)"/>
    <path style="mix-blend-mode:overlay" d="M181.82 58.2701C182.74 57.3035 183.663 56.3468 184.59 55.4001L184.99 55.0001C183.767 53.7539 183.053 52.0953 182.99 50.3501H178.4C178.472 53.3332 179.698 56.1722 181.82 58.2701Z" fill="url(#paint22_linear_135_11729)"/>
    <path style="mix-blend-mode:overlay" d="M197 50.3401C196.932 52.0871 196.213 53.7455 194.985 54.9891C193.756 56.2327 192.106 56.9715 190.36 57.0601V61.6201C193.313 61.5265 196.118 60.307 198.2 58.2115C200.283 56.1161 201.485 53.3033 201.56 50.35L197 50.3401Z" fill="url(#paint23_linear_135_11729)"/>
    <path style="mix-blend-mode:overlay" d="M198.14 41.88C196.06 39.7963 193.263 38.587 190.32 38.5V43.06C191.939 43.1403 193.48 43.78 194.68 44.87C195.81 43.85 197 42.86 198.14 41.88Z" fill="url(#paint24_linear_135_11729)"/>
    <path style="mix-blend-mode:overlay" d="M195.08 45.2701C196.204 46.4704 196.87 48.0281 196.96 49.67H201.52C201.427 46.935 200.364 44.3224 198.52 42.3C197.37 43.27 196.21 44.2501 195.08 45.2701Z" fill="url(#paint25_linear_135_11729)"/>
    <path style="mix-blend-mode:overlay" d="M183 49.6599C183.083 47.9136 183.817 46.2618 185.057 45.0293C186.297 43.7968 187.953 43.0729 189.7 42.9999V38.4399C186.748 38.5097 183.935 39.7053 181.836 41.7819C179.737 43.8586 178.511 46.659 178.41 49.6099L183 49.6599Z" fill="url(#paint26_linear_135_11729)"/>
    <path style="mix-blend-mode:overlay" d="M185.15 55.6301C184.17 56.6301 183.197 57.6301 182.23 58.6301C184.278 60.4959 186.93 61.5609 189.7 61.6301V57.0701C188.118 57.0125 186.602 56.4203 185.4 55.3901L185.15 55.6301Z" fill="url(#paint27_linear_135_11729)"/>
    <path style="mix-blend-mode:overlay" d="M67.16 50.16C67.8267 49.4934 68.4933 48.8267 69.16 48.16L69.44 47.8801C68.5573 46.9954 68.0428 45.809 68 44.5601H64.74C64.7913 46.6696 65.6588 48.6771 67.16 50.16Z" fill="url(#paint28_linear_135_11729)"/>
    <path style="mix-blend-mode:overlay" d="M77.87 44.56C77.8105 45.7921 77.2976 46.9586 76.4301 47.8354C75.5625 48.7123 74.4014 49.2374 73.17 49.31V52.53C75.2634 52.4639 77.2516 51.5974 78.7251 50.1091C80.1985 48.6207 81.045 46.6239 81.09 44.53L77.87 44.56Z" fill="url(#paint29_linear_135_11729)"/>
    <path style="mix-blend-mode:overlay" d="M78.7 38.5699C77.2296 37.0962 75.251 36.2411 73.17 36.1799V39.4C74.3141 39.4567 75.4028 39.9091 76.25 40.6799C77.06 39.9999 77.88 39.2599 78.7 38.5699Z" fill="url(#paint30_linear_135_11729)"/>
    <path style="mix-blend-mode:overlay" d="M76.54 40.9999C77.3355 41.8477 77.8065 42.949 77.87 44.1099H81.09C81.0417 42.1666 80.3005 40.3046 79 38.8599C78.16 39.5499 77.34 40.2499 76.54 40.9999Z" fill="url(#paint31_linear_135_11729)"/>
    <path style="mix-blend-mode:overlay" d="M68 44.0699C68.0775 42.8405 68.6062 41.6829 69.4846 40.8193C70.3631 39.9556 71.5294 39.4466 72.76 39.39V36.1699C70.6695 36.2147 68.6755 37.0584 67.1876 38.5276C65.6998 39.9969 64.8311 41.9801 64.76 44.0699H68Z" fill="url(#paint32_linear_135_11729)"/>
    <path style="mix-blend-mode:overlay" d="M69.51 48.3001C68.8433 49.0068 68.1566 49.7201 67.45 50.4401C68.9025 51.7472 70.7763 52.489 72.73 52.5302V49.3101C71.6249 49.2605 70.5685 48.8415 69.73 48.1201L69.51 48.3001Z" fill="url(#paint33_linear_135_11729)"/>
    <path style="mix-blend-mode:overlay" d="M298.87 50.16C299.537 49.4934 300.203 48.8267 300.87 48.16L301.15 47.8801C300.278 47.0013 299.768 45.8272 299.72 44.5901H296.5C296.546 46.6822 297.394 48.6765 298.87 50.16Z" fill="url(#paint34_linear_135_11729)"/>
    <path style="mix-blend-mode:overlay" d="M309.58 44.56C309.52 45.7921 309.008 46.9586 308.14 47.8354C307.272 48.7123 306.111 49.2374 304.88 49.31V52.53C306.973 52.4639 308.962 51.5974 310.435 50.1091C311.909 48.6207 312.755 46.6239 312.8 44.53L309.58 44.56Z" fill="url(#paint35_linear_135_11729)"/>
    <path style="mix-blend-mode:overlay" d="M310.41 38.5699C308.94 37.0962 306.961 36.2411 304.88 36.1799V39.4C306.024 39.4567 307.113 39.9091 307.96 40.6799C308.76 39.9999 309.59 39.2599 310.41 38.5699Z" fill="url(#paint36_linear_135_11729)"/>
    <path style="mix-blend-mode:overlay" d="M308.25 40.9999C309.045 41.8477 309.516 42.949 309.58 44.1099H312.8C312.737 42.1779 311.989 40.3314 310.69 38.8999C309.86 39.5499 309 40.2499 308.25 40.9999Z" fill="url(#paint37_linear_135_11729)"/>
    <path style="mix-blend-mode:overlay" d="M299.68 44.0699C299.757 42.8405 300.286 41.6829 301.165 40.8193C302.043 39.9556 303.209 39.4466 304.44 39.39V36.1699C302.349 36.2147 300.355 37.0584 298.868 38.5276C297.38 39.9969 296.511 41.9801 296.44 44.0699H299.68Z" fill="url(#paint38_linear_135_11729)"/>
    <path style="mix-blend-mode:overlay" d="M301.22 48.3001C300.553 49.0068 299.867 49.7201 299.16 50.4401C300.613 51.7472 302.486 52.489 304.44 52.5302V49.3101C303.335 49.2605 302.279 48.8415 301.44 48.1201L301.22 48.3001Z" fill="url(#paint39_linear_135_11729)"/>
    <path d="M72.92 44.5601H45.24L1 0.310059" stroke="#9F60F4" stroke-width="0.5" stroke-miterlimit="10"/>
    <path d="M304.08 44.5601H331.76L376 0.310059" stroke="#9F60F4" stroke-width="0.5" stroke-miterlimit="10"/>
    <defs>
        <linearGradient id="paint0_linear_135_11729" x1="91.5799" y1="50.7001" x2="207.16" y2="50.7001" gradientUnits="userSpaceOnUse">
            <stop stop-color="white"/>
            <stop offset="1" stop-opacity="0"/>
        </linearGradient>
        <linearGradient id="paint1_linear_135_11729" x1="91.58" y1="50.7001" x2="207.16" y2="50.7001" gradientUnits="userSpaceOnUse">
            <stop stop-color="white"/>
            <stop offset="1" stop-opacity="0"/>
        </linearGradient>
        <linearGradient id="paint2_linear_135_11729" x1="91.58" y1="50.7001" x2="207.16" y2="50.7001" gradientUnits="userSpaceOnUse">
            <stop stop-color="white"/>
            <stop offset="1" stop-opacity="0"/>
        </linearGradient>
        <linearGradient id="paint3_linear_135_11729" x1="91.58" y1="50.7001" x2="207.16" y2="50.7001" gradientUnits="userSpaceOnUse">
            <stop stop-color="white"/>
            <stop offset="1" stop-opacity="0"/>
        </linearGradient>
        <linearGradient id="paint4_linear_135_11729" x1="91.5802" y1="50.7001" x2="207.16" y2="50.7001" gradientUnits="userSpaceOnUse">
            <stop stop-color="white"/>
            <stop offset="1" stop-opacity="0"/>
        </linearGradient>
        <linearGradient id="paint5_linear_135_11729" x1="91.5799" y1="50.7001" x2="207.16" y2="50.7001" gradientUnits="userSpaceOnUse">
            <stop stop-color="white"/>
            <stop offset="1" stop-opacity="0"/>
        </linearGradient>
        <linearGradient id="paint6_linear_135_11729" x1="91.5798" y1="50.7001" x2="207.16" y2="50.7001" gradientUnits="userSpaceOnUse">
            <stop stop-color="white"/>
            <stop offset="1" stop-opacity="0"/>
        </linearGradient>
        <linearGradient id="paint7_linear_135_11729" x1="91.5803" y1="50.7001" x2="207.16" y2="50.7001" gradientUnits="userSpaceOnUse">
            <stop stop-color="white"/>
            <stop offset="1" stop-opacity="0"/>
        </linearGradient>
        <linearGradient id="paint8_linear_135_11729" x1="91.5799" y1="50.7001" x2="207.16" y2="50.7001" gradientUnits="userSpaceOnUse">
            <stop stop-color="white"/>
            <stop offset="1" stop-opacity="0"/>
        </linearGradient>
        <linearGradient id="paint9_linear_135_11729" x1="91.5798" y1="50.7001" x2="207.16" y2="50.7001" gradientUnits="userSpaceOnUse">
            <stop stop-color="white"/>
            <stop offset="1" stop-opacity="0"/>
        </linearGradient>
        <linearGradient id="paint10_linear_135_11729" x1="91.5798" y1="50.7001" x2="207.16" y2="50.7001" gradientUnits="userSpaceOnUse">
            <stop stop-color="white"/>
            <stop offset="1" stop-opacity="0"/>
        </linearGradient>
        <linearGradient id="paint11_linear_135_11729" x1="284.17" y1="50.7" x2="168.592" y2="50.7" gradientUnits="userSpaceOnUse">
            <stop stop-color="white"/>
            <stop offset="1" stop-opacity="0"/>
        </linearGradient>
        <linearGradient id="paint12_linear_135_11729" x1="284.16" y1="50.7" x2="168.58" y2="50.7" gradientUnits="userSpaceOnUse">
            <stop stop-color="white"/>
            <stop offset="1" stop-opacity="0"/>
        </linearGradient>
        <linearGradient id="paint13_linear_135_11729" x1="284.16" y1="50.7" x2="168.58" y2="50.7" gradientUnits="userSpaceOnUse">
            <stop stop-color="white"/>
            <stop offset="1" stop-opacity="0"/>
        </linearGradient>
        <linearGradient id="paint14_linear_135_11729" x1="284.17" y1="50.7" x2="168.59" y2="50.7" gradientUnits="userSpaceOnUse">
            <stop stop-color="white"/>
            <stop offset="1" stop-opacity="0"/>
        </linearGradient>
        <linearGradient id="paint15_linear_135_11729" x1="284.17" y1="50.7" x2="168.58" y2="50.7" gradientUnits="userSpaceOnUse">
            <stop stop-color="white"/>
            <stop offset="1" stop-opacity="0"/>
        </linearGradient>
        <linearGradient id="paint16_linear_135_11729" x1="284.16" y1="50.7" x2="168.58" y2="50.7" gradientUnits="userSpaceOnUse">
            <stop stop-color="white"/>
            <stop offset="1" stop-opacity="0"/>
        </linearGradient>
        <linearGradient id="paint17_linear_135_11729" x1="284.16" y1="50.7" x2="168.58" y2="50.7" gradientUnits="userSpaceOnUse">
            <stop stop-color="white"/>
            <stop offset="1" stop-opacity="0"/>
        </linearGradient>
        <linearGradient id="paint18_linear_135_11729" x1="284.17" y1="50.7" x2="168.59" y2="50.7" gradientUnits="userSpaceOnUse">
            <stop stop-color="white"/>
            <stop offset="1" stop-opacity="0"/>
        </linearGradient>
        <linearGradient id="paint19_linear_135_11729" x1="284.17" y1="50.7" x2="168.59" y2="50.7" gradientUnits="userSpaceOnUse">
            <stop stop-color="white"/>
            <stop offset="1" stop-opacity="0"/>
        </linearGradient>
        <linearGradient id="paint20_linear_135_11729" x1="284.16" y1="50.7" x2="168.58" y2="50.7" gradientUnits="userSpaceOnUse">
            <stop stop-color="white"/>
            <stop offset="1" stop-opacity="0"/>
        </linearGradient>
        <linearGradient id="paint21_linear_135_11729" x1="284.17" y1="50.7" x2="168.59" y2="50.7" gradientUnits="userSpaceOnUse">
            <stop stop-color="white"/>
            <stop offset="1" stop-opacity="0"/>
        </linearGradient>
        <linearGradient id="paint22_linear_135_11729" x1="193.38" y1="26.86" x2="177.03" y2="62.9601" gradientUnits="userSpaceOnUse">
            <stop stop-color="white"/>
            <stop offset="0.04" stop-color="white" stop-opacity="0.96"/>
            <stop offset="0.4" stop-color="white" stop-opacity="0.55"/>
            <stop offset="0.69" stop-color="white" stop-opacity="0.26"/>
            <stop offset="0.9" stop-color="white" stop-opacity="0.07"/>
            <stop offset="1" stop-color="white" stop-opacity="0"/>
        </linearGradient>
        <linearGradient id="paint23_linear_135_11729" x1="206" y1="32.5701" x2="189.65" y2="68.6801" gradientUnits="userSpaceOnUse">
            <stop stop-color="white"/>
            <stop offset="0.04" stop-color="white" stop-opacity="0.96"/>
            <stop offset="0.4" stop-color="white" stop-opacity="0.55"/>
            <stop offset="0.69" stop-color="white" stop-opacity="0.26"/>
            <stop offset="0.9" stop-color="white" stop-opacity="0.07"/>
            <stop offset="1" stop-color="white" stop-opacity="0"/>
        </linearGradient>
        <linearGradient id="paint24_linear_135_11729" x1="199.1" y1="29.45" x2="182.75" y2="65.55" gradientUnits="userSpaceOnUse">
            <stop stop-color="white"/>
            <stop offset="0.04" stop-color="white" stop-opacity="0.96"/>
            <stop offset="0.4" stop-color="white" stop-opacity="0.55"/>
            <stop offset="0.69" stop-color="white" stop-opacity="0.26"/>
            <stop offset="0.9" stop-color="white" stop-opacity="0.07"/>
            <stop offset="1" stop-color="white" stop-opacity="0"/>
        </linearGradient>
        <linearGradient id="paint25_linear_135_11729" x1="205.21" y1="32.2101" x2="188.86" y2="68.32" gradientUnits="userSpaceOnUse">
            <stop stop-color="white"/>
            <stop offset="0.04" stop-color="white" stop-opacity="0.96"/>
            <stop offset="0.4" stop-color="white" stop-opacity="0.55"/>
            <stop offset="0.69" stop-color="white" stop-opacity="0.26"/>
            <stop offset="0.9" stop-color="white" stop-opacity="0.07"/>
            <stop offset="1" stop-color="white" stop-opacity="0"/>
        </linearGradient>
        <linearGradient id="paint26_linear_135_11729" x1="192.57" y1="26.49" x2="176.22" y2="62.5999" gradientUnits="userSpaceOnUse">
            <stop stop-color="white"/>
            <stop offset="0.04" stop-color="white" stop-opacity="0.96"/>
            <stop offset="0.4" stop-color="white" stop-opacity="0.55"/>
            <stop offset="0.69" stop-color="white" stop-opacity="0.26"/>
            <stop offset="0.9" stop-color="white" stop-opacity="0.07"/>
            <stop offset="1" stop-color="white" stop-opacity="0"/>
        </linearGradient>
        <linearGradient id="paint27_linear_135_11729" x1="199.73" y1="29.7302" x2="183.38" y2="65.8401" gradientUnits="userSpaceOnUse">
            <stop stop-color="white"/>
            <stop offset="0.04" stop-color="white" stop-opacity="0.96"/>
            <stop offset="0.4" stop-color="white" stop-opacity="0.55"/>
            <stop offset="0.69" stop-color="white" stop-opacity="0.26"/>
            <stop offset="0.9" stop-color="white" stop-opacity="0.07"/>
            <stop offset="1" stop-color="white" stop-opacity="0"/>
        </linearGradient>
        <linearGradient id="paint28_linear_135_11729" x1="75.33" y1="27.9501" x2="63.7701" y2="53.4801" gradientUnits="userSpaceOnUse">
            <stop stop-color="white"/>
            <stop offset="0.04" stop-color="white" stop-opacity="0.96"/>
            <stop offset="0.4" stop-color="white" stop-opacity="0.55"/>
            <stop offset="0.69" stop-color="white" stop-opacity="0.26"/>
            <stop offset="0.9" stop-color="white" stop-opacity="0.07"/>
            <stop offset="1" stop-color="white" stop-opacity="0"/>
        </linearGradient>
        <linearGradient id="paint29_linear_135_11729" x1="84.26" y1="31.99" x2="72.69" y2="57.52" gradientUnits="userSpaceOnUse">
            <stop stop-color="white"/>
            <stop offset="0.04" stop-color="white" stop-opacity="0.96"/>
            <stop offset="0.4" stop-color="white" stop-opacity="0.55"/>
            <stop offset="0.69" stop-color="white" stop-opacity="0.26"/>
            <stop offset="0.9" stop-color="white" stop-opacity="0.07"/>
            <stop offset="1" stop-color="white" stop-opacity="0"/>
        </linearGradient>
        <linearGradient id="paint30_linear_135_11729" x1="79.38" y1="29.7799" x2="67.81" y2="55.3099" gradientUnits="userSpaceOnUse">
            <stop stop-color="white"/>
            <stop offset="0.04" stop-color="white" stop-opacity="0.96"/>
            <stop offset="0.4" stop-color="white" stop-opacity="0.55"/>
            <stop offset="0.69" stop-color="white" stop-opacity="0.26"/>
            <stop offset="0.9" stop-color="white" stop-opacity="0.07"/>
            <stop offset="1" stop-color="white" stop-opacity="0"/>
        </linearGradient>
        <linearGradient id="paint31_linear_135_11729" x1="83.7" y1="31.7399" x2="72.14" y2="57.2699" gradientUnits="userSpaceOnUse">
            <stop stop-color="white"/>
            <stop offset="0.04" stop-color="white" stop-opacity="0.96"/>
            <stop offset="0.4" stop-color="white" stop-opacity="0.55"/>
            <stop offset="0.69" stop-color="white" stop-opacity="0.26"/>
            <stop offset="0.9" stop-color="white" stop-opacity="0.07"/>
            <stop offset="1" stop-color="white" stop-opacity="0"/>
        </linearGradient>
        <linearGradient id="paint32_linear_135_11729" x1="74.76" y1="27.6899" x2="63.2" y2="53.2199" gradientUnits="userSpaceOnUse">
            <stop stop-color="white"/>
            <stop offset="0.04" stop-color="white" stop-opacity="0.96"/>
            <stop offset="0.4" stop-color="white" stop-opacity="0.55"/>
            <stop offset="0.69" stop-color="white" stop-opacity="0.26"/>
            <stop offset="0.9" stop-color="white" stop-opacity="0.07"/>
            <stop offset="1" stop-color="white" stop-opacity="0"/>
        </linearGradient>
        <linearGradient id="paint33_linear_135_11729" x1="79.83" y1="29.98" x2="68.2598" y2="55.5101" gradientUnits="userSpaceOnUse">
            <stop stop-color="white"/>
            <stop offset="0.04" stop-color="white" stop-opacity="0.96"/>
            <stop offset="0.4" stop-color="white" stop-opacity="0.55"/>
            <stop offset="0.69" stop-color="white" stop-opacity="0.26"/>
            <stop offset="0.9" stop-color="white" stop-opacity="0.07"/>
            <stop offset="1" stop-color="white" stop-opacity="0"/>
        </linearGradient>
        <linearGradient id="paint34_linear_135_11729" x1="307.04" y1="27.9502" x2="295.48" y2="53.4801" gradientUnits="userSpaceOnUse">
            <stop stop-color="white"/>
            <stop offset="0.04" stop-color="white" stop-opacity="0.96"/>
            <stop offset="0.4" stop-color="white" stop-opacity="0.55"/>
            <stop offset="0.69" stop-color="white" stop-opacity="0.26"/>
            <stop offset="0.9" stop-color="white" stop-opacity="0.07"/>
            <stop offset="1" stop-color="white" stop-opacity="0"/>
        </linearGradient>
        <linearGradient id="paint35_linear_135_11729" x1="315.96" y1="31.99" x2="304.4" y2="57.52" gradientUnits="userSpaceOnUse">
            <stop stop-color="white"/>
            <stop offset="0.04" stop-color="white" stop-opacity="0.96"/>
            <stop offset="0.4" stop-color="white" stop-opacity="0.55"/>
            <stop offset="0.69" stop-color="white" stop-opacity="0.26"/>
            <stop offset="0.9" stop-color="white" stop-opacity="0.07"/>
            <stop offset="1" stop-color="white" stop-opacity="0"/>
        </linearGradient>
        <linearGradient id="paint36_linear_135_11729" x1="311.09" y1="29.7799" x2="299.52" y2="55.3099" gradientUnits="userSpaceOnUse">
            <stop stop-color="white"/>
            <stop offset="0.04" stop-color="white" stop-opacity="0.96"/>
            <stop offset="0.4" stop-color="white" stop-opacity="0.55"/>
            <stop offset="0.69" stop-color="white" stop-opacity="0.26"/>
            <stop offset="0.9" stop-color="white" stop-opacity="0.07"/>
            <stop offset="1" stop-color="white" stop-opacity="0"/>
        </linearGradient>
        <linearGradient id="paint37_linear_135_11729" x1="315.41" y1="31.74" x2="303.85" y2="57.2698" gradientUnits="userSpaceOnUse">
            <stop stop-color="white"/>
            <stop offset="0.04" stop-color="white" stop-opacity="0.96"/>
            <stop offset="0.4" stop-color="white" stop-opacity="0.55"/>
            <stop offset="0.69" stop-color="white" stop-opacity="0.26"/>
            <stop offset="0.9" stop-color="white" stop-opacity="0.07"/>
            <stop offset="1" stop-color="white" stop-opacity="0"/>
        </linearGradient>
        <linearGradient id="paint38_linear_135_11729" x1="306.47" y1="27.6899" x2="294.91" y2="53.2199" gradientUnits="userSpaceOnUse">
            <stop stop-color="white"/>
            <stop offset="0.04" stop-color="white" stop-opacity="0.96"/>
            <stop offset="0.4" stop-color="white" stop-opacity="0.55"/>
            <stop offset="0.69" stop-color="white" stop-opacity="0.26"/>
            <stop offset="0.9" stop-color="white" stop-opacity="0.07"/>
            <stop offset="1" stop-color="white" stop-opacity="0"/>
        </linearGradient>
        <linearGradient id="paint39_linear_135_11729" x1="311.53" y1="29.98" x2="299.97" y2="55.5101" gradientUnits="userSpaceOnUse">
            <stop stop-color="white"/>
            <stop offset="0.04" stop-color="white" stop-opacity="0.96"/>
            <stop offset="0.4" stop-color="white" stop-opacity="0.55"/>
            <stop offset="0.69" stop-color="white" stop-opacity="0.26"/>
            <stop offset="0.9" stop-color="white" stop-opacity="0.07"/>
            <stop offset="1" stop-color="white" stop-opacity="0"/>
        </linearGradient>
    </defs>
</svg>
