<svg width="184" height="31" viewBox="0 0 184 31" xmlns="http://www.w3.org/2000/svg">
    <path d="M143 29.33V30.4801H141.85V29.33H143ZM138.4 29.33V30.4801H137.25V29.33H138.4ZM133.8 29.33V30.4801H132.65V29.33H133.8ZM129.2 29.33V30.4801H128.05V29.33H129.2ZM124.6 29.33V30.4801H123.45V29.33H124.6ZM120 29.33V30.4801H118.85V29.33H120ZM115.4 29.33V30.4801H114.25V29.33H115.4ZM110.8 29.33V30.4801H109.65V29.33H110.8ZM106.2 29.33V30.4801H105.05V29.33H106.2ZM101.6 29.33V30.4801H100.45V29.33H101.6ZM97 29.33V30.4801H95.85V29.33H97ZM92.4 29.33V30.4801H91.25V29.33H92.4ZM183.82 29.33V30.4801H182.67V29.33H183.82ZM179.22 29.33V30.4801H178.07V29.33H179.22ZM174.62 29.33V30.4801H173.47V29.33H174.62ZM170.02 29.33V30.4801H168.87V29.33H170.02ZM165.42 29.33V30.4801H164.27V29.33H165.42ZM160.82 29.33V30.4801H159.67V29.33H160.82ZM156.22 29.33V30.4801H155.07V29.33H156.22ZM151.62 29.33V30.4801H150.47V29.33H151.62ZM147.02 29.33V30.4801H145.87V29.33H147.02ZM87.82 29.33V30.4801H86.67V29.33H87.82ZM83.22 29.33V30.4801H82.07V29.33H83.22ZM78.62 29.33V30.4801H77.47V29.33H78.62ZM74.02 29.33V30.4801H72.87V29.33H74.02ZM69.42 29.33V30.4801H68.27V29.33H69.42ZM64.82 29.33V30.4801H63.67V29.33H64.82ZM61.24 28.47L60.31 29.15L59.63 28.22L60.56 27.5401L61.24 28.47ZM58.54 24.74L57.61 25.4201L56.93 24.49L57.86 23.81L58.54 24.74ZM55.84 21.0101L54.91 21.69L54.23 20.7601L55.16 20.08L55.84 21.0101ZM53.14 17.28L52.21 17.96L51.53 17.03L52.46 16.3501L53.14 17.28ZM50.44 13.56L49.51 14.2401L48.83 13.31L49.76 12.6301L50.44 13.56ZM47.74 9.83005L46.81 10.51L46.13 9.58005L47.06 8.90004L47.74 9.83005ZM45.04 6.11005L44.11 6.79004L43.43 5.86005L44.36 5.18004L45.04 6.11005ZM42.34 2.39005L41.41 3.07005L40.73 2.14005L41.66 1.46005L42.34 2.39005ZM37.96 0.790039V1.94005H36.81V0.790039H37.96ZM33.36 0.790039V1.94005H32.21V0.790039H33.36ZM28.76 0.790039V1.94005H27.61V0.790039H28.76ZM24.16 0.790039V1.94005H23V0.790039H24.16ZM19.56 0.790039V1.94005H18.41V0.790039H19.56ZM14.96 0.790039V1.94005H13.81V0.790039H14.96ZM10.36 0.790039V1.94005H9.21001V0.790039H10.36ZM5.76 0.790039V1.94005H4.61V0.790039H5.76ZM1.16 0.790039V1.94005H0V0.790039H1.16Z"/>
</svg>
