<svg width="203" height="31" viewBox="0 0 203 31" xmlns="http://www.w3.org/2000/svg">
<path d="M1.71006 0.790039V1.94003H0.560059V0.790039H1.71006ZM162 29.33V30.48H160.85V29.33H162ZM157.4 29.33V30.48H156.25V29.33H157.4ZM152.8 29.33V30.48H151.65V29.33H152.8ZM148.2 29.33V30.48H147.05V29.33H148.2ZM143.6 29.33V30.48H142.45V29.33H143.6ZM139 29.33V30.48H137.85V29.33H139ZM134.4 29.33V30.48H133.25V29.33H134.4ZM129.8 29.33V30.48H128.65V29.33H129.8ZM125.2 29.33V30.48H124.05V29.33H125.2ZM120.6 29.33V30.48H119.45V29.33H120.6ZM116 29.33V30.48H114.85V29.33H116ZM111.4 29.33V30.48H110.25V29.33H111.4ZM202.82 29.33V30.48H201.67V29.33H202.82ZM198.22 29.33V30.48H197.07V29.33H198.22ZM193.62 29.33V30.48H192.47V29.33H193.62ZM189.02 29.33V30.48H187.87V29.33H189.02ZM184.42 29.33V30.48H183.27V29.33H184.42ZM179.82 29.33V30.48H178.67V29.33H179.82ZM175.22 29.33V30.48H174.07V29.33H175.22ZM170.62 29.33V30.48H169.47V29.33H170.62ZM166.02 29.33V30.48H164.87V29.33H166.02ZM106.82 29.33V30.48H105.67V29.33H106.82ZM102.22 29.33V30.48H101.07V29.33H102.22ZM97.6201 29.33V30.48H96.4701V29.33H97.6201ZM93.0201 29.33V30.48H91.8701V29.33H93.0201ZM88.4201 29.33V30.48H87.2701V29.33H88.4201ZM83.8201 29.33V30.48H82.6701V29.33H83.8201ZM80.2401 28.47L79.3101 29.1501L78.6301 28.22L79.5601 27.54L80.2401 28.47ZM77.5401 24.74L76.6101 25.42L75.9301 24.49L76.8601 23.81L77.5401 24.74ZM74.8401 21.01L73.9101 21.69L73.2301 20.76L74.1601 20.08L74.8401 21.01ZM72.1401 17.2801L71.2101 17.9601L70.5301 17.0301L71.4601 16.35L72.1401 17.2801ZM69.4401 13.56L68.5101 14.24L67.8301 13.31L68.7601 12.63L69.4401 13.56ZM66.7401 9.83002L65.8101 10.51L65.1301 9.58002L66.0601 8.90002L66.7401 9.83002ZM64.0401 6.11002L63.1101 6.79004L62.4301 5.86002L63.3601 5.18002L64.0401 6.11002ZM61.3401 2.39005L60.4101 3.07004L59.7301 2.14005L60.6601 1.46002L61.3401 2.39005ZM56.9601 0.790039V1.94003H55.7901V0.790039H56.9601ZM52.3601 0.790039V1.94003H51.1901V0.790039H52.3601ZM47.7601 0.790039V1.94003H46.5801V0.790039H47.7601ZM43.1601 0.790039V1.94003H42.0001V0.790039H43.1601ZM38.5601 0.790039V1.94003H37.3801V0.790039H38.5601ZM33.9601 0.790039V1.94003H32.7801V0.790039H33.9601ZM29.3601 0.790039V1.94003H28.1801V0.790039H29.3601ZM24.7601 0.790039V1.94003H23.5701V0.790039H24.7601ZM20.1601 0.790039V1.94003H19.0001V0.790039H20.1601ZM15.5601 0.790039V1.94003H14.3701V0.790039H15.5601ZM10.9601 0.790039V1.94003H9.77006V0.790039H10.9601ZM6.36006 0.790039V1.94003H5.16006V0.790039H6.36006Z"/>
</svg>
