<svg width="276" height="31" viewBox="0 0 276 31" xmlns="http://www.w3.org/2000/svg">
    <path d="M143.59 29.3301V30.48H142.44V29.3301H143.59ZM138.99 29.3301V30.48H137.84V29.3301H138.99ZM134.39 29.3301V30.48H133.24V29.3301H134.39ZM129.79 29.3301V30.48H128.64V29.3301H129.79ZM125.19 29.3301V30.48H124V29.3301H125.19ZM120.59 29.3301V30.48H119.44V29.3301H120.59ZM115.99 29.3301V30.48H114.84V29.3301H115.99ZM111.39 29.3301V30.48H110.24V29.3301H111.39ZM106.79 29.3301V30.48H105.64V29.3301H106.79ZM102.19 29.3301V30.48H101V29.3301H102.19ZM97.59 29.3301V30.48H96.44V29.3301H97.59ZM92.99 29.3301V30.48H91.84V29.3301H92.99ZM184.41 29.3301V30.48H183.26V29.3301H184.41ZM179.81 29.3301V30.48H178.66V29.3301H179.81ZM175.21 29.3301V30.48H174V29.3301H175.21ZM170.61 29.3301V30.48H169.46V29.3301H170.61ZM166.01 29.3301V30.48H164.86V29.3301H166.01ZM161.41 29.3301V30.48H160.26V29.3301H161.41ZM156.81 29.3301V30.48H155.66V29.3301H156.81ZM152.21 29.3301V30.48H151V29.3301H152.21ZM147.61 29.3301V30.48H146.46V29.3301H147.61ZM220.61 29.3301V30.48H219.46V29.3301H220.61ZM216.01 29.3301V30.48H214.86V29.3301H216.01ZM211.41 29.3301V30.48H210.26V29.3301H211.41ZM206.81 29.3301V30.48H205.66V29.3301H206.81ZM202.21 29.3301V30.48H201V29.3301H202.21ZM197.61 29.3301V30.48H196.46V29.3301H197.61ZM193.01 29.3301V30.48H191.86V29.3301H193.01ZM188.41 29.3301V30.48H187.26V29.3301H188.41ZM183.81 29.3301V30.48H182.66V29.3301H183.81ZM261.42 29.3301V30.48H260.27V29.3301H261.42ZM256.82 29.3301V30.48H255.67V29.3301H256.82ZM252.22 29.3301V30.48H251V29.3301H252.22ZM247.62 29.3301V30.48H246.47V29.3301H247.62ZM275.82 29.3301V30.48H274.67V29.3301H275.82ZM271.22 29.3301V30.48H270V29.3301H271.22ZM266.62 29.3301V30.48H265.47V29.3301H266.62ZM243.02 29.3301V30.48H241.87V29.3301H243.02ZM238.42 29.3301V30.48H237.27V29.3301H238.42ZM233.82 29.3301V30.48H232.67V29.3301H233.82ZM229.22 29.3301V30.48H228V29.3301H229.22ZM224.62 29.3301V30.48H223.47V29.3301H224.62ZM88.42 29.3301V30.48H87.27V29.3301H88.42ZM83.82 29.3301V30.48H82.67V29.3301H83.82ZM79.22 29.3301V30.48H78V29.3301H79.22ZM74.62 29.3301V30.48H73.47V29.3301H74.62ZM70.02 29.3301V30.48H68.8V29.3301H70.02ZM65.42 29.3301V30.48H64.2V29.3301H65.42ZM61.84 28.47L60.91 29.1501L60.23 28.22L61.16 27.54L61.84 28.47ZM59.14 24.7401L58.21 25.42L57.53 24.4901L58.46 23.8101L59.14 24.7401ZM56.44 21.0101L55.51 21.6901L54.83 20.7601L55.76 20.0801L56.44 21.0101ZM53.74 17.2801L52.81 17.9601L52.13 17.0301L53.06 16.35L53.74 17.2801ZM51.04 13.5601L50.11 14.2401L49.43 13.3101L50.36 12.6301L51.04 13.5601ZM48.34 9.83008L47.41 10.5101L46.73 9.58008L47.66 8.90009L48.34 9.83008ZM45.64 6.11005L44.71 6.79004L44.03 5.86005L44.96 5.18005L45.64 6.11005ZM42.94 2.39008L42.01 3.07007L41.33 2.14008L42.26 1.46008L42.94 2.39008ZM38.56 0.790039V1.94006H37.41V0.790039H38.56ZM33.96 0.790039V1.94006H32.81V0.790039H33.96ZM29.36 0.790039V1.94006H28.21V0.790039H29.36ZM24.76 0.790039V1.94006H23.61V0.790039H24.76ZM20.16 0.790039V1.94006H19.01V0.790039H20.16ZM15.56 0.790039V1.94006H14.41V0.790039H15.56ZM10.96 0.790039V1.94006H9.72001V0.790039H10.96ZM6.36001 0.790039V1.94006H5.12001V0.790039H6.36001ZM1.76001 0.790039V1.94006H0.51001V0.790039H1.76001Z"/>
</svg>
