<?xml version="1.0" encoding="UTF-8"?>
<svg id="_图层_2" data-name="图层 2" xmlns="http://www.w3.org/2000/svg" viewBox="0 0 275.31 17.17">
  <defs>
    <style>
      .cls-1 {
        fill: #8080a8;
      }
    </style>
  </defs>
  <g id="_图层_1-2" data-name="图层 1">
    <path class="cls-1" d="m143.08,16.5v.67h-1.15v-.67h1.15Zm-4.6,0v.67h-1.15v-.67h1.15Zm-4.6,0v.67h-1.15v-.67h1.15Zm-4.6,0v.67h-1.15v-.67h1.15Zm-4.6,0v.67h-1.19v-.67h1.19Zm-4.6,0v.67h-1.15v-.67h1.15Zm-4.6,0v.67h-1.15v-.67h1.15Zm-4.6,0v.67h-1.15v-.67h1.15Zm-4.6,0v.67h-1.15v-.67h1.15Zm-4.6,0v.67h-1.19v-.67h1.19Zm-4.6,0v.67h-1.15v-.67h1.15Zm-4.6,0v.67h-1.15v-.67h1.15Zm91.42,0v.67h-1.15v-.67h1.15Zm-4.6,0v.67h-1.15v-.67h1.15Zm-4.6,0v.67h-1.21v-.67h1.21Zm-4.6,0v.67h-1.15v-.67h1.15Zm-4.6,0v.67h-1.15v-.67h1.15Zm-4.6,0v.67h-1.15v-.67h1.15Zm-4.6,0v.67h-1.15v-.67h1.15Zm-4.6,0v.67h-1.21v-.67h1.21Zm-4.6,0v.67h-1.15v-.67h1.15Zm73,0v.67h-1.15v-.67h1.15Zm-4.6,0v.67h-1.15v-.67h1.15Zm-4.6,0v.67h-1.15v-.67h1.15Zm-4.6,0v.67h-1.15v-.67h1.15Zm-4.6,0v.67h-1.21v-.67h1.21Zm-4.6,0v.67h-1.15v-.67h1.15Zm-4.6,0v.67h-1.15v-.67h1.15Zm-4.6,0v.67h-1.15v-.67h1.15Zm-4.6,0v.67h-1.15v-.67h1.15Zm77.61,0v.67h-1.15v-.67h1.15Zm-4.6,0v.67h-1.15v-.67h1.15Zm-4.6,0v.67h-1.22v-.67h1.22Zm-4.6,0v.67h-1.15v-.67h1.15Zm28.2,0v.67h-1.15v-.67h1.15Zm-4.6,0v.67h-1.22v-.67h1.22Zm-4.6,0v.67h-1.15v-.67h1.15Zm-23.6,0v.67h-1.15v-.67h1.15Zm-4.6,0v.67h-1.15v-.67h1.15Zm-4.6,0v.67h-1.15v-.67h1.15Zm-4.6,0v.67h-1.22v-.67h1.22Zm-4.6,0v.67h-1.15v-.67h1.15Zm-136.2,0v.67h-1.15v-.67h1.15Zm-4.6,0v.67h-1.15v-.67h1.15Zm-4.6,0v.67h-1.22v-.67h1.22Zm-4.6,0v.67h-1.15v-.67h1.15Zm-4.6,0v.67h-1.22v-.67h1.22Zm-4.6,0v.67h-1.22v-.67h1.22Zm-3.58-.5l-.93.39-.68-.54.93-.39.68.54Zm-2.7-2.16l-.93.39-.68-.54.93-.39.68.54Zm-2.7-2.16l-.93.39-.68-.54.93-.39.68.54Zm-2.7-2.16l-.93.39-.68-.54.93-.39.68.54Zm-2.7-2.15l-.93.39-.68-.54.93-.39.68.54Zm-2.7-2.16l-.93.39-.68-.54.93-.39.68.54Zm-2.7-2.15l-.93.39-.68-.54.93-.39.68.54Zm-2.7-2.15l-.93.39-.68-.54.93-.39.68.54Zm-4.38-.93v.67h-1.15v-.67h1.15Zm-4.6,0v.67h-1.15v-.67h1.15Zm-4.6,0v.67h-1.15v-.67h1.15Zm-4.6,0v.67h-1.15v-.67h1.15Zm-4.6,0v.67h-1.15v-.67h1.15Zm-4.6,0v.67h-1.15v-.67h1.15Zm-4.6,0v.67h-1.24v-.67h1.24Zm-4.6,0v.67h-1.24v-.67h1.24ZM1.25,0v.67H0v-.67h1.25Z"/>
  </g>
</svg>