<svg width="61" height="60" viewBox="0 0 61 60" xmlns="http://www.w3.org/2000/svg">
    <path d="M9.30003 8.46003C14.2846 3.63014 20.7897 0.678029 27.7069 0.106724C34.6241 -0.464582 41.5254 1.38026 47.2349 5.32691C52.9443 9.27355 57.1087 15.0778 59.0184 21.7507C60.9281 28.4235 60.4649 35.5521 57.7079 41.9218C54.9508 48.2915 50.0704 53.5081 43.8983 56.6828C37.7261 59.8575 30.6442 60.7938 23.859 59.3323C17.0739 57.8707 11.0055 54.1017 6.68775 48.6675C2.37002 43.2332 0.0701601 36.4699 0.180031 29.53C0.237491 25.5904 1.07276 21.701 2.63786 18.0851C4.20295 14.4693 6.46703 11.1983 9.30003 8.46003ZM10.13 9.33002L10.97 10.2C9.70923 11.4224 8.56743 12.7617 7.56003 14.2C6.55161 15.64 5.68428 17.1737 4.97003 18.78L3.86003 18.29C3.11149 19.9668 2.52547 21.7114 2.11003 23.5L3.29003 23.78C2.89606 25.4876 2.66502 27.2288 2.60003 28.98C2.5416 30.7355 2.64201 32.4927 2.90003 34.23C3.16768 35.9605 3.59963 37.6615 4.19003 39.31L3.05003 39.72C3.66372 41.4579 4.44402 43.1324 5.38003 44.72L6.38003 44.11C7.27354 45.6148 8.3082 47.0312 9.47003 48.34L8.56003 49.14C8.8467 49.46 9.14003 49.7934 9.44003 50.14C12.9704 53.7944 17.4085 56.4448 22.3 57.82L22.63 56.65C24.3102 57.1214 26.0312 57.4328 27.77 57.58C29.5077 57.7274 31.2555 57.7107 32.99 57.53C34.7244 57.359 36.4387 57.0242 38.11 56.53L38.46 57.69C42.8436 56.3615 46.8452 54.0024 50.13 50.81C50.7967 50.1434 51.42 49.4767 52 48.81L51.08 48.02C52.2131 46.695 53.2176 45.2652 54.08 43.75C54.9402 42.2314 55.6534 40.6342 56.21 38.98C56.7662 37.3281 57.1646 35.6271 57.4 33.9L58.6 34.06C58.7561 32.9096 58.8429 31.7509 58.86 30.59C58.86 29.9234 58.86 29.2567 58.86 28.59L57.65 28.66C57.5571 26.9163 57.2993 25.1852 56.88 23.49L58.06 23.19C57.6199 21.4125 57.0105 19.6813 56.24 18.02L55.14 18.53C54.4056 16.9461 53.5216 15.4359 52.5 14.02C51.7445 12.8885 50.909 11.8124 50 10.8C49.7134 10.5067 49.42 10.22 49.12 9.94004L49.95 9.05002C46.603 5.8964 42.5502 3.58923 38.1298 2.32105C33.7095 1.05287 29.0499 0.860514 24.54 1.76004L24.78 2.95005C23.0692 3.29361 21.395 3.7992 19.78 4.46003C18.1555 5.12255 16.5983 5.93964 15.13 6.90003L14.46 5.90003C12.9247 6.90506 11.4883 8.05354 10.17 9.33002H10.13Z"/>
    <path d="M19.8 46.24L19.76 46.28L19.8 46.24Z"/>
    <path d="M15.4001 15.6699L15.3601 15.7099L15.4001 15.6699Z"/>
    <path d="M19.75 46.3501L19.7 46.3901L19.75 46.3501Z"/>
    <path d="M10.3999 16.1701C10.8332 15.5501 11.3032 14.9435 11.8099 14.3501C12.3166 13.7568 12.8399 13.1968 13.3799 12.6701L13.4299 12.6201L13.4799 12.6701L17.5999 16.9201L17.6499 16.9701L17.5999 17.0201C17.1866 17.4201 16.7966 17.8368 16.4299 18.2701C16.0632 18.7034 15.7299 19.1568 15.4299 19.6301V19.6901H15.3699L10.5199 16.3001H10.4599V16.2401L10.3999 16.1701ZM11.9199 14.4501C11.4399 15.0168 10.9899 15.5968 10.5699 16.1901L15.2999 19.4901C15.6132 19.0434 15.9466 18.6068 16.2999 18.1801C16.6532 17.7534 17.0299 17.3501 17.4299 16.9701L13.4299 12.8201C12.8966 13.3401 12.3932 13.8768 11.9199 14.4301V14.4501Z"/>
    <path d="M8.1401 20.1799C8.45343 19.5132 8.78677 18.8466 9.1401 18.1799C9.49343 17.5132 9.90344 16.8633 10.3701 16.2299V16.1699H10.4301L15.2801 19.5699H15.3401V19.6299C15.0068 20.1032 14.7001 20.5866 14.4201 21.0799C14.1401 21.5732 13.8834 22.0832 13.6501 22.6099V22.6799H13.5801L8.1701 20.2699H8.1001V20.1999L8.1401 20.1799ZM9.3001 18.1799C8.93344 18.8466 8.6001 19.5132 8.3001 20.1799L13.5701 22.5299C13.7968 22.0299 14.0468 21.5399 14.3201 21.0599C14.5934 20.5799 14.8868 20.1132 15.2001 19.6599L10.4701 16.3499C10.0434 16.9632 9.6501 17.5866 9.2901 18.2199L9.3001 18.1799Z"/>
    <path d="M6.67992 24.5299C6.85326 23.7832 7.05993 23.0466 7.29993 22.3199C7.53993 21.5932 7.81659 20.8799 8.12992 20.1799V20.1099H8.19992L13.5999 22.5299H13.6699V22.5999C13.4366 23.1266 13.2299 23.6599 13.0499 24.1999C12.8699 24.7399 12.7133 25.2899 12.5799 25.8499V25.9199H12.5099L6.73992 24.5799H6.66992V24.5099L6.67992 24.5299ZM7.44992 22.3699C7.21659 23.0365 7.01659 23.7432 6.84992 24.4899L12.4699 25.7999C12.5966 25.2665 12.7466 24.7365 12.9199 24.2099C13.0933 23.6832 13.2933 23.1699 13.5199 22.6699L8.24992 20.3099C7.94992 20.9765 7.68325 21.6632 7.44992 22.3699Z"/>
    <path d="M6.07006 29.09C6.07006 28.3233 6.13672 27.56 6.27006 26.8C6.40339 26.04 6.54006 25.2866 6.68006 24.54V24.47H6.75006L12.5101 25.82H12.5801V25.89C12.4534 26.45 12.3501 27.0133 12.2701 27.58C12.1901 28.1466 12.1434 28.7166 12.1301 29.29V29.37H12.0501L6.13006 29.14H6.06006V29.07L6.07006 29.09ZM6.41006 26.82C6.31006 27.5533 6.24673 28.2866 6.22006 29.02L11.9901 29.24C11.9901 28.6933 12.0367 28.1433 12.1301 27.59C12.2234 27.0366 12.3201 26.4933 12.4201 25.96L6.80006 24.64C6.6334 25.36 6.5034 26.0833 6.41006 26.81V26.82Z"/>
    <path d="M6.32994 33.68C6.2166 32.92 6.1366 32.16 6.08993 31.4C6.04326 30.64 6.04326 29.8733 6.08993 29.1V29H6.16993L12.0899 29.24H12.1599V29.31C12.1599 29.8833 12.1599 30.4567 12.1599 31.03C12.1599 31.6033 12.2199 32.17 12.3399 32.73V32.8H12.2699L6.41993 33.7H6.34993V33.63L6.32994 33.68ZM6.23993 31.39C6.27993 32.1233 6.3566 32.8533 6.46994 33.58L12.1699 32.71C12.0899 32.1633 12.0333 31.6167 11.9999 31.07C11.9666 30.5233 11.9666 29.9733 11.9999 29.42L6.22994 29.19C6.22994 29.9233 6.22994 30.66 6.22994 31.4L6.23993 31.39Z"/>
    <path d="M7.46008 38.13C7.20008 37.41 6.97674 36.6766 6.79008 35.93C6.60341 35.1833 6.45008 34.4333 6.33008 33.68V33.61H6.40008L12.2501 32.72H12.3201V32.79C12.4067 33.3566 12.5201 33.9166 12.6601 34.47C12.8001 35.0233 12.9667 35.57 13.1601 36.11V36.18H13.0901L7.51008 38.18H7.44008V38.11L7.46008 38.13ZM6.94008 35.9C7.12008 36.6133 7.33341 37.3166 7.58008 38.01L13.0201 36.07C12.8401 35.55 12.6801 35.0233 12.5401 34.49C12.4001 33.9566 12.2901 33.4166 12.2101 32.87L6.50008 33.73C6.61341 34.4566 6.76008 35.1767 6.94008 35.89V35.9Z"/>
    <path d="M9.40997 42.2901C9.01663 41.6234 8.65663 40.9568 8.32996 40.2901C8.0033 39.6234 7.71329 38.9168 7.45996 38.1701V38.1001H7.52996L13.11 36.1001H13.18V36.1701C13.3733 36.7034 13.59 37.2301 13.83 37.7501C14.07 38.2701 14.3366 38.7734 14.63 39.2601V39.3201H14.57L9.46996 42.3201H9.40997V42.2601V42.2901ZM8.46996 40.2001C8.7833 40.8668 9.11663 41.5334 9.46996 42.2001L14.47 39.2701C14.19 38.7901 13.9333 38.3034 13.7 37.8101C13.4666 37.3168 13.2566 36.8101 13.07 36.2901L7.62996 38.2201C7.87663 38.8868 8.15663 39.5534 8.46996 40.2201V40.2001Z"/>
    <path d="M12.1099 46C11.5966 45.42 11.1166 44.8233 10.6699 44.21C10.2232 43.5967 9.80325 42.96 9.40991 42.3V42.24H9.46991L14.5799 39.24H14.6399V39.3C14.9266 39.7867 15.2399 40.26 15.5799 40.72C15.9199 41.18 16.2799 41.6233 16.6599 42.05V42.11H16.5999L12.2199 46H12.1599V45.94L12.1099 46ZM10.7899 44.12C11.2232 44.7067 11.6832 45.28 12.1699 45.84L16.4999 42C16.1332 41.58 15.7999 41.15 15.4999 40.71C15.1999 40.27 14.8966 39.8133 14.5899 39.34L9.5899 42.26C9.96324 42.8867 10.3666 43.5 10.7999 44.1L10.7899 44.12Z"/>
    <path d="M15.4699 49.12C15.0099 48.7667 14.5599 48.3934 14.1199 48C13.6799 47.6067 13.2599 47.2034 12.8599 46.79L12.4899 46.4L12.1299 46V45.94H12.1899L16.6399 42.03H16.6999V42.09L16.9599 42.38L17.2299 42.67C17.5366 42.99 17.8532 43.2934 18.1799 43.58C18.5066 43.8667 18.8399 44.1467 19.1799 44.42H19.2399V44.48L15.6199 49.17V49.23H15.5599L15.4699 49.12ZM14.2199 47.89C14.6399 48.2634 15.0666 48.62 15.4999 48.96L19.0299 44.39C18.7032 44.1367 18.3699 43.87 18.0299 43.59C17.6899 43.31 17.3566 43.0034 17.0299 42.67L16.7599 42.38L16.5399 42.14L12.2799 46L12.5899 46.34L12.9599 46.73C13.3666 47.15 13.7866 47.5534 14.2199 47.94V47.89Z"/>
    <path d="M19.3499 51.5601C18.6832 51.2201 18.0166 50.8468 17.3499 50.4401C16.6832 50.0334 16.0566 49.5968 15.4699 49.1301H15.4099V49.0701L19.0399 44.3901V44.3301H19.0999C19.5532 44.6834 20.0199 45.0167 20.4999 45.3301C20.9866 45.6367 21.4832 45.9168 21.9899 46.1701H22.0599V46.2401L19.3999 51.5301V51.6001H19.3299L19.3499 51.5601ZM17.4399 50.3101C18.0666 50.7034 18.7032 51.0634 19.3499 51.3901L21.9499 46.2401C21.4632 45.9934 20.9866 45.7234 20.5199 45.4301C20.0532 45.1368 19.5999 44.8234 19.1599 44.4901L15.6299 49.0501C16.2166 49.5034 16.8199 49.9234 17.4399 50.3101Z"/>
    <path d="M23.62 53.2199C22.8867 53.0132 22.1634 52.7732 21.45 52.4999C20.7367 52.2266 20.0367 51.9166 19.35 51.5699H19.28V51.4999L21.95 46.2199V46.1499H22.02C22.5334 46.4032 23.0534 46.6332 23.58 46.8399C24.1067 47.0466 24.6467 47.2266 25.2 47.3799H25.27V47.4499L23.65 53.1499V53.2199H23.58H23.62ZM21.5 52.3599C22.1667 52.6266 22.8634 52.8599 23.59 53.0599L25.17 47.5099C24.6434 47.3566 24.1234 47.1832 23.61 46.9899C23.0967 46.7966 22.5934 46.5766 22.1 46.3299L19.49 51.4799C20.1567 51.8066 20.8234 52.1032 21.49 52.3699L21.5 52.3599Z"/>
    <path d="M28.1301 54.0001C27.3701 53.9334 26.6134 53.8334 25.8601 53.7001C25.1067 53.5668 24.3634 53.3934 23.6301 53.1801H23.5601V53.1101L25.1901 47.4201V47.3501H25.2601C25.8067 47.5034 26.3601 47.6301 26.9201 47.7301C27.4801 47.8301 28.0434 47.9034 28.6101 47.9501H28.6801V48.0301L28.1701 53.9301V54.0001H28.1301ZM25.8901 53.5501C26.6101 53.6834 27.3367 53.7801 28.0701 53.8401L28.5701 48.0901C28.0234 48.0434 27.4801 47.9701 26.9401 47.8701C26.4001 47.7701 25.8634 47.6468 25.3301 47.5001L23.7401 53.0501C24.4467 53.2434 25.1634 53.4068 25.8901 53.5401V53.5501Z"/>
    <path d="M32.7001 54C31.9401 54.08 31.1801 54.1233 30.4201 54.13C29.6601 54.1366 28.8967 54.1066 28.1301 54.04H28.0601V54L28.5801 48.1V48H28.6501C29.2167 48.0466 29.7867 48.0666 30.3601 48.06C30.9334 48.0533 31.5001 48.02 32.0601 47.96H32.1301V48L32.7501 53.89V54H32.7001ZM30.4201 54C31.1534 54 31.8834 53.96 32.6101 53.88L32.0101 48.14C31.4634 48.1933 30.9167 48.2233 30.3701 48.23C29.8234 48.2366 29.2734 48.2166 28.7201 48.17L28.2101 53.92C28.9434 53.98 29.6767 54.0066 30.4101 54H30.4201Z"/>
    <path d="M37.19 53.0901C36.4567 53.3101 35.7167 53.4967 34.97 53.6501C34.2233 53.8034 33.47 53.9201 32.71 54.0001H32.64V53.9301L32 48.0001H32.07C32.6367 47.9401 33.2 47.8534 33.76 47.7401C34.32 47.6267 34.87 47.4867 35.41 47.3201H35.48V47.3901L37.2 53.0601V53.1301H37.13L37.19 53.0901ZM34.94 53.5001C35.66 53.3534 36.37 53.1767 37.07 52.9701L35.39 47.4501C34.8633 47.6101 34.3333 47.7434 33.8 47.8501C33.2667 47.9567 32.7233 48.0401 32.17 48.1001L32.76 53.8401C33.4867 53.7601 34.21 53.6467 34.93 53.5001H34.94Z"/>
    <path d="M41.4199 51.35C40.7533 51.71 40.0633 52.0434 39.3499 52.35C38.6366 52.6567 37.9199 52.9134 37.1999 53.12H37.1299V53.05L35.4199 47.38V47.31H35.4899C36.0299 47.1434 36.5633 46.9534 37.0899 46.74C37.6166 46.5267 38.1333 46.2867 38.6399 46.02H38.7099V46.09L41.4699 51.33V51.4H41.3999L41.4199 51.35ZM39.2899 52.18C39.9566 51.9 40.6233 51.59 41.2899 51.25L38.5999 46.14C38.1133 46.3934 37.6166 46.6234 37.1099 46.83C36.6033 47.0367 36.0866 47.2234 35.5599 47.39L37.2299 52.92C37.8966 52.7067 38.5866 52.46 39.2999 52.18H39.2899Z"/>
    <path d="M45.2501 48.8401C44.6501 49.3201 44.0334 49.7701 43.4001 50.1901C42.7667 50.6101 42.1001 50.9968 41.4001 51.3501H41.3301V51.2801L38.5801 46.0401V45.9701H38.6501C39.1501 45.7101 39.6401 45.4201 40.1201 45.1001C40.6001 44.7801 41.0601 44.4468 41.5001 44.1001H41.5601V44.1601L45.2601 48.7801V48.8401H45.2001H45.2501ZM43.3201 50.0601C43.9268 49.6601 44.5201 49.2301 45.1001 48.7701L41.4901 44.2701C41.0567 44.6167 40.6134 44.9501 40.1601 45.2701C39.7067 45.5901 39.2367 45.8701 38.7501 46.1101L41.4301 51.2201C42.0967 50.8801 42.7268 50.5068 43.3201 50.1001V50.0601Z"/>
    <path d="M48.53 45.6499C48.2833 45.9432 48.0267 46.2299 47.76 46.5099C47.4933 46.7899 47.2267 47.0599 46.96 47.3199C46.6867 47.5866 46.4067 47.8466 46.12 48.0999C45.8333 48.3532 45.5433 48.5966 45.25 48.8299H45.19V48.7699L41.5 44.1399V44.0799H41.56L42.21 43.5299L42.84 42.9499L43.44 42.3399L44.01 41.7099V41.6499H44.07L48.58 45.4899H48.64V45.5499L48.53 45.6499ZM47.65 46.3999C47.8967 46.1399 48.1333 45.8766 48.36 45.6099L43.96 41.8699L43.44 42.4499L42.83 43.0699L42.2 43.6599L41.6 44.1599L45.2 48.6699L46 47.9999C46.28 47.7532 46.56 47.4932 46.84 47.2199C47.12 46.9466 47.3833 46.6766 47.63 46.4099L47.65 46.3999Z"/>
    <path d="M51.1599 41.91C50.7866 42.5766 50.3799 43.22 49.9399 43.84C49.4999 44.46 49.0333 45.0633 48.5399 45.65V45.71H48.4799L43.9799 41.87H43.9199V41.81C44.2933 41.3766 44.6266 40.9266 44.9199 40.46C45.2133 39.9933 45.5166 39.5133 45.8299 39.02V38.96H45.8999L51.0599 41.87H51.1299V41.94L51.1599 41.91ZM49.8199 43.75C50.2466 43.15 50.6399 42.5333 50.9999 41.9L45.9999 39.06C45.7266 39.5333 45.4333 39.9933 45.1199 40.44C44.8066 40.8866 44.4733 41.32 44.1199 41.74L48.5099 45.49C48.9899 44.9233 49.4399 44.3433 49.8599 43.75H49.8199Z"/>
    <path d="M53.0001 37.73C52.7601 38.45 52.4834 39.16 52.1701 39.86C51.8568 40.56 51.5234 41.2267 51.1701 41.86V41.92H51.1001L45.9101 39H45.8501V38.93C46.1301 38.43 46.3868 37.9233 46.6201 37.41C46.8534 36.8967 47.0601 36.37 47.2401 35.83V35.76H47.3101L52.9201 37.64H52.9901V37.71L53.0001 37.73ZM52.0001 39.8C52.3001 39.1333 52.5668 38.4667 52.8001 37.8L47.3301 35.96C47.1501 36.4733 46.9501 36.9833 46.7301 37.49C46.5101 37.9967 46.2634 38.4867 45.9901 38.96L50.9901 41.81C51.3501 41.1433 51.6834 40.4767 51.9901 39.81L52.0001 39.8Z"/>
    <path d="M54.08 33.2799C53.98 34.0333 53.84 34.7833 53.66 35.5299C53.48 36.2766 53.27 37.0099 53.03 37.7299V37.7999H52.96L47.35 35.8999H47.28V35.8299C47.46 35.2899 47.6167 34.7433 47.75 34.1899C47.8834 33.6366 47.9867 33.0766 48.06 32.5099V32.4399H48.13L54 33.2299H54.07V33.2999L54.08 33.2799ZM53.52 35.4999C53.6867 34.7866 53.82 34.0666 53.92 33.3399L48.2 32.5699C48.12 33.1166 48.02 33.6566 47.9 34.1899C47.78 34.7233 47.63 35.2499 47.45 35.7699L52.92 37.6199C53.1534 36.9533 53.3534 36.2466 53.52 35.4999Z"/>
    <path d="M54.2701 28.6999C54.3101 29.4599 54.3101 30.2232 54.2701 30.9899C54.2301 31.7566 54.1634 32.5166 54.0701 33.2699V33.3399H54.0001L48.1301 32.5399H48.0601V32.4699C48.1401 31.9032 48.1901 31.3366 48.2101 30.7699C48.2301 30.2032 48.2301 29.6332 48.2101 29.0599V28.9999H48.2801L54.1901 28.6599H54.2701V28.7399V28.6999ZM54.1301 30.9799C54.1301 30.2466 54.1301 29.5132 54.1301 28.7799L48.3701 29.1099C48.3701 29.6566 48.3701 30.2066 48.3701 30.7599C48.3701 31.3133 48.3234 31.8599 48.2301 32.3999L53.9501 33.1799C54.0501 32.4532 54.1134 31.7232 54.1401 30.9899L54.1301 30.9799Z"/>
    <path d="M53.59 24.1699C53.7766 24.9166 53.9266 25.6632 54.0399 26.4099C54.1533 27.1565 54.23 27.9165 54.27 28.6899V28.7599H54.2L48.2899 29.0799H48.21V28.9999C48.21 28.4332 48.1533 27.8665 48.0399 27.2999C47.9266 26.7332 47.8166 26.1765 47.71 25.6299V25.5599H47.78L53.52 24.1099H53.59V24.1799V24.1699ZM53.89 26.4399C53.7833 25.7132 53.6433 24.9932 53.47 24.2799L47.8699 25.6899C47.9966 26.2232 48.1033 26.7632 48.19 27.3099C48.2766 27.8565 48.3333 28.4032 48.36 28.9499L54.1199 28.6299C54.0799 27.8965 54.0033 27.1665 53.89 26.4399Z"/>
    <path d="M52.0701 19.8501C52.3901 20.5167 52.6767 21.2234 52.9301 21.9701C53.1834 22.7167 53.4034 23.4501 53.5901 24.1701V24.2401H53.5201L47.7801 25.6801H47.7101V25.61C47.5767 25.0567 47.4134 24.5101 47.2201 23.9701C47.0267 23.4301 46.8134 22.9034 46.5801 22.3901V22.3201H46.6501L52.0101 19.8101H52.0801V19.8801L52.0701 19.8501ZM52.7901 22.0201C52.5501 21.3534 52.2734 20.6867 51.9601 20.0201L46.7301 22.4701C46.9567 22.9701 47.1634 23.4801 47.3501 24.0001C47.5367 24.5201 47.6934 25.0467 47.8201 25.58L53.4201 24.1801C53.2401 23.4667 53.0267 22.7634 52.7801 22.0701L52.7901 22.0201Z"/>
    <path d="M49.7501 15.8901C50.2034 16.5168 50.6201 17.1568 51.0001 17.8101C51.3801 18.4634 51.7334 19.1301 52.0601 19.8101V19.8801H51.9901L46.6201 22.3801H46.5501V22.3101C46.3101 21.7968 46.0467 21.2934 45.7601 20.8001C45.4734 20.3134 45.1634 19.8368 44.8301 19.3701V19.3101H44.8901L49.6801 15.8301H49.7401V15.8901H49.7501ZM50.8701 17.8901C50.5034 17.2634 50.1034 16.6468 49.6701 16.0401L45.0001 19.4301C45.3201 19.8768 45.6201 20.3368 45.9001 20.8101C46.1801 21.2834 46.4367 21.7701 46.6701 22.2701L51.9001 19.8301C51.5934 19.1634 51.2601 18.5134 50.9001 17.8801L50.8701 17.8901Z"/>
    <path d="M46.73 12.4501L47.12 12.8201L47.5 13.2101C47.9067 13.6301 48.2967 14.0634 48.67 14.5101C49.0434 14.9568 49.4034 15.4168 49.75 15.8901V15.9501H49.69L44.89 19.4201H44.83V19.3601C44.5767 19.0067 44.3067 18.6734 44.02 18.3601C43.7334 18.0467 43.44 17.7134 43.14 17.3601L42.86 17.0801L42.58 16.8101L42.53 16.7601L42.58 16.7101L46.58 12.3901L46.63 12.3401L46.68 12.3901L46.73 12.4501ZM47.01 12.9301L46.68 12.6101L42.74 16.8201L42.97 17.0401L43.25 17.3201C43.5567 17.6401 43.8534 17.9734 44.14 18.3201C44.4267 18.6668 44.6834 19.0001 44.91 19.3201L49.59 15.9401C49.2634 15.4934 48.93 15.0568 48.59 14.6301C48.25 14.2034 47.8634 13.7734 47.43 13.3401L47.05 12.9601L47.01 12.9301Z"/>
    <path d="M43.1101 9.63013C43.7767 10.0368 44.4001 10.4768 44.9801 10.9501C45.5601 11.4235 46.1401 11.9235 46.7201 12.4501L46.7701 12.5001L46.7201 12.5501L42.6701 16.8601L42.6201 16.9101L42.5701 16.8601C42.1501 16.4668 41.7167 16.0934 41.2701 15.7401C40.8234 15.3868 40.3601 15.0534 39.8801 14.7401H39.8201V14.6801L42.9801 9.68011V9.62012H43.0401L43.1101 9.63013ZM44.8901 11.0701C44.3101 10.6168 43.7101 10.1934 43.0901 9.80011L40.0001 14.6801C40.4601 14.9734 40.9067 15.3068 41.3401 15.6801C41.7734 16.0534 42.1934 16.4135 42.6001 16.7601L46.6001 12.5501C46.0601 12.0434 45.5001 11.5634 44.9201 11.1101L44.8901 11.0701Z"/>
    <path d="M39.0001 7.55002C39.7067 7.83002 40.4034 8.14335 41.0901 8.49002C41.7767 8.83669 42.4434 9.2167 43.0901 9.63004H43.1501V9.69003L39.9901 14.69V14.75H39.9301C39.4434 14.4434 38.9467 14.16 38.4401 13.9C37.9334 13.64 37.4134 13.4067 36.8801 13.2H36.8101V13.13L38.9601 7.61002V7.54004H39.0301L39.0001 7.55002ZM41.0001 8.62003C40.3334 8.28669 39.6667 7.98336 39.0001 7.71002L36.9001 13.09C37.4067 13.29 37.9067 13.5167 38.4001 13.77C38.8934 14.0234 39.3734 14.2967 39.8401 14.59L42.9201 9.71002C42.2934 9.31669 41.6534 8.95336 41.0001 8.62003Z"/>
    <path d="M34.6 6.28003C35.3533 6.42003 36.1 6.59669 36.84 6.81003C37.58 7.02336 38.3033 7.27002 39.01 7.55002H39.08V7.62003L36.92 13.13V13.2H36.85C36.3167 12.9934 35.7766 12.81 35.23 12.65C34.6833 12.49 34.1266 12.36 33.56 12.26H33.49V12.19L34.56 6.37003V6.30002L34.6 6.28003ZM36.79 6.95004C36.0833 6.75004 35.3667 6.58003 34.64 6.44003L33.64 12.12C34.18 12.22 34.7167 12.3467 35.25 12.5C35.7833 12.6534 36.3067 12.83 36.82 13.03L38.93 7.66003C38.2633 7.39337 37.5666 7.16002 36.84 6.96002L36.79 6.95004Z"/>
    <path d="M30 5.86987C30.7666 5.86987 31.5333 5.89987 32.3 5.95987C33.0666 6.01987 33.8266 6.1232 34.58 6.26987H34.6499V6.33987L33.57 12.1599V12.2299H33.5C32.94 12.1232 32.3733 12.0465 31.8 11.9999C31.2266 11.9532 30.6566 11.9299 30.09 11.9299H30V11.8599L29.95 5.93988V5.85986L30 5.86987ZM32.28 6.10986C31.5466 6.0432 30.81 6.0132 30.07 6.01987L30.1199 11.7899C30.6733 11.7899 31.2233 11.8132 31.77 11.8599C32.3166 11.9065 32.8633 11.9799 33.41 12.0799L34.46 6.40988C33.7333 6.27655 33.0033 6.17653 32.27 6.10986H32.28Z"/>
    <path d="M25.4501 6.33987C26.2034 6.19321 26.9601 6.07988 27.7201 5.99988C28.4801 5.91988 29.2434 5.87988 30.0101 5.87988H30.0801V5.94989V11.8699V11.9499H30.0001C29.4268 11.9499 28.8568 11.9799 28.2901 12.0399C27.7234 12.0999 27.1601 12.1832 26.6001 12.2899H26.5301V12.2199L25.3601 6.41989V6.34988L25.4501 6.33987ZM27.7401 6.14987C27.0134 6.22321 26.2868 6.32988 25.5601 6.46988L26.7001 12.1299C27.2401 12.0232 27.7868 11.9432 28.3401 11.8899C28.8934 11.8366 29.4434 11.8065 29.9901 11.7999V6.02988C29.2568 6.02988 28.5201 6.06987 27.7801 6.14987H27.7401Z"/>
    <path d="M21 7.6601C21.7133 7.36676 22.4367 7.11011 23.17 6.89011C23.9033 6.67011 24.6467 6.48341 25.4 6.33008H25.47V6.40009L26.63 12.2101V12.2801H26.56C26 12.3934 25.4467 12.5301 24.9 12.6901C24.3533 12.8501 23.8133 13.0401 23.28 13.2601H23.21V13.1901L21 7.7601V7.69009H21.07L21 7.6601ZM23.21 7.0401C22.51 7.25343 21.8167 7.49675 21.13 7.77008L23.32 13.1101C23.8333 12.9034 24.3533 12.7201 24.88 12.5601C25.4067 12.4001 25.9433 12.2668 26.49 12.1601L25.36 6.50009C24.64 6.64676 23.9267 6.82677 23.22 7.0401H23.21Z"/>
    <path d="M17 9.79987C17.6666 9.37987 18.3333 8.98988 19 8.62988C19.6666 8.26988 20.36 7.93655 21.08 7.62988H21.15V7.69989L23.39 13.1799V13.2499H23.32C22.7933 13.4632 22.2766 13.7032 21.77 13.9699C21.2633 14.2365 20.77 14.5265 20.29 14.8399H20.23V14.7799L16.98 9.77988V9.71988H17.04L17 9.79987ZM19.05 8.79987C18.3833 9.13987 17.7466 9.51322 17.14 9.91989L20.3 14.7499C20.7666 14.4499 21.2433 14.1699 21.73 13.9099C22.2166 13.6499 22.7166 13.4165 23.23 13.2099L21 7.82986C20.3333 8.10986 19.6666 8.4232 19 8.76987L19.05 8.79987Z"/>
    <path d="M13.3901 12.6801C13.9434 12.1401 14.5168 11.6334 15.1101 11.1601C15.7034 10.6867 16.3234 10.2367 16.9701 9.81006H17.0301V9.87006L20.2701 14.8701V14.9301H20.2101C19.7368 15.2434 19.2734 15.5767 18.8201 15.9301C18.3668 16.2834 17.9668 16.6401 17.6201 17.0001L17.5701 17.05L17.5201 17.0001L13.4001 12.7501L13.3501 12.7001L13.4001 12.6501L13.3901 12.6801ZM15.2101 11.2801C14.6434 11.7334 14.0901 12.2201 13.5501 12.7401L17.5501 16.8801C17.9501 16.4934 18.3634 16.1301 18.7901 15.7901C19.2168 15.4501 19.6634 15.1167 20.1301 14.7901L17.0001 10.0001C16.3868 10.4067 15.7901 10.84 15.2101 11.3V11.2801Z"/>
</svg>
