<svg width="349" height="59" viewBox="0 0 349 59" xmlns="http://www.w3.org/2000/svg">
    <g style="mix-blend-mode:color-dodge">
        <path d="M13.55 39.1201H9.77002V37.9901H12.41V11.7301H9.77002V10.6001H13.55V39.1201Z"/>
        <path d="M8.45988 24.29H4.37988V25.42H8.45988V24.29Z"/>
        <path d="M264.95 39.1201H261.18V10.6001H264.95V11.7301H262.31V37.9901H264.95V39.1201Z"/>
        <path d="M270.34 24.29H266.26V25.42H270.34V24.29Z"/>
        <path d="M31.24 5.37009H10V0.600098H31.24V5.37009ZM11.13 4.24008H30.13V1.74008H11.13V4.24008Z"/>
        <path d="M42.4599 5.37009H34.3899V0.600098H42.4599V5.37009ZM35.5199 4.24008H41.3299V1.74008H35.5199V4.24008Z"/>
        <path d="M245.12 1.17017H238.18V4.80014H245.12V1.17017Z"/>
        <path d="M235.24 1.17017H228.3V4.80014H235.24V1.17017Z"/>
        <path d="M201.88 2.48999H199.99V3.48001H201.88V2.48999Z"/>
        <path d="M171.72 2.48999H169.83V3.48001H171.72V2.48999Z"/>
        <path d="M141.55 2.48999H139.66V3.48001H141.55V2.48999Z"/>
        <path d="M111.39 2.48999H109.5V3.48001H111.39V2.48999Z"/>
        <path d="M264.94 44.01H9.77002V45.14H264.94V44.01Z"/>
        <path d="M307.7 57.28H267.66V58.73H307.7V57.28Z"/>
        <path d="M348.59 57.28H328.57V58.73H348.59V57.28Z"/>
        <path d="M252.01 57.28H239.88V58.73H252.01V57.28Z"/>
        <path d="M12.5399 57.28H0.409912V58.73H12.5399V57.28Z"/>
        <path d="M24.61 57.28H17.26V58.73H24.61V57.28Z"/>
    </g>
</svg>
