<?xml version="1.0" encoding="utf-8"?>
<!-- Generator: Adobe Illustrator 27.5.0, SVG Export Plug-In . SVG Version: 6.00 Build 0)  -->
<svg version="1.1" id="图层_1" xmlns="http://www.w3.org/2000/svg" xmlns:xlink="http://www.w3.org/1999/xlink" x="0px" y="0px"
	 viewBox="0 0 146.7 131.2" style="enable-background:new 0 0 146.7 131.2;" xml:space="preserve">
<style type="text/css">
	.st0{fill:url(#SVGID_1_);}
	.st1{fill:url(#SVGID_00000023990481606467507730000011395715066583500452_);}
	.st2{fill:url(#SVGID_00000174578667225730387560000009006605416075265981_);}
	.st3{fill:url(#SVGID_00000165957343281632090350000016792209118089775031_);}
	.st4{fill:url(#SVGID_00000163759376710661135830000013882998017541090712_);}
	.st5{fill:url(#SVGID_00000132776593275275032010000008110136514910970764_);}
	.st6{fill:url(#SVGID_00000048501616912720661740000005210326289155889026_);}
	.st7{fill:url(#SVGID_00000003818001215928040160000004120496315147539115_);}
	.st8{fill:url(#SVGID_00000015346555029945757140000016986222815569831611_);}
	.st9{fill:url(#SVGID_00000016063685866251313480000009324382898790439065_);}
	.st10{fill:url(#SVGID_00000029757263003531330640000009495825098180401590_);}
	.st11{enable-background:new    ;}
	.st12{fill:#FFFFFF;}
</style>
<g>
	<g>
		
			<linearGradient id="SVGID_1_" gradientUnits="userSpaceOnUse" x1="7441.3096" y1="-2715.49" x2="7441.3096" y2="-2817.7002" gradientTransform="matrix(6.123234e-17 1 1 -6.123234e-17 2820.5601 -7407.0098)">
			<stop  offset="0" style="stop-color:#FF8F65"/>
			<stop  offset="0.53" style="stop-color:#6933FA"/>
			<stop  offset="0.61" style="stop-color:#4F54FA"/>
			<stop  offset="0.73" style="stop-color:#2D81FA"/>
			<stop  offset="0.84" style="stop-color:#14A1FA"/>
			<stop  offset="0.94" style="stop-color:#05B5FA"/>
			<stop  offset="1" style="stop-color:#00BDFB"/>
		</linearGradient>
		<path class="st0" d="M46.1,36.5V8.1C46.1,3.6,42.5,0,38,0s-8.1,3.6-8.1,8.1v60.5L46.1,36.5L46.1,36.5z"/>
		
			<linearGradient id="SVGID_00000150097462814411305990000009932939384106094216_" gradientUnits="userSpaceOnUse" x1="108.68" y1="132.7098" x2="108.68" y2="26.5598" gradientTransform="matrix(1 0 0 -1 0 131.8898)">
			<stop  offset="0" style="stop-color:#FF8F65"/>
			<stop  offset="0.53" style="stop-color:#6933FA"/>
			<stop  offset="0.61" style="stop-color:#4F54FA"/>
			<stop  offset="0.73" style="stop-color:#2D81FA"/>
			<stop  offset="0.84" style="stop-color:#14A1FA"/>
			<stop  offset="0.94" style="stop-color:#05B5FA"/>
			<stop  offset="1" style="stop-color:#00BDFB"/>
		</linearGradient>
		<path style="fill:url(#SVGID_00000150097462814411305990000009932939384106094216_);" d="M108.7,16.9c-4.4,0-8.1-3.6-8.1-8.1V8.1
			c0-4.4,3.6-8.1,8.1-8.1s8.1,3.6,8.1,8.1v0.8C116.7,13.3,113.1,16.9,108.7,16.9z"/>
		
			<linearGradient id="SVGID_00000165932722778951382820000001990562770779445920_" gradientUnits="userSpaceOnUse" x1="73.345" y1="152.0098" x2="73.345" y2="45.8598" gradientTransform="matrix(1 0 0 -1 0 131.8898)">
			<stop  offset="0" style="stop-color:#FF8F65"/>
			<stop  offset="0.53" style="stop-color:#6933FA"/>
			<stop  offset="0.61" style="stop-color:#4F54FA"/>
			<stop  offset="0.73" style="stop-color:#2D81FA"/>
			<stop  offset="0.84" style="stop-color:#14A1FA"/>
			<stop  offset="0.94" style="stop-color:#05B5FA"/>
			<stop  offset="1" style="stop-color:#00BDFB"/>
		</linearGradient>
		<path style="fill:url(#SVGID_00000165932722778951382820000001990562770779445920_);" d="M116.8,28.8v51c0,0.4,0,0.8-0.1,1.2
			c-0.5,3.2-2.9,5.9-6.1,6.7c-3.6,0.9-7.4-0.9-9.1-4.2L73.3,27.4L45.2,83.5c-1.4,2.8-4.3,4.4-7.2,4.4c-1.2,0-2.4-0.3-3.6-0.9
			c-0.2-0.1-0.4-0.2-0.6-0.3c-3.5-2.2-4.9-6.7-3-10.5L66.1,5.8c1.4-2.7,4.2-4.4,7.2-4.4c0.9,0,1.7,0.1,2.5,0.4
			c2,0.6,3.8,2.1,4.7,4.1l20.1,40v-17c0-4,3-7.4,6.8-8c0.4-0.1,0.8-0.1,1.2-0.1C113.1,20.8,116.8,24.4,116.8,28.8z"/>
		
			<linearGradient id="SVGID_00000023971178820553337070000006440807512779873160_" gradientUnits="userSpaceOnUse" x1="78.03" y1="144.8498" x2="78.03" y2="42.6298" gradientTransform="matrix(1 0 0 -1 0 131.8898)">
			<stop  offset="0" style="stop-color:#FF8F65"/>
			<stop  offset="0.53" style="stop-color:#6933FA"/>
			<stop  offset="0.61" style="stop-color:#4F54FA"/>
			<stop  offset="0.73" style="stop-color:#2D81FA"/>
			<stop  offset="0.84" style="stop-color:#14A1FA"/>
			<stop  offset="0.94" style="stop-color:#05B5FA"/>
			<stop  offset="1" style="stop-color:#00BDFB"/>
		</linearGradient>
		<path style="fill:url(#SVGID_00000023971178820553337070000006440807512779873160_);" d="M82.7,46.1h-9.4c-4.4,0-8.1,3.6-8.1,8.1
			s3.6,8.1,8.1,8.1h17.4L82.7,46.1L82.7,46.1z"/>
		
			<linearGradient id="SVGID_00000180350325719765907730000012185623520384279977_" gradientUnits="userSpaceOnUse" x1="70.77" y1="73.7498" x2="86.95" y2="73.7498" gradientTransform="matrix(1 0 0 -1 0 131.8898)">
			<stop  offset="0" style="stop-color:#FFFFFF;stop-opacity:0"/>
			<stop  offset="9.000000e-02" style="stop-color:#F0E4FE;stop-opacity:0.13"/>
			<stop  offset="0.28" style="stop-color:#D4AFFD;stop-opacity:0.39"/>
			<stop  offset="0.46" style="stop-color:#BC83FB;stop-opacity:0.61"/>
			<stop  offset="0.63" style="stop-color:#A960FB;stop-opacity:0.78"/>
			<stop  offset="0.78" style="stop-color:#9C47FA;stop-opacity:0.9"/>
			<stop  offset="0.91" style="stop-color:#9338FA;stop-opacity:0.97"/>
			<stop  offset="1" style="stop-color:#9133FA"/>
		</linearGradient>
		<path style="fill:url(#SVGID_00000180350325719765907730000012185623520384279977_);" d="M90.8,62.2H73.3c-4.4,0-8.1-3.6-8.1-8.1
			h21.5L90.8,62.2z"/>
		
			<linearGradient id="SVGID_00000142143678290253431390000013249251213971506868_" gradientUnits="userSpaceOnUse" x1="7421.7798" y1="-2786.5901" x2="7465.29" y2="-2786.5901" gradientTransform="matrix(6.123234e-17 1 1 -6.123234e-17 2820.5601 -7407.0098)">
			<stop  offset="0" style="stop-color:#FFFFFF;stop-opacity:0"/>
			<stop  offset="9.000000e-02" style="stop-color:#F0E4FE;stop-opacity:0.13"/>
			<stop  offset="0.28" style="stop-color:#D4AFFD;stop-opacity:0.39"/>
			<stop  offset="0.46" style="stop-color:#BC83FB;stop-opacity:0.61"/>
			<stop  offset="0.63" style="stop-color:#A960FB;stop-opacity:0.78"/>
			<stop  offset="0.78" style="stop-color:#9C47FA;stop-opacity:0.9"/>
			<stop  offset="0.91" style="stop-color:#9338FA;stop-opacity:0.97"/>
			<stop  offset="1" style="stop-color:#9133FA"/>
		</linearGradient>
		<path style="fill:url(#SVGID_00000142143678290253431390000013249251213971506868_);" d="M29.9,68.6V8.1C29.9,3.6,33.5,0,38,0
			v52.3L29.9,68.6L29.9,68.6z"/>
		
			<linearGradient id="SVGID_00000049903188930163803260000009063373095752702101_" gradientUnits="userSpaceOnUse" x1="108.24" y1="135.7298" x2="108.24" y2="107.7598" gradientTransform="matrix(1 0 0 -1 0 131.8898)">
			<stop  offset="0" style="stop-color:#FFFFFF;stop-opacity:0"/>
			<stop  offset="9.000000e-02" style="stop-color:#F0E4FE;stop-opacity:0.13"/>
			<stop  offset="0.28" style="stop-color:#D4AFFD;stop-opacity:0.39"/>
			<stop  offset="0.46" style="stop-color:#BC83FB;stop-opacity:0.61"/>
			<stop  offset="0.63" style="stop-color:#A960FB;stop-opacity:0.78"/>
			<stop  offset="0.78" style="stop-color:#9C47FA;stop-opacity:0.9"/>
			<stop  offset="0.91" style="stop-color:#9338FA;stop-opacity:0.97"/>
			<stop  offset="1" style="stop-color:#9133FA"/>
		</linearGradient>
		<path style="fill:url(#SVGID_00000049903188930163803260000009063373095752702101_);" d="M112.2,13.4c-4.4,0-8.1-3.6-8.1-8.1V4.6
			c0-1.3,0.3-2.6,0.9-3.7c-2.6,1.3-4.4,4-4.4,7.2v0.8c0,4.4,3.6,8.1,8.1,8.1c3.1,0,5.8-1.8,7.2-4.4
			C114.7,13.1,113.5,13.4,112.2,13.4z"/>
		
			<linearGradient id="SVGID_00000083782853425625604480000000297988243788527245_" gradientUnits="userSpaceOnUse" x1="111.2201" y1="45.9799" x2="73.3101" y2="110.0899" gradientTransform="matrix(1 0 0 -1 0 131.8898)">
			<stop  offset="0" style="stop-color:#FFFFFF;stop-opacity:0"/>
			<stop  offset="2.000000e-02" style="stop-color:#FAF7FE;stop-opacity:4.000000e-02"/>
			<stop  offset="0.13" style="stop-color:#E2C9FD;stop-opacity:0.26"/>
			<stop  offset="0.25" style="stop-color:#CCA1FC;stop-opacity:0.46"/>
			<stop  offset="0.37" style="stop-color:#BA7FFB;stop-opacity:0.62"/>
			<stop  offset="0.49" style="stop-color:#AB63FB;stop-opacity:0.76"/>
			<stop  offset="0.61" style="stop-color:#9F4EFA;stop-opacity:0.87"/>
			<stop  offset="0.73" style="stop-color:#973FFA;stop-opacity:0.94"/>
			<stop  offset="0.86" style="stop-color:#9235FA;stop-opacity:0.99"/>
			<stop  offset="1" style="stop-color:#9133FA"/>
		</linearGradient>
		<path style="fill:url(#SVGID_00000083782853425625604480000000297988243788527245_);" d="M116.7,81c-0.5,3.2-2.9,5.9-6.1,6.7
			c-3.6,0.9-7.4-0.9-9.1-4.2L73.3,27.4l4.6-9.4L109.7,81C109.7,81,111.7,84.8,116.7,81L116.7,81z"/>
		
			<linearGradient id="SVGID_00000167396281070809735510000003810427961144195230_" gradientUnits="userSpaceOnUse" x1="104.04" y1="113.0898" x2="104.04" y2="73.5898" gradientTransform="matrix(1 0 0 -1 0 131.8898)">
			<stop  offset="0" style="stop-color:#FFFFFF;stop-opacity:0"/>
			<stop  offset="9.000000e-02" style="stop-color:#F0E4FE;stop-opacity:0.13"/>
			<stop  offset="0.28" style="stop-color:#D4AFFD;stop-opacity:0.39"/>
			<stop  offset="0.46" style="stop-color:#BC83FB;stop-opacity:0.61"/>
			<stop  offset="0.63" style="stop-color:#A960FB;stop-opacity:0.78"/>
			<stop  offset="0.78" style="stop-color:#9C47FA;stop-opacity:0.9"/>
			<stop  offset="0.91" style="stop-color:#9338FA;stop-opacity:0.97"/>
			<stop  offset="1" style="stop-color:#9133FA"/>
		</linearGradient>
		<path style="fill:url(#SVGID_00000167396281070809735510000003810427961144195230_);" d="M107.5,20.9v38.6l-6.8-13.6v-17
			C100.6,24.8,103.6,21.5,107.5,20.9z"/>
		
			<linearGradient id="SVGID_00000147899069668375952540000009655639661827822730_" gradientUnits="userSpaceOnUse" x1="76.895" y1="44.5898" x2="76.895" y2="123.5198" gradientTransform="matrix(1 0 0 -1 0 131.8898)">
			<stop  offset="0" style="stop-color:#FFFFFF;stop-opacity:0"/>
			<stop  offset="0.48" style="stop-color:#FFFFFF;stop-opacity:0.5"/>
			<stop  offset="0.84" style="stop-color:#FFFFFF;stop-opacity:0.86"/>
			<stop  offset="1" style="stop-color:#FFFFFF"/>
		</linearGradient>
		<path style="fill:url(#SVGID_00000147899069668375952540000009655639661827822730_);" d="M107.8,16.9c0.3,0,0.6,0,0.9,0
			c4.4,0,8.1-3.6,8.1-8.1V8.1c0-4.4-3.6-8.1-8.1-8.1c-0.3,0-0.6,0-0.9,0.1c4,0.4,7.2,3.8,7.2,8v0.8C115,13,111.8,16.4,107.8,16.9z
			 M43.5,83.5c-1.3,2.6-3.8,4.1-6.4,4.4c0.3,0,0.6,0.1,0.9,0.1c3,0,5.8-1.6,7.2-4.4l28.1-56.1l4.6-9.4L77,16.3L43.5,83.5L43.5,83.5z
			 M40.4,0.4C39.7,0.1,38.8,0,38,0c-0.3,0-0.6,0-0.9,0.1c0.6,0.1,1.1,0.2,1.7,0.3C40.7,1,44,3.1,44,7.2l0.2,30.3v2.7l1.9-3.7L46,7.1
			C45.4,2.8,42.5,1,40.4,0.4L40.4,0.4z M108.7,20.8c-0.3,0-0.5,0-0.8,0.1c4,0.5,7.1,3.9,7.1,8v51c0,0.4,0,0.8-0.1,1.2
			c-0.5,3.2-2.9,5.9-6.1,6.7c-0.3,0.1-0.7,0.1-1.1,0.2c0.9,0.1,1.9,0.1,2.8-0.2c3.2-0.8,5.7-3.4,6.1-6.7c0.1-0.4,0.1-0.8,0.1-1.2
			v-51C116.7,24.4,113.1,20.8,108.7,20.8z"/>
		
			<linearGradient id="SVGID_00000108271772322731114150000016957475404713054126_" gradientUnits="userSpaceOnUse" x1="33.6422" y1="53.1087" x2="71.5122" y2="129.6487" gradientTransform="matrix(1 0 0 -1 0 131.8898)">
			<stop  offset="0" style="stop-color:#FFFFFF;stop-opacity:0"/>
			<stop  offset="9.000000e-02" style="stop-color:#F0E4FE;stop-opacity:0.13"/>
			<stop  offset="0.28" style="stop-color:#D4AFFD;stop-opacity:0.39"/>
			<stop  offset="0.46" style="stop-color:#BC83FB;stop-opacity:0.61"/>
			<stop  offset="0.63" style="stop-color:#A960FB;stop-opacity:0.78"/>
			<stop  offset="0.78" style="stop-color:#9C47FA;stop-opacity:0.9"/>
			<stop  offset="0.91" style="stop-color:#9338FA;stop-opacity:0.97"/>
			<stop  offset="1" style="stop-color:#9133FA"/>
		</linearGradient>
		<path style="fill:url(#SVGID_00000108271772322731114150000016957475404713054126_);" d="M75.8,1.8L33.8,86.7
			c-3.5-2.2-4.9-6.7-3-10.5L66.1,5.8c1.4-2.7,4.2-4.4,7.2-4.4C74.2,1.4,75,1.5,75.8,1.8L75.8,1.8L75.8,1.8z"/>
	</g>
	<g class="st11">
		<path class="st12" d="M1.3,124.3v-12c0-2.1,0.6-3.8,1.7-5c1.1-1.3,2.6-1.9,4.5-1.9c1.9,0,3.3,0.6,4.3,1.8c1,1.2,1.5,3,1.5,5.3
			v11.8H8.4v-11.8c0-1.1-0.4-1.7-1.1-1.7c-0.7,0-1,0.6-1,1.7v11.8H1.3z"/>
		<path class="st12" d="M27.9,118.4H21c-0.1-0.4-0.2-0.7-0.2-1.1c0-0.5,0.1-0.9,0.2-1.3h2.3c-0.2-1-0.7-1.5-1.5-1.5
			c-0.6,0-1,0.3-1.4,0.8c-0.4,0.5-0.5,1.2-0.5,2.1c0,0.9,0.2,1.6,0.5,2.1c0.3,0.5,0.8,0.8,1.4,0.8c0.5,0,0.9-0.3,1.3-0.8l2.6,3.5
			c-1.2,1.1-2.6,1.6-4,1.6c-1.8,0-3.3-0.7-4.5-2c-1.2-1.3-1.8-3-1.8-5c0-2,0.6-3.6,1.9-5c1.2-1.4,2.8-2,4.6-2c1.8,0,3.2,0.7,4.4,2
			c1.2,1.3,1.8,3,1.8,4.9C28,117.6,28,117.9,27.9,118.4z"/>
		<path class="st12" d="M29.8,111h4.6v7.3c0,0.6,0.1,1,0.2,1.2c0.1,0.2,0.3,0.3,0.6,0.3c0.5,0,0.8-0.5,0.8-1.5V111h4.6v7.3
			c0,0.6,0.1,1,0.2,1.2c0.1,0.2,0.3,0.3,0.6,0.3c0.5,0,0.8-0.5,0.8-1.5V111h4.6v8.3c0,1.5-0.5,2.8-1.4,3.9s-2,1.6-3.3,1.6
			c-1.3,0-2.6-0.6-3.6-1.9c-1.2,1.3-2.4,1.9-3.6,1.9c-1.5,0-2.7-0.6-3.7-1.8c-0.7-1-1.1-2.4-1.1-4.2V111z"/>
		<path class="st12" d="M72.9,105.8v13.3c0,1.7-0.5,3-1.4,4.1c-0.9,1-2.1,1.6-3.5,1.6c-1.7,0-3-0.9-3.9-2.6c-0.6,0.9-1.2,1.6-1.8,2
			c-0.6,0.4-1.4,0.6-2.4,0.6c-1.5,0-2.6-0.5-3.4-1.6c-0.8-1-1.2-2.5-1.2-4.5v-12.8h4.9v12c0,0.6,0,1,0.1,1.2s0.3,0.3,0.5,0.3
			c0.5,0,0.7-0.5,0.7-1.4v-12.1h4.9v12c0,0.6,0,1,0.1,1.2c0.1,0.2,0.3,0.3,0.5,0.3c0.5,0,0.7-0.5,0.7-1.5v-12H72.9z"/>
		<path class="st12" d="M81.3,110.5c1.7,0,3.2,0.7,4.4,2.1c1.2,1.4,1.8,3,1.8,4.9c0,1.9-0.6,3.6-1.9,5c-1.2,1.4-2.7,2.1-4.5,2.1
			c-1.8,0-3.3-0.7-4.5-2.1c-1.2-1.4-1.9-3-1.9-5c0-2,0.6-3.6,1.9-5C78,111.2,79.5,110.5,81.3,110.5z M81.2,115.5
			c-0.5,0-0.9,0.2-1.2,0.6s-0.5,0.9-0.5,1.4c0,0.6,0.2,1,0.5,1.4s0.8,0.6,1.2,0.6c0.5,0,0.9-0.2,1.2-0.6s0.5-0.9,0.5-1.4
			c0-0.6-0.2-1-0.5-1.4C82.1,115.7,81.7,115.5,81.2,115.5z"/>
		<path class="st12" d="M96.2,110.7v5.4c-0.3-0.2-0.6-0.3-0.9-0.3c-0.8,0-1.2,0.7-1.2,2.1v6.4h-4.6v-7.4c0-1.9,0.5-3.5,1.4-4.7
			c1-1.2,2.2-1.7,3.8-1.7C95.1,110.5,95.6,110.6,96.2,110.7z"/>
		<path class="st12" d="M102.1,105.8v18.5h-4.6v-18.5H102.1z"/>
		<path class="st12" d="M112.2,105.8h4.6v11.2c0,2.1-0.5,3.7-1.5,5c-0.6,0.7-1.3,1.3-2.1,1.8c-0.9,0.4-1.8,0.7-2.7,0.7
			c-1.8,0-3.3-0.7-4.6-2c-1.2-1.4-1.9-3-1.9-5c0-1.9,0.6-3.5,1.8-4.9c1.2-1.4,2.7-2.1,4.4-2.1c0.3,0,0.7,0,1.2,0.1v5.6
			c-0.4-0.3-0.7-0.5-1.1-0.5c-0.5,0-0.9,0.2-1.2,0.6c-0.3,0.4-0.5,0.8-0.5,1.4c0,0.5,0.2,1,0.5,1.3c0.3,0.4,0.8,0.6,1.3,0.6
			c1.2,0,1.8-0.9,1.8-2.7V105.8z"/>
		<path class="st12" d="M131.7,115v4.9h-1.4v4.4h-4.9v-11.7c0-2.3,0.6-4,1.7-5.3s2.7-1.9,4.7-1.9c1.9,0,3.4,0.6,4.3,1.7
			c0.9,1.1,1.4,2.9,1.4,5.3v11.9h-4.9v-11.6c0-0.7-0.1-1.2-0.2-1.5c-0.2-0.3-0.4-0.4-0.8-0.4c-0.8,0-1.2,0.6-1.2,1.9v2.3H131.7z"/>
		<path class="st12" d="M144.7,110.8v13.5h-4.6v-13.5H144.7z M142.4,104.8c0.6,0,1.1,0.2,1.6,0.7s0.7,1.1,0.7,1.7
			c0,0.7-0.2,1.3-0.6,1.7c-0.4,0.5-1,0.7-1.6,0.7c-0.7,0-1.2-0.2-1.6-0.7c-0.4-0.5-0.6-1-0.6-1.7c0-0.7,0.2-1.2,0.7-1.7
			C141.3,105,141.8,104.8,142.4,104.8z"/>
	</g>
</g>
</svg>
