<svg width="349" height="59" viewBox="0 0 349 59" xmlns="http://www.w3.org/2000/svg">
    <g opacity="0.25">
        <path d="M16.14 14.2598V19.3798L21.93 14.2598H16.14Z"/>
        <path d="M28.59 14.2598L16.14 25.2698V31.9498L36.15 14.2598H28.59Z"/>
        <path d="M27.09 34.8398H19.53L42.81 14.2598H50.37L27.09 34.8398Z"/>
        <path d="M41.31 34.8398H33.75L57.03 14.2598H64.59L41.31 34.8398Z"/>
        <path d="M55.53 34.8398H47.97L71.25 14.2598H78.81L55.53 34.8398Z"/>
        <path d="M69.75 34.8398H62.19L85.47 14.2598H93.03L69.75 34.8398Z"/>
        <path d="M83.97 34.8398H76.41L99.7 14.2598H107.25L83.97 34.8398Z"/>
        <path d="M98.19 34.8398H90.63L113.92 14.2598H121.47L98.19 34.8398Z"/>
        <path d="M112.41 34.8398H104.85L128.14 14.2598H135.7L112.41 34.8398Z"/>
        <path d="M126.63 34.8398H119.07L142.36 14.2598H149.92L126.63 34.8398Z"/>
        <path d="M140.85 34.8398H133.29L156.58 14.2598H164.14L140.85 34.8398Z"/>
        <path d="M155.07 34.8398H147.51L170.8 14.2598H178.36L155.07 34.8398Z"/>
        <path d="M169.29 34.8398H161.73L185.02 14.2598H192.58L169.29 34.8398Z"/>
        <path d="M183.51 34.8398H175.96L199.24 14.2598H206.8L183.51 34.8398Z"/>
        <path d="M197.74 34.8398H190.18L213.46 14.2598H221.02L197.74 34.8398Z"/>
        <path d="M211.96 34.8398H204.4L227.68 14.2598H235.24L211.96 34.8398Z"/>
        <path d="M226.18 34.8398H218.62L241.9 14.2598H249.46L226.18 34.8398Z"/>
        <path d="M256.12 14.2598L232.84 34.8398H240.4L257.39 19.8298V14.2598H256.12Z"/>
        <path d="M247.06 34.8398H254.62L257.39 32.3898V25.7197L247.06 34.8398Z"/>
    </g>
    <path d="M13.54 39.1201H9.77002V37.9901H12.41V11.7301H9.77002V10.6001H13.54V39.1201Z"/>
    <path d="M8.46 24.29H4.38V25.42H8.46V24.29Z"/>
    <path d="M264.94 39.1201H261.17V10.6001H264.94V11.7301H262.31V37.9901H264.94V39.1201Z"/>
    <path d="M270.34 24.29H266.26V25.42H270.34V24.29Z"/>
    <path d="M31.24 5.37012H10V0.600098H31.24V5.37012ZM11.13 4.24011H30.13V1.74011H11.13V4.24011Z"/>
    <path d="M42.5 5.37012H34.38V0.600098H42.5V5.37012ZM35.5 4.2301H41.31V1.7301H35.5V4.2301Z"/>
    <path d="M245.11 1.16992H238.17V4.79993H245.11V1.16992Z"/>
    <path d="M235.24 1.16992H228.3V4.79993H235.24V1.16992Z"/>
    <path d="M201.87 2.49023H199.98V3.48022H201.87V2.49023Z"/>
    <path d="M171.71 2.49023H169.82V3.48022H171.71V2.49023Z"/>
    <path d="M141.55 2.49023H139.66V3.48022H141.55V2.49023Z"/>
    <path d="M111.39 2.49023H109.5V3.48022H111.39V2.49023Z"/>
    <path d="M264.94 44.0098H9.77002V45.1398H264.94V44.0098Z"/>
    <path d="M307.69 57.2803H267.65V58.7302H307.69V57.2803Z"/>
    <path d="M348.59 57.2803H328.57V58.7302H348.59V57.2803Z"/>
    <path d="M252.01 57.2803H239.88V58.7302H252.01V57.2803Z"/>
    <path d="M12.54 57.2803H0.409973V58.7302H12.54V57.2803Z"/>
    <path d="M24.61 57.2803H17.26V58.7302H24.61V57.2803Z"/>
</svg>
