<svg width="55" height="55" viewBox="0 0 55 55" fill="none" xmlns="http://www.w3.org/2000/svg">
    <path fill-rule="evenodd" clip-rule="evenodd" d="M18.38 2.19001C21.3281 1.05487 24.4515 0.442359 27.61 0.380005V5.62001C25.1329 5.66849 22.6817 6.13505 20.36 7.00001L18.36 2.15001L18.38 2.19001Z" fill="#9F60F4"/>
    <path fill-rule="evenodd" clip-rule="evenodd" d="M9.30005 8.00003C11.6298 5.76075 14.3385 3.95272 17.3 2.66003L19.3 7.51003C16.9745 8.53364 14.8432 9.95113 13 11.7L9.30005 8.00003Z" fill="#9F60F4"/>
    <path fill-rule="evenodd" clip-rule="evenodd" d="M3.15002 16.8C4.44271 13.8385 6.25075 11.1298 8.49002 8.80005L12.19 12.5C10.4413 14.3433 9.0238 16.4746 8.00002 18.8L3.15002 16.8Z" fill="#9F60F4"/>
    <path fill-rule="evenodd" clip-rule="evenodd" d="M0.910034 27.08C0.972796 23.9215 1.58529 20.7982 2.72004 17.85L7.57003 19.85C6.69252 22.1662 6.21244 24.6139 6.15004 27.09L0.910034 27.08Z" fill="#9F60F4"/>
    <path fill-rule="evenodd" clip-rule="evenodd" d="M2.71002 37.45C1.57488 34.5019 0.962379 31.3784 0.900024 28.22H6.14002C6.20243 30.696 6.68251 33.1438 7.56002 35.46L2.71002 37.46V37.45Z" fill="#9F60F4"/>
    <path fill-rule="evenodd" clip-rule="evenodd" d="M8.49002 46.53C6.25058 44.2004 4.44253 41.4917 3.15002 38.53L8.00002 36.53C9.02416 38.8553 10.4416 40.9865 12.19 42.83L8.49002 46.53Z" fill="#9F60F4"/>
    <path fill-rule="evenodd" clip-rule="evenodd" d="M17.3199 52.69C14.3583 51.3975 11.6496 49.5895 9.31995 47.35L13.0199 43.65C14.8623 45.4025 16.9937 46.8234 19.3199 47.85L17.3199 52.7V52.69Z" fill="#9F60F4"/>
    <path fill-rule="evenodd" clip-rule="evenodd" d="M27.61 54.93C24.4516 54.8674 21.3282 54.255 18.38 53.12L20.38 48.27C22.6962 49.1475 25.1439 49.6276 27.62 49.69V54.93H27.61Z" fill="#CEAEF9"/>
    <path fill-rule="evenodd" clip-rule="evenodd" d="M38 53.12C35.0518 54.2548 31.9285 54.8672 28.77 54.93V49.69C31.2427 49.6265 33.687 49.1464 36 48.27L38 53.12Z" fill="#C094F8"/>
    <path fill-rule="evenodd" clip-rule="evenodd" d="M47.0601 47.35C44.7303 49.5893 42.0216 51.3973 39.0601 52.69L37.0601 47.84C39.3862 46.8132 41.5176 45.3923 43.3601 43.64L47.0601 47.34V47.35Z" fill="#E5D9F4"/>
    <path fill-rule="evenodd" clip-rule="evenodd" d="M53.21 38.51C51.9177 41.4718 50.1097 44.1805 47.87 46.51L44.17 42.81C45.9189 40.9669 47.3364 38.8355 48.36 36.51L53.21 38.51Z" fill="#9F60F4"/>
    <path fill-rule="evenodd" clip-rule="evenodd" d="M55.45 28.23C55.3877 31.3884 54.7752 34.5119 53.64 37.46L48.79 35.46C49.6676 33.1438 50.1476 30.696 50.21 28.22L55.45 28.23Z" fill="#9F60F4"/>
    <path fill-rule="evenodd" clip-rule="evenodd" d="M53.64 17.85C54.7752 20.7981 55.3877 23.9215 55.45 27.08H50.21C50.1476 24.6039 49.6676 22.1562 48.79 19.84L53.64 17.84V17.85Z" fill="#9F60F4"/>
    <path fill-rule="evenodd" clip-rule="evenodd" d="M47.87 8.78003C50.1093 11.1098 51.9174 13.8184 53.21 16.78L48.36 18.78C47.3363 16.4546 45.9188 14.3233 44.17 12.48L47.87 8.78003Z" fill="#9F60F4"/>
    <path fill-rule="evenodd" clip-rule="evenodd" d="M39 2.62C41.9616 3.91268 44.6703 5.72072 47 7.95999L43.3 11.66C41.457 9.91094 39.3256 8.49342 37 7.46999L39 2.62Z" fill="#9F60F4"/>
    <path fill-rule="evenodd" clip-rule="evenodd" d="M43.92 12.23L28.73 27.42H50.22V27.88H28.73L43.92 43.07L43.6 43.4L28.41 28.21V49.69H27.95V28.21L12.76 43.4L12.43 43.07L27.62 27.88H6.14001V27.42H27.62L12.43 12.23L12.76 11.91L27.95 27.1V5.60999H28.41V27.1L43.6 11.91L43.92 12.23Z" fill="#9F60F4"/>
    <path fill-rule="evenodd" clip-rule="evenodd" d="M41.2 30.28H37.9V33.58H41.2V30.28Z" fill="#E5D9F4"/>
    <path fill-rule="evenodd" clip-rule="evenodd" d="M19.44 13.3199H17.79V14.9699H19.44V13.3199Z" fill="#E5D9F4"/>
    <path fill-rule="evenodd" clip-rule="evenodd" d="M23.86 9.33997H21.01V12.18H23.86V9.33997Z" fill="#E5D9F4"/>
    <path fill-rule="evenodd" clip-rule="evenodd" d="M28.75 0.379967C31.9152 0.44 35.0456 1.05255 38 2.18997L36 6.99997C33.6838 6.12246 31.2361 5.64238 28.76 5.57997V0.339966L28.75 0.379967Z" fill="#9F60F4"/>
</svg>
