<svg width="55" height="55" viewBox="136 0 55 55" fill="none" xmlns="http://www.w3.org/2000/svg">
    <path fill-rule="evenodd" clip-rule="evenodd" d="M174.83 2.71996C177.715 4.00054 180.354 5.7737 182.63 7.95996L178.93 11.66C177.137 9.95193 175.067 8.55902 172.81 7.53996L174.81 2.70996L174.83 2.71996Z"/>
    <path fill-rule="evenodd" clip-rule="evenodd" d="M174.83 2.71996C177.715 4.00054 180.354 5.7737 182.63 7.95996L178.93 11.66C177.137 9.95193 175.067 8.55902 172.81 7.53996L174.81 2.70996L174.83 2.71996Z" fill="#C094F8"/>
    <path fill-rule="evenodd" clip-rule="evenodd" d="M164.33 0.37999C167.567 0.444829 170.767 1.08479 173.78 2.26999L171.78 7.09999C169.411 6.17999 166.901 5.67592 164.36 5.60999V0.369995L164.33 0.37999Z" fill="#E5D9F4"/>
    <path fill-rule="evenodd" clip-rule="evenodd" d="M153.74 2.28001C156.753 1.09502 159.953 0.455066 163.19 0.390015V5.63001C160.649 5.69594 158.139 6.20001 155.77 7.12002L153.77 2.29002L153.74 2.28001Z" fill="#9F60F4"/>
    <path fill-rule="evenodd" clip-rule="evenodd" d="M144.88 8.00001C147.156 5.8139 149.796 4.04076 152.68 2.76001L154.68 7.59C152.419 8.60808 150.347 10.001 148.55 11.71L144.85 8.01001L144.88 8.00001Z" fill="#9F60F4"/>
    <path fill-rule="evenodd" clip-rule="evenodd" d="M138.82 16.58C140.1 13.6953 141.873 11.0558 144.06 8.78003L147.76 12.48C146.052 14.2736 144.659 16.3427 143.64 18.6L138.81 16.6L138.82 16.58Z" fill="#9F60F4"/>
    <path fill-rule="evenodd" clip-rule="evenodd" d="M136.49 27.08C136.555 23.8429 137.195 20.6431 138.38 17.63L143.21 19.63C142.29 21.9992 141.786 24.5093 141.72 27.05L136.49 27.08Z" fill="#9F60F4"/>
    <path fill-rule="evenodd" clip-rule="evenodd" d="M138.38 37.68C137.195 34.6669 136.555 31.4671 136.49 28.23H141.73C141.796 30.7707 142.3 33.2809 143.22 35.65L138.39 37.65L138.38 37.68Z" fill="#9F60F4"/>
    <path fill-rule="evenodd" clip-rule="evenodd" d="M144.07 46.53C141.884 44.2538 140.111 41.6144 138.83 38.73L143.66 36.73C144.679 38.9873 146.072 41.0564 147.78 42.85L144.08 46.55L144.07 46.53Z" fill="#9F60F4"/>
    <path fill-rule="evenodd" clip-rule="evenodd" d="M152.68 52.59C149.795 51.3064 147.155 49.5298 144.88 47.34L148.58 43.64C150.376 45.349 152.449 46.7419 154.71 47.76L152.71 52.59H152.68Z" fill="#9F60F4"/>
    <path fill-rule="evenodd" clip-rule="evenodd" d="M163.18 54.9299C159.943 54.8651 156.743 54.2251 153.73 53.0399L155.73 48.21C158.099 49.13 160.609 49.634 163.15 49.7V54.94L163.18 54.9299Z" fill="#9F60F4"/>
    <path fill-rule="evenodd" clip-rule="evenodd" d="M173.78 53C170.767 54.1852 167.567 54.8252 164.33 54.89V49.65C166.871 49.5841 169.381 49.08 171.75 48.16L173.75 52.99L173.78 53Z" fill="#9F60F4"/>
    <path fill-rule="evenodd" clip-rule="evenodd" d="M182.63 47.34C180.355 49.5295 177.715 51.3061 174.83 52.59L172.83 47.76C175.087 46.741 177.157 45.348 178.95 43.64L182.65 47.34H182.63Z" fill="#9F60F4"/>
    <path fill-rule="evenodd" clip-rule="evenodd" d="M188.69 38.7299C187.409 41.6144 185.636 44.2538 183.45 46.53L179.75 42.83C181.458 41.0364 182.851 38.9673 183.87 36.71L188.7 38.71L188.69 38.7299Z" fill="#9F60F4"/>
    <path fill-rule="evenodd" clip-rule="evenodd" d="M191 28.23C190.935 31.4671 190.295 34.6669 189.11 37.68L184.28 35.68C185.2 33.3108 185.704 30.8006 185.77 28.26L191 28.23Z" fill="#9F60F4"/>
    <path fill-rule="evenodd" clip-rule="evenodd" d="M189.13 17.63C190.315 20.6432 190.955 23.8429 191.02 27.08H185.78C185.714 24.5393 185.21 22.0292 184.29 19.66L189.12 17.66L189.13 17.63Z" fill="#9F60F4"/>
    <path fill-rule="evenodd" clip-rule="evenodd" d="M185.8 27.88H164.31L179.5 43.07L179.18 43.4L163.99 28.21V49.69H163.53V28.21L148.34 43.4L148.01 43.07L163.21 27.88H141.72V27.42H163.21L148.01 12.23L148.34 11.91L163.76 27.33L179.18 11.91L179.5 12.23L164.31 27.42H185.8V27.88Z" fill="#9F60F4"/>
    <path fill-rule="evenodd" clip-rule="evenodd" d="M170.35 38.37L168.02 36.03L165.68 38.37L168.02 40.7L170.35 38.37Z" fill="#E5D9F4"/>
    <path fill-rule="evenodd" clip-rule="evenodd" d="M173.07 42.9901L171.91 41.8201L170.74 42.9901L171.91 44.1601L173.07 42.9901Z" fill="#E5D9F4"/>
    <path fill-rule="evenodd" clip-rule="evenodd" d="M178.98 34.48L177.01 32.51L175.05 34.48L177.01 36.44L178.98 34.48Z" fill="#E5D9F4"/>
    <path fill-rule="evenodd" clip-rule="evenodd" d="M183.45 8.78001C185.636 11.0562 187.409 13.6956 188.69 16.58L183.86 18.58C182.841 16.3226 181.448 14.2536 179.74 12.46L183.44 8.76001L183.45 8.78001Z" fill="#CEAEF9"/>
</svg>
