<svg width="55" height="55" viewBox="68.9399 0 55 55" xmlns="http://www.w3.org/2000/svg">
    <path fill-rule="evenodd" clip-rule="evenodd" d="M86.17 2.19001C89.1181 1.05467 92.2415 0.442155 95.4 0.380005V5.62001C92.924 5.68242 90.4762 6.1625 88.16 7.04001L86.16 2.19001H86.17Z"/>
    <path fill-rule="evenodd" clip-rule="evenodd" d="M86.17 2.19001C89.1181 1.05467 92.2415 0.442155 95.4 0.380005V5.62001C92.924 5.68241 90.4762 6.1625 88.16 7.04001L86.16 2.19001H86.17Z" fill="#9F60F4"/>
    <path fill-rule="evenodd" clip-rule="evenodd" d="M77.09 8.00003C79.4197 5.76075 82.1284 3.95272 85.09 2.66003L87.09 7.51003C84.7644 8.53364 82.6331 9.95113 80.79 11.7L77.09 8.00003Z" fill="#9F60F4"/>
    <path fill-rule="evenodd" clip-rule="evenodd" d="M70.9399 16.8C72.2328 13.8386 74.0408 11.1299 76.2799 8.80005L79.9799 12.5C78.2309 14.3431 76.8134 16.4744 75.7899 18.8L70.9399 16.8Z" fill="#9F60F4"/>
    <path fill-rule="evenodd" clip-rule="evenodd" d="M68.7 27.08C68.7627 23.9215 69.3752 20.7982 70.51 17.85L75.36 19.85C74.4824 22.1662 74.0024 24.6139 73.94 27.09L68.7 27.08Z" fill="#CEAEF9"/>
    <path fill-rule="evenodd" clip-rule="evenodd" d="M70.4999 37.45C69.365 34.5018 68.7525 31.3784 68.6899 28.22H73.9299C73.9923 30.696 74.4724 33.1438 75.3499 35.46L70.4999 37.46V37.45Z" fill="#C094F8"/>
    <path fill-rule="evenodd" clip-rule="evenodd" d="M76.2799 46.53C74.0407 44.2003 72.2326 41.4916 70.9399 38.53L75.7899 36.53C76.8135 38.8556 78.231 40.9869 79.9799 42.83L76.2799 46.53Z" fill="#E5D9F4"/>
    <path fill-rule="evenodd" clip-rule="evenodd" d="M85.11 52.69C82.1483 51.3975 79.4396 49.5895 77.11 47.35L80.81 43.65C82.6524 45.4025 84.7837 46.8234 87.11 47.85L85.11 52.7V52.69Z" fill="#9F60F4"/>
    <path fill-rule="evenodd" clip-rule="evenodd" d="M95.39 54.93C92.2316 54.8674 89.1082 54.255 86.16 53.12L88.16 48.27C90.4762 49.1475 92.924 49.6276 95.4 49.69V54.93H95.39Z" fill="#9F60F4"/>
    <path fill-rule="evenodd" clip-rule="evenodd" d="M105.77 53.12C102.822 54.2548 99.6985 54.8672 96.54 54.93V49.69C99.0161 49.6276 101.464 49.1475 103.78 48.27L105.78 53.12H105.77Z" fill="#9F60F4"/>
    <path fill-rule="evenodd" clip-rule="evenodd" d="M114.85 47.35C112.52 49.5895 109.812 51.3975 106.85 52.69L104.85 47.84C107.176 46.813 109.307 45.3922 111.15 43.64L114.85 47.34V47.35Z" fill="#9F60F4"/>
    <path fill-rule="evenodd" clip-rule="evenodd" d="M121 38.51C119.707 41.4717 117.899 44.1804 115.66 46.51L111.96 42.81C113.709 40.9669 115.126 38.8355 116.15 36.51L121 38.51Z" fill="#9F60F4"/>
    <path fill-rule="evenodd" clip-rule="evenodd" d="M123.24 28.23C123.178 31.3884 122.565 34.5119 121.43 37.46L116.58 35.46C117.458 33.1438 117.938 30.696 118 28.22L123.24 28.23Z" fill="#9F60F4"/>
    <path fill-rule="evenodd" clip-rule="evenodd" d="M121.43 17.85C122.565 20.7981 123.178 23.9215 123.24 27.08H118C117.938 24.6039 117.458 22.1562 116.58 19.84L121.43 17.84V17.85Z" fill="#9F60F4"/>
    <path fill-rule="evenodd" clip-rule="evenodd" d="M115.66 8.78003C117.899 11.1098 119.707 13.8184 121 16.78L116.15 18.78C115.126 16.4546 113.709 14.3233 111.96 12.48L115.66 8.78003Z" fill="#9F60F4"/>
    <path fill-rule="evenodd" clip-rule="evenodd" d="M106.82 2.62C109.782 3.91268 112.49 5.72072 114.82 7.95999L111.12 11.66C109.277 9.91109 107.146 8.4936 104.82 7.46999L106.82 2.62Z" fill="#9F60F4"/>
    <path fill-rule="evenodd" clip-rule="evenodd" d="M111.71 12.23L96.5201 27.42H118V27.88H96.5201L111.71 43.07L111.39 43.4L96.2001 28.21V49.69H95.7401V28.21L80.5501 43.4L80.2201 43.07L95.4101 27.88H73.9301V27.42H95.7401V5.60999H96.2001V27.1L111.39 11.91L111.71 12.23Z" fill="#9F60F4"/>
    <path fill-rule="evenodd" clip-rule="evenodd" d="M92.02 20.46H88.71V23.7599H92.02V20.46Z" fill="#E5D9F4"/>
    <path fill-rule="evenodd" clip-rule="evenodd" d="M85.26 19.61H83.61V21.26H85.26V19.61Z" fill="#E5D9F4"/>
    <path fill-rule="evenodd" clip-rule="evenodd" d="M90.19 12.15H87.41V14.93H90.19V12.15Z" fill="#E5D9F4"/>
    <path fill-rule="evenodd" clip-rule="evenodd" d="M96.54 0.380005C99.6985 0.442359 102.822 1.05487 105.77 2.19001L103.77 7.04001C101.454 6.1625 99.0061 5.68241 96.53 5.62001V0.380005H96.54Z" fill="#9F60F4"/>
</svg>
