<svg width="180" height="95" viewBox="0 0 180 95" fill="none" xmlns="http://www.w3.org/2000/svg">
    <path style="mix-blend-mode:overlay" d="M89.43 38.8401C42.31 38.8401 4.10999 45.2101 4.10999 53.0601C4.10999 60.9101 42.31 67.2801 89.43 67.2801C136.55 67.2801 174.75 60.9101 174.75 53.0601C174.75 45.2101 136.55 38.8401 89.43 38.8401ZM89.43 64.3801C51.9 64.3801 21.48 59.3101 21.48 53.0601C21.48 46.8101 51.9 41.7401 89.43 41.7401C126.96 41.7401 157.38 46.8101 157.38 53.0601C157.38 59.3101 127 64.3901 89.43 64.3901V64.3801Z" fill="url(#paint0_linear_0_1)"/>
    <path style="mix-blend-mode:color-dodge" d="M99.4574 69.2573C101.098 58.2949 81.1205 46.2201 54.8372 42.2873C28.5539 38.3546 5.91729 44.0532 4.27701 55.0155C2.63672 65.9778 22.6139 78.0526 48.8972 81.9854C75.1805 85.9182 97.8171 80.2196 99.4574 69.2573Z" fill="url(#paint1_radial_0_1)"/>
    <path style="mix-blend-mode:color-dodge" d="M179.989 46.1401C180.63 38.2075 160.586 30.1152 135.219 28.0653C109.853 26.0155 88.7694 30.7843 88.1283 38.7169C87.4873 46.6495 107.531 54.7418 132.898 56.7917C158.265 58.8415 179.348 54.0727 179.989 46.1401Z" fill="url(#paint2_radial_0_1)"/>
    <path style="mix-blend-mode:overlay" d="M5.25 62.7C5.25 70.55 43.45 76.92 90.57 76.92C137.69 76.92 175.89 70.55 175.89 62.7C175.89 54.85 137.69 48.48 90.57 48.48C43.45 48.48 5.25 54.85 5.25 62.7ZM22.62 62.7C22.62 56.45 53.04 51.38 90.57 51.38C128.1 51.38 158.52 56.45 158.52 62.7C158.52 68.95 128.1 74 90.57 74C53.04 74 22.63 69 22.63 62.7H22.62Z" fill="url(#paint3_linear_0_1)"/>
    <path style="mix-blend-mode:color-dodge" d="M150.003 90.2158C167.405 82.6633 177.936 68.2979 173.523 58.1298C169.11 47.9617 151.425 45.8413 134.022 53.3938C116.62 60.9463 106.089 75.3117 110.502 85.4798C114.915 95.6479 132.6 97.7683 150.003 90.2158Z" fill="url(#paint4_radial_0_1)"/>
    <path style="mix-blend-mode:color-dodge" d="M47.1543 66.389C72.5209 64.3392 92.565 56.2468 91.9239 48.3143C91.2829 40.3817 70.1996 35.6128 44.833 37.6627C19.4664 39.7125 -0.577633 47.8049 0.063393 55.7375C0.704419 63.67 21.7878 68.4389 47.1543 66.389Z" fill="url(#paint5_radial_0_1)"/>
    <path style="mix-blend-mode:color-dodge" d="M91.14 60.03C110.492 60.03 126.18 56.9408 126.18 53.13C126.18 49.3192 110.492 46.23 91.14 46.23C71.7879 46.23 56.1 49.3192 56.1 53.13C56.1 56.9408 71.7879 60.03 91.14 60.03Z" fill="url(#paint6_radial_0_1)"/>
    <path style="mix-blend-mode:color-dodge" d="M83.78 44.63C84.509 44.63 85.1 44.039 85.1 43.31C85.1 42.581 84.509 41.99 83.78 41.99C83.0509 41.99 82.46 42.581 82.46 43.31C82.46 44.039 83.0509 44.63 83.78 44.63Z" fill="url(#paint7_radial_0_1)"/>
    <path style="mix-blend-mode:color-dodge" d="M89.09 56.4401C89.819 56.4401 90.41 55.8491 90.41 55.1201C90.41 54.391 89.819 53.8 89.09 53.8C88.361 53.8 87.77 54.391 87.77 55.1201C87.77 55.8491 88.361 56.4401 89.09 56.4401Z" fill="url(#paint8_radial_0_1)"/>
    <path style="mix-blend-mode:color-dodge" d="M68.65 3.08997C69.379 3.08997 69.97 2.49897 69.97 1.76996C69.97 1.04094 69.379 0.449951 68.65 0.449951C67.9209 0.449951 67.33 1.04094 67.33 1.76996C67.33 2.49897 67.9209 3.08997 68.65 3.08997Z" fill="url(#paint9_radial_0_1)"/>
    <path style="mix-blend-mode:color-dodge" d="M64.77 40.28C66.228 40.28 67.41 39.098 67.41 37.64C67.41 36.182 66.228 35 64.77 35C63.312 35 62.13 36.182 62.13 37.64C62.13 39.098 63.312 40.28 64.77 40.28Z" fill="url(#paint10_radial_0_1)"/>
    <path style="mix-blend-mode:color-dodge" d="M120.22 14.3899C121.678 14.3899 122.86 13.2079 122.86 11.7499C122.86 10.2918 121.678 9.10986 120.22 9.10986C118.762 9.10986 117.58 10.2918 117.58 11.7499C117.58 13.2079 118.762 14.3899 120.22 14.3899Z" fill="url(#paint11_radial_0_1)"/>
    <path style="mix-blend-mode:color-dodge" d="M108.26 48.77C109.718 48.77 110.9 47.588 110.9 46.13C110.9 44.672 109.718 43.49 108.26 43.49C106.802 43.49 105.62 44.672 105.62 46.13C105.62 47.588 106.802 48.77 108.26 48.77Z" fill="url(#paint12_radial_0_1)"/>
    <defs>
        <linearGradient id="paint0_linear_0_1" x1="81.88" y1="43.9301" x2="156.61" y2="134.39" gradientUnits="userSpaceOnUse">
            <stop stop-color="white"/>
            <stop offset="0.04" stop-color="white" stop-opacity="0.96"/>
            <stop offset="0.4" stop-color="white" stop-opacity="0.55"/>
            <stop offset="0.69" stop-color="white" stop-opacity="0.26"/>
            <stop offset="0.9" stop-color="white" stop-opacity="0.07"/>
            <stop offset="1" stop-color="white" stop-opacity="0"/>
        </linearGradient>
        <radialGradient id="paint1_radial_0_1" cx="0" cy="0" r="1" gradientUnits="userSpaceOnUse" gradientTransform="translate(44.8582 58.0332) rotate(8.51) scale(48.069 20.0124)">
            <stop offset="0.03" stop-color="white"/>
            <stop offset="0.43" stop-color="#919191" stop-opacity="0.57"/>
            <stop offset="0.82" stop-color="#292929" stop-opacity="0.16"/>
            <stop offset="1" stop-opacity="0"/>
        </radialGradient>
        <radialGradient id="paint2_radial_0_1" cx="0" cy="0" r="1" gradientUnits="userSpaceOnUse" gradientTransform="translate(133.344 40.0373) rotate(4.62) scale(46.0743 14.3718)">
            <stop offset="0.03" stop-color="white"/>
            <stop offset="0.43" stop-color="#919191" stop-opacity="0.57"/>
            <stop offset="0.82" stop-color="#292929" stop-opacity="0.16"/>
            <stop offset="1" stop-opacity="0"/>
        </radialGradient>
        <linearGradient id="paint3_linear_0_1" x1="98.11" y1="53.57" x2="23.39" y2="144.03" gradientUnits="userSpaceOnUse">
            <stop stop-color="white"/>
            <stop offset="0.04" stop-color="white" stop-opacity="0.96"/>
            <stop offset="0.4" stop-color="white" stop-opacity="0.55"/>
            <stop offset="0.69" stop-color="white" stop-opacity="0.26"/>
            <stop offset="0.9" stop-color="white" stop-opacity="0.07"/>
            <stop offset="1" stop-color="white" stop-opacity="0"/>
        </linearGradient>
        <radialGradient id="paint4_radial_0_1" cx="0" cy="0" r="1" gradientUnits="userSpaceOnUse" gradientTransform="translate(139.757 74.7713) rotate(-23.46) scale(34.335 20.0124)">
            <stop offset="0.03" stop-color="white"/>
            <stop offset="0.43" stop-color="#919191" stop-opacity="0.57"/>
            <stop offset="0.82" stop-color="#292929" stop-opacity="0.16"/>
            <stop offset="1" stop-opacity="0"/>
        </radialGradient>
        <radialGradient id="paint5_radial_0_1" cx="0" cy="0" r="1" gradientUnits="userSpaceOnUse" gradientTransform="translate(47.5269 51.1916) rotate(175.38) scale(46.0743 14.3718)">
            <stop offset="0.03" stop-color="white"/>
            <stop offset="0.43" stop-color="#919191" stop-opacity="0.57"/>
            <stop offset="0.82" stop-color="#292929" stop-opacity="0.16"/>
            <stop offset="1" stop-opacity="0"/>
        </radialGradient>
        <radialGradient id="paint6_radial_0_1" cx="0" cy="0" r="1" gradientUnits="userSpaceOnUse" gradientTransform="translate(76.17 27.7999) scale(168.4 168.401)">
            <stop offset="0.03" stop-color="white"/>
            <stop offset="0.43" stop-color="#919191" stop-opacity="0.57"/>
            <stop offset="0.82" stop-color="#292929" stop-opacity="0.16"/>
            <stop offset="1" stop-opacity="0"/>
        </radialGradient>
        <radialGradient id="paint7_radial_0_1" cx="0" cy="0" r="1" gradientUnits="userSpaceOnUse" gradientTransform="translate(98.8704 53.0801) rotate(180) scale(1.342 1.34201)">
            <stop offset="0.03" stop-color="white"/>
            <stop offset="0.43" stop-color="#919191" stop-opacity="0.57"/>
            <stop offset="0.82" stop-color="#292929" stop-opacity="0.16"/>
            <stop offset="1" stop-opacity="0"/>
        </radialGradient>
        <radialGradient id="paint8_radial_0_1" cx="0" cy="0" r="1" gradientUnits="userSpaceOnUse" gradientTransform="translate(104.238 64.8897) rotate(180) scale(1.342 1.34201)">
            <stop offset="0.03" stop-color="white"/>
            <stop offset="0.43" stop-color="#919191" stop-opacity="0.57"/>
            <stop offset="0.82" stop-color="#292929" stop-opacity="0.16"/>
            <stop offset="1" stop-opacity="0"/>
        </radialGradient>
        <radialGradient id="paint9_radial_0_1" cx="0" cy="0" r="1" gradientUnits="userSpaceOnUse" gradientTransform="translate(83.84 11.6122) rotate(180) scale(1.342 1.34201)">
            <stop offset="0.03" stop-color="white"/>
            <stop offset="0.43" stop-color="#919191" stop-opacity="0.57"/>
            <stop offset="0.82" stop-color="#292929" stop-opacity="0.16"/>
            <stop offset="1" stop-opacity="0"/>
        </radialGradient>
        <radialGradient id="paint10_radial_0_1" cx="0" cy="0" r="1" gradientUnits="userSpaceOnUse" gradientTransform="translate(79.9482 47.4437) rotate(180) scale(2.684 2.68401)">
            <stop offset="0.03" stop-color="white"/>
            <stop offset="0.43" stop-color="#919191" stop-opacity="0.57"/>
            <stop offset="0.82" stop-color="#292929" stop-opacity="0.16"/>
            <stop offset="1" stop-opacity="0"/>
        </radialGradient>
        <radialGradient id="paint11_radial_0_1" cx="0" cy="0" r="1" gradientUnits="userSpaceOnUse" gradientTransform="translate(135.373 21.5429) rotate(180) scale(2.684 2.68401)">
            <stop offset="0.03" stop-color="white"/>
            <stop offset="0.43" stop-color="#919191" stop-opacity="0.57"/>
            <stop offset="0.82" stop-color="#292929" stop-opacity="0.16"/>
            <stop offset="1" stop-opacity="0"/>
        </radialGradient>
        <radialGradient id="paint12_radial_0_1" cx="0" cy="0" r="1" gradientUnits="userSpaceOnUse" gradientTransform="translate(123.429 55.8983) rotate(180) scale(2.684 2.68401)">
            <stop offset="0.03" stop-color="white"/>
            <stop offset="0.43" stop-color="#919191" stop-opacity="0.57"/>
            <stop offset="0.82" stop-color="#292929" stop-opacity="0.16"/>
            <stop offset="1" stop-opacity="0"/>
        </radialGradient>
    </defs>
</svg>
