<?xml version="1.0" encoding="UTF-8"?>
<svg id="_图层_2" data-name="图层 2" xmlns="http://www.w3.org/2000/svg" viewBox="0 0 120.74 48.62">
  <defs>
    <style>
      .cls-1 {
        fill: #9f60f4;
      }
    </style>
  </defs>
  <g id="_图层_1-2" data-name="图层 1">
    <path class="cls-1" d="m60.37,16.67c13.44,0,25.61,1.58,34.42,4.12,8.81,2.54,14.42,6.17,14.42,10.18s-5.51,7.61-14.42,10.18c-8.91,2.57-21,4.12-34.42,4.12s-25.61-1.58-34.42-4.12c-8.81-2.54-14.42-6.17-14.42-10.18s5.51-7.61,14.42-10.18c8.91-2.57,21-4.12,34.42-4.12Zm0-3.33c16.62,0,31.67,1.95,42.57,5.1,10.9,3.15,17.8,7.61,17.8,12.54s-6.8,9.36-17.8,12.54c-11,3.18-25.95,5.1-42.57,5.1s-31.67-1.95-42.57-5.1C6.9,40.37,0,35.91,0,30.98s6.8-9.36,17.8-12.54c11-3.18,25.95-5.1,42.57-5.1Zm42.42,5.62c-10.85-3.13-25.85-5.07-42.42-5.07s-31.57,1.94-42.42,5.07C7.1,22.09.55,26.32.55,30.96s6.65,8.91,17.4,12c10.75,3.09,25.83,5.12,42.42,5.12s31.57-1.94,42.42-5.07c10.85-3.13,17.4-7.36,17.4-12s-6.65-8.91-17.4-12v-.05Zm-8.15,2.35c-8.76-2.53-20.88-4.1-34.27-4.1s-25.5,1.57-34.27,4.1c-8.77,2.53-14,5.92-14,9.66s5.36,7.15,14,9.66c8.64,2.51,20.88,4.1,34.27,4.1s25.5-1.57,34.27-4.1c8.77-2.53,14-5.92,14-9.66s-5.36-7.15-14-9.66Z"/>
    <path class="cls-1" d="m65.64,13.39c1.85,0,3.35,1.5,3.35,3.35v9.08c0,4.75-3.85,8.61-8.61,8.61s-8.61-3.85-8.61-8.61v-9.08c0-1.85,1.5-3.35,3.35-3.35h10.52Zm0,2.87h-10.52c-.26,0-.48.21-.48.48v9.08c0,3.17,2.57,5.74,5.74,5.74s5.74-2.57,5.74-5.74v-9.08c0-.26-.21-.48-.48-.48Zm-21.04-2.87h6.47c-.66.79-1.08,1.78-1.18,2.87h-5.28c-.26,0-.48.21-.48.48v6.21c0,2.64,2.14,4.78,4.78,4.78.38,0,.75-.04,1.11-.13.16.96.46,1.88.87,2.74-.63.17-1.29.26-1.98.26-4.23,0-7.65-3.43-7.65-7.65v-6.21c0-1.85,1.5-3.35,3.35-3.35Zm25.1,0h6.45c1.85,0,3.35,1.5,3.35,3.35v6.21c0,4.22-3.42,7.65-7.65,7.65-.68,0-1.34-.09-1.97-.26.41-.86.71-1.78.87-2.74.35.08.72.13,1.1.13,2.64,0,4.78-2.14,4.78-4.78v-6.21c0-.26-.21-.48-.48-.48h-5.27c-.1-1.09-.53-2.08-1.18-2.87ZM60.37,0c3.17,0,5.74,2.57,5.74,5.74s-2.57,5.74-5.74,5.74-5.74-2.57-5.74-5.74,2.57-5.74,5.74-5.74Zm12.43,1.91c2.64,0,4.78,2.14,4.78,4.78s-2.14,4.78-4.78,4.78-4.78-2.14-4.78-4.78,2.14-4.78,4.78-4.78Zm-24.86,0c2.64,0,4.78,2.14,4.78,4.78s-2.14,4.78-4.78,4.78-4.78-2.14-4.78-4.78,2.14-4.78,4.78-4.78Zm12.43.96c-1.58,0-2.87,1.28-2.87,2.87s1.28,2.87,2.87,2.87,2.87-1.28,2.87-2.87-1.28-2.87-2.87-2.87Zm12.43,1.91c-1.06,0-1.91.86-1.91,1.91s.86,1.91,1.91,1.91,1.91-.86,1.91-1.91-.86-1.91-1.91-1.91Zm-24.86,0c-1.06,0-1.91.86-1.91,1.91s.86,1.91,1.91,1.91,1.91-.86,1.91-1.91-.86-1.91-1.91-1.91Z"/>
  </g>
</svg>