<svg width="162" height="29" viewBox="0 0 162 29" xmlns="http://www.w3.org/2000/svg">
    <g style="mix-blend-mode:color-dodge">
        <path d="M56.3701 28.5V15.87H58.8601C59.2975 15.8506 59.7347 15.9116 60.1501 16.05C60.5865 16.2356 60.9561 16.5495 61.2101 16.95C61.6317 17.6086 61.9236 18.3418 62.0701 19.11C62.269 20.0973 62.3628 21.1029 62.3501 22.11C62.3592 22.9638 62.2956 23.8169 62.1601 24.66C62.0634 25.2891 61.8991 25.906 61.6701 26.5C61.5081 26.9159 61.2821 27.3039 61.0001 27.65C60.7665 27.9241 60.472 28.1399 60.1401 28.28C59.7785 28.4284 59.391 28.5031 59.0001 28.5H56.3701ZM57.3701 27.01H58.9201C59.2944 27.0203 59.6654 26.9378 60.0001 26.77C60.2714 26.6159 60.496 26.3913 60.6501 26.12C60.9126 25.619 61.0916 25.0786 61.1801 24.52C61.3176 23.7175 61.3812 22.9041 61.3701 22.09C61.4148 21.0467 61.2898 20.0032 61.0001 19C60.8505 18.4441 60.5327 17.9481 60.0901 17.58C59.7096 17.3779 59.2797 17.2877 58.8501 17.32H57.3301L57.3701 27.01Z"/>
        <path d="M63.7002 28.4999V15.8699H68.9402V17.3599H64.6502V21.2299H68.6502V22.7099H64.6502V26.9999H69.1002V28.4999H63.7002Z"/>
        <path d="M72.4902 28.4998L69.6902 15.8698H70.6902L72.6102 24.9998C72.7635 25.7332 72.8902 26.4232 72.9902 27.0698C73.1035 26.4032 73.2335 25.7132 73.3802 24.9998L75.3802 15.8298H76.3802L73.4802 28.4998H72.4902Z"/>
        <path d="M77.1902 28.4999V15.8699H82.4302V17.3599H78.1502V21.2299H82.1502V22.7099H78.1502V26.9999H82.6002V28.4999H77.1902Z"/>
        <path d="M83.8801 28.4999V15.8699H84.8801V26.9999H88.4001V28.4999H83.8801Z"/>
        <path d="M89.2501 22.3499C89.1762 20.6528 89.5195 18.9635 90.2501 17.4299C90.4535 16.9256 90.797 16.4901 91.24 16.1747C91.683 15.8593 92.207 15.6772 92.7501 15.6499C93.0929 15.6545 93.4311 15.7306 93.7428 15.8736C94.0545 16.0165 94.3329 16.223 94.5601 16.4799C95.1551 17.1438 95.5776 17.944 95.7901 18.8099C96.0848 19.9153 96.2261 21.056 96.2101 22.1999C96.2277 23.3617 96.0795 24.52 95.7701 25.6399C95.5566 26.4999 95.1222 27.2893 94.5101 27.9299C94.2825 28.1693 94.0098 28.3615 93.7078 28.4953C93.4058 28.6292 93.0803 28.7021 92.7501 28.7099C92.4013 28.7057 92.0575 28.6267 91.7418 28.4784C91.4261 28.33 91.1459 28.1157 90.9201 27.8499C90.3301 27.1762 89.9116 26.3701 89.7001 25.4999C89.4074 24.4753 89.256 23.4155 89.2501 22.3499ZM90.2501 22.3499C90.1889 23.5889 90.429 24.8242 90.9501 25.9499C91.0627 26.3334 91.2965 26.6701 91.6165 26.9096C91.9365 27.1491 92.3254 27.2785 92.7251 27.2785C93.1247 27.2785 93.5137 27.1491 93.8336 26.9096C94.1536 26.6701 94.3874 26.3334 94.5001 25.9499C95.0258 24.769 95.2656 23.4808 95.2001 22.1899C95.2136 21.2842 95.1128 20.3804 94.9001 19.4999C94.7485 18.8425 94.4396 18.2317 94.0001 17.7199C93.8431 17.5282 93.6466 17.3726 93.4239 17.2639C93.2013 17.1551 92.9578 17.0958 92.7101 17.0899C92.3435 17.1223 91.992 17.2513 91.6916 17.4639C91.3912 17.6765 91.1526 17.965 91.0001 18.2999C90.4078 19.5709 90.1464 20.9709 90.2401 22.3699L90.2501 22.3499Z"/>
        <path d="M97.4202 28.5V15.87H100.15C100.521 15.8564 100.891 15.8968 101.25 15.99C101.6 16.091 101.911 16.2969 102.14 16.58C102.416 16.9423 102.613 17.3577 102.72 17.8C102.872 18.3606 102.946 18.9393 102.94 19.52C102.969 20.4645 102.767 21.4018 102.35 22.25C102.144 22.6226 101.834 22.927 101.457 23.1259C101.081 23.3248 100.654 23.4096 100.23 23.37H98.3702V28.5H97.4202ZM98.4202 21.88H100.29C100.543 21.9046 100.799 21.8622 101.031 21.7568C101.262 21.6515 101.462 21.4871 101.61 21.28C101.899 20.7619 102.034 20.1722 102 19.58C102.012 19.1161 101.934 18.6542 101.77 18.22C101.671 17.904 101.457 17.6365 101.17 17.47C100.883 17.3777 100.581 17.3404 100.28 17.36H98.3702L98.4202 21.88Z"/>
        <path d="M104.13 28.4999V15.8699H105.57L107.28 24.8099C107.44 25.6432 107.557 26.2665 107.63 26.6799C107.71 26.2199 107.84 25.5532 108.02 24.6799L109.75 15.8899H111V28.4999H110.08V17.9299L108 28.4999H107.14L105.05 17.7499V28.4999H104.13Z"/>
        <path d="M112.61 28.4999V15.8699H117.85V17.3599H113.57V21.2299H117.57V22.7099H113.57V26.9999H118V28.4999H112.61Z"/>
        <path d="M119.33 28.4999V15.8699H120.33L124.13 25.7899V15.8699H125V28.4999H124L120.2 18.5799V28.4999H119.33Z"/>
        <path d="M128.49 28.4999V17.3599H126.1V15.8699H131.84V17.3599H129.44V28.4999H128.49Z"/>
        <path d="M137.11 28.4999V17.3599H134.72V15.8699H140.46V17.3599H138.06V28.4999H137.11Z"/>
        <path d="M141.47 28.4999V15.8699H146.71V17.3599H142.43V21.2299H146.43V22.7099H142.43V26.9999H146.88V28.4999H141.47Z"/>
        <path d="M147.4 28.4999L150.18 15.8699H151.18L154.18 28.4999H153.09L152.25 24.6799H149.25L148.46 28.4999H147.4ZM149.49 23.3099H151.95L151.19 19.8099C150.957 18.7499 150.787 17.8765 150.68 17.1899C150.587 18.0032 150.457 18.8065 150.29 19.5999L149.49 23.3099Z"/>
        <path d="M154.91 28.4999V15.8699H156.35L158.06 24.8099C158.22 25.6432 158.337 26.2665 158.41 26.6799C158.49 26.2199 158.62 25.5532 158.8 24.6799L160.53 15.8899H161.82V28.4999H160.9V17.9299L158.8 28.4999H157.94L155.85 17.7499V28.4999H154.91Z"/>
    </g>
    <g style="mix-blend-mode:color-dodge">
        <path d="M4 28.42V4.81H0V0H10.84V4.81H6.84V28.42H4Z"/>
        <path d="M12.6201 28.42V0H22.7401V4.81H15.3801V11.11H22.2301V15.9H15.3801V23.63H23.0001V28.42H12.6201Z"/>
        <path d="M37.6399 28.42H34.6399L33.45 22H28L26.87 28.45H23.95L29.26 0H32.1699L37.6399 28.42ZM32.56 17.17L30.69 6.63L28.84 17.17H32.56Z"/>
        <path d="M39.0601 28.42V0H43.1801L45.6601 19.38L48.1101 0H52.2401V28.42H49.6801V6L47.0001 28.42H44.3201L41.6201 6V28.42H39.0601Z"/>
    </g>
</svg>
