<svg width="103" height="16" viewBox="0 0 103 16" xmlns="http://www.w3.org/2000/svg">
    <path d="M0.597248 15.23H0.347248V15.48H0.597248V15.23ZM0.597248 0.800889V0.550889H0.347248V0.800889H0.597248ZM8.12884 1.32225L8.01136 1.54293L8.0126 1.54359L8.12884 1.32225ZM9.58725 2.71021L9.36804 2.83042L9.36846 2.83117L9.58725 2.71021ZM9.7352 6.16953L9.51582 6.04963L9.51476 6.05161L9.7352 6.16953ZM8.87566 7.12771L8.73825 6.91885L8.73698 6.91969L8.87566 7.12771ZM7.72725 7.64907L7.66147 7.40788L7.47725 7.45812V7.64907H7.72725ZM7.72725 7.78998H7.47725V8.02453L7.71132 8.03947L7.72725 7.78998ZM9.05884 8.25498L8.92534 8.46635L9.05884 8.25498ZM10.1368 13.3488L10.3541 13.4725L10.1368 13.3488ZM8.57975 14.7227L8.47215 14.497L8.57975 14.7227ZM2.34452 13.68H2.09452V13.93H2.34452V13.68ZM8.24157 13.0177L8.41099 13.2015L8.41106 13.2015L8.24157 13.0177ZM8.59384 10.0445L8.37904 10.1724L8.37968 10.1735L8.59384 10.0445ZM7.52998 9.04407L7.40932 9.26304L7.41105 9.26397L7.52998 9.04407ZM2.34452 8.66362V8.41362H2.09452V8.66362H2.34452ZM2.34452 7.1418H2.09452V7.3918H2.34452V7.1418ZM7.00861 6.8318L6.89979 6.60672L6.89881 6.6072L7.00861 6.8318ZM8.02316 5.95816L7.81594 5.81829L7.81474 5.82009L8.02316 5.95816ZM7.74134 3.02021L7.56363 3.19605L7.56456 3.19698L7.74134 3.02021ZM2.34452 2.35089V2.10089H2.09452V2.35089H2.34452ZM0.847248 15.23V0.800889H0.347248V15.23H0.847248ZM0.597248 1.05089H5.64179V0.550889H0.597248V1.05089ZM5.64179 1.05089C6.62001 1.05089 7.40528 1.22027 8.01136 1.54293L8.24632 1.10158C7.54664 0.729085 6.67389 0.550889 5.64179 0.550889V1.05089ZM8.0126 1.54359C8.62694 1.86623 9.07485 2.29577 9.36804 2.83042L9.80645 2.59C9.46086 1.9598 8.9365 1.46404 8.24508 1.10092L8.0126 1.54359ZM9.36846 2.83117C9.66601 3.36937 9.81634 3.96844 9.81634 4.63362H10.3163C10.3163 3.8897 10.1473 3.20649 9.80604 2.58925L9.36846 2.83117ZM9.81634 4.63362C9.81634 5.22566 9.71073 5.69301 9.51583 6.04963L9.95458 6.28942C10.2012 5.83816 10.3163 5.28158 10.3163 4.63362H9.81634ZM9.51476 6.05161C9.3169 6.42152 9.0579 6.70856 8.73825 6.91885L9.01306 7.33656C9.40736 7.07716 9.72138 6.72541 9.95565 6.28744L9.51476 6.05161ZM8.73698 6.91969C8.40734 7.13946 8.04919 7.30214 7.66147 7.40788L7.79303 7.89026C8.23197 7.77055 8.63943 7.58565 9.01433 7.33572L8.73698 6.91969ZM7.47725 7.64907V7.78998H7.97725V7.64907H7.47725ZM7.71132 8.03947C8.10371 8.06452 8.5077 8.20258 8.92534 8.46635L9.19234 8.04361C8.71756 7.74375 8.23382 7.57181 7.74317 7.54049L7.71132 8.03947ZM8.92534 8.46635C9.33216 8.72329 9.67866 9.09499 9.96201 9.59083L10.3961 9.34276C10.0783 8.78649 9.67794 8.35031 9.19234 8.04361L8.92534 8.46635ZM9.96201 9.59083C10.2362 10.0706 10.38 10.6689 10.38 11.3973H10.88C10.88 10.6038 10.7232 9.9151 10.3961 9.34276L9.96201 9.59083ZM10.38 11.3973C10.38 12.0812 10.225 12.6884 9.91952 13.2252L10.3541 13.4725C10.7062 12.8538 10.88 12.16 10.88 11.3973H10.38ZM9.91952 13.2252C9.62034 13.7509 9.14387 14.1768 8.47215 14.497L8.68735 14.9484C9.43411 14.5923 9.99567 14.1023 10.3541 13.4725L9.91952 13.2252ZM8.47215 14.497C7.80808 14.8137 6.92571 14.98 5.81088 14.98V15.48C6.9694 15.48 7.93293 15.3081 8.68735 14.9484L8.47215 14.497ZM5.81088 14.98H0.597248V15.48H5.81088V14.98ZM2.34452 13.93H5.81088V13.43H2.34452V13.93ZM5.81088 13.93C6.97189 13.93 7.86162 13.7078 8.41099 13.2015L8.07215 12.8339C7.66333 13.2106 6.93261 13.43 5.81088 13.43V13.93ZM8.41106 13.2015C8.94396 12.71 9.21725 12.1041 9.21725 11.3973H8.71725C8.71725 11.9586 8.50675 12.433 8.07207 12.8339L8.41106 13.2015ZM9.21725 11.3973C9.21725 10.8639 9.08069 10.3683 8.808 9.91554L8.37968 10.1735C8.60487 10.5474 8.71725 10.9536 8.71725 11.3973H9.21725ZM8.80864 9.91661C8.53488 9.45691 8.14577 9.09288 7.6489 8.82417L7.41105 9.26397C7.83479 9.49314 8.15492 9.79608 8.37904 10.1724L8.80864 9.91661ZM7.65063 8.82511C7.14671 8.54745 6.5587 8.41362 5.89543 8.41362V8.91362C6.49095 8.91362 6.99263 9.03343 7.40932 9.26303L7.65063 8.82511ZM5.89543 8.41362H2.34452V8.91362H5.89543V8.41362ZM2.09452 8.66362V13.68H2.59452V8.66362H2.09452ZM2.34452 7.3918H5.58543V6.8918H2.34452V7.3918ZM5.58543 7.3918C6.14502 7.3918 6.65765 7.28166 7.11841 7.05639L6.89881 6.6072C6.51412 6.79527 6.07797 6.8918 5.58543 6.8918V7.3918ZM7.11744 7.05687C7.58302 6.83175 7.9565 6.51143 8.23157 6.09624L7.81474 5.82009C7.59193 6.15641 7.28905 6.41851 6.89979 6.60673L7.11744 7.05687ZM8.23037 6.09803C8.51515 5.67614 8.65361 5.18458 8.65361 4.63362H8.15361C8.15361 5.0972 8.03844 5.48867 7.81595 5.81829L8.23037 6.09803ZM8.65361 4.63362C8.65361 3.93438 8.40733 3.33264 7.91812 2.84343L7.56456 3.19698C7.95838 3.5908 8.15361 4.06467 8.15361 4.63362H8.65361ZM7.91905 2.84437C7.41086 2.33077 6.63219 2.10089 5.64179 2.10089V2.60089C6.56776 2.60089 7.18879 2.81722 7.56363 3.19605L7.91905 2.84437ZM5.64179 2.10089H2.34452V2.60089H5.64179V2.10089ZM2.09452 2.35089V7.1418H2.59452V2.35089H2.09452ZM13.501 15.23H13.251V15.48H13.501V15.23ZM13.501 0.800889V0.550889H13.251V0.800889H13.501ZM15.2483 0.800889H15.4983V0.550889H15.2483V0.800889ZM15.2483 13.68H14.9983V13.93H15.2483V13.68ZM21.9555 13.68H22.2055V13.43H21.9555V13.68ZM21.9555 15.23V15.48H22.2055V15.23H21.9555ZM13.751 15.23V0.800889H13.251V15.23H13.751ZM13.501 1.05089H15.2483V0.550889H13.501V1.05089ZM14.9983 0.800889V13.68H15.4983V0.800889H14.9983ZM15.2483 13.93H21.9555V13.43H15.2483V13.93ZM21.7055 13.68V15.23H22.2055V13.68H21.7055ZM21.9555 14.98H13.501V15.48H21.9555V14.98ZM26.4083 0.800889H26.6583V0.550889H26.4083V0.800889ZM26.4083 15.23V15.48H26.6583V15.23H26.4083ZM24.661 15.23H24.411V15.48H24.661V15.23ZM24.661 0.800889V0.550889H24.411V0.800889H24.661ZM26.1583 0.800889V15.23H26.6583V0.800889H26.1583ZM26.4083 14.98H24.661V15.48H26.4083V14.98ZM24.911 15.23V0.800889H24.411V15.23H24.911ZM24.661 1.05089H26.4083V0.550889H24.661V1.05089ZM41.3534 0.800889H41.6034V0.550889H41.3534V0.800889ZM41.3534 15.23V15.48H41.6034V15.23H41.3534ZM39.6625 15.23L39.4571 15.3725L39.5317 15.48H39.6625V15.23ZM31.7998 3.90089L32.0052 3.75835L31.9306 3.65089H31.7998V3.90089ZM31.6589 3.90089V3.65089H31.4089V3.90089H31.6589ZM31.6589 15.23V15.48H31.9089V15.23H31.6589ZM29.9116 15.23H29.6616V15.48H29.9116V15.23ZM29.9116 0.800889V0.550889H29.6616V0.800889H29.9116ZM31.6025 0.800889L31.8078 0.658242L31.7333 0.550889H31.6025V0.800889ZM39.4934 12.1582L39.2881 12.3008L39.3627 12.4082H39.4934V12.1582ZM39.6343 12.1582V12.4082H39.8843V12.1582H39.6343ZM39.6343 0.800889V0.550889H39.3843V0.800889H39.6343ZM41.1034 0.800889V15.23H41.6034V0.800889H41.1034ZM41.3534 14.98H39.6625V15.48H41.3534V14.98ZM39.8679 15.0874L32.0052 3.75835L31.5944 4.04343L39.4571 15.3725L39.8679 15.0874ZM31.7998 3.65089H31.6589V4.15089H31.7998V3.65089ZM31.4089 3.90089V15.23H31.9089V3.90089H31.4089ZM31.6589 14.98H29.9116V15.48H31.6589V14.98ZM30.1616 15.23V0.800889H29.6616V15.23H30.1616ZM29.9116 1.05089H31.6025V0.550889H29.9116V1.05089ZM31.3972 0.943536L39.2881 12.3008L39.6987 12.0155L31.8078 0.658242L31.3972 0.943536ZM39.4934 12.4082H39.6343V11.9082H39.4934V12.4082ZM39.8843 12.1582V0.800889H39.3843V12.1582H39.8843ZM39.6343 1.05089H41.3534V0.550889H39.6343V1.05089ZM44.8497 15.23H44.5997V15.48H44.8497V15.23ZM44.8497 0.800889V0.550889H44.5997V0.800889H44.8497ZM53.0929 1.66748L52.9675 1.88372L52.9682 1.88416L53.0929 1.66748ZM55.3827 4.14043L55.1585 4.25106L55.1587 4.25145L55.3827 4.14043ZM55.3757 11.8693L55.5997 11.9803L55.5998 11.9799L55.3757 11.8693ZM53.0366 14.3634L53.1594 14.5811L53.1602 14.5807L53.0366 14.3634ZM46.597 13.68H46.347V13.93H46.597V13.68ZM52.1559 12.9895L52.0294 12.7739L52.1559 12.9895ZM53.9172 4.97884L53.6893 5.08144L53.6895 5.08191L53.9172 4.97884ZM52.2122 3.0343L52.0832 3.24844L52.0842 3.24902L52.2122 3.0343ZM46.597 2.35089V2.10089H46.347V2.35089H46.597ZM49.3025 14.98H44.8497V15.48H49.3025V14.98ZM45.0997 15.23V0.800889H44.5997V15.23H45.0997ZM44.8497 1.05089H49.4997V0.550889H44.8497V1.05089ZM49.4997 1.05089C50.8649 1.05089 52.0173 1.33242 52.9675 1.88372L53.2184 1.45124C52.1771 0.847081 50.934 0.550889 49.4997 0.550889V1.05089ZM52.9682 1.88416C53.9191 2.43136 54.6487 3.21782 55.1585 4.25106L55.6069 4.02981C55.0552 2.91184 54.2583 2.04966 53.2176 1.4508L52.9682 1.88416ZM55.1587 4.25145C55.6686 5.28032 55.9288 6.52274 55.9288 7.98725H56.4288C56.4288 6.46449 56.1583 5.14236 55.6067 4.02942L55.1587 4.25145ZM55.9288 7.98725C55.9288 9.461 55.6663 10.7154 55.1515 11.7587L55.5998 11.9799C56.1559 10.8532 56.4288 9.51956 56.4288 7.98725H55.9288ZM55.1517 11.7583C54.6378 12.7951 53.8925 13.5889 52.913 14.1461L53.1602 14.5807C54.2285 13.973 55.0426 13.1041 55.5997 11.9803L55.1517 11.7583ZM52.9137 14.1457C51.9354 14.6976 50.7354 14.98 49.3025 14.98V15.48C50.8005 15.48 52.0898 15.1846 53.1594 14.5811L52.9137 14.1457ZM46.597 13.93H49.1897V13.43H46.597V13.93ZM49.1897 13.93C50.4138 13.93 51.4495 13.6939 52.2824 13.2051L52.0294 12.7739C51.2935 13.2057 50.3518 13.43 49.1897 13.43V13.93ZM52.2824 13.2051C53.1126 12.718 53.7321 12.0229 54.1379 11.127L53.6825 10.9207C53.318 11.7251 52.768 12.3405 52.0294 12.7739L52.2824 13.2051ZM54.1379 11.127C54.541 10.2372 54.7379 9.18818 54.7379 7.98725H54.2379C54.2379 9.13481 54.0497 10.1102 53.6825 10.9207L54.1379 11.127ZM54.7379 7.98725C54.7379 6.79588 54.5434 5.75624 54.145 4.87578L53.6895 5.08191C54.052 5.88297 54.2379 6.84893 54.2379 7.98725H54.7379ZM54.1452 4.87625C53.7449 3.98668 53.1429 3.29817 52.3403 2.81957L52.0842 3.24902C52.794 3.67225 53.3287 4.28009 53.6893 5.08143L54.1452 4.87625ZM52.3413 2.82016C51.5367 2.33543 50.5474 2.10089 49.387 2.10089V2.60089C50.4812 2.60089 51.3754 2.82196 52.0832 3.24844L52.3413 2.82016ZM49.387 2.10089H46.597V2.60089H49.387V2.10089ZM46.347 2.35089V13.68H46.847V2.35089H46.347ZM64.6898 15.23H64.4398V15.48H64.6898V15.23ZM64.6898 0.800889V0.550889H64.4398V0.800889H64.6898ZM72.2213 1.32225L72.1039 1.54293L72.1051 1.54359L72.2213 1.32225ZM73.6797 2.71021L73.4605 2.83042L73.461 2.83117L73.6797 2.71021ZM73.8277 6.16953L73.6083 6.04963L73.6073 6.05161L73.8277 6.16953ZM72.9682 7.12771L72.8307 6.91885L72.8295 6.91969L72.9682 7.12771ZM71.8197 7.64907L71.754 7.40788L71.5697 7.45812V7.64907H71.8197ZM71.8197 7.78998H71.5697V8.02453L71.8038 8.03947L71.8197 7.78998ZM73.1513 8.25498L73.0178 8.46635L73.1513 8.25498ZM74.2293 13.3488L74.4466 13.4725L74.2293 13.3488ZM72.6722 14.7227L72.5647 14.497L72.6722 14.7227ZM66.437 13.68H66.187V13.93H66.437V13.68ZM72.3341 13.0177L72.5035 13.2015L72.5036 13.2015L72.3341 13.0177ZM72.6863 10.0445L72.4715 10.1724L72.4722 10.1735L72.6863 10.0445ZM71.6225 9.04407L71.5018 9.26304L71.5035 9.26397L71.6225 9.04407ZM66.437 8.66362V8.41362H66.187V8.66362H66.437ZM66.437 7.1418H66.187V7.3918H66.437V7.1418ZM71.1011 6.8318L70.9923 6.60672L70.9913 6.6072L71.1011 6.8318ZM72.1157 5.95816L71.9084 5.81829L71.9072 5.82009L72.1157 5.95816ZM71.8338 3.02021L71.6561 3.19605L71.6571 3.19698L71.8338 3.02021ZM66.437 2.35089V2.10089H66.187V2.35089H66.437ZM64.9398 15.23V0.800889H64.4398V15.23H64.9398ZM64.6898 1.05089H69.7343V0.550889H64.6898V1.05089ZM69.7343 1.05089C70.7125 1.05089 71.4978 1.22027 72.1039 1.54293L72.3388 1.10158C71.6391 0.729085 70.7664 0.550889 69.7343 0.550889V1.05089ZM72.1051 1.54359C72.7194 1.86623 73.1674 2.29577 73.4605 2.83042L73.8989 2.59C73.5534 1.9598 73.029 1.46404 72.3376 1.10092L72.1051 1.54359ZM73.461 2.83117C73.7585 3.36937 73.9088 3.96844 73.9088 4.63362H74.4088C74.4088 3.8897 74.2398 3.20649 73.8985 2.58925L73.461 2.83117ZM73.9088 4.63362C73.9088 5.22566 73.8032 5.69301 73.6083 6.04963L74.0471 6.28942C74.2937 5.83816 74.4088 5.28158 74.4088 4.63362H73.9088ZM73.6073 6.05161C73.4094 6.42152 73.1504 6.70856 72.8307 6.91885L73.1056 7.33656C73.4999 7.07716 73.8139 6.72541 74.0481 6.28744L73.6073 6.05161ZM72.8295 6.91969C72.4998 7.13946 72.1417 7.30214 71.754 7.40788L71.8855 7.89026C72.3245 7.77055 72.7319 7.58565 73.1068 7.33572L72.8295 6.91969ZM71.5697 7.64907V7.78998H72.0697V7.64907H71.5697ZM71.8038 8.03947C72.1962 8.06452 72.6002 8.20258 73.0178 8.46635L73.2848 8.04361C72.8101 7.74375 72.3263 7.57181 71.8357 7.54049L71.8038 8.03947ZM73.0178 8.46635C73.4247 8.72329 73.7712 9.09499 74.0545 9.59083L74.4886 9.34276C74.1708 8.78649 73.7704 8.35031 73.2848 8.04361L73.0178 8.46635ZM74.0545 9.59083C74.3287 10.0706 74.4725 10.6689 74.4725 11.3973H74.9725C74.9725 10.6038 74.8157 9.9151 74.4886 9.34276L74.0545 9.59083ZM74.4725 11.3973C74.4725 12.0812 74.3175 12.6884 74.012 13.2252L74.4466 13.4725C74.7987 12.8538 74.9725 12.16 74.9725 11.3973H74.4725ZM74.012 13.2252C73.7128 13.7509 73.2364 14.1768 72.5647 14.497L72.7798 14.9484C73.5266 14.5923 74.0882 14.1023 74.4466 13.4725L74.012 13.2252ZM72.5647 14.497C71.9006 14.8137 71.0182 14.98 69.9034 14.98V15.48C71.0619 15.48 72.0254 15.3081 72.7798 14.9484L72.5647 14.497ZM69.9034 14.98H64.6898V15.48H69.9034V14.98ZM66.437 13.93H69.9034V13.43H66.437V13.93ZM69.9034 13.93C71.0644 13.93 71.9541 13.7078 72.5035 13.2015L72.1646 12.8339C71.7558 13.2106 71.0251 13.43 69.9034 13.43V13.93ZM72.5036 13.2015C73.0365 12.71 73.3097 12.1041 73.3097 11.3973H72.8097C72.8097 11.9586 72.5992 12.433 72.1646 12.8339L72.5036 13.2015ZM73.3097 11.3973C73.3097 10.8639 73.1732 10.3683 72.9005 9.91554L72.4722 10.1735C72.6974 10.5474 72.8097 10.9536 72.8097 11.3973H73.3097ZM72.9011 9.91661C72.6274 9.45691 72.2383 9.09288 71.7414 8.82417L71.5035 9.26397C71.9273 9.49314 72.2474 9.79608 72.4715 10.1724L72.9011 9.91661ZM71.7431 8.82511C71.2392 8.54745 70.6512 8.41362 69.9879 8.41362V8.91362C70.5835 8.91362 71.0851 9.03343 71.5018 9.26303L71.7431 8.82511ZM69.9879 8.41362H66.437V8.91362H69.9879V8.41362ZM66.187 8.66362V13.68H66.687V8.66362H66.187ZM66.437 7.3918H69.6779V6.8918H66.437V7.3918ZM69.6779 7.3918C70.2375 7.3918 70.7501 7.28166 71.2109 7.05639L70.9913 6.6072C70.6066 6.79527 70.1705 6.8918 69.6779 6.8918V7.3918ZM71.2099 7.05687C71.6755 6.83175 72.049 6.51143 72.3241 6.09624L71.9072 5.82009C71.6844 6.15641 71.3816 6.41851 70.9923 6.60673L71.2099 7.05687ZM72.3229 6.09803C72.6076 5.67614 72.7461 5.18458 72.7461 4.63362H72.2461C72.2461 5.0972 72.1309 5.48867 71.9084 5.81829L72.3229 6.09803ZM72.7461 4.63362C72.7461 3.93438 72.4998 3.33264 72.0106 2.84343L71.6571 3.19698C72.0509 3.5908 72.2461 4.06467 72.2461 4.63362H72.7461ZM72.0116 2.84437C71.5034 2.33077 70.7247 2.10089 69.7343 2.10089V2.60089C70.6603 2.60089 71.2813 2.81722 71.6561 3.19605L72.0116 2.84437ZM69.7343 2.10089H66.437V2.60089H69.7343V2.10089ZM66.187 2.35089V7.1418H66.687V2.35089H66.187ZM88.9437 11.9609L88.7197 11.8498L88.9437 11.9609ZM86.6821 14.5254L86.815 14.7372L86.6821 14.5254ZM80.1158 14.5254L79.9829 14.7372L80.1158 14.5254ZM77.8542 11.9609L78.0782 11.8498L77.8542 11.9609ZM77.8542 4.06998L77.6302 3.95894L77.8542 4.06998ZM86.6821 1.50543L86.815 1.29367L86.6821 1.50543ZM88.9437 4.06998L88.7197 4.18102V4.18102L88.9437 4.06998ZM87.4501 4.85203L87.2248 4.96037L87.2253 4.96137L87.4501 4.85203ZM85.7662 2.90043L85.6335 3.11228L85.6341 3.11267L85.7662 2.90043ZM81.0246 2.90043L80.8925 2.6882L80.8919 2.68859L81.0246 2.90043ZM79.3408 4.85203L79.116 4.74269L79.1155 4.74368L79.3408 4.85203ZM79.3408 11.1788L79.1155 11.2872L79.116 11.2882L79.3408 11.1788ZM81.0246 13.1304L80.8919 13.3423L80.8925 13.3427L81.0246 13.1304ZM85.7662 13.1304L85.6341 12.9182L85.6335 12.9186L85.7662 13.1304ZM87.4501 11.1788L87.2253 11.0695L87.2248 11.0705L87.4501 11.1788ZM89.5181 8.01544C89.5181 9.50743 89.2487 10.7829 88.7197 11.8498L89.1677 12.0719C89.7379 10.9219 90.0181 9.56708 90.0181 8.01544H89.5181ZM88.7197 11.8498C88.1887 12.921 87.4647 13.7393 86.5493 14.3137L86.815 14.7372C87.8159 14.1092 88.5997 13.2177 89.1677 12.0719L88.7197 11.8498ZM86.5493 14.3137C85.6344 14.8877 84.5868 15.1773 83.399 15.1773V15.6773C84.6723 15.6773 85.8135 15.3656 86.815 14.7372L86.5493 14.3137ZM83.399 15.1773C82.2111 15.1773 81.1635 14.8877 80.2486 14.3137L79.9829 14.7372C80.9844 15.3656 82.1256 15.6773 83.399 15.6773V15.1773ZM80.2486 14.3137C79.3332 13.7393 78.6092 12.921 78.0782 11.8498L77.6302 12.0719C78.1982 13.2177 78.982 14.1092 79.9829 14.7372L80.2486 14.3137ZM78.0782 11.8498C77.5492 10.7829 77.2799 9.50743 77.2799 8.01544H76.7799C76.7799 9.56708 77.0601 10.9219 77.6302 12.0719L78.0782 11.8498ZM77.2799 8.01544C77.2799 6.52344 77.5492 5.24796 78.0782 4.18102L77.6302 3.95894C77.0601 5.10896 76.7799 6.46379 76.7799 8.01544H77.2799ZM78.0782 4.18102C78.6092 3.10987 79.3332 2.29162 80.2486 1.7172L79.9829 1.29367C78.982 1.92168 78.1982 2.81312 77.6302 3.95894L78.0782 4.18102ZM80.2486 1.7172C81.1635 1.14316 82.2111 0.853616 83.399 0.853616V0.353616C82.1256 0.353616 80.9844 0.665288 79.9829 1.29367L80.2486 1.7172ZM83.399 0.853616C84.5868 0.853616 85.6344 1.14316 86.5493 1.7172L86.815 1.29367C85.8135 0.665288 84.6723 0.353616 83.399 0.353616V0.853616ZM86.5493 1.7172C87.4647 2.29162 88.1887 3.10987 88.7197 4.18102L89.1677 3.95894C88.5997 2.81312 87.8159 1.92168 86.815 1.29367L86.5493 1.7172ZM88.7197 4.18102C89.2487 5.24796 89.5181 6.52344 89.5181 8.01544H90.0181C90.0181 6.46379 89.7379 5.10896 89.1677 3.95894L88.7197 4.18102ZM88.3271 8.01544C88.3271 6.73934 88.1138 5.6451 87.6749 4.74269L87.2253 4.96137C87.6225 5.77804 87.8271 6.79275 87.8271 8.01544H88.3271ZM87.6754 4.74368C87.2445 3.84757 86.6534 3.15821 85.8984 2.6882L85.6341 3.11267C86.2976 3.52569 86.829 4.13739 87.2248 4.96037L87.6754 4.74368ZM85.899 2.68859C85.1526 2.22085 84.3171 1.98816 83.399 1.98816V2.48816C84.2281 2.48816 84.9708 2.69699 85.6335 3.11228L85.899 2.68859ZM83.399 1.98816C82.4809 1.98816 81.6433 2.22084 80.8925 2.6882L81.1568 3.11267C81.8245 2.69699 82.5698 2.48816 83.399 2.48816V1.98816ZM80.8919 2.68859C80.142 3.15852 79.5513 3.84746 79.116 4.74269L79.5656 4.96137C79.9663 4.1375 80.4982 3.52538 81.1574 3.11228L80.8919 2.68859ZM79.1155 4.74368C78.6817 5.64582 78.4708 6.73969 78.4708 8.01544H78.9708C78.9708 6.7924 79.1732 5.77732 79.5661 4.96037L79.1155 4.74368ZM78.4708 8.01544C78.4708 9.29119 78.6817 10.385 79.1155 11.2872L79.5661 11.0705C79.1732 10.2535 78.9708 9.23847 78.9708 8.01544H78.4708ZM79.116 11.2882C79.5513 12.1834 80.142 12.8723 80.8919 13.3423L81.1574 12.9186C80.4982 12.5055 79.9663 11.8934 79.5656 11.0695L79.116 11.2882ZM80.8925 13.3427C81.6433 13.81 82.4809 14.0427 83.399 14.0427V13.5427C82.5698 13.5427 81.8245 13.3339 81.1568 12.9182L80.8925 13.3427ZM83.399 14.0427C84.3171 14.0427 85.1526 13.81 85.899 13.3423L85.6335 12.9186C84.9708 13.3339 84.2281 13.5427 83.399 13.5427V14.0427ZM85.8984 13.3427C86.6534 12.8727 87.2445 12.1833 87.6754 11.2872L87.2248 11.0705C86.829 11.8935 86.2976 12.5052 85.6341 12.9182L85.8984 13.3427ZM87.6749 11.2882C88.1138 10.3858 88.3271 9.29153 88.3271 8.01544H87.8271C87.8271 9.23812 87.6225 10.2528 87.2253 11.0695L87.6749 11.2882ZM93.319 0.800889L93.5315 0.669198L93.4581 0.550889H93.319V0.800889ZM97.039 6.80362L96.8265 6.93531L96.8998 7.05362H97.039V6.80362ZM97.1517 6.80362V7.05362H97.2909L97.3642 6.93531L97.1517 6.80362ZM100.872 0.800889V0.550889H100.732L100.659 0.669198L100.872 0.800889ZM102.929 0.800889L103.141 0.933983L103.382 0.550889H102.929V0.800889ZM98.3917 8.01544L98.1801 7.88234L98.0964 8.01544L98.1801 8.14853L98.3917 8.01544ZM102.929 15.23V15.48H103.382L103.141 15.0969L102.929 15.23ZM100.872 15.23L100.66 15.3635L100.734 15.48H100.872V15.23ZM97.1517 9.33998L97.3631 9.20648L97.2895 9.08998H97.1517V9.33998ZM97.039 9.33998V9.08998H96.9012L96.8276 9.20648L97.039 9.33998ZM93.319 15.23V15.48H93.4567L93.5303 15.3635L93.319 15.23ZM91.2617 15.23L91.0515 15.0945L90.8031 15.48H91.2617V15.23ZM95.9117 8.01544L96.1218 8.15087L96.2091 8.01544L96.1218 7.88L95.9117 8.01544ZM91.2617 0.800889V0.550889H90.8031L91.0515 0.936327L91.2617 0.800889ZM93.1065 0.93258L96.8265 6.93531L97.2515 6.67192L93.5315 0.669198L93.1065 0.93258ZM97.039 7.05362H97.1517V6.55362H97.039V7.05362ZM97.3642 6.93531L101.084 0.93258L100.659 0.669198L96.9392 6.67192L97.3642 6.93531ZM100.872 1.05089H102.929V0.550889H100.872V1.05089ZM102.717 0.667795L98.1801 7.88234L98.6033 8.14853L103.141 0.933983L102.717 0.667795ZM98.1801 8.14853L102.717 15.3631L103.141 15.0969L98.6033 7.88234L98.1801 8.14853ZM102.929 14.98H100.872V15.48H102.929V14.98ZM101.083 15.0965L97.3631 9.20648L96.9403 9.47348L100.66 15.3635L101.083 15.0965ZM97.1517 9.08998H97.039V9.58998H97.1517V9.08998ZM96.8276 9.20648L93.1076 15.0965L93.5303 15.3635L97.2503 9.47348L96.8276 9.20648ZM93.319 14.98H91.2617V15.48H93.319V14.98ZM91.4718 15.3654L96.1218 8.15087L95.7015 7.88L91.0515 15.0945L91.4718 15.3654ZM96.1218 7.88L91.4718 0.665451L91.0515 0.936327L95.7015 8.15087L96.1218 7.88ZM91.2617 1.05089H93.319V0.550889H91.2617V1.05089Z"/>
</svg>
