<?xml version="1.0" encoding="UTF-8"?>
<svg id="_图层_2" data-name="图层 2" xmlns="http://www.w3.org/2000/svg" viewBox="0 0 20.8 20.8">
  <defs>
    <style>
      .cls-1 {
        fill: #fff;
      }
    </style>
  </defs>
  <g id="_图层_1-2" data-name="图层 1">
    <path class="cls-1" d="m5.4,20.29c3.3.68,6.7.68,10,0,1.21-.25,2.31-.84,3.18-1.71.87-.87,1.46-1.98,1.71-3.18.68-3.3.68-6.7,0-10-.25-1.2-.84-2.31-1.71-3.18-.87-.87-1.97-1.46-3.18-1.71C12.1-.17,8.7-.17,5.4.51c-1.2.25-2.31.84-3.18,1.71-.87.87-1.46,1.98-1.71,3.18C-.17,8.7-.17,12.1.51,15.4c.25,1.2.84,2.31,1.71,3.18.87.87,1.98,1.46,3.18,1.71ZM1.68,5.6c.2-.99.68-1.9,1.39-2.61.71-.71,1.62-1.2,2.61-1.39,3.15-.65,6.41-.65,9.56,0,.99.19,1.9.68,2.61,1.39.71.71,1.2,1.62,1.39,2.61.65,3.15.65,6.41,0,9.56-.19.99-.68,1.9-1.39,2.61-.71.71-1.62,1.19-2.61,1.39-3.15.65-6.41.65-9.56,0-.99-.2-1.9-.68-2.61-1.39-.71-.71-1.2-1.62-1.39-2.61-.66-3.17-.66-6.43,0-9.6v.04Z"/>
    <path class="cls-1" d="m5.31,14.8c.16,0,.31-.06.42-.18.11-.11.18-.26.18-.42v-3.31c.01-.08,0-.17-.02-.25-.03-.08-.07-.16-.12-.22-.06-.07-.13-.12-.2-.15-.08-.04-.16-.06-.25-.06s-.17.02-.25.06c-.08.03-.15.08-.2.15-.06.06-.1.14-.12.22-.03.08-.03.17-.02.25v3.31c0,.16.06.31.17.42.11.11.26.18.42.18Z"/>
    <path class="cls-1" d="m10.42,14.8c.16,0,.31-.06.42-.18.11-.11.18-.26.18-.42V5.8c.01-.08,0-.17-.02-.25-.02-.08-.07-.16-.12-.22-.06-.07-.13-.12-.2-.15-.08-.04-.16-.06-.25-.06s-.17.02-.25.06c-.08.03-.15.08-.2.15-.06.06-.1.14-.12.22s-.03.17-.02.25v8.4c0,.16.06.31.17.42.11.11.26.18.42.18Z"/>
    <path class="cls-1" d="m15.54,14.8c.16,0,.31-.06.42-.18.11-.11.18-.26.18-.42v-6.12c-.02-.14-.09-.28-.2-.37-.11-.1-.25-.15-.4-.15s-.29.05-.4.15c-.11.09-.18.23-.2.37v6.12c0,.16.06.31.17.42.11.11.26.18.42.18Z"/>
  </g>
</svg>