<svg width="81" height="82" viewBox="0 0 81 82" xmlns="http://www.w3.org/2000/svg">
    <path d="M23.4601 45.56H35.8801V57.9801C35.8801 59.2027 36.3658 60.3753 37.2303 61.2398C38.0949 62.1044 39.2674 62.59 40.4901 62.59C41.7127 62.59 42.8853 62.1044 43.7498 61.2398C44.6144 60.3753 45.1001 59.2027 45.1001 57.9801V45.56H57.5201C58.7427 45.56 59.9153 45.0744 60.7798 44.2098C61.6444 43.3453 62.1301 42.1727 62.1301 40.95C62.1301 39.7274 61.6444 38.5548 60.7798 37.6903C59.9153 36.8258 58.7427 36.34 57.5201 36.34H45.1101V23.91C45.1101 22.6874 44.6244 21.5148 43.7599 20.6503C42.8953 19.7857 41.7227 19.3 40.5001 19.3C39.2774 19.3 38.1049 19.7857 37.2403 20.6503C36.3758 21.5148 35.8901 22.6874 35.8901 23.91V36.33H23.4601C22.2375 36.33 21.0649 36.8157 20.2003 37.6803C19.3358 38.5448 18.8501 39.7174 18.8501 40.94C18.8501 42.1627 19.3358 43.3353 20.2003 44.1998C21.0649 45.0644 22.2375 45.55 23.4601 45.55V45.56Z"/>
    <path d="M21.1898 79.0603C33.9291 81.6876 47.0705 81.6876 59.8098 79.0603C64.4382 78.1137 68.6865 75.8281 72.0271 72.4876C75.3676 69.1471 77.6532 64.8987 78.5998 60.2703C81.228 47.5311 81.228 34.3895 78.5998 21.6503C77.6532 17.0219 75.3676 12.7735 72.0271 9.43298C68.6865 6.09244 64.4382 3.80691 59.8098 2.86029C47.0706 0.232117 33.929 0.232117 21.1898 2.86029C16.5613 3.80691 12.313 6.09244 8.97246 9.43298C5.63191 12.7735 3.34638 17.0219 2.39976 21.6503C-0.227004 34.3896 -0.227004 47.531 2.39976 60.2703C3.34638 64.8987 5.63191 69.1471 8.97246 72.4876C12.313 75.8281 16.5613 78.1137 21.1898 79.0603ZM6.87977 22.5703C7.64558 18.8181 9.49761 15.3739 12.2055 12.666C14.9134 9.95813 18.3576 8.10609 22.1098 7.34028C34.242 4.83686 46.7576 4.83686 58.8898 7.34028C62.6419 8.10609 66.0862 9.95813 68.7941 12.666C71.5019 15.3739 73.354 18.8181 74.1198 22.5703C76.6232 34.7025 76.6232 47.2181 74.1198 59.3503C73.354 63.1025 71.5019 66.5467 68.7941 69.2546C66.0862 71.9625 62.6419 73.8145 58.8898 74.5803C46.7572 77.0801 34.2423 77.0801 22.1098 74.5803C18.3576 73.8145 14.9134 71.9625 12.2055 69.2546C9.49761 66.5467 7.64558 63.1025 6.87977 59.3503C4.37803 47.2179 4.37803 34.7027 6.87977 22.5703Z"/>
</svg>
