<?xml version="1.0" encoding="UTF-8"?>
<svg id="_图层_2" data-name="图层 2" xmlns="http://www.w3.org/2000/svg" viewBox="0 0 25.3 28.91">
  <g id="_图层_1-2" data-name="图层 1">
    <path id="Android" class="cls-1" d="m23.58,9.14c-.95,0-1.73.75-1.73,1.68v7.18c0,.93.77,1.68,1.73,1.68s1.72-.75,1.72-1.68v-7.18c0-.93-.77-1.68-1.72-1.68Zm-21.85,0c-.95,0-1.73.75-1.73,1.68v7.18c0,.93.77,1.68,1.73,1.68s1.72-.75,1.72-1.68v-7.18c0-.93-.77-1.68-1.72-1.68Zm3,0h-.12v12.31c0,.98.82,1.77,1.82,1.77h1.31c-.05.15-.07.3-.07.47v3.54c0,.93.77,1.68,1.73,1.68s1.73-.75,1.73-1.68v-3.54c0-.16-.03-.32-.07-.47h3.2c-.04.15-.07.3-.07.47v3.54c0,.93.77,1.68,1.72,1.68s1.73-.75,1.73-1.68v-3.54c0-.16-.03-.32-.07-.47h1.32c1.01,0,1.82-.8,1.82-1.77v-12.31H4.73Zm11.89-6.72l.32-.47.32-.47.72-1.05c.09-.13.05-.3-.08-.39-.13-.09-.31-.05-.4.08l-1.09,1.59-.33.48c-1.04-.39-2.2-.61-3.42-.61s-2.38.22-3.42.61l-.33-.48-.32-.47-.77-1.12c-.09-.13-.27-.16-.4-.08-.13.08-.17.26-.08.39l.72,1.05.32.47.32.47c-2.44,1.11-4.09,3.2-4.09,5.6h16.1c0-2.4-1.65-4.49-4.09-5.6Zm-7.41,3.36c-.48,0-.86-.38-.86-.84s.39-.84.86-.84.86.37.86.84-.39.84-.86.84Zm6.9,0c-.48,0-.86-.38-.86-.84s.39-.84.86-.84.86.37.86.84-.39.84-.86.84Z"/>
  </g>
</svg>
