<?xml version="1.0" encoding="UTF-8"?>
<svg id="_图层_2" data-name="图层 2" xmlns="http://www.w3.org/2000/svg" viewBox="0 0 23.5 28.91">
  <g id="_图层_1-2" data-name="图层 1">
    <g>
      <path class="cls-1" d="m7.11,7.08c1.18-.03,2.15.37,3.13.73.44.17.87.33,1.32.45.36.1.7.05,1.04-.07.58-.21,1.16-.42,1.75-.64,1.02-.38,2.07-.64,3.16-.57,2.04.13,3.76.92,5.07,2.52.23.28.21.3-.07.5-2.13,1.5-3.06,3.56-2.77,6.13.25,2.29,1.46,3.93,3.5,4.97.26.13.32.25.22.52-.68,1.86-1.65,3.57-2.91,5.1-.38.46-.76.91-1.21,1.29-1,.85-2.14,1.04-3.41.71-.65-.17-1.25-.46-1.89-.68-1.23-.4-2.44-.33-3.65.06-.64.21-1.24.49-1.89.67-1.26.35-2.33.04-3.27-.84-1.59-1.49-2.78-3.27-3.66-5.25-.65-1.43-1.11-2.95-1.36-4.52-.32-1.94-.34-3.88.26-5.77.48-1.55,1.31-2.88,2.6-3.89,1.2-.93,2.57-1.44,4.03-1.42Z"/>
      <path class="cls-1" d="m11.72,6.05c.06-1.82.85-3.27,2.2-4.46.97-.85,2.12-1.35,3.38-1.58.19-.03.28,0,.28.21.02,2.16-.78,3.93-2.43,5.33-.89.76-1.9,1.13-3.07,1.14-.29,0-.41-.07-.37-.37.02-.09,0-.18,0-.28Z"/>
    </g>
  </g>
</svg>
