<svg width="21" height="21" viewBox="0 0 21 21" xmlns="http://www.w3.org/2000/svg">
    <path d="M16 18.05H2.13001C1.79848 18.05 1.48054 17.9183 1.24612 17.6839C1.0117 17.4494 0.880005 17.1315 0.880005 16.8C0.879922 16.636 0.912595 16.4737 0.976135 16.3226C1.03968 16.1715 1.1328 16.0346 1.25 15.92L2.41 14.76C2.65278 14.5153 2.78932 14.1847 2.79001 13.84V9.83997C2.79001 7.08997 4.12999 3.83998 7.07999 2.83998V2.61997C7.07959 2.34647 7.13529 2.0758 7.24365 1.82467C7.35201 1.57355 7.51073 1.34732 7.70999 1.15998C7.90713 0.968315 8.14295 0.820987 8.40164 0.727858C8.66034 0.634728 8.93593 0.597945 9.20999 0.619974C9.71758 0.653036 10.1935 0.878258 10.5409 1.24981C10.8883 1.62136 11.0811 2.11132 11.08 2.61997V2.78998C14.02 3.78998 15.37 7.01998 15.37 9.78998V13.79C15.3707 14.1347 15.5072 14.4653 15.75 14.71L16.91 15.87C17.0272 15.9846 17.1203 16.1215 17.1839 16.2726C17.2474 16.4237 17.2801 16.586 17.28 16.75C17.2869 16.9208 17.2586 17.0913 17.197 17.2508C17.1354 17.4103 17.0417 17.5555 16.9217 17.6774C16.8017 17.7992 16.6581 17.8952 16.4995 17.9592C16.341 18.0233 16.171 18.0542 16 18.05Z"/>
    <path d="M9.07999 20.65C8.42384 20.6474 7.79503 20.387 7.32919 19.9249C6.86336 19.4628 6.59787 18.8361 6.59 18.18C6.59 18.0275 6.65059 17.8812 6.75842 17.7734C6.86626 17.6656 7.01251 17.605 7.16501 17.605C7.31751 17.605 7.46376 17.6656 7.57159 17.7734C7.67943 17.8812 7.73999 18.0275 7.73999 18.18C7.74261 18.5346 7.88464 18.8739 8.13538 19.1246C8.38611 19.3753 8.72541 19.5174 9.07999 19.52H9.32999C9.63439 19.4633 9.90889 19.3006 10.1048 19.0608C10.3006 18.821 10.4052 18.5196 10.4 18.21C10.4 18.0588 10.4601 17.9138 10.567 17.8069C10.6739 17.7 10.8188 17.64 10.97 17.64C11.1212 17.64 11.2662 17.7 11.373 17.8069C11.4799 17.9138 11.54 18.0588 11.54 18.21C11.5451 18.7854 11.3475 19.3443 10.9818 19.7886C10.6161 20.2329 10.1057 20.5343 9.54001 20.64C9.38742 20.659 9.23326 20.6624 9.07999 20.65Z"/>
<!--    <path d="M16.27 1.52002C15.3373 1.522 14.4262 1.80025 13.6515 2.31965C12.8768 2.83905 12.2734 3.57631 11.9174 4.43837C11.5614 5.30043 11.4687 6.24863 11.6512 7.16329C11.8336 8.07795 12.283 8.91805 12.9425 9.57755C13.602 10.2371 14.4421 10.6864 15.3567 10.8688C16.2714 11.0513 17.2196 10.9586 18.0817 10.6026C18.9437 10.2466 19.681 9.64321 20.2004 8.86854C20.7198 8.09388 20.998 7.18269 21 6.25002C21 4.99554 20.5017 3.79245 19.6146 2.9054C18.7276 2.01836 17.5245 1.52002 16.27 1.52002Z"/>-->
<!--    <path d="M14.48 7.33997L15.48 7.21997C15.4931 7.43655 15.5816 7.64172 15.73 7.79997C15.8642 7.92951 16.0435 8.0019 16.23 8.0019C16.4165 8.0019 16.5958 7.92951 16.73 7.79997C16.8835 7.61927 16.9622 7.38676 16.95 7.14997C16.9608 6.92724 16.8856 6.70888 16.74 6.53997C16.6766 6.46715 16.5982 6.40889 16.5102 6.36919C16.4221 6.3295 16.3266 6.3093 16.23 6.30997C16.0705 6.31532 15.9124 6.34223 15.76 6.38997L15.87 5.55997C16.0952 5.58227 16.3205 5.5179 16.5 5.37997C16.5726 5.31695 16.6301 5.23838 16.6682 5.15008C16.7063 5.06179 16.724 4.96605 16.72 4.86997C16.724 4.79118 16.7118 4.71242 16.6843 4.63848C16.6568 4.56455 16.6145 4.497 16.56 4.43997C16.5045 4.38623 16.4386 4.34433 16.3664 4.31683C16.2942 4.28932 16.2172 4.27678 16.14 4.27997C16.0568 4.27822 15.974 4.29325 15.8967 4.32418C15.8194 4.35511 15.7491 4.40129 15.69 4.45997C15.5582 4.60624 15.4805 4.79333 15.47 4.98997L14.53 4.82998C14.5778 4.5559 14.6797 4.29412 14.83 4.05997C14.9695 3.86321 15.1595 3.70774 15.38 3.60997C15.6275 3.49547 15.8973 3.4374 16.17 3.43997C16.3942 3.42944 16.6181 3.46681 16.8267 3.54957C17.0354 3.63234 17.224 3.75861 17.38 3.91997C17.5268 4.06012 17.6359 4.23494 17.6974 4.42832C17.7589 4.62171 17.7708 4.82745 17.732 5.02663C17.6931 5.22581 17.6048 5.41202 17.4752 5.56813C17.3455 5.72424 17.1787 5.84523 16.99 5.91997C17.2777 5.97577 17.5363 6.13166 17.72 6.35997C17.9052 6.59605 18.0009 6.8901 17.99 7.18997C17.994 7.41459 17.9507 7.63753 17.8628 7.84428C17.7749 8.05103 17.6445 8.23697 17.48 8.38997C17.1429 8.69456 16.7087 8.86976 16.2547 8.8844C15.8006 8.89905 15.356 8.75221 15 8.46997C14.6841 8.17686 14.4972 7.77057 14.48 7.33997Z"/>-->
</svg>
