<svg width="62" height="56" viewBox="0 0 62 56"  xmlns="http://www.w3.org/2000/svg">
<g clip-path="url(#clip0_608_262)">
<path d="M16.1738 54.7737C21.1504 55.5912 26.127 56 31.1036 56C36.0802 56 41.0568 55.5912 46.0334 54.7737C53.2909 53.5474 59.0969 49.2554 60.5484 43.7372C62.622 36.1751 62.622 28.6131 60.5484 21.0511C59.0969 15.3284 53.2909 11.0365 45.826 10.0146C44.9966 9.81019 44.3745 9.19705 44.3745 8.37953C44.3745 3.88318 40.6421 0.204346 36.0802 0.204346H25.7123C21.1504 0.204346 17.418 3.88318 17.418 8.37953C17.418 9.19705 16.7959 9.81019 15.9665 10.0146C8.70895 11.2408 2.90293 15.5328 1.45142 21.0511C-0.622154 28.6131 -0.622154 36.1751 1.45142 43.7372C3.11029 49.2554 8.91631 53.7518 16.1738 54.7737ZM4.97651 21.8686C6.22065 17.5766 10.7825 14.1022 16.7959 13.2846C19.4916 12.8759 21.3578 10.8321 21.3578 8.17515C21.3578 5.72259 23.4314 3.47442 26.127 3.47442H36.4949C38.9832 3.47442 41.2641 5.51821 41.2641 8.17515C41.2641 10.8321 43.1304 12.8759 45.826 13.2846C51.8394 14.1022 56.4013 17.5766 57.6454 21.8686C59.5116 28.8175 59.5116 35.7664 57.6454 42.7153C56.4013 47.0073 51.8394 50.4817 45.826 51.2992C36.2875 52.7299 26.7491 52.7299 17.2106 51.2992C10.7825 50.4817 6.22065 47.0073 4.97651 42.7153C3.11029 35.7664 3.11029 28.8175 4.97651 21.8686Z" />
<path d="M27.3711 44.3504C34.4212 44.3504 40.2273 38.6278 40.2273 31.6789C40.2273 24.73 34.4212 19.0073 27.3711 19.0073C20.3209 19.0073 14.5149 24.73 14.5149 31.6789C14.5149 38.6278 20.3209 44.3504 27.3711 44.3504ZM27.3711 22.4818C32.555 22.4818 36.7022 26.5694 36.7022 31.6789C36.7022 36.7883 32.555 40.8759 27.3711 40.8759C22.1871 40.8759 18.04 36.7883 18.04 31.6789C18.2473 26.5694 22.3945 22.4818 27.3711 22.4818Z" />
<path d="M44.3745 22.4818H47.4849C48.5217 22.4818 49.3511 21.6643 49.3511 20.6424C49.3511 19.6205 48.5217 18.803 47.4849 18.803H44.3745C43.3377 18.803 42.5083 19.6205 42.5083 20.6424C42.5083 21.6643 43.3377 22.4818 44.3745 22.4818Z" />
</g>
<defs>
<clipPath id="clip0_608_262">
<rect width="62" height="56" />
</clipPath>
</defs>
</svg>
