<svg width="22" height="22" viewBox="0 0 22 22" xmlns="http://www.w3.org/2000/svg">
    <path d="M6.30996 20.9999C9.60888 21.6772 13.011 21.6772 16.31 20.9999C17.5147 20.7541 18.6206 20.1594 19.4901 19.29C20.3595 18.4205 20.9541 17.3146 21.2 16.1099C21.8773 12.8109 21.8773 9.40879 21.2 6.10986C20.9541 4.9051 20.3595 3.7992 19.4901 2.92975C18.6206 2.0603 17.5147 1.46566 16.31 1.21985C13.0111 0.541951 9.60882 0.541951 6.30996 1.21985C5.10519 1.46566 3.99929 2.0603 3.12984 2.92975C2.26038 3.7992 1.66577 4.9051 1.41996 6.10986C0.742338 9.40876 0.742338 12.811 1.41996 16.1099C1.66577 17.3146 2.26038 18.4205 3.12984 19.29C3.99929 20.1594 5.10519 20.7541 6.30996 20.9999ZM2.58996 6.30988C2.78502 5.3217 3.26945 4.41383 3.98168 3.7016C4.69391 2.98937 5.60178 2.50494 6.58996 2.30988C9.74345 1.65965 12.9965 1.65965 16.15 2.30988C17.1381 2.50494 18.046 2.98937 18.7582 3.7016C19.4705 4.41383 19.9549 5.3217 20.15 6.30988C20.8002 9.46337 20.8002 12.7164 20.15 15.8699C19.9549 16.858 19.4705 17.7659 18.7582 18.4781C18.046 19.1904 17.1381 19.6748 16.15 19.8699C12.9964 20.5198 9.74348 20.5198 6.58996 19.8699C5.60178 19.6748 4.69391 19.1904 3.98168 18.4781C3.26945 17.7659 2.78502 16.858 2.58996 15.8699C1.93422 12.7035 1.93422 9.43631 2.58996 6.2699V6.30988Z"/>
    <path d="M6.22 15.5101C6.37913 15.5101 6.53174 15.4469 6.64427 15.3344C6.75679 15.2219 6.82 15.0692 6.82 14.9101V11.6001C6.83099 11.5155 6.82382 11.4295 6.79894 11.3479C6.77407 11.2663 6.73208 11.1909 6.67577 11.1268C6.61946 11.0627 6.55012 11.0114 6.47239 10.9762C6.39466 10.941 6.31032 10.9229 6.225 10.9229C6.13968 10.9229 6.05534 10.941 5.97761 10.9762C5.89988 11.0114 5.83054 11.0627 5.77423 11.1268C5.71792 11.1909 5.67594 11.2663 5.65106 11.3479C5.62619 11.4295 5.61901 11.5155 5.63 11.6001V14.9101C5.62998 15.0675 5.69182 15.2186 5.80219 15.3309C5.91255 15.4431 6.06261 15.5075 6.22 15.5101Z"/>
    <path d="M11.33 15.5101C11.4891 15.5101 11.6417 15.4469 11.7543 15.3344C11.8668 15.2218 11.93 15.0692 11.93 14.91V6.51007C11.941 6.42546 11.9338 6.33949 11.9089 6.25787C11.8841 6.17626 11.8421 6.10084 11.7858 6.03674C11.7294 5.97264 11.6601 5.92129 11.5824 5.88611C11.5046 5.85093 11.4203 5.83276 11.335 5.83276C11.2497 5.83276 11.1653 5.85093 11.0876 5.88611C11.0099 5.92129 10.9405 5.97264 10.8842 6.03674C10.8279 6.10084 10.7859 6.17626 10.761 6.25787C10.7362 6.33949 10.729 6.42546 10.74 6.51007V14.91C10.74 15.0674 10.8018 15.2186 10.9122 15.3308C11.0225 15.443 11.1726 15.5074 11.33 15.5101Z"/>
    <path d="M16.45 15.5101C16.6091 15.5101 16.7617 15.4469 16.8743 15.3344C16.9868 15.2218 17.05 15.0692 17.05 14.91V8.79004C17.0312 8.64551 16.9605 8.51275 16.851 8.41656C16.7415 8.32038 16.6007 8.26733 16.455 8.26733C16.3092 8.26733 16.1685 8.32038 16.059 8.41656C15.9495 8.51275 15.8788 8.64551 15.86 8.79004V14.91C15.86 15.0674 15.9218 15.2186 16.0322 15.3308C16.1425 15.443 16.2926 15.5074 16.45 15.5101Z"/>
</svg>
