<svg width="24" height="24" viewBox="0 0 24 24" xmlns="http://www.w3.org/2000/svg">
<path d="M11.5 0.469994C8.45001 0.469994 5.52494 1.68161 3.36827 3.83828C1.2116 5.99495 0 8.92 0 11.97C0 15.02 1.2116 17.9451 3.36827 20.1018C5.52494 22.2584 8.45001 23.47 11.5 23.47C13.0287 23.4714 14.542 23.1654 15.95 22.57L19.83 23.46H19.98C20.072 23.4592 20.1629 23.439 20.2467 23.401C20.3305 23.3629 20.4054 23.3077 20.4666 23.239C20.5279 23.1702 20.574 23.0894 20.6021 23.0018C20.6303 22.9141 20.6398 22.8215 20.63 22.73L20.24 19.42C21.6811 17.7513 22.6117 15.7033 22.9207 13.5202C23.2297 11.3372 22.9041 9.11125 21.9827 7.10818C21.0612 5.10511 19.583 3.40945 17.7242 2.22353C15.8655 1.03762 13.7048 0.411545 11.5 0.420007V0.469994ZM19.06 18.77C18.9979 18.8404 18.9515 18.9231 18.9239 19.0128C18.8963 19.1024 18.8882 19.1969 18.9 19.29L19.21 21.97L16 21.24C15.8668 21.1965 15.7232 21.1965 15.59 21.24C13.2826 22.2723 10.6747 22.4138 8.26909 21.6372C5.86354 20.8605 3.83071 19.2207 2.5626 17.034C1.29448 14.8472 0.880894 12.2684 1.40157 9.79482C1.92225 7.3212 3.34033 5.12793 5.38236 3.63796C7.42439 2.14799 9.94576 1.46681 12.4603 1.72579C14.9748 1.98477 17.3044 3.16558 18.9999 5.04049C20.6954 6.9154 21.6366 9.35166 21.6422 11.8795C21.6477 14.4073 20.7172 16.8477 19.03 18.73L19.06 18.77Z" />
<path d="M6.43001 10.71C6.25497 10.71 6.0871 10.7795 5.96332 10.9033C5.83955 11.027 5.77001 11.1949 5.77001 11.3699V12.58C5.75853 12.6728 5.76689 12.7669 5.79455 12.8563C5.82222 12.9456 5.86856 13.028 5.93049 13.0981C5.99242 13.1682 6.06853 13.2243 6.15379 13.2627C6.23905 13.3011 6.3315 13.321 6.42501 13.321C6.51853 13.321 6.61098 13.3011 6.69624 13.2627C6.7815 13.2243 6.85761 13.1682 6.91954 13.0981C6.98148 13.028 7.02781 12.9456 7.05547 12.8563C7.08314 12.7669 7.09151 12.6728 7.08002 12.58V11.3699C7.08004 11.1966 7.01187 11.0302 6.89025 10.9067C6.76863 10.7832 6.60332 10.7126 6.43001 10.71Z" />
<path d="M11.5 10.71C11.3249 10.71 11.1571 10.7795 11.0333 10.9033C10.9095 11.027 10.84 11.1949 10.84 11.3699V12.58C10.8285 12.6728 10.8369 12.7669 10.8645 12.8563C10.8922 12.9456 10.9385 13.028 11.0005 13.0981C11.0624 13.1682 11.1385 13.2243 11.2238 13.2627C11.309 13.3011 11.4015 13.321 11.495 13.321C11.5885 13.321 11.681 13.3011 11.7662 13.2627C11.8515 13.2243 11.9276 13.1682 11.9895 13.0981C12.0515 13.028 12.0978 12.9456 12.1254 12.8563C12.1531 12.7669 12.1615 12.6728 12.15 12.58V11.3699C12.15 11.1966 12.0819 11.0302 11.9602 10.9067C11.8386 10.7832 11.6733 10.7126 11.5 10.71Z" />
<path d="M16.57 10.71C16.395 10.71 16.2271 10.7795 16.1033 10.9033C15.9795 11.027 15.91 11.1949 15.91 11.3699V12.58C15.8985 12.6728 15.9069 12.7669 15.9345 12.8563C15.9622 12.9456 16.0085 13.028 16.0705 13.0981C16.1324 13.1682 16.2085 13.2243 16.2938 13.2627C16.379 13.3011 16.4715 13.321 16.565 13.321C16.6585 13.321 16.751 13.3011 16.8362 13.2627C16.9215 13.2243 16.9976 13.1682 17.0595 13.0981C17.1215 13.028 17.1678 12.9456 17.1955 12.8563C17.2231 12.7669 17.2315 12.6728 17.22 12.58V11.3699C17.22 11.1966 17.1519 11.0302 17.0302 10.9067C16.9086 10.7832 16.7433 10.7126 16.57 10.71Z" />
</svg>
