<svg width="21" height="20" viewBox="0 0 21 20"  xmlns="http://www.w3.org/2000/svg">
<path d="M10.05 0C8.07222 0 6.13883 0.586489 4.49434 1.6853C2.84984 2.78412 1.56814 4.3459 0.811261 6.17316C0.0543845 8.00042 -0.143653 10.0111 0.2422 11.9509C0.628052 13.8907 1.58046 15.6725 2.97899 17.071C4.37751 18.4696 6.15932 19.422 8.09913 19.8079C10.0389 20.1937 12.0496 19.9956 13.8769 19.2388C15.7041 18.4819 17.2659 17.2002 18.3647 15.5557C19.4635 13.9112 20.05 11.9778 20.05 10C20.05 7.34784 18.9965 4.80432 17.1211 2.92896C15.2457 1.05359 12.7022 0 10.05 0ZM10.05 19C8.27 19 6.52995 18.4721 5.04991 17.4832C3.56987 16.4943 2.41631 15.0887 1.73512 13.4442C1.05393 11.7996 0.875706 9.99003 1.22297 8.2442C1.57024 6.49837 2.42741 4.89472 3.68608 3.63605C4.94475 2.37737 6.5484 1.52018 8.29423 1.17291C10.0401 0.825646 11.8496 1.00387 13.4942 1.68506C15.1387 2.36625 16.5443 3.51984 17.5333 4.99988C18.5222 6.47992 19.05 8.21997 19.05 10C19.05 12.3869 18.1018 14.6761 16.414 16.364C14.7262 18.0518 12.437 19 10.05 19Z" />
</svg>
