<svg width="21" height="20" viewBox="0 0 21 20" xmlns="http://www.w3.org/2000/svg">
<path d="M10.0501 0C8.07225 0 6.13884 0.586489 4.49435 1.6853C2.84986 2.78412 1.56814 4.3459 0.811261 6.17316C0.0543845 8.00042 -0.143653 10.0111 0.2422 11.9509C0.628052 13.8907 1.58046 15.6725 2.97899 17.071C4.37751 18.4696 6.15934 19.422 8.09915 19.8079C10.039 20.1937 12.0496 19.9956 13.8769 19.2388C15.7042 18.4819 17.2659 17.2002 18.3648 15.5557C19.4636 13.9112 20.0501 11.9778 20.0501 10C20.0501 7.34784 18.9965 4.80432 17.1211 2.92896C15.2458 1.05359 12.7022 0 10.0501 0ZM10.0501 19C8.27003 19 6.52997 18.4721 5.04992 17.4832C3.56988 16.4943 2.41632 15.0887 1.73513 13.4442C1.05395 11.7996 0.875722 9.99003 1.22299 8.2442C1.57026 6.49837 2.42742 4.89472 3.68609 3.63605C4.94477 2.37737 6.54842 1.52018 8.29425 1.17291C10.0401 0.825646 11.8497 1.00387 13.4942 1.68506C15.1387 2.36625 16.5444 3.51984 17.5333 4.99988C18.5222 6.47992 19.0501 8.21997 19.0501 10C19.0501 12.3869 18.1018 14.6761 16.414 16.364C14.7262 18.0518 12.437 19 10.0501 19Z" />
<path d="M10.0499 16.67C13.7336 16.67 16.7199 13.6838 16.7199 10.0001C16.7199 6.31632 13.7336 3.33008 10.0499 3.33008C6.36614 3.33008 3.37988 6.31632 3.37988 10.0001C3.37988 13.6838 6.36614 16.67 10.0499 16.67Z" />
</svg>
