<svg width="46" height="46" viewBox="0 0 46 46" xmlns="http://www.w3.org/2000/svg">
<!--    <path d="M23.08 45.1C17.1126 45.1 11.3896 42.7295 7.17004 38.5099C2.95048 34.2903 0.579956 28.5673 0.579956 22.6C0.579956 16.6326 2.95048 10.9096 7.17004 6.69006C11.3896 2.47049 17.1126 0.0999756 23.08 0.0999756C29.0473 0.0999756 34.7703 2.47049 38.9899 6.69006C43.2094 10.9096 45.58 16.6326 45.58 22.6C45.58 28.5673 43.2094 34.2903 38.9899 38.5099C34.7703 42.7295 29.0473 45.1 23.08 45.1Z"/>-->
    <path d="M23.08 11.1C20.03 11.1 17.1049 12.3116 14.9482 14.4683C12.7916 16.625 11.58 19.55 11.58 22.6C11.58 25.65 12.7916 28.575 14.9482 30.7317C17.1049 32.8884 20.03 34.1 23.08 34.1C24.6086 34.1014 26.122 33.7953 27.53 33.2L31.4099 34.09H31.56C31.652 34.0891 31.7429 34.069 31.8267 34.0309C31.9105 33.9928 31.9854 33.9377 32.0466 33.8689C32.1078 33.8002 32.154 33.7194 32.1821 33.6317C32.2102 33.5441 32.2197 33.4515 32.21 33.36L31.8199 30.05C33.2611 28.3813 34.1917 26.3332 34.5007 24.1502C34.8097 21.9671 34.484 19.7413 33.5626 17.7382C32.6412 15.7351 31.1629 14.0395 29.3042 12.8535C27.4455 11.6676 25.2848 11.0415 23.08 11.05V11.1ZM30.64 29.4C30.5779 29.4703 30.5315 29.5531 30.5039 29.6427C30.4763 29.7324 30.4681 29.8269 30.4799 29.92L30.7899 32.6L27.61 31.87C27.4768 31.8265 27.3332 31.8265 27.2 31.87C24.8925 32.9023 22.2846 33.0438 19.8791 32.2671C17.4735 31.4905 15.4407 29.8507 14.1725 27.664C12.9044 25.4772 12.4909 22.8984 13.0115 20.4248C13.5322 17.9511 14.9503 15.7579 16.9923 14.268C19.0343 12.778 21.5557 12.0968 24.0703 12.3558C26.5848 12.6148 28.9144 13.7956 30.6098 15.6705C32.3053 17.5454 33.2466 19.9816 33.2521 22.5094C33.2577 25.0372 32.3272 27.4777 30.64 29.36V29.4Z"/>
    <path d="M17.9799 21.34C17.8049 21.34 17.637 21.4095 17.5133 21.5333C17.3895 21.657 17.3199 21.8249 17.3199 21.9999V23.21C17.3085 23.3028 17.3168 23.397 17.3445 23.4863C17.3721 23.5757 17.4185 23.6581 17.4804 23.7281C17.5424 23.7982 17.6185 23.8543 17.7037 23.8928C17.789 23.9312 17.8814 23.951 17.9749 23.951C18.0685 23.951 18.1609 23.9312 18.2462 23.8928C18.3314 23.8543 18.4075 23.7982 18.4695 23.7281C18.5314 23.6581 18.5777 23.5757 18.6054 23.4863C18.6331 23.397 18.6414 23.3028 18.6299 23.21V21.9999C18.63 21.8266 18.5618 21.6603 18.4402 21.5368C18.3186 21.4133 18.1533 21.3426 17.9799 21.34Z"/>
    <path d="M23.0799 21.34C22.9049 21.34 22.737 21.4095 22.6132 21.5333C22.4894 21.657 22.4199 21.8249 22.4199 21.9999V23.21C22.4084 23.3028 22.4168 23.397 22.4445 23.4863C22.4721 23.5757 22.5184 23.6581 22.5804 23.7281C22.6423 23.7982 22.7185 23.8543 22.8037 23.8928C22.889 23.9312 22.9814 23.951 23.0749 23.951C23.1684 23.951 23.2609 23.9312 23.3462 23.8928C23.4314 23.8543 23.5075 23.7982 23.5695 23.7281C23.6314 23.6581 23.6777 23.5757 23.7054 23.4863C23.733 23.397 23.7414 23.3028 23.7299 23.21V21.9999C23.7299 21.8266 23.6618 21.6603 23.5402 21.5368C23.4185 21.4133 23.2532 21.3426 23.0799 21.34Z"/>
    <path d="M28.0799 21.34C27.9049 21.34 27.737 21.4095 27.6132 21.5333C27.4894 21.657 27.4199 21.8249 27.4199 21.9999V23.21C27.4084 23.3028 27.4168 23.397 27.4445 23.4863C27.4721 23.5757 27.5184 23.6581 27.5804 23.7281C27.6423 23.7982 27.7185 23.8543 27.8037 23.8928C27.889 23.9312 27.9814 23.951 28.0749 23.951C28.1684 23.951 28.2609 23.9312 28.3462 23.8928C28.4314 23.8543 28.5075 23.7982 28.5695 23.7281C28.6314 23.6581 28.6777 23.5757 28.7054 23.4863C28.733 23.397 28.7414 23.3028 28.7299 23.21V21.9999C28.7299 21.8266 28.6618 21.6603 28.5402 21.5368C28.4185 21.4133 28.2532 21.3426 28.0799 21.34Z"/>
</svg>
