<svg width="16" height="18" viewBox="0 0 16 18" xmlns="http://www.w3.org/2000/svg">
<path d="M15.6326 13.0964C16.1225 10.7214 16.1225 8.27146 15.6326 5.89646C15.4608 5.02336 15.0366 4.21983 14.4128 3.5853C13.7889 2.95077 12.9927 2.51309 12.1226 2.32645C10.3274 1.956 8.48567 1.86494 6.66262 2.05646L7.58261 2.97644H8.52261C9.66485 2.97805 10.804 3.09532 11.9226 3.32645C12.6046 3.46669 13.2305 3.80383 13.7229 4.29618C14.2152 4.78852 14.5524 5.41443 14.6926 6.09644C15.155 8.33952 15.155 10.6534 14.6926 12.8965C14.5524 13.5785 14.2152 14.2044 13.7229 14.6967C13.2305 15.1891 12.6046 15.5262 11.9226 15.6664C9.67952 16.1288 7.3657 16.1288 5.12261 15.6664C4.44061 15.5262 3.81469 15.1891 3.32235 14.6967C2.83001 14.2044 2.49287 13.5785 2.35263 12.8965C2.05881 11.4697 1.95124 10.0109 2.03262 8.55646L1.11261 7.63645C0.921086 9.4595 1.01218 11.3012 1.38262 13.0964C1.56085 13.9712 1.99245 14.7742 2.62368 15.4054C3.25492 16.0366 4.05788 16.4682 4.93261 16.6465C7.30761 17.1364 9.75762 17.1364 12.1326 16.6465C12.9982 16.4595 13.7904 16.024 14.4121 15.3934C15.0338 14.7629 15.458 13.9646 15.6326 13.0964Z" />
<path d="M1.33256 5.90644L1.93257 6.50644L2.18257 6.75644L5.68257 10.2564C5.76377 10.3358 5.86956 10.3852 5.98255 10.3965L9.08256 10.7065H9.20256C9.2718 10.7054 9.34008 10.69 9.40306 10.6612C9.46603 10.6324 9.52233 10.5908 9.5684 10.5391C9.61447 10.4874 9.64929 10.4267 9.67066 10.3608C9.69204 10.2949 9.69951 10.2253 9.69258 10.1564V10.0865L9.38258 6.98646C9.37133 6.87346 9.32194 6.76764 9.24256 6.68644L5.74256 3.18644L4.89256 2.33646L4.29258 1.73646C4.05962 1.50145 3.78231 1.31502 3.47676 1.18799C3.1712 1.06097 2.84349 0.995871 2.51258 0.996466C2.38941 0.987506 2.26573 0.987506 2.14256 0.996466C1.68387 1.06724 1.25367 1.26328 0.899333 1.56302C0.544997 1.86277 0.280305 2.25453 0.134471 2.69514C-0.0113624 3.13574 -0.0326806 3.60808 0.0728562 4.06003C0.178393 4.51199 0.40667 4.92599 0.732555 5.25644L1.33256 5.90644ZM8.41258 7.27646L8.65257 9.66645L6.26258 9.42646L2.99256 6.15644L5.14256 4.00644L8.41258 7.27646ZM3.59257 2.45646L3.84257 2.70646L4.44258 3.30646L4.01258 3.73646L2.71257 5.03644L2.28257 5.46647L1.68257 4.86646L1.43257 4.61646C1.29136 4.47531 1.17934 4.30772 1.10292 4.12327C1.02649 3.93881 0.987163 3.7411 0.987163 3.54145C0.987163 3.34179 1.02649 3.14408 1.10292 2.95963C1.17934 2.77518 1.29136 2.60762 1.43257 2.46647C1.72126 2.18936 2.1054 2.03379 2.50556 2.03193C2.90573 2.03007 3.2913 2.18205 3.58256 2.45646H3.59257Z" />
</svg>
