<svg width="25" height="25" viewBox="0 0 25 25" xmlns="http://www.w3.org/2000/svg">
    <path d="M12.8215 12.0582H12.204C12.0321 12.0582 11.8673 12.1265 11.7458 12.248C11.6243 12.3695 11.556 12.5343 11.556 12.7062C11.556 12.878 11.6243 13.0428 11.7458 13.1643C11.8673 13.2858 12.0321 13.3541 12.204 13.3541H12.8519C13.0238 13.3541 13.1886 13.2858 13.3101 13.1643C13.4316 13.0428 13.4998 12.878 13.4998 12.7062C13.4998 12.5343 13.4316 12.3695 13.3101 12.248C13.1886 12.1265 13.0238 12.0582 12.8519 12.0582H12.8215Z"/>
    <path d="M17.357 12.0582H16.7091C16.5373 12.0582 16.3724 12.1265 16.2509 12.248C16.1294 12.3695 16.0612 12.5343 16.0612 12.7062C16.0612 12.878 16.1294 13.0428 16.2509 13.1643C16.3724 13.2858 16.5373 13.3541 16.7091 13.3541H17.357C17.5289 13.3541 17.6937 13.2858 17.8152 13.1643C17.9367 13.0428 18.005 12.878 18.005 12.7062C18.005 12.5343 17.9367 12.3695 17.8152 12.248C17.6937 12.1265 17.5289 12.0582 17.357 12.0582Z"/>
    <path d="M8.296 12.0582H7.64806C7.47622 12.0582 7.31141 12.1265 7.1899 12.248C7.06839 12.3695 7.00012 12.5343 7.00012 12.7062C7.00012 12.878 7.06839 13.0428 7.1899 13.1643C7.31141 13.2858 7.47622 13.3541 7.64806 13.3541H8.296C8.46784 13.3541 8.63265 13.2858 8.75416 13.1643C8.87567 13.0428 8.94394 12.878 8.94394 12.7062C8.94394 12.5343 8.87567 12.3695 8.75416 12.248C8.63265 12.1265 8.46784 12.0582 8.296 12.0582Z"/>
    <path d="M8.296 16.4216H7.64806C7.47622 16.4216 7.31141 16.4899 7.1899 16.6114C7.06839 16.7329 7.00012 16.8977 7.00012 17.0696C7.00012 17.2414 7.06839 17.4062 7.1899 17.5277C7.31141 17.6492 7.47622 17.7175 7.64806 17.7175H8.296C8.46784 17.7175 8.63265 17.6492 8.75416 17.5277C8.87567 17.4062 8.94394 17.2414 8.94394 17.0696C8.94394 16.8977 8.87567 16.7329 8.75416 16.6114C8.63265 16.4899 8.46784 16.4216 8.296 16.4216Z"/>
    <path d="M17.357 16.4216H16.7091C16.5373 16.4216 16.3724 16.4899 16.2509 16.6114C16.1294 16.7329 16.0612 16.8977 16.0612 17.0696C16.0612 17.2414 16.1294 17.4062 16.2509 17.5277C16.3724 17.6492 16.5373 17.7175 16.7091 17.7175H17.357C17.5289 17.7175 17.6937 17.6492 17.8152 17.5277C17.9367 17.4062 18.005 17.2414 18.005 17.0696C18.005 16.8977 17.9367 16.7329 17.8152 16.6114C17.6937 16.4899 17.5289 16.4216 17.357 16.4216Z"/>
    <path d="M12.8215 16.4216H12.204C12.0321 16.4216 11.8673 16.4899 11.7458 16.6114C11.6243 16.7329 11.556 16.8977 11.556 17.0696C11.556 17.2414 11.6243 17.4062 11.7458 17.5277C11.8673 17.6492 12.0321 17.7175 12.204 17.7175H12.8519C13.0238 17.7175 13.1886 17.6492 13.3101 17.5277C13.4316 17.4062 13.4998 17.2414 13.4998 17.0696C13.4998 16.8977 13.4316 16.7329 13.3101 16.6114C13.1886 16.4899 13.0238 16.4216 12.8519 16.4216H12.8215Z"/>
    <path d="M7.97208 0.000297978C7.7895 0.000297978 7.61439 0.0728195 7.48528 0.201926C7.35618 0.331033 7.28365 0.506141 7.28365 0.688726V1.65052L6.94955 1.71126C5.61301 1.98494 4.38627 2.64508 3.42158 3.60977C2.4569 4.57446 1.79674 5.8012 1.52306 7.13774C0.763471 10.811 0.763471 14.6009 1.52306 18.2742C1.79852 19.6089 2.45946 20.8334 3.42401 21.7962C4.38856 22.7589 5.61435 23.4176 6.94955 23.6906C10.6228 24.4502 14.4127 24.4502 18.086 23.6906C19.4225 23.4169 20.6493 22.7567 21.614 21.7921C22.5787 20.8274 23.2388 19.6006 23.5125 18.2641C24.2718 14.5908 24.2718 10.801 23.5125 7.12763C23.2388 5.79109 22.5787 4.56432 21.614 3.59964C20.6493 2.63495 19.4225 1.97481 18.086 1.70113L17.7519 1.64039V0.739334C17.7519 0.555407 17.6788 0.379037 17.5488 0.248981C17.4187 0.118925 17.2423 0.0458389 17.0584 0.0458389C16.8745 0.0458389 16.6981 0.118925 16.568 0.248981C16.438 0.379037 16.3649 0.555407 16.3649 0.739334V1.41766C13.8163 1.05666 11.2294 1.05666 8.68076 1.41766V0.688726C8.6808 0.59659 8.66235 0.505389 8.62649 0.420516C8.59064 0.335644 8.53811 0.258834 8.47202 0.194635C8.40593 0.130436 8.32764 0.0801475 8.24176 0.0467658C8.15588 0.013384 8.06418 -0.00241191 7.97208 0.000297978ZM22.1457 17.9806C21.9273 19.0533 21.3981 20.0381 20.624 20.8122C19.8499 21.5863 18.8651 22.1155 17.7924 22.3339C14.3093 23.0528 10.7161 23.0528 7.23303 22.3339C6.16028 22.1155 5.17552 21.5863 4.40142 20.8122C3.62731 20.0381 3.09809 19.0533 2.87969 17.9806C2.198 14.6848 2.16018 11.2882 2.76832 7.97805H22.2369C22.8481 11.2876 22.8137 14.6841 22.1356 17.9806H22.1457ZM12.4975 2.53131C13.7818 2.53131 15.0643 2.62606 16.3345 2.81478V3.50321C16.3345 3.68714 16.4076 3.86354 16.5377 3.99359C16.6677 4.12365 16.8441 4.1967 17.028 4.1967C17.212 4.1967 17.3884 4.12365 17.5184 3.99359C17.6485 3.86354 17.7215 3.68714 17.7215 3.50321V3.05775H17.7722C18.6989 3.24681 19.5624 3.66843 20.2814 4.28297C21.0005 4.8975 21.5514 5.68478 21.8825 6.57079H3.09229C3.4234 5.68478 3.97435 4.8975 4.69338 4.28297C5.4124 3.66843 6.27588 3.24681 7.20265 3.05775H7.25328V3.44247C7.25328 3.62639 7.32634 3.80279 7.4564 3.93285C7.58645 4.06291 7.76285 4.13596 7.94677 4.13596C8.1307 4.13596 8.30709 4.06291 8.43715 3.93285C8.5672 3.80279 8.64027 3.62639 8.64027 3.44247V2.80465C9.9175 2.61831 11.2068 2.52696 12.4975 2.53131Z"/>
</svg>
