<svg width="15" height="12" viewBox="0 0 15 12" xmlns="http://www.w3.org/2000/svg">
    <path d="M0.859982 3.81004L0.799984 3.89004C0.7705 3.94047 0.747008 3.99417 0.729985 4.05004V4.13004C0.729985 4.13004 0.729985 4.13004 0.729985 4.18004C0.72846 4.20669 0.72846 4.2334 0.729985 4.26004C0.728026 4.29001 0.728026 4.32007 0.729985 4.35004C0.728081 4.38001 0.728081 4.41007 0.729985 4.44004V4.53004L0.819981 4.64004L7.14998 10.97C7.28296 11.1019 7.46268 11.176 7.64998 11.176C7.83729 11.176 8.017 11.1019 8.14998 10.97L14.48 4.64004C14.6119 4.50706 14.6859 4.32734 14.6859 4.14004C14.6859 3.95274 14.6119 3.77302 14.48 3.64004C12.6465 1.86589 10.1861 0.888223 7.63497 0.920066C5.08382 0.951908 2.64863 1.99067 0.859982 3.81004ZM7.67998 9.64004L3.49998 5.46004L7.49998 6.25004H7.63998C7.82011 6.25603 7.99578 6.19329 8.13136 6.07454C8.26694 5.9558 8.35229 5.78993 8.3701 5.61058C8.38791 5.43123 8.33684 5.25183 8.22725 5.10874C8.11767 4.96565 7.95777 4.86959 7.77998 4.84004L2.90998 3.84004C4.39352 2.80575 6.17582 2.28759 7.98264 2.36528C9.78946 2.44298 11.5207 3.11222 12.91 4.27004L7.67998 9.64004Z"/>
</svg>
