<svg width="23" height="20" viewBox="0 0 23 20" xmlns="http://www.w3.org/2000/svg">
    <path d="M14.62 19.22C15.3666 19.1333 16.1133 19.0133 16.86 18.86C18.1112 18.6039 19.2596 17.9859 20.1628 17.0828C21.0659 16.1797 21.6838 15.0313 21.9399 13.78C22.0499 13.26 22.14 12.7801 22.21 12.2001L22.36 10.88H21.08L20.92 12.2001C20.8533 12.6401 20.7766 13.0767 20.6899 13.51C20.4866 14.5106 19.9931 15.4293 19.2711 16.1512C18.5491 16.8732 17.6305 17.3667 16.6299 17.5701C15.9633 17.7034 15.2966 17.81 14.6299 17.89H8.70996C8.04329 17.81 7.37663 17.7034 6.70996 17.5701C5.70937 17.3667 4.79078 16.8732 4.06879 16.1512C3.34679 15.4293 2.85335 14.5106 2.64996 13.51C2.5633 13.0767 2.48662 12.6401 2.41995 12.2001L2.25995 10.88H0.939941L1.08997 12.2001C1.15997 12.7301 1.24995 13.25 1.35995 13.78C1.61609 15.0313 2.23407 16.1797 3.13718 17.0828C4.04028 17.9859 5.18871 18.6039 6.43994 18.86C7.17994 19.01 7.92996 19.13 8.67996 19.22H14.62Z"/>
    <path d="M7.28003 8.56006C7.27978 8.71322 7.3328 8.86163 7.43002 8.97998L11.2 13.5901C11.262 13.662 11.3387 13.7196 11.425 13.7592C11.5113 13.7987 11.6051 13.8192 11.7 13.8192C11.7949 13.8192 11.8888 13.7987 11.975 13.7592C12.0613 13.7196 12.1381 13.662 12.2 13.5901L15.97 8.97998C16.0673 8.86163 16.1203 8.71322 16.12 8.56006L14.8 8.32007L11.69 12.12L8.58002 8.32007L7.28003 8.56006Z"/>
    <path d="M12.37 11.9V0.900024C12.37 0.724982 12.3004 0.557124 12.1767 0.43335C12.0529 0.309576 11.885 0.23999 11.71 0.23999C11.5349 0.23999 11.3671 0.309576 11.2433 0.43335C11.1195 0.557124 11.05 0.724982 11.05 0.900024V11.9C11.05 12.0751 11.1195 12.2429 11.2433 12.3667C11.3671 12.4905 11.5349 12.5601 11.71 12.5601C11.885 12.5601 12.0529 12.4905 12.1767 12.3667C12.3004 12.2429 12.37 12.0751 12.37 11.9Z"/>
</svg>
