<svg width="13" height="12" viewBox="0 0 13 12" xmlns="http://www.w3.org/2000/svg">
    <path d="M5.45986 10.76L2.08985 4.92004L0.459858 2.10004C0.353606 1.92022 0.296117 1.71577 0.293094 1.50693C0.290072 1.29809 0.341612 1.09209 0.442615 0.909271C0.543619 0.726455 0.690586 0.573173 0.868992 0.464569C1.0474 0.355965 1.25107 0.295804 1.45986 0.290039H11.4598C11.6686 0.295804 11.8723 0.355965 12.0507 0.464569C12.2291 0.573173 12.3761 0.726455 12.4771 0.909271C12.5781 1.09209 12.6296 1.29809 12.6266 1.50693C12.6236 1.71577 12.5661 1.92022 12.4598 2.10004L7.45984 10.76C7.34885 10.923 7.19974 11.0563 7.02546 11.1485C6.85117 11.2406 6.657 11.2888 6.45986 11.2888C6.26271 11.2888 6.06854 11.2406 5.89426 11.1485C5.71998 11.0563 5.57085 10.923 5.45986 10.76Z"/>
</svg>
