<svg width="17" height="17" viewBox="0 0 17 17" xmlns="http://www.w3.org/2000/svg">
    <path d="M16.51 12.77C16.9999 10.395 16.9999 7.94505 16.51 5.57005C16.3381 4.69696 15.914 3.89341 15.2902 3.25888C14.6663 2.62435 13.8701 2.18668 13 2.00005C11.2047 1.6296 9.36305 1.53852 7.54 1.73004L8.45999 2.65004H9.39999C10.5422 2.65164 11.6814 2.76891 12.8 3.00005C13.482 3.14029 14.1079 3.47745 14.6002 3.96979C15.0926 4.46213 15.4298 5.08804 15.57 5.77005C16.0324 8.01313 16.0324 10.327 15.57 12.5701C15.4298 13.2521 15.0926 13.878 14.6002 14.3703C14.1079 14.8626 13.482 15.1998 12.8 15.34C10.5569 15.8024 8.24308 15.8024 6 15.34C5.31799 15.1998 4.69207 14.8626 4.19973 14.3703C3.70739 13.878 3.37025 13.2521 3.23001 12.5701C2.93619 11.1433 2.82862 9.68446 2.91 8.23004L1.98999 7.31004C1.79847 9.13309 1.88956 10.9748 2.26001 12.77C2.43823 13.6448 2.86983 14.4477 3.50106 15.079C4.1323 15.7102 4.93527 16.1418 5.80999 16.3201C8.18499 16.81 10.635 16.81 13.01 16.3201C13.8756 16.1331 14.6678 15.6976 15.2895 15.067C15.9112 14.4365 16.3353 13.6382 16.51 12.77Z"/>
    <path d="M2.21 5.58005L2.81001 6.18004L3.06001 6.43004L6.56001 9.93004C6.64121 10.0094 6.747 10.0588 6.86 10.0701L9.96 10.3801H10.08C10.1492 10.379 10.2175 10.3636 10.2805 10.3348C10.3435 10.306 10.3998 10.2644 10.4458 10.2127C10.4919 10.161 10.5267 10.1003 10.5481 10.0344C10.5695 9.96854 10.577 9.89896 10.57 9.83005V9.76005L10.26 6.66006C10.2488 6.54706 10.1994 6.44125 10.12 6.36005L6.62001 2.86005L5.77 2.01005L5.17002 1.41006C4.93707 1.17504 4.65975 0.988621 4.3542 0.861593C4.04864 0.734565 3.72093 0.669455 3.39003 0.67005C3.26685 0.66109 3.14317 0.66109 3.02 0.67005C2.56132 0.74082 2.13111 0.936883 1.77677 1.23662C1.42244 1.53636 1.15775 1.92815 1.01191 2.36875C0.866079 2.80935 0.844761 3.28167 0.950298 3.73362C1.05583 4.18557 1.28411 4.59959 1.61 4.93004L2.21 5.58005ZM9.29002 6.95005L9.53001 9.34005L7.14003 9.10006L3.87001 5.83005L6.02 3.68004L9.29002 6.95005ZM4.47001 2.13006L4.72001 2.38006L5.32002 2.98005L4.89003 3.41006L3.59001 4.71006L3.16001 5.14005L2.56001 4.54004L2.31001 4.29004C2.1688 4.14889 2.05678 3.98132 1.98036 3.79687C1.90394 3.61241 1.8646 3.4147 1.8646 3.21505C1.8646 3.01539 1.90394 2.8177 1.98036 2.63325C2.05678 2.44879 2.1688 2.2812 2.31001 2.14005C2.59871 1.86295 2.98285 1.70739 3.38301 1.70553C3.78317 1.70367 4.16874 1.85565 4.46 2.13006H4.47001Z"/>
</svg>
