<?xml version="1.0" encoding="UTF-8"?>
<svg id="_图层_2" data-name="图层 2" xmlns="http://www.w3.org/2000/svg" viewBox="0 0 13.93 10.68">
  <defs>
    <style>
      .cls-1 {
        fill: #fff;
        fill-rule: evenodd;
      }
    </style>
  </defs>
  <g id="_图层_1-2" data-name="图层 1">
    <g id="Icons1">
      <g id="eye">
        <path class="cls-1" d="m7.07,0c3.08.04,5.6,2.86,6.86,5.29,0,0-.44.93-.86,1.52-.2.29-.41.57-.64.84-.16.19-.32.38-.49.56-1.52,1.63-3.71,2.85-6.02,2.37-2.57-.52-4.66-2.76-5.92-5.17,0,0,.45-.93.87-1.52.19-.27.39-.52.59-.78.16-.19.32-.38.49-.56C3.3,1.1,5.02-.01,7.07,0Zm-.01,1.19c-1.71,0-3.14.97-4.27,2.18-.15.16-.3.33-.44.51-.19.23-.37.46-.54.71-.17.24-.35.55-.49.81,1.11,1.9,2.78,3.61,4.82,4.03,1.91.39,3.69-.68,4.95-2.03.15-.16.3-.33.45-.51.2-.25.4-.5.58-.76.17-.24.35-.55.48-.81-1.15-1.96-3.12-4.08-5.55-4.12Z"/>
        <path class="cls-1" d="m6.97,2.97c1.29,0,2.33,1.06,2.33,2.38s-1.05,2.38-2.33,2.38-2.33-1.06-2.33-2.38,1.05-2.38,2.33-2.38h0Zm0,1.19c.64,0,1.17.53,1.17,1.19s-.52,1.19-1.17,1.19-1.17-.53-1.17-1.19.52-1.19,1.17-1.19Z"/>
      </g>
    </g>
  </g>
</svg>