<svg width="24" height="24" viewBox="0 0 24 24" xmlns="http://www.w3.org/2000/svg">
    <path d="M6.00001 23.2299C9.65489 23.9837 13.4251 23.9837 17.08 23.2299C18.4075 22.9579 19.6259 22.3022 20.5841 21.344C21.5422 20.3859 22.198 19.1675 22.47 17.84C23.2237 14.1851 23.2237 10.4149 22.47 6.75998C22.4438 6.63465 22.3812 6.51983 22.29 6.42996L17.41 1.54996C17.3201 1.45877 17.2053 1.39615 17.08 1.36997C13.4251 0.616262 9.65489 0.616262 6.00001 1.36997C4.67254 1.64198 3.45414 2.29778 2.49597 3.25595C1.5378 4.21412 0.882031 5.43251 0.610013 6.75998C-0.143971 10.4148 -0.143971 14.1851 0.610013 17.84C0.882031 19.1675 1.5378 20.3859 2.49597 21.344C3.45414 22.3022 4.67254 22.9579 6.00001 23.2299ZM20.92 6.89999H18.79C18.2861 6.89999 17.8028 6.69979 17.4465 6.34348C17.0902 5.98716 16.89 5.50388 16.89 4.99997V2.90994L20.92 6.89999ZM1.92001 7.01999C2.13928 5.94316 2.67054 4.95464 3.4476 4.17758C4.22466 3.40052 5.21318 2.86927 6.29001 2.64999C9.371 2.01088 12.5424 1.93631 15.65 2.42996V4.99997C15.65 5.85132 15.9882 6.66781 16.5902 7.26981C17.1922 7.8718 18.0087 8.20999 18.86 8.20999H21.43C21.9212 11.3178 21.8467 14.4887 21.21 17.57C20.9895 18.6463 20.4579 19.6341 19.681 20.411C18.9042 21.1878 17.9163 21.7195 16.84 21.94C13.3599 22.657 9.77013 22.657 6.29001 21.94C5.21373 21.7195 4.22587 21.1878 3.44901 20.411C2.67215 19.6341 2.1405 18.6463 1.92001 17.57C1.17656 14.0882 1.15274 10.4913 1.85001 6.99997L1.92001 7.01999Z"/>
    <path d="M6.27002 17.6501H16.73C16.8898 17.6303 17.0368 17.5528 17.1435 17.4321C17.2501 17.3115 17.3089 17.1561 17.3089 16.9951C17.3089 16.8341 17.2501 16.6786 17.1435 16.558C17.0368 16.4373 16.8898 16.3599 16.73 16.3401H6.27002C6.11024 16.3599 5.96319 16.4373 5.85657 16.558C5.74995 16.6786 5.6911 16.8341 5.6911 16.9951C5.6911 17.1561 5.74995 17.3115 5.85657 17.4321C5.96319 17.5528 6.11024 17.6303 6.27002 17.6501Z"/>
    <path d="M6.27002 12.9999H16.73C16.8898 12.9802 17.0368 12.9027 17.1435 12.782C17.2501 12.6614 17.3089 12.5059 17.3089 12.3449C17.3089 12.1839 17.2501 12.0285 17.1435 11.9078C17.0368 11.7872 16.8898 11.7097 16.73 11.6899H6.27002C6.11024 11.7097 5.96319 11.7872 5.85657 11.9078C5.74995 12.0285 5.6911 12.1839 5.6911 12.3449C5.6911 12.5059 5.74995 12.6614 5.85657 12.782C5.96319 12.9027 6.11024 12.9802 6.27002 12.9999Z"/>
    <path d="M6.27002 8.26996H9.94001C10.0998 8.25018 10.2468 8.17264 10.3535 8.052C10.4601 7.93137 10.5189 7.77593 10.5189 7.61493C10.5189 7.45393 10.4601 7.29849 10.3535 7.17786C10.2468 7.05722 10.0998 6.97974 9.94001 6.95996H6.27002C6.11024 6.97974 5.96319 7.05722 5.85657 7.17786C5.74995 7.29849 5.6911 7.45393 5.6911 7.61493C5.6911 7.77593 5.74995 7.93137 5.85657 8.052C5.96319 8.17264 6.11024 8.25018 6.27002 8.26996Z"/>
</svg>
