<svg width="21" height="25" viewBox="0 0 21 25" xmlns="http://www.w3.org/2000/svg">
    <path d="M0.530013 6.08008C0.527577 6.57964 0.624454 7.0747 0.815009 7.5365C1.00556 7.99829 1.286 8.41767 1.64001 8.77014L6.27001 13.4001C6.69369 13.8222 7.02941 14.3241 7.25771 14.8768C7.48601 15.4296 7.60236 16.0221 7.60001 16.6201V22.8201C7.60182 23.1463 7.68107 23.4675 7.83124 23.7571C7.98141 24.0467 8.19821 24.2964 8.4638 24.4858C8.72938 24.6753 9.03616 24.7989 9.35887 24.8466C9.68158 24.8942 10.011 24.8647 10.32 24.7601L12 24.1901C12.4068 24.0517 12.7599 23.7891 13.0093 23.4392C13.2588 23.0893 13.3919 22.6698 13.39 22.2401V16.6101C13.3877 16.0121 13.504 15.4196 13.7323 14.8668C13.9606 14.3141 14.2963 13.8122 14.72 13.3901L19.35 8.76013C19.704 8.40766 19.9845 7.98828 20.175 7.52649C20.3656 7.06469 20.4624 6.56963 20.46 6.07007V4.65015C20.46 3.64232 20.0597 2.67577 19.347 1.96313C18.6344 1.2505 17.6678 0.850098 16.66 0.850098H4.33002C3.32219 0.850098 2.35565 1.2505 1.64301 1.96313C0.93037 2.67577 0.530013 3.64232 0.530013 4.65015V6.08008ZM1.90002 4.66016C1.90002 4.01568 2.15603 3.39761 2.61174 2.94189C3.06746 2.48618 3.68554 2.2301 4.33002 2.2301H16.67C17.3145 2.2301 17.9326 2.48618 18.3883 2.94189C18.844 3.39761 19.1 4.01568 19.1 4.66016V6.08008C19.1016 6.39952 19.0396 6.71607 18.9177 7.01135C18.7958 7.30663 18.6164 7.57484 18.39 7.80017L13.76 12.4302C13.2087 12.9794 12.772 13.6324 12.475 14.3517C12.178 15.0709 12.0268 15.842 12.03 16.6201V22.2501C12.0314 22.3931 11.9877 22.5328 11.9051 22.6495C11.8225 22.7662 11.7053 22.8539 11.57 22.9001L9.89001 23.4701C9.78712 23.5053 9.67728 23.5153 9.56972 23.4993C9.46216 23.4832 9.36001 23.4416 9.27185 23.3779C9.18369 23.3143 9.11208 23.2304 9.06304 23.1333C9.01401 23.0362 8.98896 22.9288 8.99002 22.8201V16.6201C8.99324 15.842 8.84199 15.0709 8.54502 14.3517C8.24805 13.6324 7.81128 12.9794 7.26001 12.4302L2.63002 7.80017C2.40358 7.57484 2.22421 7.30663 2.10232 7.01135C1.98043 6.71607 1.91846 6.39952 1.92001 6.08008L1.90002 4.66016Z"/>
</svg>
