<svg width="97" height="97" viewBox="0 0 97 97" xmlns="http://www.w3.org/2000/svg">
<path d="M48.2601 96.8601C38.739 96.8601 29.4316 94.0367 21.515 88.7471C13.5984 83.4574 7.42819 75.9389 3.78459 67.1425C0.140985 58.3461 -0.812361 48.6667 1.04513 39.3284C2.90262 29.9902 7.48751 21.4125 14.22 14.68C20.9525 7.94749 29.5302 3.36259 38.8685 1.50509C48.2067 -0.3524 57.8861 0.600946 66.6825 4.24455C75.4789 7.88815 82.9974 14.0584 88.2871 21.975C93.5768 29.8915 96.4001 39.1989 96.4001 48.7201C96.3843 61.4828 91.3073 73.7181 82.2827 82.7427C73.2582 91.7673 61.0228 96.8442 48.2601 96.8601Z"/>
<path d="M85.0902 49.5999C84.825 49.5999 84.5706 49.4945 84.3831 49.307C84.1956 49.1194 84.0902 48.8651 84.0902 48.5999C84.0902 48.3899 84.0902 48.1899 84.0902 47.9899V47.6899C84.082 47.5536 84.1018 47.4171 84.1484 47.2888C84.195 47.1604 84.2673 47.043 84.361 46.9437C84.4547 46.8444 84.5677 46.7653 84.6931 46.7113C84.8185 46.6573 84.9537 46.6296 85.0902 46.6299C85.3554 46.6299 85.6098 46.7352 85.7973 46.9228C85.9848 47.1103 86.0902 47.3647 86.0902 47.6299V47.9199C86.0902 48.1399 86.0902 48.3499 86.0902 48.5699C86.0942 48.7037 86.0713 48.837 86.0229 48.9618C85.9744 49.0866 85.9014 49.2004 85.8081 49.2964C85.7148 49.3925 85.6032 49.4689 85.4799 49.521C85.3566 49.5731 85.2241 49.5999 85.0902 49.5999Z" fill="white"/>
<path d="M85.0702 50.5299C84.9336 50.5301 84.7985 50.5024 84.6731 50.4485C84.5477 50.3945 84.4346 50.3154 84.3409 50.2161C84.2473 50.1168 84.1749 49.9993 84.1283 49.871C84.0818 49.7427 84.062 49.6062 84.0702 49.4699V49.1699C84.0702 48.9699 84.0702 48.7599 84.0702 48.5499C84.0702 48.2727 84.1802 48.0069 84.3762 47.8109C84.5722 47.615 84.838 47.5049 85.1151 47.5049C85.3923 47.5049 85.6581 47.615 85.8541 47.8109C86.05 48.0069 86.1602 48.2727 86.1602 48.5499C86.1602 48.7699 86.1602 48.9799 86.1602 49.1999V49.4899C86.1665 49.6324 86.1422 49.7747 86.0889 49.9071C86.0357 50.0395 85.9547 50.159 85.8514 50.2575C85.7482 50.3561 85.6251 50.4313 85.4903 50.4783C85.3555 50.5253 85.2123 50.5429 85.0702 50.5299Z" fill="white"/>
<path d="M85.0901 49.5999C84.8249 49.5999 84.5705 49.4945 84.383 49.307C84.1955 49.1194 84.0901 48.8651 84.0901 48.5999C84.0901 48.2999 84.0901 47.9999 84.0901 47.6999C84.0805 47.5628 84.0992 47.4252 84.1452 47.2957C84.1911 47.1661 84.2632 47.0475 84.357 46.9471C84.4509 46.8467 84.5644 46.7667 84.6905 46.7121C84.8167 46.6575 84.9527 46.6295 85.0901 46.6299C85.3553 46.6299 85.6097 46.7352 85.7972 46.9228C85.9848 47.1103 86.0901 47.3647 86.0901 47.6299C86.0901 47.9499 86.0901 48.2832 86.0901 48.6299C86.0823 48.8899 85.9735 49.1366 85.7868 49.3177C85.6001 49.4988 85.3502 49.6 85.0901 49.5999Z" fill="white"/>
<path d="M85.0702 48.67C84.805 48.67 84.5506 48.5647 84.3631 48.3771C84.1756 48.1896 84.0702 47.9353 84.0702 47.67C83.8548 38.8156 80.3546 30.3575 74.2502 23.94C74.1557 23.8409 74.0816 23.7241 74.0322 23.5963C73.9827 23.4685 73.959 23.3323 73.9622 23.1953C73.9655 23.0583 73.9957 22.9233 74.0511 22.798C74.1065 22.6727 74.1861 22.5596 74.2852 22.465C74.3844 22.3705 74.5011 22.2964 74.6289 22.247C74.7567 22.1976 74.893 22.1738 75.03 22.1771C75.1669 22.1803 75.3019 22.2105 75.4272 22.2659C75.5525 22.3213 75.6657 22.4009 75.7602 22.5C82.2212 29.2936 85.9246 38.2474 86.1502 47.62C86.1598 47.7571 86.1411 47.8947 86.0951 48.0242C86.0492 48.1538 85.9771 48.2724 85.8833 48.3728C85.7894 48.4732 85.6759 48.5532 85.5498 48.6078C85.4236 48.6624 85.2876 48.6904 85.1502 48.69L85.0702 48.67Z" fill="white"/>
<path d="M85.0703 50.5301C84.9329 50.5305 84.7969 50.5025 84.6708 50.4479C84.5446 50.3933 84.4311 50.3133 84.3373 50.2129C84.2434 50.1125 84.1713 49.9939 84.1254 49.8643C84.0794 49.7348 84.0607 49.5972 84.0703 49.4601C84.0703 49.1601 84.0703 48.8601 84.0703 48.5601C84.0703 48.283 84.1804 48.0172 84.3764 47.8212C84.5724 47.6252 84.8382 47.5151 85.1153 47.5151C85.3925 47.5151 85.6583 47.6252 85.8542 47.8212C86.0502 48.0172 86.1603 48.283 86.1603 48.5601C86.1603 48.8801 86.1603 49.2135 86.1603 49.5601C86.1568 49.6968 86.1252 49.8313 86.0676 49.9554C86.01 50.0794 85.9276 50.1903 85.8255 50.2812C85.7233 50.3722 85.6036 50.4411 85.4737 50.4839C85.3438 50.5268 85.2065 50.5425 85.0703 50.5301Z" fill="white"/>
<path d="M74.9702 74.9499C74.7933 74.9676 74.6149 74.9378 74.4534 74.8636C74.2918 74.7895 74.153 74.6736 74.0511 74.5279C73.9492 74.3823 73.888 74.2121 73.8738 74.0349C73.8596 73.8577 73.8928 73.6799 73.9702 73.5199C77.0392 65.8304 78.6566 57.6387 78.7401 49.3599C78.7401 49.0946 78.8455 48.8403 79.0331 48.6528C79.2206 48.4652 79.4749 48.3599 79.7401 48.3599C79.8767 48.3596 80.0118 48.3874 80.1372 48.4413C80.2626 48.4953 80.3757 48.5743 80.4694 48.6736C80.5631 48.773 80.6354 48.8904 80.682 49.0187C80.7286 49.1471 80.7483 49.2836 80.7401 49.4199C80.6538 57.9559 78.9856 66.402 75.8202 74.3299C75.7501 74.502 75.6334 74.6512 75.4833 74.7607C75.3331 74.8702 75.1555 74.9357 74.9702 74.9499Z" fill="white"/>
<path d="M74.9703 24.2502C74.8274 24.2527 74.6856 24.2246 74.5545 24.1676C74.4234 24.1107 74.306 24.0263 74.2103 23.9202C71.5577 21.1087 68.4678 18.7449 65.0603 16.9202C64.9395 16.8545 64.8328 16.7657 64.7463 16.6588C64.6598 16.5519 64.5952 16.4291 64.5562 16.2972C64.5172 16.1653 64.5045 16.0271 64.519 15.8903C64.5334 15.7536 64.5746 15.621 64.6403 15.5002C64.706 15.3794 64.7948 15.2727 64.9017 15.1862C65.0085 15.0997 65.1314 15.0351 65.2633 14.9961C65.3951 14.9571 65.5334 14.9445 65.6701 14.9589C65.8069 14.9733 65.9395 15.0146 66.0603 15.0802C69.6628 16.9996 72.9315 19.4883 75.7403 22.4502C75.9056 22.5885 76.0218 22.7764 76.0716 22.9861C76.1214 23.1957 76.1022 23.4158 76.0167 23.6137C75.9313 23.8115 75.7843 23.9765 75.5975 24.084C75.4108 24.1914 75.1943 24.2357 74.9803 24.2102L74.9703 24.2502Z" fill="white"/>
<path d="M65.5503 17.0798C65.3794 17.0823 65.2107 17.041 65.0603 16.9598C62.4032 15.545 59.5773 14.4731 56.6503 13.7698C56.519 13.7376 56.3953 13.6799 56.2863 13.5999C56.1773 13.52 56.0851 13.4193 56.015 13.3037C55.9449 13.1881 55.8982 13.0598 55.8777 12.9261C55.8571 12.7925 55.8631 12.6561 55.8953 12.5248C55.9275 12.3935 55.9852 12.2698 56.0652 12.1608C56.1452 12.0518 56.2458 11.9596 56.3615 11.8895C56.4771 11.8193 56.6054 11.7727 56.739 11.7522C56.8726 11.7316 57.009 11.7376 57.1403 11.7698C60.2382 12.515 63.2288 13.6508 66.0403 15.1498C66.3055 15.2148 66.5341 15.3825 66.6757 15.6159C66.8173 15.8494 66.8603 16.1296 66.7953 16.3948C66.7303 16.66 66.5627 16.8886 66.3292 17.0302C66.0957 17.1717 65.8155 17.2148 65.5503 17.1498V17.0798Z" fill="white"/>
<path d="M65.5502 82.1199C65.3602 82.1346 65.17 82.0948 65.0019 82.0052C64.8338 81.9155 64.6949 81.7796 64.6014 81.6137C64.5079 81.4477 64.4637 81.2584 64.4742 81.0682C64.4846 80.878 64.5491 80.6947 64.6602 80.5399C66.5578 77.3861 68.1709 74.0697 69.4802 70.6299C69.5783 70.3646 69.7778 70.1493 70.0347 70.0311C70.2916 69.913 70.585 69.9017 70.8502 69.9999C71.1154 70.098 71.3308 70.2975 71.4489 70.5544C71.5671 70.8113 71.5783 71.1046 71.4802 71.3699C70.1213 74.9251 68.448 78.352 66.4802 81.6098C66.3886 81.7735 66.2528 81.9081 66.0884 81.9983C65.9239 82.0885 65.7374 82.1306 65.5502 82.1199Z" fill="white"/>
<path d="M56.8999 85.4003C56.696 85.421 56.4906 85.3786 56.3116 85.2787C56.1326 85.1788 55.9886 85.0264 55.8991 84.842C55.8097 84.6575 55.779 84.4501 55.8114 84.2477C55.8437 84.0452 55.9374 83.8576 56.0799 83.7103C57.8611 81.4515 59.469 79.0614 60.89 76.5603C60.9556 76.4414 61.044 76.3367 61.1502 76.252C61.2563 76.1674 61.3781 76.1044 61.5086 76.0668C61.6391 76.0292 61.7756 76.0177 61.9106 76.0329C62.0455 76.048 62.1761 76.0896 62.295 76.1553C62.4138 76.2209 62.5185 76.3094 62.6032 76.4155C62.6879 76.5217 62.7508 76.6434 62.7884 76.7739C62.826 76.9044 62.8376 77.041 62.8224 77.1759C62.8072 77.3108 62.7656 77.4414 62.7 77.5603C61.2226 80.1529 59.5512 82.63 57.7 84.9703C57.61 85.1 57.4906 85.2066 57.3516 85.2814C57.2125 85.3561 57.0578 85.3968 56.8999 85.4003Z" fill="white"/>
<path d="M56.9001 13.8002C56.8204 13.8099 56.7398 13.8099 56.6601 13.8002C54.1468 13.1924 51.5752 12.8571 48.9901 12.8002C48.8536 12.8005 48.7184 12.7728 48.593 12.7188C48.4676 12.6648 48.3546 12.5858 48.2609 12.4865C48.1672 12.3871 48.0949 12.2697 48.0483 12.1414C48.0017 12.013 47.9819 11.8765 47.9901 11.7402C48.0054 11.4696 48.1238 11.2152 48.321 11.0292C48.5181 10.8432 48.779 10.7398 49.0501 10.7402C51.7815 10.7811 54.5006 11.1164 57.1601 11.7402C57.4333 11.7721 57.6826 11.9111 57.8533 12.1268C58.0239 12.3424 58.1019 12.6171 58.0701 12.8902C58.0383 13.1634 57.8992 13.4127 57.6836 13.5834C57.4679 13.7541 57.1933 13.8321 56.9201 13.8002H56.9001Z" fill="white"/>
<path d="M49.0101 86.4103C48.7946 86.4366 48.5764 86.392 48.3885 86.2833C48.2005 86.1746 48.0531 86.0077 47.9684 85.8078C47.8837 85.6079 47.8664 85.3859 47.919 85.1753C47.9716 84.9646 48.0913 84.7769 48.2601 84.6403C49.9887 82.8764 51.5893 80.9917 53.0501 79.0003C53.2132 78.7775 53.4581 78.6286 53.731 78.5865C54.0038 78.5443 54.2823 78.6122 54.5051 78.7753C54.7279 78.9384 54.8767 79.1833 54.9189 79.4562C54.9611 79.7291 54.8932 80.0075 54.7301 80.2303C53.205 82.3033 51.5341 84.2649 49.7301 86.1003C49.6371 86.1978 49.5254 86.2755 49.4017 86.3288C49.278 86.3821 49.1448 86.4098 49.0101 86.4103Z" fill="white"/>
<path d="M41.8601 13.3303C41.5856 13.3541 41.3129 13.268 41.1019 13.0908C40.8909 12.9135 40.759 12.6598 40.7351 12.3853C40.7112 12.1108 40.7974 11.838 40.9746 11.6271C41.1519 11.4161 41.4056 11.2841 41.6801 11.2603C44.1064 10.8378 46.5678 10.6503 49.0301 10.7003C49.1666 10.7 49.3018 10.7277 49.4272 10.7817C49.5526 10.8357 49.6656 10.9147 49.7593 11.014C49.853 11.1134 49.9254 11.2308 49.9719 11.3591C50.0185 11.4875 50.0383 11.624 50.0301 11.7603C50.0124 12.03 49.8933 12.2831 49.6967 12.4686C49.5 12.6541 49.2405 12.7583 48.9701 12.7603C46.6451 12.7115 44.3208 12.889 42.0301 13.2903L41.8601 13.3303Z" fill="white"/>
<path d="M35.5003 15.06C35.3689 15.0837 35.2342 15.0812 35.1039 15.0528C34.9735 15.0244 34.85 14.9706 34.7404 14.8944C34.6309 14.8183 34.5374 14.7213 34.4653 14.609C34.3932 14.4967 34.3439 14.3714 34.3203 14.24C34.2966 14.1087 34.2991 13.974 34.3275 13.8436C34.3559 13.7133 34.4097 13.5898 34.4859 13.4802C34.562 13.3706 34.659 13.2771 34.7713 13.205C34.8836 13.1329 35.009 13.0837 35.1403 13.06C37.2726 12.2736 39.4715 11.6812 41.7103 11.29C41.8455 11.2664 41.9841 11.2696 42.1181 11.2995C42.2521 11.3295 42.3789 11.3855 42.4913 11.4644C42.6037 11.5434 42.6994 11.6436 42.773 11.7596C42.8466 11.8755 42.8966 12.0048 42.9203 12.14C42.9439 12.2753 42.9407 12.4139 42.9108 12.5479C42.8808 12.6819 42.8248 12.8087 42.7459 12.9211C42.6669 13.0334 42.5667 13.1291 42.4507 13.2027C42.3348 13.2763 42.2055 13.3264 42.0703 13.35C39.9539 13.7217 37.8754 14.284 35.8603 15.03C35.7429 15.0608 35.6211 15.0709 35.5003 15.06Z" fill="white"/>
<path d="M41.8699 85.8697C41.6424 85.9028 41.4105 85.8565 41.2131 85.7386C41.0158 85.6207 40.8651 85.4383 40.7864 85.2223C40.7078 85.0063 40.7059 84.7698 40.7813 84.5525C40.8566 84.3353 41.0044 84.1507 41.2 84.0297C42.9015 82.5986 44.4989 81.048 45.98 79.3898C46.0712 79.2873 46.1817 79.2039 46.3053 79.1442C46.4288 79.0844 46.5629 79.0497 46.6998 79.0418C46.8368 79.0339 46.974 79.053 47.1035 79.0982C47.2331 79.1433 47.3525 79.2135 47.4549 79.3047C47.5574 79.396 47.6408 79.5066 47.7005 79.6301C47.7602 79.7536 47.795 79.8877 47.8029 80.0246C47.8108 80.1616 47.7916 80.2988 47.7465 80.4283C47.7014 80.5579 47.6312 80.6773 47.5399 80.7797C45.9908 82.5134 44.3199 84.1342 42.5399 85.6298C42.3536 85.7892 42.1151 85.8746 41.8699 85.8697Z" fill="white"/>
<path d="M29.8501 17.7001C29.7221 17.7343 29.5886 17.7428 29.4572 17.7254C29.3259 17.7079 29.1992 17.6648 29.0845 17.5984C28.9699 17.532 28.8694 17.4437 28.7889 17.3384C28.7083 17.2332 28.6493 17.1132 28.6151 16.9851C28.581 16.8571 28.5724 16.7236 28.5898 16.5922C28.6073 16.4608 28.6505 16.3342 28.7169 16.2195C28.7833 16.1049 28.8716 16.0044 28.9768 15.9238C29.082 15.8433 29.2021 15.7843 29.3301 15.7501C31.1798 14.6816 33.1168 13.7716 35.1201 13.0301C35.3853 12.9346 35.6776 12.9484 35.9327 13.0684C36.1877 13.1885 36.3847 13.4049 36.4801 13.6701C36.5756 13.9353 36.5618 14.2276 36.4418 14.4827C36.3218 14.7377 36.1053 14.9346 35.8401 15.0301C33.9474 15.7306 32.1175 16.5904 30.3701 17.6001C30.2089 17.6796 30.0293 17.7141 29.8501 17.7001Z" fill="white"/>
<path d="M35.5001 84.1401C35.2559 84.1945 35.0001 84.1554 34.7833 84.0304C34.5665 83.9055 34.4045 83.7038 34.3291 83.4652C34.2538 83.2266 34.2706 82.9684 34.3763 82.7416C34.482 82.5148 34.6689 82.3358 34.9001 82.2401C36.5808 81.0666 38.1719 79.7697 39.6601 78.3601C39.8617 78.1705 40.1303 78.0687 40.407 78.0771C40.6836 78.0856 40.9455 78.2036 41.1351 78.4051C41.3248 78.6067 41.4265 78.8753 41.4181 79.1519C41.4097 79.4286 41.2917 79.6905 41.0901 79.8801C39.5268 81.359 37.8555 82.7195 36.0901 83.9501C35.9185 84.0744 35.712 84.1409 35.5001 84.1401Z" fill="white"/>
<path d="M24.97 21.0798C24.7402 21.1153 24.5052 21.0696 24.3054 20.9505C24.1057 20.8315 23.9537 20.6465 23.8755 20.4275C23.7974 20.2085 23.798 19.9691 23.8773 19.7505C23.9566 19.5319 24.1096 19.3478 24.31 19.2298C25.8814 17.9416 27.5534 16.7812 29.31 15.7598C29.55 15.6272 29.8329 15.5954 30.0964 15.6713C30.3599 15.7473 30.5824 15.9248 30.715 16.1648C30.8476 16.4048 30.8794 16.6877 30.8035 16.9512C30.7275 17.2147 30.55 17.4372 30.31 17.5698C28.6449 18.5347 27.0598 19.6315 25.57 20.8498C25.4007 20.9904 25.1898 21.0712 24.97 21.0798Z" fill="white"/>
<path d="M29.8501 81.4902C29.7221 81.5244 29.5886 81.533 29.4572 81.5155C29.3259 81.4981 29.1992 81.4549 29.0845 81.3885C28.9699 81.3221 28.8694 81.2338 28.7889 81.1286C28.7083 81.0233 28.6493 80.9033 28.6151 80.7752C28.581 80.6472 28.5724 80.5137 28.5898 80.3823C28.6073 80.251 28.6505 80.1243 28.7169 80.0097C28.7833 79.895 28.8716 79.7945 28.9768 79.714C29.082 79.6334 29.2021 79.5744 29.3301 79.5402C30.9952 78.5754 32.5803 77.4785 34.0701 76.2602C34.1765 76.1736 34.2989 76.1087 34.4303 76.0693C34.5618 76.03 34.6997 76.0169 34.8362 76.0308C34.9727 76.0447 35.1051 76.0854 35.2259 76.1505C35.3467 76.2156 35.4535 76.3039 35.5401 76.4102C35.6268 76.5166 35.6917 76.639 35.7311 76.7704C35.7704 76.9019 35.7835 77.0398 35.7696 77.1763C35.7556 77.3128 35.715 77.4452 35.6498 77.566C35.5847 77.6868 35.4965 77.7936 35.3901 77.8802C33.8189 79.1687 32.1469 80.3291 30.3901 81.3502C30.2271 81.4472 30.0398 81.4957 29.8501 81.4902Z" fill="white"/>
<path d="M24.9702 78.1201C24.705 78.1798 24.4269 78.1317 24.1972 77.9864C23.9675 77.841 23.8049 77.6104 23.7452 77.3452C23.6855 77.0799 23.7337 76.8019 23.879 76.5721C24.0243 76.3424 24.255 76.1798 24.5202 76.1201C26.174 75.3335 27.7537 74.3997 29.2402 73.3301C29.4617 73.163 29.7404 73.0908 30.0152 73.1292C30.2899 73.1677 30.5381 73.3137 30.7052 73.5352C30.8723 73.7566 30.9446 74.0354 30.9061 74.3101C30.8677 74.5849 30.7217 74.8331 30.5002 75.0001C28.9264 76.1473 27.253 77.1513 25.5002 78.0001C25.338 78.0883 25.1546 78.1298 24.9702 78.1201Z" fill="white"/>
<path d="M20.8403 24.9997C20.6292 25.0241 20.4158 24.9806 20.2311 24.8755C20.0464 24.7704 19.9 24.6093 19.8131 24.4154C19.7262 24.2214 19.7033 24.0049 19.7477 23.7971C19.7922 23.5893 19.9017 23.4011 20.0603 23.2597C21.3707 21.7993 22.7916 20.442 24.3103 19.1997C24.4167 19.113 24.5391 19.0481 24.6705 19.0088C24.802 18.9694 24.9399 18.9563 25.0764 18.9702C25.2129 18.9842 25.3453 19.0249 25.4661 19.09C25.5868 19.1551 25.6936 19.2433 25.7803 19.3497C25.867 19.4561 25.9319 19.5785 25.9712 19.7099C26.0106 19.8414 26.0237 19.9793 26.0098 20.1158C25.9958 20.2523 25.9552 20.3847 25.89 20.5055C25.8249 20.6262 25.7367 20.733 25.6303 20.8197C24.2006 21.9954 22.8634 23.2792 21.6303 24.6597C21.5322 24.7716 21.4104 24.8601 21.2737 24.919C21.137 24.9778 20.989 25.0054 20.8403 24.9997Z" fill="white"/>
<path d="M20.8402 74.1701C20.5749 74.2192 20.3011 74.1609 20.0789 74.008C19.8566 73.8552 19.7042 73.6203 19.6552 73.3551C19.6061 73.0899 19.6644 72.8161 19.8172 72.5938C19.9701 72.3716 20.2049 72.2192 20.4702 72.1701C22.1122 71.5424 23.684 70.7447 25.1602 69.7901C25.2751 69.7159 25.4034 69.6651 25.538 69.6405C25.6726 69.6159 25.8107 69.6181 25.9444 69.6469C26.0781 69.6756 26.2048 69.7305 26.3173 69.8083C26.4298 69.886 26.526 69.9852 26.6002 70.1001C26.6744 70.215 26.7252 70.3434 26.7498 70.4779C26.7743 70.6125 26.7722 70.7506 26.7434 70.8843C26.7146 71.018 26.6598 71.1448 26.582 71.2573C26.5042 71.3698 26.4051 71.4659 26.2902 71.5401C24.6914 72.5749 22.9888 73.4396 21.2101 74.1201C21.091 74.1598 20.9655 74.1768 20.8402 74.1701Z" fill="white"/>
<path d="M17.4501 29.4301C17.255 29.4474 17.0592 29.4071 16.8868 29.3141C16.7145 29.2212 16.5732 29.0797 16.4806 28.9071C16.3879 28.7346 16.348 28.5387 16.3657 28.3437C16.3834 28.1486 16.4579 27.9631 16.5801 27.8101C17.6253 26.2153 18.7886 24.7011 20.0601 23.2801C20.2444 23.0745 20.5029 22.9506 20.7785 22.9356C21.0542 22.9206 21.3245 23.0157 21.5301 23.2001C21.7356 23.3844 21.8595 23.6428 21.8745 23.9185C21.8895 24.1942 21.7944 24.4645 21.6101 24.6701C20.4085 26.0129 19.3088 27.4436 18.3201 28.9501C18.2295 29.099 18.1015 29.2216 17.9489 29.3058C17.7963 29.39 17.6244 29.4328 17.4501 29.4301Z" fill="white"/>
<path d="M17.4503 69.7703C17.1851 69.8101 16.9149 69.7429 16.6992 69.5835C16.4835 69.4241 16.34 69.1856 16.3003 68.9204C16.2605 68.6551 16.3277 68.385 16.4871 68.1693C16.6465 67.9536 16.885 67.8101 17.1503 67.7703C18.778 67.2877 20.3374 66.5988 21.7903 65.7204C21.9072 65.6494 22.0368 65.6022 22.172 65.5814C22.3071 65.5606 22.445 65.5667 22.5778 65.5992C22.7105 65.6317 22.8356 65.69 22.9459 65.7709C23.0561 65.8517 23.1494 65.9535 23.2203 66.0704C23.2912 66.1872 23.3384 66.3169 23.3592 66.452C23.3799 66.5872 23.3739 66.725 23.3414 66.8578C23.3089 66.9906 23.2506 67.1157 23.1698 67.226C23.0889 67.3362 22.9871 67.4294 22.8703 67.5004C21.2641 68.4728 19.5401 69.2357 17.7403 69.7703C17.6441 69.7844 17.5464 69.7844 17.4503 69.7703Z" fill="white"/>
<path d="M14.8101 34.18C14.6304 34.1934 14.4505 34.158 14.2893 34.0775C14.1281 33.997 13.9916 33.8745 13.8943 33.7229C13.797 33.5713 13.7424 33.3962 13.7364 33.2162C13.7304 33.0361 13.7731 32.8578 13.8601 32.7C14.6426 31.0091 15.5484 29.378 16.5701 27.82C16.645 27.7051 16.7417 27.606 16.8548 27.5285C16.968 27.451 17.0953 27.3965 17.2294 27.3682C17.3636 27.3399 17.502 27.3383 17.6369 27.3635C17.7717 27.3886 17.9002 27.4401 18.0151 27.515C18.13 27.5898 18.229 27.6866 18.3066 27.7997C18.3841 27.9128 18.4385 28.0401 18.4669 28.1743C18.4952 28.3085 18.4968 28.4469 18.4716 28.5817C18.4464 28.7165 18.395 28.8451 18.3201 28.96C17.3546 30.4351 16.499 31.9793 15.7601 33.58C15.6801 33.7637 15.5467 33.919 15.3773 34.026C15.2079 34.133 15.0103 34.1866 14.8101 34.18Z" fill="white"/>
<path d="M14.8102 64.9999C14.537 65.0291 14.2634 64.9485 14.0496 64.776C13.8358 64.6035 13.6993 64.3531 13.6702 64.0799C13.641 63.8067 13.7215 63.5331 13.894 63.3194C14.0666 63.1056 14.317 62.9691 14.5902 62.9399C16.2031 62.5884 17.7449 61.9663 19.1501 61.0999C19.3862 60.9554 19.67 60.9105 19.9391 60.9752C20.2082 61.0399 20.4406 61.2089 20.5851 61.4449C20.7297 61.6809 20.7745 61.9647 20.7098 62.2338C20.6451 62.503 20.4762 62.7354 20.2401 62.8799C18.6343 63.8687 16.8728 64.5787 15.0302 64.9799L14.8102 64.9999Z" fill="white"/>
<path d="M12.93 39.1897C12.8306 39.2041 12.7295 39.2041 12.63 39.1897C12.4944 39.157 12.3672 39.0963 12.2565 39.0114C12.1457 38.9265 12.054 38.8194 11.9871 38.697C11.9202 38.5746 11.8797 38.4395 11.8682 38.3005C11.8566 38.1614 11.8743 38.0215 11.9201 37.8898C12.4375 36.1285 13.0826 34.4073 13.8501 32.7397C13.9072 32.615 13.9883 32.5027 14.0888 32.4093C14.1893 32.3159 14.3073 32.2432 14.4359 32.1954C14.5645 32.1476 14.7013 32.1256 14.8384 32.1306C14.9755 32.1356 15.1103 32.1676 15.235 32.2247C15.3598 32.2819 15.4721 32.363 15.5655 32.4635C15.6589 32.564 15.7316 32.682 15.7794 32.8106C15.8272 32.9392 15.8492 33.076 15.8442 33.2131C15.8392 33.3502 15.8072 33.485 15.75 33.6097C15.0228 35.1832 14.4112 36.8075 13.9201 38.4697C13.8581 38.6825 13.7273 38.8686 13.5481 38.9989C13.3689 39.1292 13.1515 39.1964 12.93 39.1897Z" fill="white"/>
<path d="M11.8101 44.3599H11.6601C11.5216 44.347 11.3873 44.3053 11.2658 44.2376C11.1443 44.1698 11.0383 44.0775 10.9546 43.9664C10.8708 43.8554 10.8111 43.728 10.7794 43.5926C10.7476 43.4572 10.7444 43.3166 10.7701 43.1799C11.0253 41.3813 11.4096 39.6033 11.9201 37.8599C11.9588 37.7286 12.023 37.6062 12.1091 37.4997C12.1951 37.3932 12.3013 37.3047 12.4215 37.2392C12.5418 37.1737 12.6738 37.1326 12.8099 37.1181C12.9461 37.1037 13.0837 37.1162 13.2151 37.1549C13.3464 37.1937 13.4688 37.2579 13.5753 37.3439C13.6818 37.43 13.7703 37.5362 13.8358 37.6564C13.9012 37.7767 13.9424 37.9086 13.9568 38.0448C13.9713 38.1809 13.9588 38.3186 13.9201 38.4499C13.4376 40.0884 13.0733 41.7593 12.8301 43.4499C12.8073 43.7027 12.6892 43.9374 12.4998 44.1064C12.3104 44.2754 12.0638 44.366 11.8101 44.3599Z" fill="white"/>
<path d="M12.9302 60C12.6544 60.0199 12.3819 59.9294 12.1728 59.7485C11.9637 59.5675 11.8351 59.3109 11.8152 59.035C11.7953 58.7592 11.8858 58.4868 12.0668 58.2777C12.2478 58.0686 12.5044 57.9399 12.7802 57.9201C14.381 57.69 15.896 57.0531 17.1802 56.07C17.2892 55.9867 17.4135 55.9255 17.5462 55.8902C17.6788 55.8549 17.817 55.846 17.9531 55.8641C18.0891 55.8822 18.2203 55.9269 18.339 55.9957C18.4578 56.0645 18.5618 56.1561 18.6452 56.2651C18.7286 56.3741 18.7897 56.4984 18.825 56.631C18.8604 56.7636 18.8692 56.9019 18.8511 57.0379C18.833 57.174 18.7883 57.3051 18.7195 57.4239C18.6507 57.5426 18.5592 57.6467 18.4502 57.7301C16.883 58.9303 15.034 59.7084 13.0802 59.99L12.9302 60Z" fill="white"/>
<path d="M11.81 54.8399C11.5613 54.8411 11.321 54.7496 11.1361 54.5832C10.9512 54.4168 10.8349 54.1874 10.81 53.9399C10.299 50.3647 10.299 46.735 10.81 43.1599C10.8291 43.024 10.8747 42.8931 10.9443 42.7748C11.0139 42.6566 11.1061 42.5531 11.2157 42.4705C11.3253 42.3878 11.4501 42.3276 11.5829 42.2932C11.7158 42.2588 11.8541 42.2508 11.99 42.2699C12.126 42.2889 12.2568 42.3345 12.3751 42.4041C12.4934 42.4738 12.5968 42.566 12.6794 42.6756C12.7621 42.7851 12.8223 42.9099 12.8567 43.0428C12.8912 43.1756 12.8991 43.314 12.8801 43.4499C12.3969 46.8294 12.3969 50.2604 12.8801 53.6399C12.9057 53.7766 12.9025 53.9172 12.8707 54.0526C12.839 54.188 12.7793 54.3153 12.6955 54.4264C12.6118 54.5374 12.5058 54.6298 12.3843 54.6975C12.2628 54.7653 12.1285 54.807 11.99 54.8199L11.81 54.8399Z" fill="white"/>
<path d="M79.8101 48.7799C79.5449 48.7799 79.2906 48.6746 79.103 48.487C78.9155 48.2995 78.8101 48.0451 78.8101 47.7799C78.6224 39.8993 75.377 32.4007 69.7601 26.8699C69.663 26.7734 69.5857 26.6587 69.5329 26.5323C69.4801 26.4059 69.4526 26.2704 69.4522 26.1334C69.4517 25.9965 69.4782 25.8607 69.5302 25.734C69.5822 25.6073 69.6586 25.4921 69.7551 25.3949C69.8517 25.2977 69.9664 25.2205 70.0927 25.1677C70.2191 25.1148 70.3546 25.0874 70.4916 25.0869C70.6285 25.0865 70.7643 25.113 70.891 25.165C71.0177 25.2169 71.133 25.2934 71.2301 25.3899C77.2321 31.2984 80.7 39.3101 80.9001 47.7299C80.9097 47.867 80.891 48.0046 80.8451 48.1341C80.7991 48.2636 80.727 48.3823 80.6332 48.4827C80.5393 48.5831 80.4258 48.6631 80.2997 48.7177C80.1736 48.7722 80.0375 48.8002 79.9001 48.7999L79.8101 48.7799Z" fill="white"/>
<path d="M79.8101 50.4099C79.6726 50.4102 79.5366 50.3822 79.4105 50.3276C79.2844 50.2731 79.1708 50.1931 79.077 50.0927C78.9832 49.9923 78.9111 49.8736 78.8651 49.7441C78.8192 49.6146 78.8004 49.477 78.8101 49.3399C78.8101 49.0799 78.8101 48.8199 78.8101 48.5499C78.8101 48.2727 78.9202 48.0069 79.1161 47.8109C79.3121 47.615 79.5779 47.5049 79.8551 47.5049C80.1322 47.5049 80.398 47.615 80.594 47.8109C80.79 48.0069 80.9001 48.2727 80.9001 48.5499C80.9001 48.8299 80.9001 49.1099 80.9001 49.3899C80.9035 49.5308 80.877 49.6709 80.8225 49.8008C80.768 49.9308 80.6866 50.0478 80.5836 50.1441C80.4807 50.2405 80.3586 50.3139 80.2253 50.3597C80.0919 50.4055 79.9505 50.4226 79.8101 50.4099Z" fill="white"/>
<path d="M79.8203 49.6003C79.5551 49.6003 79.3007 49.4949 79.1132 49.3073C78.9257 49.1198 78.8203 48.8655 78.8203 48.6003C78.8203 48.3336 78.8203 48.0702 78.8203 47.8102C78.8107 47.6732 78.8294 47.5356 78.8754 47.406C78.9213 47.2765 78.9934 47.1578 79.0873 47.0574C79.1811 46.957 79.2946 46.8771 79.4208 46.8225C79.5469 46.7679 79.6829 46.7399 79.8203 46.7402C80.0855 46.7402 80.3399 46.8456 80.5274 47.0331C80.715 47.2207 80.8203 47.475 80.8203 47.7402C80.8203 48.0202 80.8203 48.3002 80.8203 48.5802C80.823 48.7132 80.7991 48.8454 80.75 48.9691C80.7009 49.0927 80.6277 49.2053 80.5346 49.3003C80.4415 49.3953 80.3303 49.4707 80.2077 49.5223C80.085 49.5738 79.9533 49.6003 79.8203 49.6003Z" fill="white"/>
<path d="M70.5001 27.16C70.3645 27.1621 70.2298 27.1366 70.1043 27.085C69.9788 27.0335 69.8651 26.9569 69.7701 26.86C67.331 24.4427 64.5013 22.4548 61.4001 20.98C61.1495 20.8606 60.9566 20.6466 60.8637 20.385C60.7709 20.1234 60.7858 19.8356 60.9051 19.585C61.0245 19.3343 61.2385 19.1414 61.5001 19.0485C61.7617 18.9557 62.0495 18.9706 62.3001 19.09C65.6124 20.6652 68.6349 22.7883 71.2401 25.37C71.4162 25.5028 71.5434 25.6902 71.6019 25.9028C71.6604 26.1155 71.647 26.3415 71.5637 26.5457C71.4804 26.75 71.3319 26.9209 71.1414 27.032C70.9508 27.1431 70.7289 27.1881 70.5102 27.16H70.5001Z" fill="white"/>
<path d="M70.5001 71.9999C70.3259 72.0156 70.1506 71.9853 69.9917 71.9121C69.8328 71.8388 69.6959 71.7252 69.5947 71.5825C69.4935 71.4398 69.4315 71.273 69.4149 71.0988C69.3983 70.9247 69.4277 70.7492 69.5001 70.5899C72.0887 63.7493 73.443 56.5037 73.5001 49.1899C73.5001 48.9247 73.6055 48.6704 73.7931 48.4828C73.9806 48.2953 74.2349 48.1899 74.5001 48.1899C74.6358 48.1898 74.77 48.2172 74.8947 48.2705C75.0194 48.3239 75.132 48.4021 75.2255 48.5003C75.3191 48.5985 75.3917 48.7147 75.4389 48.8419C75.4861 48.969 75.5069 49.1045 75.5001 49.2399C75.4298 56.8019 74.0179 64.2914 71.3301 71.3599C71.2645 71.5329 71.1522 71.6844 71.0057 71.7974C70.8592 71.9104 70.6842 71.9805 70.5001 71.9999Z" fill="white"/>
<path d="M61.7901 21.0797C61.6344 21.0819 61.4802 21.0476 61.3401 20.9797C58.9138 19.8244 56.3446 18.9972 53.7001 18.5197C53.4283 18.4706 53.187 18.3156 53.0295 18.0887C52.8719 17.8617 52.811 17.5815 52.8601 17.3097C52.9091 17.0378 53.0642 16.7966 53.2911 16.6391C53.518 16.4816 53.7982 16.4206 54.0701 16.4697C56.8946 16.9809 59.6386 17.8653 62.2301 19.0997C62.4953 19.1594 62.726 19.3219 62.8713 19.5517C63.0166 19.7814 63.0648 20.0595 63.0051 20.3247C62.9454 20.5899 62.7828 20.8206 62.5531 20.9659C62.3234 21.1112 62.0453 21.1594 61.7801 21.0997L61.7901 21.0797Z" fill="white"/>
<path d="M61.79 78.1202C61.6016 78.136 61.4126 78.0982 61.2448 78.011C61.0771 77.9238 60.9375 77.7909 60.8423 77.6276C60.747 77.4643 60.7 77.2774 60.7067 77.0884C60.7133 76.8995 60.7734 76.7163 60.88 76.5602C62.4897 73.7228 63.8514 70.7518 64.95 67.6802C65.0428 67.415 65.2372 67.1975 65.4903 67.0756C65.7435 66.9537 66.0347 66.9374 66.2999 67.0302C66.5652 67.123 66.7827 67.3174 66.9046 67.5706C67.0265 67.8237 67.0428 68.115 66.95 68.3802C65.8107 71.5658 64.3988 74.6472 62.73 77.5902C62.6404 77.7592 62.5042 77.8989 62.3376 77.9929C62.171 78.0868 61.9809 78.131 61.79 78.1202Z" fill="white"/>
<path d="M53.8901 18.54H53.7001C51.9016 18.215 50.0777 18.051 48.2501 18.05C47.7801 18.05 47.3001 18.05 46.7901 18.05C46.5139 18.0582 46.2454 17.9583 46.0418 17.7715C45.8382 17.5847 45.7156 17.3258 45.7001 17.05C45.6876 16.9113 45.7041 16.7715 45.7487 16.6396C45.7934 16.5077 45.865 16.3865 45.9592 16.2839C46.0533 16.1813 46.1678 16.0995 46.2954 16.0437C46.423 15.9879 46.5609 15.9594 46.7001 15.96C47.2401 15.96 47.7501 15.96 48.2501 15.96C50.2017 15.9603 52.1494 16.1344 54.0701 16.48C54.3446 16.5038 54.5984 16.6358 54.7756 16.8467C54.9528 17.0577 55.039 17.3305 55.0151 17.605C54.9912 17.8795 54.8593 18.1332 54.6483 18.3105C54.4373 18.4877 54.1646 18.5738 53.8901 18.55V18.54Z" fill="white"/>
<path d="M53.8902 80.66C53.6904 80.6785 53.4896 80.6366 53.3139 80.5395C53.1383 80.4425 52.9959 80.2948 52.9053 80.1158C52.8147 79.9367 52.7801 79.7346 52.8059 79.5356C52.8317 79.3366 52.9168 79.15 53.0501 79C54.5627 76.9334 55.9198 74.7575 57.1101 72.49C57.2427 72.2446 57.4674 72.062 57.7346 71.9823C58.0018 71.9026 58.2898 71.9324 58.5351 72.065C58.7805 72.1976 58.9631 72.4222 59.0428 72.6895C59.1225 72.9567 59.0927 73.2446 58.9601 73.49C57.7198 75.8483 56.3059 78.1112 54.7301 80.26C54.633 80.3897 54.5058 80.4939 54.3595 80.5636C54.2132 80.6333 54.0521 80.6664 53.8902 80.66Z" fill="white"/>
<path d="M46.75 81.1199C46.5389 81.1443 46.3255 81.1008 46.1408 80.9957C45.9561 80.8907 45.8097 80.7295 45.7227 80.5356C45.6358 80.3417 45.6129 80.1251 45.6574 79.9173C45.7018 79.7095 45.8113 79.5213 45.97 79.3799C47.4253 77.7298 48.762 75.9788 49.97 74.1399C50.0461 74.0257 50.1441 73.9276 50.2582 73.8511C50.3722 73.7747 50.5003 73.7216 50.6349 73.6946C50.7696 73.6677 50.9082 73.6675 51.0429 73.6942C51.1776 73.7208 51.3057 73.7738 51.42 73.8499C51.5342 73.9261 51.6323 74.024 51.7088 74.1381C51.7852 74.2522 51.8383 74.3802 51.8653 74.5149C51.8922 74.6495 51.8923 74.7881 51.8657 74.9228C51.8391 75.0575 51.7861 75.1857 51.71 75.2999C50.4312 77.2211 49.0177 79.049 47.48 80.7699C47.3894 80.8759 47.2777 80.9618 47.152 81.0221C47.0263 81.0824 46.8893 81.1157 46.75 81.1199Z" fill="white"/>
<path d="M40.36 18.9997C40.2254 19.0168 40.0888 19.0072 39.9579 18.9714C39.827 18.9357 39.7044 18.8745 39.5971 18.7914C39.3805 18.6236 39.2395 18.3765 39.205 18.1047C39.1705 17.8328 39.2455 17.5584 39.4133 17.3418C39.5811 17.1252 39.8282 16.9842 40.1 16.9497C42.2602 16.3922 44.4717 16.0571 46.7 15.9497C46.9762 15.9414 47.2447 16.0413 47.4483 16.2281C47.6519 16.4149 47.7745 16.6738 47.79 16.9497C47.8025 17.0884 47.786 17.2282 47.7414 17.3601C47.6968 17.492 47.6251 17.6131 47.5309 17.7157C47.4368 17.8183 47.3223 17.9002 47.1947 17.9559C47.0671 18.0117 46.9293 18.0403 46.79 18.0397C44.7037 18.138 42.6329 18.4496 40.61 18.9697C40.5283 18.9902 40.4443 19.0003 40.36 18.9997Z" fill="white"/>
<path d="M34.73 21.0801C34.4648 21.1397 34.1867 21.0916 33.957 20.9463C33.7272 20.8009 33.5647 20.5703 33.505 20.305C33.4453 20.0398 33.4934 19.7618 33.6388 19.532C33.7841 19.3023 34.0148 19.1397 34.28 19.0801C36.1495 18.2033 38.0983 17.5068 40.1 17C40.3652 16.9311 40.647 16.9703 40.8833 17.1091C41.1195 17.2479 41.291 17.4748 41.36 17.7401C41.4289 18.0053 41.3897 18.287 41.2509 18.5233C41.1121 18.7596 40.8852 18.9311 40.62 19C38.7437 19.4914 36.9187 20.1612 35.17 21C35.0312 21.0596 34.8808 21.0869 34.73 21.0801Z" fill="white"/>
<path d="M40.3601 80.1701C40.1396 80.1994 39.9156 80.1543 39.7236 80.0421C39.5315 79.9298 39.3824 79.7567 39.2998 79.5502C39.2172 79.3436 39.2058 79.1155 39.2674 78.9017C39.3291 78.688 39.4602 78.5009 39.6401 78.37C41.0782 76.995 42.415 75.5179 43.6401 73.9501C43.7248 73.8424 43.8299 73.7524 43.9493 73.6853C44.0688 73.6183 44.2003 73.5754 44.3363 73.5591C44.4724 73.5429 44.6103 73.5536 44.7422 73.5906C44.8741 73.6277 44.9974 73.6903 45.1051 73.775C45.2128 73.8597 45.3027 73.9648 45.3698 74.0843C45.4368 74.2038 45.4797 74.3353 45.496 74.4713C45.5122 74.6073 45.5015 74.7452 45.4645 74.8771C45.4275 75.009 45.3648 75.1323 45.2801 75.24C43.9805 76.887 42.5635 78.4377 41.0401 79.88C40.8588 80.06 40.6155 80.1638 40.3601 80.1701Z" fill="white"/>
<path d="M29.8503 24C29.6101 24.0471 29.361 24.0045 29.1501 23.8803C28.9392 23.756 28.7812 23.5588 28.7061 23.3258C28.6309 23.0929 28.6437 22.8405 28.7422 22.6164C28.8407 22.3923 29.0179 22.2121 29.2403 22.11C30.8143 20.9631 32.4876 19.9591 34.2403 19.11C34.3644 19.0509 34.4989 19.0168 34.6362 19.0097C34.7735 19.0026 34.9108 19.0226 35.0403 19.0686C35.1699 19.1145 35.2891 19.1856 35.3912 19.2776C35.4933 19.3696 35.5762 19.4809 35.6353 19.605C35.6944 19.7291 35.7285 19.8636 35.7356 20.0009C35.7427 20.1381 35.7227 20.2755 35.6767 20.405C35.6308 20.5345 35.5597 20.6538 35.4677 20.7558C35.3756 20.8579 35.2644 20.9409 35.1403 21C33.4866 21.7867 31.9069 22.7205 30.4203 23.79C30.2567 23.9174 30.0575 23.9908 29.8503 24Z" fill="white"/>
<path d="M34.7303 78.12C34.5004 78.1555 34.2654 78.1098 34.0657 77.9907C33.8659 77.8717 33.7139 77.6867 33.6358 77.4677C33.5576 77.2487 33.5583 77.0093 33.6376 76.7907C33.7169 76.5721 33.8699 76.388 34.0703 76.27C35.5 75.0943 36.8373 73.8105 38.0703 72.43C38.1615 72.3282 38.2719 72.2454 38.3952 72.1863C38.5185 72.1272 38.6522 72.093 38.7887 72.0855C38.9252 72.0781 39.0618 72.0976 39.1908 72.143C39.3197 72.1884 39.4385 72.2587 39.5403 72.35C39.642 72.4413 39.7248 72.5517 39.7839 72.6749C39.843 72.7982 39.8773 72.9319 39.8847 73.0684C39.8921 73.2049 39.8726 73.3415 39.8272 73.4705C39.7818 73.5995 39.7115 73.7182 39.6202 73.82C38.3099 75.2804 36.889 76.6377 35.3702 77.88C35.1917 78.0327 34.9652 78.1176 34.7303 78.12Z" fill="white"/>
<path d="M29.8503 75.24C29.6101 75.2871 29.361 75.2445 29.1501 75.1203C28.9392 74.9961 28.7812 74.7988 28.7061 74.5658C28.6309 74.3329 28.6437 74.0805 28.7422 73.8564C28.8407 73.6323 29.0179 73.4521 29.2403 73.35C30.6692 72.323 32.0074 71.1755 33.2403 69.92C33.3362 69.8221 33.4504 69.7441 33.5764 69.6904C33.7024 69.6367 33.8377 69.6084 33.9747 69.607C34.1117 69.6056 34.2476 69.6312 34.3746 69.6823C34.5017 69.7334 34.6175 69.8091 34.7153 69.905C34.8131 70.0008 34.8911 70.115 34.9448 70.241C34.9985 70.367 35.0269 70.5024 35.0283 70.6394C35.0297 70.7763 35.0041 70.9122 34.9529 71.0393C34.9018 71.1664 34.8262 71.2821 34.7303 71.38C33.4254 72.7042 32.0103 73.9152 30.5003 75C30.3192 75.1549 30.0887 75.24 29.8503 75.24Z" fill="white"/>
<path d="M25.72 27.51C25.5045 27.5362 25.2863 27.4916 25.0984 27.383C24.9105 27.2743 24.7631 27.1074 24.6784 26.9075C24.5937 26.7076 24.5763 26.4856 24.6289 26.2749C24.6816 26.0643 24.8013 25.8766 24.97 25.74C26.2862 24.4002 27.7147 23.1757 29.24 22.08C29.4641 21.9182 29.7433 21.8521 30.0162 21.8962C30.2891 21.9402 30.5333 22.0909 30.695 22.315C30.8568 22.5391 30.9229 22.8183 30.8789 23.0912C30.8348 23.364 30.6841 23.6082 30.46 23.77C29.0312 24.797 27.6929 25.9445 26.46 27.2C26.3648 27.2999 26.2499 27.3791 26.1225 27.4325C25.9951 27.4858 25.8581 27.5122 25.72 27.51Z" fill="white"/>
<path d="M22.3302 31.5898C22.1436 31.5941 21.9596 31.546 21.7989 31.4511C21.6382 31.3563 21.5072 31.2183 21.4209 31.0528C21.3345 30.8874 21.2962 30.7011 21.3102 30.515C21.3242 30.3289 21.39 30.1505 21.5002 29.9998C22.5439 28.4984 23.7113 27.0868 24.9902 25.7798C25.086 25.682 25.2002 25.604 25.3262 25.5503C25.4523 25.4966 25.5876 25.4682 25.7246 25.4669C25.8615 25.4655 25.9974 25.4911 26.1245 25.5422C26.2516 25.5933 26.3673 25.669 26.4652 25.7648C26.563 25.8607 26.641 25.9749 26.6947 26.1009C26.7484 26.2269 26.7768 26.3623 26.7782 26.4992C26.7795 26.6362 26.7539 26.7721 26.7028 26.8992C26.6517 27.0263 26.576 27.142 26.4802 27.2398C25.2801 28.4793 24.1862 29.8173 23.2102 31.2398C23.1038 31.3664 22.9678 31.4645 22.8142 31.5256C22.6607 31.5867 22.4943 31.6088 22.3302 31.5898Z" fill="white"/>
<path d="M25.72 71.69C25.4654 71.7656 25.1912 71.737 24.9577 71.6104C24.7242 71.4838 24.5506 71.2696 24.475 71.015C24.3994 70.7604 24.4281 70.4862 24.5547 70.2527C24.6812 70.0193 24.8954 69.8456 25.15 69.77C26.5867 68.8469 27.9268 67.7816 29.15 66.59C29.3476 66.3964 29.614 66.2892 29.8906 66.292C30.1672 66.2949 30.4314 66.4074 30.625 66.605C30.8186 66.8026 30.9258 67.069 30.923 67.3456C30.9202 67.6223 30.8076 67.8864 30.61 68.08C29.2982 69.3668 27.8611 70.5192 26.32 71.52C26.1432 71.6392 25.933 71.6988 25.72 71.69Z" fill="white"/>
<path d="M19.7 36.1499C19.5198 36.1625 19.3394 36.1259 19.1782 36.0442C19.0171 35.9625 18.881 35.8387 18.7846 35.6859C18.6882 35.533 18.635 35.3569 18.6307 35.1763C18.6263 34.9956 18.671 34.8172 18.76 34.6599C19.5432 33.0336 20.4597 31.4749 21.5 29.9999C21.5781 29.8876 21.6776 29.7918 21.7928 29.718C21.908 29.6441 22.0365 29.5937 22.1712 29.5696C22.3058 29.5454 22.4439 29.548 22.5775 29.5773C22.7112 29.6065 22.8377 29.6617 22.95 29.7399C23.0623 29.818 23.1581 29.9175 23.2319 30.0326C23.3057 30.1478 23.3562 30.2764 23.3803 30.411C23.4045 30.5457 23.4019 30.6838 23.3726 30.8174C23.3434 30.951 23.2881 31.0776 23.21 31.1899C22.2389 32.5865 21.386 34.0616 20.66 35.5999C20.5719 35.7759 20.4338 35.9219 20.263 36.0197C20.0922 36.1176 19.8964 36.1628 19.7 36.1499Z" fill="white"/>
<path d="M22.3401 67.6001C22.2127 67.6355 22.0796 67.6456 21.9483 67.6296C21.8171 67.6136 21.6903 67.5719 21.5751 67.5069C21.46 67.4419 21.3588 67.3548 21.2773 67.2507C21.1958 67.1466 21.1356 67.0275 21.1001 66.9001C21.0646 66.7727 21.0546 66.6396 21.0706 66.5083C21.0866 66.3771 21.1283 66.2503 21.1933 66.1351C21.2583 66.02 21.3453 65.9187 21.4494 65.8372C21.5536 65.7557 21.6727 65.6955 21.8001 65.6601C23.2317 64.7876 24.5486 63.7394 25.7201 62.5401C25.9137 62.3425 26.1779 62.2299 26.4545 62.2271C26.7311 62.2243 26.9975 62.3315 27.1951 62.5251C27.3927 62.7187 27.5053 62.9829 27.5081 63.2595C27.5109 63.5361 27.4037 63.8025 27.2101 64.0001C25.9157 65.3227 24.4611 66.4783 22.8801 67.4401C22.7191 67.5441 22.5317 67.5996 22.3401 67.6001Z" fill="white"/>
<path d="M19.7003 62.9997C19.5736 63.0358 19.441 63.0466 19.3101 63.0315C19.1792 63.0164 19.0525 62.9756 18.9374 62.9115C18.8223 62.8475 18.7209 62.7613 18.639 62.6581C18.5571 62.5548 18.4964 62.4365 18.4603 62.3097C18.4242 62.183 18.4134 62.0504 18.4285 61.9195C18.4436 61.7886 18.4844 61.662 18.5485 61.5468C18.6126 61.4317 18.6987 61.3303 18.8019 61.2484C18.9052 61.1666 19.0236 61.1059 19.1503 61.0697C20.6292 60.1589 21.9359 58.9944 23.0103 57.6297C23.095 57.5221 23.2001 57.4321 23.3195 57.365C23.439 57.298 23.5705 57.2551 23.7066 57.2388C23.8426 57.2226 23.9805 57.2333 24.1124 57.2703C24.2443 57.3074 24.3676 57.37 24.4753 57.4547C24.583 57.5394 24.6729 57.6445 24.74 57.764C24.8071 57.8834 24.8499 58.0149 24.8662 58.151C24.8824 58.287 24.8718 58.4249 24.8347 58.5568C24.7977 58.6887 24.735 58.8121 24.6503 58.9197C23.4254 60.4749 21.936 61.8018 20.2503 62.8397C20.0865 62.9455 19.8953 63.0012 19.7003 62.9997Z" fill="white"/>
<path d="M17.8201 41.2399C17.7272 41.253 17.633 41.253 17.5401 41.2399C17.405 41.2091 17.2778 41.1506 17.1666 41.068C17.0553 40.9855 16.9624 40.8807 16.8938 40.7603C16.8252 40.64 16.7823 40.5067 16.7679 40.3689C16.7535 40.2311 16.7678 40.0918 16.8101 39.9599C17.3047 38.1574 17.9538 36.4009 18.7501 34.7099C18.8681 34.4593 19.0809 34.2658 19.3416 34.172C19.6022 34.0782 19.8895 34.0919 20.1401 34.2099C20.3908 34.3279 20.5842 34.5407 20.678 34.8013C20.7718 35.062 20.7581 35.3493 20.6401 35.5999C19.893 37.1844 19.284 38.8305 18.8201 40.5199C18.7578 40.7343 18.6254 40.9217 18.4442 41.0522C18.2629 41.1827 18.0433 41.2488 17.8201 41.2399Z" fill="white"/>
<path d="M16.7002 49.5999C16.435 49.5999 16.1806 49.4945 15.9931 49.307C15.8055 49.1195 15.7002 48.8651 15.7002 48.5999C15.699 45.681 16.0892 42.7751 16.8602 39.9599C16.8963 39.8286 16.9579 39.7056 17.0415 39.5981C17.1252 39.4906 17.2291 39.4006 17.3475 39.3333C17.4659 39.266 17.5964 39.2227 17.7316 39.2058C17.8667 39.1889 18.0039 39.1988 18.1352 39.2349C18.2665 39.271 18.3894 39.3326 18.497 39.4162C18.6045 39.4999 18.6944 39.6038 18.7618 39.7222C18.8291 39.8406 18.8724 39.9711 18.8893 40.1063C18.9062 40.2414 18.8963 40.3786 18.8602 40.5099C18.1404 43.1462 17.7772 45.8671 17.7802 48.5999C17.7806 48.7382 17.7524 48.8751 17.6972 49.002C17.642 49.1288 17.5611 49.2429 17.4596 49.3369C17.3581 49.4308 17.2382 49.5027 17.1075 49.548C16.9768 49.5933 16.8381 49.611 16.7002 49.5999Z" fill="white"/>
<path d="M17.8201 57.9997C17.5851 58.0416 17.3429 57.9979 17.1372 57.8768C16.9315 57.7556 16.7759 57.5648 16.6986 57.339C16.6213 57.1131 16.6274 56.8671 16.7157 56.6453C16.804 56.4235 16.9687 56.2406 17.1801 56.1297C18.3428 55.2494 19.285 54.111 19.9324 52.8042C20.5797 51.4974 20.9144 50.058 20.9101 48.5997C20.9101 48.3225 21.0202 48.0568 21.2162 47.8608C21.4122 47.6648 21.678 47.5547 21.9551 47.5547C22.2323 47.5547 22.4981 47.6648 22.6941 47.8608C22.89 48.0568 23.0001 48.3225 23.0001 48.5997C23.0052 50.3793 22.5968 52.1356 21.8072 53.7304C21.0176 55.3252 19.8684 56.7149 18.4501 57.7897C18.2702 57.9294 18.0479 58.0035 17.8201 57.9997Z" fill="white"/>
<path d="M74.5501 48.9202C74.2849 48.9202 74.0305 48.8148 73.843 48.6273C73.6554 48.4398 73.5501 48.1854 73.5501 47.9202C73.4774 44.5063 72.7061 41.1434 71.2837 38.039C69.8614 34.9346 67.8182 32.1545 65.2801 29.8702C65.0759 29.6845 64.9538 29.4254 64.9406 29.1497C64.9275 28.874 65.0244 28.6044 65.2101 28.4002C65.3957 28.196 65.6549 28.0739 65.9306 28.0607C66.2063 28.0476 66.4759 28.1446 66.6801 28.3302C69.4346 30.8003 71.6542 33.8083 73.2021 37.1689C74.7499 40.5294 75.5932 44.1713 75.6801 47.8702C75.6897 48.0073 75.6709 48.1449 75.625 48.2744C75.5791 48.4039 75.507 48.5226 75.4131 48.623C75.3193 48.7234 75.2058 48.8034 75.0796 48.858C74.9535 48.9125 74.8175 48.9405 74.6801 48.9402L74.5501 48.9202Z" fill="white"/>
<path d="M74.5601 50.2801C74.4226 50.2805 74.2866 50.2525 74.1605 50.1979C74.0344 50.1433 73.9208 50.0633 73.827 49.9629C73.7332 49.8625 73.6611 49.7439 73.6151 49.6143C73.5692 49.4848 73.5504 49.3472 73.5601 49.2101C73.5601 48.9901 73.5601 48.7701 73.5601 48.5601C73.5601 48.283 73.6702 48.0172 73.8661 47.8212C74.0621 47.6252 74.3279 47.5151 74.6051 47.5151C74.8822 47.5151 75.148 47.6252 75.344 47.8212C75.54 48.0172 75.6501 48.283 75.6501 48.5601C75.6501 48.7935 75.6501 49.0301 75.6501 49.2701C75.652 49.4102 75.6245 49.5492 75.5694 49.6779C75.5142 49.8067 75.4326 49.9225 75.3298 50.0177C75.2271 50.1129 75.1055 50.1855 74.9729 50.2307C74.8402 50.2759 74.6996 50.2927 74.5601 50.2801Z" fill="white"/>
<path d="M74.5601 49.5999C74.2949 49.5999 74.0405 49.4945 73.853 49.307C73.6654 49.1195 73.5601 48.8651 73.5601 48.5999C73.5601 48.3799 73.5601 48.1599 73.5601 47.9499C73.5504 47.8128 73.5692 47.6752 73.6151 47.5457C73.6611 47.4161 73.7332 47.2975 73.827 47.1971C73.9208 47.0967 74.0344 47.0167 74.1605 46.9621C74.2866 46.9075 74.4226 46.8796 74.5601 46.8799C74.6972 46.8703 74.8348 46.889 74.9643 46.9349C75.0938 46.9809 75.2125 47.053 75.3129 47.1468C75.4133 47.2407 75.4933 47.3542 75.5478 47.4803C75.6024 47.6065 75.6304 47.7425 75.6301 47.8799C75.6301 48.1132 75.6301 48.3499 75.6301 48.5899C75.6318 48.7282 75.6048 48.8653 75.5509 48.9926C75.4969 49.1199 75.4171 49.2346 75.3166 49.3295C75.216 49.4245 75.0969 49.4975 74.9667 49.544C74.8364 49.5905 74.698 49.6096 74.5601 49.5999Z" fill="white"/>
<path d="M65.9401 69.0699C65.7671 69.0847 65.5933 69.0541 65.4357 68.9814C65.2781 68.9086 65.1421 68.796 65.0412 68.6548C64.9404 68.5135 64.878 68.3484 64.8602 68.1757C64.8425 68.003 64.87 67.8287 64.9401 67.6699C67.131 61.5337 68.2474 55.0655 68.24 48.5499C68.24 48.2727 68.3502 48.0069 68.5461 47.8109C68.7421 47.615 69.0079 47.5049 69.2851 47.5049C69.5622 47.5049 69.828 47.615 70.024 47.8109C70.22 48.0069 70.33 48.2727 70.33 48.5499C70.3388 55.3073 69.1818 62.0157 66.9101 68.3799C66.8437 68.5837 66.7135 68.7607 66.5389 68.8849C66.3643 69.0091 66.1543 69.074 65.9401 69.0699Z" fill="white"/>
<path d="M65.9401 30.1199C65.6806 30.1242 65.4295 30.0274 65.2401 29.8499C63.0142 27.8259 60.4435 26.2171 57.6501 25.0999C57.3928 24.9965 57.1872 24.7951 57.0784 24.5401C56.9697 24.285 56.9667 23.9972 57.0701 23.7399C57.1735 23.4827 57.3749 23.277 57.63 23.1683C57.885 23.0595 58.1728 23.0565 58.4301 23.1599C61.456 24.3712 64.2401 26.1155 66.6501 28.3099C66.8382 28.4362 66.9778 28.6227 67.0461 28.8388C67.1144 29.0548 67.1073 29.2876 67.026 29.4991C66.9447 29.7106 66.7939 29.8882 66.5984 30.0028C66.4029 30.1174 66.1744 30.1622 65.9501 30.1299L65.9401 30.1199Z" fill="white"/>
<path d="M58.0401 25.17C57.9061 25.1697 57.7734 25.1425 57.6501 25.09C55.4539 24.2098 53.1445 23.6443 50.7901 23.41C50.6536 23.3962 50.521 23.3556 50.4001 23.2906C50.2792 23.2256 50.1723 23.1375 50.0855 23.0311C49.9987 22.9248 49.9336 22.8024 49.8941 22.671C49.8546 22.5395 49.8414 22.4016 49.8551 22.265C49.8689 22.1284 49.9095 21.9959 49.9745 21.875C50.0395 21.7541 50.1277 21.6472 50.234 21.5604C50.3403 21.4735 50.4627 21.4085 50.5942 21.369C50.7256 21.3295 50.8636 21.3162 51.0001 21.33C53.5502 21.5836 56.0516 22.1963 58.4301 23.15C58.5614 23.1756 58.6865 23.2268 58.798 23.3007C58.9095 23.3747 59.0054 23.4698 59.0801 23.5808C59.1549 23.6917 59.207 23.8163 59.2336 23.9475C59.2602 24.0786 59.2607 24.2137 59.2351 24.345C59.2095 24.4763 59.1583 24.6013 59.0844 24.7128C59.0105 24.8244 58.9153 24.9202 58.8044 24.995C58.6934 25.0697 58.5688 25.1219 58.4377 25.1485C58.3065 25.1751 58.1715 25.1756 58.0401 25.15V25.17Z" fill="white"/>
<path d="M58.04 74.0003C57.8555 74.0139 57.6708 73.9761 57.5065 73.891C57.3421 73.8059 57.2047 73.6769 57.1093 73.5183C57.014 73.3597 56.9645 73.1778 56.9664 72.9928C56.9683 72.8077 57.0214 72.6269 57.12 72.4703C58.4464 69.9473 59.5602 67.3182 60.45 64.6103C60.5362 64.345 60.7243 64.1249 60.9727 63.9984C61.2212 63.8718 61.5098 63.8491 61.775 63.9353C62.0402 64.0215 62.2603 64.2095 62.3869 64.458C62.5135 64.7065 62.5362 64.9951 62.45 65.2603C61.5259 68.0783 60.3685 70.8144 58.99 73.4403C58.904 73.6165 58.7681 73.7635 58.5992 73.8631C58.4303 73.9626 58.2358 74.0104 58.04 74.0003Z" fill="white"/>
<path d="M44.5 23.5596C44.2242 23.5795 43.9518 23.489 43.7427 23.3081C43.5336 23.1271 43.4049 22.8705 43.385 22.5946C43.3651 22.3188 43.4556 22.0464 43.6366 21.8373C43.8176 21.6282 44.0742 21.4995 44.35 21.4796C46.5497 21.166 48.7791 21.119 50.99 21.3396C51.2658 21.3675 51.5193 21.5038 51.6947 21.7185C51.87 21.9332 51.9529 22.2088 51.925 22.4846C51.8972 22.7605 51.7609 23.0139 51.5462 23.1893C51.3314 23.3646 51.0558 23.4475 50.78 23.4196C48.7356 23.2153 46.674 23.2589 44.64 23.5496L44.5 23.5596Z" fill="white"/>
<path d="M50.8903 75.7699C50.6952 75.7873 50.4994 75.747 50.327 75.654C50.1547 75.561 50.0134 75.4195 49.9208 75.247C49.8281 75.0745 49.7882 74.8786 49.8058 74.6835C49.8235 74.4885 49.8981 74.303 50.0203 74.1499C51.268 72.273 52.3776 70.3078 53.3403 68.2699C53.3987 68.1458 53.481 68.0345 53.5825 67.9422C53.684 67.8499 53.8027 67.7785 53.9317 67.7321C54.0608 67.6856 54.1978 67.6651 54.3348 67.6716C54.4718 67.6781 54.6062 67.7115 54.7303 67.7699C54.8544 67.8284 54.9658 67.9107 55.058 68.0122C55.1503 68.1137 55.2217 68.2323 55.2682 68.3614C55.3146 68.4905 55.3351 68.6274 55.3286 68.7644C55.3221 68.9015 55.2887 69.0359 55.2303 69.16C54.2245 71.2883 53.0648 73.3404 51.7603 75.2999C51.6684 75.447 51.5399 75.5676 51.3874 75.65C51.2349 75.7324 51.0636 75.7737 50.8903 75.7699Z" fill="white"/>
<path d="M44.5 75.6303C44.2961 75.651 44.0907 75.6086 43.9117 75.5087C43.7327 75.4088 43.5887 75.2564 43.4992 75.0719C43.4098 74.8875 43.3791 74.6801 43.4114 74.4776C43.4438 74.2752 43.5375 74.0877 43.68 73.9403C44.8984 72.3947 46.0046 70.7639 46.99 69.0603C47.0557 68.9414 47.1441 68.8367 47.2503 68.752C47.3564 68.6674 47.4782 68.6044 47.6087 68.5668C47.7391 68.5292 47.8757 68.5177 48.0107 68.5329C48.1456 68.548 48.2762 68.5896 48.395 68.6553C48.5139 68.7209 48.6186 68.8094 48.7033 68.9155C48.788 69.0217 48.8509 69.1434 48.8885 69.2739C48.9261 69.4044 48.9377 69.541 48.9225 69.6759C48.9073 69.8108 48.8657 69.9414 48.8 70.0603C47.7641 71.8512 46.6011 73.5656 45.32 75.1903C45.2293 75.3246 45.1072 75.4348 44.9643 75.5115C44.8215 75.5881 44.6621 75.6289 44.5 75.6303Z" fill="white"/>
<path d="M38.8602 25.0001C38.7288 25.0244 38.594 25.0225 38.4634 24.9947C38.3328 24.9669 38.2089 24.9137 38.0989 24.838C37.9888 24.7623 37.8948 24.6657 37.8221 24.5537C37.7494 24.4416 37.6995 24.3164 37.6752 24.1851C37.6509 24.0537 37.6527 23.9189 37.6805 23.7883C37.7083 23.6577 37.7616 23.5338 37.8372 23.4238C37.9129 23.3137 38.0095 23.2197 38.1216 23.147C38.2336 23.0743 38.3588 23.0244 38.4902 23.0001C40.3842 22.2765 42.353 21.7667 44.3602 21.4801C44.6347 21.4403 44.9137 21.5112 45.136 21.6771C45.3582 21.8431 45.5054 22.0906 45.5452 22.3651C45.585 22.6396 45.5141 22.9186 45.3481 23.1409C45.1821 23.3631 44.9347 23.5103 44.6602 23.5501C42.8071 23.8137 40.9891 24.2832 39.2402 24.9501C39.1179 24.9911 38.9889 25.008 38.8602 25.0001Z" fill="white"/>
<path d="M33.9803 27.5103C33.8542 27.5477 33.722 27.56 33.5912 27.5463C33.4604 27.5326 33.3336 27.4933 33.218 27.4306C33.1024 27.368 33.0002 27.2831 32.9174 27.181C32.8346 27.0788 32.7727 26.9614 32.7353 26.8353C32.6978 26.7092 32.6856 26.577 32.6993 26.4462C32.7129 26.3154 32.7523 26.1886 32.8149 26.073C32.8776 25.9574 32.9624 25.8553 33.0646 25.7724C33.1667 25.6896 33.2842 25.6277 33.4103 25.5903C35.0118 24.5515 36.7178 23.6834 38.5003 23.0003C38.7589 22.9008 39.0463 22.9082 39.2995 23.0207C39.5527 23.1332 39.7508 23.3417 39.8503 23.6003C39.9497 23.8589 39.9424 24.1464 39.8299 24.3996C39.7173 24.6527 39.5089 24.8508 39.2503 24.9503C37.6083 25.5781 36.0364 26.3757 34.5603 27.3303C34.3903 27.449 34.1876 27.5119 33.9803 27.5103Z" fill="white"/>
<path d="M38.8601 74.1698C38.649 74.1942 38.4356 74.1507 38.2509 74.0456C38.0662 73.9405 37.9198 73.7794 37.8329 73.5855C37.7459 73.3915 37.723 73.175 37.7675 72.9672C37.8119 72.7594 37.9214 72.5712 38.0801 72.4298C39.2819 71.0871 40.3817 69.6565 41.3701 68.1498C41.4449 68.0355 41.5416 67.9371 41.6545 67.8602C41.7673 67.7833 41.8942 67.7294 42.028 67.7015C42.1617 67.6737 42.2996 67.6724 42.4338 67.6979C42.568 67.7233 42.6958 67.7749 42.8101 67.8498C42.9243 67.9247 43.0227 68.0213 43.0996 68.1342C43.1765 68.247 43.2305 68.374 43.2583 68.5077C43.2862 68.6414 43.2874 68.7793 43.262 68.9135C43.2366 69.0477 43.1849 69.1756 43.1101 69.2898C42.0648 70.8846 40.9016 72.3988 39.6301 73.8198C39.5351 73.9309 39.4169 74.0197 39.2839 74.0802C39.1509 74.1407 39.0062 74.1713 38.8601 74.1698Z" fill="white"/>
<path d="M33.9803 71.6903C33.7648 71.7166 33.5466 71.672 33.3587 71.5633C33.1708 71.4546 33.0233 71.2877 32.9386 71.0878C32.8539 70.8879 32.8366 70.6659 32.8892 70.4553C32.9418 70.2446 33.0615 70.0569 33.2303 69.9203C34.4305 68.681 35.5243 67.343 36.5003 65.9203C36.5784 65.808 36.6779 65.7122 36.7931 65.6384C36.9082 65.5646 37.0368 65.5141 37.1714 65.49C37.3061 65.4658 37.4442 65.4685 37.5778 65.4977C37.7114 65.5269 37.838 65.5822 37.9503 65.6603C38.0626 65.7384 38.1584 65.8379 38.2322 65.9531C38.306 66.0682 38.3565 66.1968 38.3806 66.3314C38.4047 66.4661 38.4021 66.6042 38.3729 66.7378C38.3437 66.8715 38.2884 66.998 38.2103 67.1103C37.1631 68.6119 35.9923 70.0234 34.7103 71.3303C34.6206 71.4381 34.5093 71.5259 34.3836 71.5879C34.2578 71.65 34.1204 71.6848 33.9803 71.6903Z" fill="white"/>
<path d="M29.8502 30.8202C29.6315 30.8483 29.4095 30.8033 29.219 30.6923C29.0285 30.5812 28.88 30.4102 28.7967 30.206C28.7134 30.0017 28.7 29.7757 28.7585 29.5631C28.817 29.3504 28.9442 29.163 29.1202 29.0302C30.4321 27.7435 31.8692 26.5911 33.4102 25.5902C33.5251 25.5153 33.6537 25.4638 33.7885 25.4387C33.9233 25.4135 34.0617 25.4151 34.1959 25.4434C34.3301 25.4717 34.4573 25.5262 34.5705 25.6037C34.6836 25.6812 34.7804 25.7803 34.8552 25.8952C34.9301 26.0101 34.9816 26.1386 35.0068 26.2734C35.0319 26.4082 35.0303 26.5467 35.002 26.6808C34.9737 26.815 34.9192 26.9423 34.8417 27.0554C34.7642 27.1686 34.6651 27.2653 34.5502 27.3402C33.1134 28.2631 31.7733 29.3285 30.5502 30.5202C30.3656 30.7086 30.114 30.8164 29.8502 30.8202Z" fill="white"/>
<path d="M29.8502 68.3797C29.6315 68.4079 29.4095 68.3629 29.219 68.2518C29.0285 68.1407 28.88 67.9697 28.7967 67.7655C28.7134 67.5613 28.7 67.3352 28.7585 67.1226C28.817 66.9099 28.9442 66.7226 29.1202 66.5897C30.3309 65.4014 31.4197 64.0949 32.3702 62.6897C32.447 62.5761 32.5455 62.4788 32.6599 62.4032C32.7744 62.3277 32.9026 62.2754 33.0372 62.2494C33.1719 62.2234 33.3103 62.2242 33.4447 62.2517C33.579 62.2792 33.7066 62.3329 33.8202 62.4097C33.9338 62.4865 34.0311 62.585 34.1067 62.6994C34.1822 62.8139 34.2345 62.9421 34.2605 63.0767C34.2865 63.2114 34.2858 63.3498 34.2582 63.4841C34.2307 63.6185 34.177 63.7461 34.1002 63.8597C33.0703 65.38 31.8911 66.7937 30.5802 68.0797C30.4852 68.1766 30.3716 68.2532 30.2461 68.3048C30.1206 68.3563 29.9859 68.3819 29.8502 68.3797Z" fill="white"/>
<path d="M26.5 34.8697C26.3041 34.8867 26.1074 34.8455 25.9347 34.7513C25.762 34.6571 25.6209 34.5141 25.5291 34.3401C25.4373 34.1661 25.3989 33.9689 25.4186 33.7732C25.4383 33.5775 25.5154 33.3919 25.6401 33.2397C26.6699 31.7193 27.849 30.3056 29.16 29.0197C29.3576 28.8261 29.624 28.7189 29.9006 28.7217C30.1773 28.7245 30.4414 28.8371 30.635 29.0347C30.8287 29.2323 30.9358 29.4987 30.933 29.7753C30.9302 30.0519 30.8176 30.3161 30.62 30.5097C29.4094 31.6981 28.3206 33.0046 27.37 34.4097C27.277 34.5549 27.148 34.6735 26.9956 34.7541C26.8431 34.8347 26.6724 34.8746 26.5 34.8697Z" fill="white"/>
<path d="M26.5003 64.32C26.2848 64.3462 26.0666 64.3016 25.8787 64.1929C25.6908 64.0842 25.5433 63.9174 25.4586 63.7175C25.374 63.5176 25.3566 63.2955 25.4092 63.0849C25.4618 62.8743 25.5816 62.6865 25.7503 62.55C27.0122 61.2643 28.0953 59.8146 28.9703 58.24C29.036 58.1198 29.1246 58.0138 29.2313 57.9279C29.3379 57.842 29.4605 57.7779 29.5919 57.7394C29.7233 57.7009 29.861 57.6886 29.9971 57.7033C30.1332 57.718 30.2652 57.7593 30.3853 57.825C30.5055 57.8906 30.6115 57.9793 30.6974 58.086C30.7833 58.1926 30.8473 58.3151 30.8859 58.4465C30.9244 58.5779 30.9367 58.7156 30.922 58.8517C30.9073 58.9879 30.866 59.1198 30.8003 59.24C29.8362 60.9789 28.6421 62.58 27.2503 64C27.1548 64.103 27.0386 64.1848 26.9094 64.2399C26.7802 64.295 26.6408 64.3223 26.5003 64.32Z" fill="white"/>
<path d="M23.83 39.8403C23.6532 39.858 23.4748 39.8282 23.3132 39.754C23.1517 39.6798 23.0129 39.564 22.911 39.4183C22.8091 39.2727 22.7479 39.1025 22.7337 38.9253C22.7195 38.7481 22.7527 38.5703 22.83 38.4103C23.5563 36.5973 24.4749 34.8674 25.57 33.2503C25.6469 33.1367 25.7453 33.0393 25.8597 32.9638C25.9742 32.8882 26.1024 32.836 26.237 32.81C26.3717 32.784 26.5101 32.7847 26.6445 32.8122C26.7788 32.8397 26.9064 32.8934 27.02 32.9703C27.1336 33.0471 27.231 33.1455 27.3065 33.26C27.3821 33.3744 27.4343 33.5026 27.4603 33.6373C27.4863 33.7719 27.4856 33.9103 27.4581 34.0447C27.4306 34.179 27.3768 34.3067 27.3 34.4203C26.2892 35.9121 25.441 37.5078 24.77 39.1803C24.7001 39.3735 24.5724 39.5406 24.4042 39.6587C24.236 39.7768 24.0355 39.8402 23.83 39.8403Z" fill="white"/>
<path d="M21.96 49.5999C21.6948 49.5999 21.4404 49.4945 21.2529 49.307C21.0654 49.1195 20.96 48.8651 20.96 48.5999C20.9558 45.1231 21.6177 41.6777 22.91 38.4499C22.9612 38.3225 23.037 38.2065 23.1331 38.1084C23.2291 38.0103 23.3436 37.9321 23.4699 37.8782C23.5962 37.8244 23.7318 37.7959 23.8691 37.7945C24.0064 37.7931 24.1426 37.8187 24.27 37.8699C24.3974 37.9211 24.5134 37.9969 24.6115 38.093C24.7096 38.189 24.7878 38.3035 24.8417 38.4298C24.8955 38.5561 24.924 38.6917 24.9254 38.829C24.9268 38.9663 24.9012 39.1025 24.85 39.2299C23.6559 42.2128 23.0448 45.3969 23.05 48.6099C23.0492 48.7483 23.0196 48.885 22.9632 49.0114C22.9068 49.1378 22.8248 49.2511 22.7223 49.3442C22.6199 49.4373 22.4992 49.508 22.368 49.5521C22.2368 49.5961 22.0978 49.6124 21.96 49.5999Z" fill="white"/>
<path d="M23.8301 59.3599C23.6262 59.3806 23.4208 59.3381 23.2418 59.2383C23.0628 59.1384 22.9188 58.986 22.8293 58.8015C22.7398 58.6171 22.7092 58.4097 22.7415 58.2072C22.7739 58.0048 22.8676 57.8173 23.0101 57.6699C25.0676 55.0764 26.182 51.8603 26.1701 48.5499C26.1701 48.2727 26.2802 48.0069 26.4762 47.8109C26.6722 47.615 26.938 47.5049 27.2151 47.5049C27.4923 47.5049 27.758 47.615 27.954 47.8109C28.15 48.0069 28.2601 48.2727 28.2601 48.5499C28.2822 52.3427 27.0086 56.0294 24.6501 58.9999C24.5508 59.1195 24.425 59.2143 24.2827 59.2768C24.1403 59.3393 23.9854 59.3677 23.8301 59.3599Z" fill="white"/>
<path d="M69.3002 49.6002C69.035 49.6002 68.7807 49.4949 68.5931 49.3073C68.4056 49.1198 68.3002 48.8655 68.3002 48.6002C68.3018 45.6017 67.6263 42.6414 66.3242 39.9403C65.0221 37.2391 63.127 34.8668 60.7803 33.0002C60.5641 32.8265 60.4258 32.5741 60.3958 32.2984C60.3658 32.0227 60.4465 31.7464 60.6202 31.5302C60.794 31.3141 61.0464 31.1758 61.3221 31.1458C61.5978 31.1158 61.8741 31.1965 62.0902 31.3702C64.6726 33.4353 66.7563 36.0559 68.1863 39.0372C69.6164 42.0184 70.356 45.2837 70.3503 48.5902C70.3518 48.7267 70.3254 48.8621 70.2726 48.9879C70.2199 49.1138 70.1419 49.2276 70.0436 49.3222C69.9452 49.4168 69.8285 49.4903 69.7007 49.5381C69.5728 49.5859 69.4366 49.6071 69.3002 49.6002Z" fill="white"/>
<path d="M61.4301 33.1897C61.193 33.1925 60.9627 33.111 60.7801 32.9597C58.7706 31.3393 56.4641 30.1267 53.9901 29.3897C53.8588 29.3503 53.7365 29.2855 53.6303 29.1988C53.524 29.1122 53.4359 29.0054 53.3709 28.8847C53.3059 28.764 53.2653 28.6316 53.2514 28.4952C53.2376 28.3588 53.2507 28.221 53.2901 28.0897C53.3295 27.9584 53.3944 27.8361 53.4811 27.7299C53.5677 27.6236 53.6744 27.5355 53.7951 27.4705C53.9159 27.4055 54.0482 27.3649 54.1846 27.351C54.321 27.3372 54.4588 27.3503 54.5901 27.3897C57.3225 28.2029 59.8701 29.5412 62.0901 31.3297C62.2958 31.4444 62.4543 31.628 62.5379 31.8481C62.6215 32.0682 62.6247 32.3107 62.5471 32.533C62.4694 32.7553 62.3158 32.943 62.1133 33.0631C61.9108 33.1833 61.6724 33.2281 61.4401 33.1897H61.4301Z" fill="white"/>
<path d="M61.4301 65.9999C61.261 66.0121 61.0915 65.9811 60.9376 65.9097C60.7837 65.8384 60.6505 65.7291 60.5504 65.592C60.4504 65.455 60.3869 65.2948 60.3659 65.1265C60.3448 64.9582 60.3669 64.7873 60.4301 64.6299C62.1308 59.4395 62.9949 54.0117 62.9901 48.5499C62.9901 48.2727 63.1003 48.0069 63.2962 47.8109C63.4922 47.615 63.758 47.5049 64.0352 47.5049C64.3123 47.5049 64.5781 47.615 64.7741 47.8109C64.9701 48.0069 65.0801 48.2727 65.0801 48.5499C65.0828 54.2328 64.1816 59.8801 62.4102 65.2799C62.3487 65.4909 62.2193 65.6758 62.0422 65.806C61.865 65.9361 61.6499 66.0043 61.4301 65.9999Z" fill="white"/>
<path d="M54.28 29.4398C54.1806 29.4549 54.0794 29.4549 53.98 29.4398C52.1241 28.8842 50.1973 28.6013 48.26 28.5998H47.92C47.6429 28.5998 47.377 28.4897 47.1811 28.2937C46.9851 28.0977 46.875 27.8319 46.875 27.5548C46.875 27.2776 46.9851 27.0118 47.1811 26.8158C47.377 26.6199 47.6429 26.5098 47.92 26.5098H48.31C50.4501 26.509 52.579 26.8188 54.63 27.4298C54.8952 27.4695 55.1338 27.6131 55.2932 27.8287C55.4526 28.0444 55.5198 28.3146 55.48 28.5798C55.4402 28.845 55.2967 29.0835 55.0811 29.243C54.8654 29.4024 54.5952 29.4695 54.33 29.4298L54.28 29.4398Z" fill="white"/>
<path d="M54.2801 69.7602C54.0998 69.7728 53.9195 69.7363 53.7583 69.6546C53.5972 69.5729 53.4611 69.449 53.3647 69.2962C53.2683 69.1433 53.2151 68.9673 53.2107 68.7866C53.2064 68.6059 53.2511 68.4275 53.3401 68.2702C54.3781 66.0717 55.2408 63.7946 55.9201 61.4602C55.997 61.195 56.1762 60.9712 56.4181 60.838C56.66 60.7049 56.9449 60.6733 57.2101 60.7502C57.4753 60.8271 57.6991 61.0062 57.8323 61.2481C57.9654 61.4901 57.997 61.775 57.9201 62.0402C57.2122 64.4806 56.3128 66.8613 55.2301 69.1602C55.1501 69.3439 55.0167 69.4993 54.8473 69.6062C54.6779 69.7132 54.4803 69.7669 54.2801 69.7602Z" fill="white"/>
<path d="M42.2501 29.43C41.9848 29.4698 41.7147 29.4026 41.499 29.2432C41.2833 29.0838 41.1398 28.8452 41.1001 28.58C41.0603 28.3148 41.1275 28.0446 41.2869 27.829C41.4463 27.6133 41.6848 27.4698 41.9501 27.43C43.8761 26.8582 45.8712 26.552 47.8801 26.52C48.1572 26.52 48.423 26.6301 48.619 26.8261C48.815 27.0221 48.925 27.2879 48.925 27.565C48.925 27.8422 48.815 28.108 48.619 28.3039C48.423 28.4999 48.1572 28.61 47.8801 28.61C46.0611 28.6379 44.2544 28.9137 42.5101 29.43C42.4238 29.4413 42.3363 29.4413 42.2501 29.43Z" fill="white"/>
<path d="M47.8902 70.6297C47.7011 70.645 47.5114 70.6062 47.3435 70.5177C47.1756 70.4293 47.0364 70.2949 46.942 70.1303C46.8476 69.9657 46.802 69.7776 46.8106 69.588C46.8191 69.3984 46.8814 69.2152 46.9902 69.0597C47.9719 67.3634 48.8308 65.5989 49.5602 63.7797C49.6623 63.5224 49.8624 63.3163 50.1165 63.2066C50.3706 63.0969 50.6579 63.0926 50.9152 63.1947C51.1725 63.2968 51.3786 63.4969 51.4883 63.751C51.598 64.0052 51.6023 64.2924 51.5002 64.5497C50.7339 66.4618 49.8316 68.3166 48.8002 70.0997C48.7128 70.2639 48.5814 70.4005 48.4206 70.4942C48.2598 70.5878 48.0762 70.6348 47.8902 70.6297Z" fill="white"/>
<path d="M37.3601 31.59C37.1029 31.6616 36.8277 31.6281 36.5952 31.4968C36.3626 31.3655 36.1917 31.1472 36.1201 30.89C36.0485 30.6327 36.0821 30.3575 36.2133 30.125C36.3446 29.8925 36.5629 29.7216 36.8201 29.65C38.4263 28.6775 40.1503 27.9146 41.9501 27.38C42.0815 27.3406 42.2193 27.3274 42.3557 27.3413C42.4921 27.3551 42.6244 27.3957 42.7451 27.4607C42.8658 27.5257 42.9726 27.6139 43.0592 27.7201C43.1459 27.8264 43.2107 27.9487 43.2501 28.08C43.2895 28.2113 43.3027 28.3491 43.2888 28.4855C43.275 28.6219 43.2344 28.7542 43.1694 28.8749C43.1044 28.9957 43.0162 29.1024 42.91 29.189C42.8037 29.2757 42.6814 29.3406 42.5501 29.38C40.9224 29.8627 39.3631 30.5516 37.9101 31.43C37.7463 31.5358 37.5551 31.5914 37.3601 31.59Z" fill="white"/>
<path d="M42.2502 69.7599C42.0551 69.7772 41.8592 69.7369 41.6869 69.6439C41.5145 69.551 41.3733 69.4095 41.2806 69.237C41.188 69.0644 41.148 68.8685 41.1657 68.6735C41.1834 68.4785 41.258 68.2929 41.3802 68.1399C42.3455 66.6647 43.2011 65.1205 43.9402 63.5199C44.0568 63.2693 44.2683 63.0752 44.5281 62.9805C44.7878 62.8858 45.0745 62.8982 45.3252 63.0149C45.5758 63.1316 45.7698 63.3431 45.8645 63.6028C45.9592 63.8625 45.9468 64.1493 45.8301 64.3999C45.0473 66.0906 44.1416 67.7217 43.1201 69.2799C43.0295 69.4288 42.9016 69.5514 42.749 69.6356C42.5964 69.7198 42.4244 69.7626 42.2502 69.7599Z" fill="white"/>
<path d="M33.2303 34.8698C33.0148 34.896 32.7966 34.8514 32.6087 34.7428C32.4208 34.6341 32.2733 34.4672 32.1886 34.2673C32.1039 34.0674 32.0866 33.8454 32.1392 33.6348C32.1918 33.4241 32.3115 33.2364 32.4803 33.0998C33.7744 31.7769 35.229 30.6213 36.8103 29.6598C37.0463 29.5166 37.3296 29.473 37.5978 29.5386C37.8659 29.6043 38.0971 29.7738 38.2403 30.0098C38.3835 30.2458 38.4271 30.5291 38.3615 30.7973C38.2958 31.0655 38.1263 31.2966 37.8903 31.4398C36.4584 32.312 35.1415 33.3602 33.9703 34.5598C33.875 34.6598 33.7601 34.7389 33.6327 34.7923C33.5054 34.8456 33.3684 34.872 33.2303 34.8698Z" fill="white"/>
<path d="M37.3602 67.5998C37.1695 67.6115 36.9793 67.5683 36.8123 67.4754C36.6453 67.3824 36.5085 67.2434 36.418 67.0751C36.3275 66.9067 36.2872 66.716 36.3017 66.5254C36.3163 66.3348 36.3852 66.1524 36.5003 65.9998C37.471 64.603 38.324 63.1279 39.0502 61.5898C39.1087 61.4657 39.191 61.3543 39.2925 61.262C39.394 61.1697 39.5126 61.0983 39.6417 61.0519C39.7708 61.0055 39.9077 60.9849 40.0448 60.9914C40.1818 60.9979 40.3162 61.0313 40.4403 61.0898C40.5644 61.1482 40.6757 61.2305 40.768 61.332C40.8603 61.4335 40.9317 61.5522 40.9781 61.6812C41.0246 61.8103 41.0451 61.9473 41.0386 62.0843C41.0321 62.2213 40.9987 62.3557 40.9403 62.4798C40.166 64.1226 39.2561 65.698 38.2203 67.1898C38.1223 67.3243 37.9924 67.4322 37.8422 67.5038C37.6921 67.5754 37.5264 67.6084 37.3602 67.5998Z" fill="white"/>
<path d="M33.23 64.3201C33.034 64.3371 32.8374 64.2959 32.6647 64.2017C32.492 64.1075 32.3509 63.9644 32.2591 63.7905C32.1673 63.6165 32.1289 63.4193 32.1486 63.2236C32.1683 63.0278 32.2453 62.8423 32.37 62.6901C33.3808 61.1982 34.2289 59.6025 34.9 57.9301C34.9506 57.8027 35.0257 57.6865 35.1212 57.5882C35.2166 57.4899 35.3305 57.4113 35.4563 57.357C35.5822 57.3026 35.7175 57.2736 35.8545 57.2716C35.9915 57.2696 36.1276 57.2945 36.255 57.3451C36.3824 57.3956 36.4986 57.4708 36.5969 57.5662C36.6952 57.6617 36.7738 57.7756 36.8281 57.9014C36.8825 58.0272 36.9115 58.1626 36.9135 58.2996C36.9155 58.4366 36.8906 58.5727 36.84 58.7001C36.1135 60.513 35.195 62.2428 34.1 63.8601C34.007 64.0052 33.8779 64.1239 33.7255 64.2045C33.5731 64.2851 33.4024 64.3249 33.23 64.3201Z" fill="white"/>
<path d="M29.8502 39.4101C29.6634 39.4245 29.4764 39.3862 29.3103 39.2994C29.1443 39.2126 29.0059 39.081 28.9111 38.9194C28.8162 38.7578 28.7687 38.5729 28.7738 38.3856C28.779 38.1983 28.8366 38.0162 28.9402 37.8601C29.9074 36.1206 31.1049 34.5195 32.5002 33.1002C32.5961 33.0023 32.7103 32.9243 32.8363 32.8706C32.9623 32.8169 33.0977 32.7886 33.2346 32.7872C33.3716 32.7858 33.5075 32.8114 33.6346 32.8625C33.7616 32.9136 33.8774 32.9893 33.9752 33.0852C34.0731 33.181 34.1511 33.2952 34.2048 33.4212C34.2585 33.5472 34.2868 33.6826 34.2882 33.8195C34.2896 33.9565 34.264 34.0924 34.2129 34.2195C34.1617 34.3465 34.0861 34.4623 33.9902 34.5601C32.7284 35.8459 31.6454 37.2955 30.7702 38.8701C30.6835 39.0378 30.5511 39.1775 30.3883 39.2731C30.2255 39.3686 30.0389 39.4162 29.8502 39.4101Z" fill="white"/>
<path d="M27.2202 49.5999C26.955 49.5999 26.7006 49.4945 26.5131 49.307C26.3256 49.1194 26.2202 48.8651 26.2202 48.5999C26.2214 44.8605 27.171 41.1825 28.9802 37.9099C29.1128 37.6672 29.3364 37.4872 29.6018 37.4093C29.8671 37.3315 30.1525 37.3623 30.3952 37.4949C30.6379 37.6275 30.818 37.8511 30.8958 38.1164C30.9736 38.3818 30.9428 38.6672 30.8102 38.9099C29.1708 41.8729 28.3106 45.2036 28.3102 48.5899C28.3122 48.73 28.2847 48.8689 28.2295 48.9977C28.1744 49.1265 28.0928 49.2422 27.99 49.3375C27.8872 49.4327 27.7656 49.5052 27.633 49.5505C27.5004 49.5957 27.3597 49.6125 27.2202 49.5999Z" fill="white"/>
<path d="M29.8502 59.7901C29.6634 59.8045 29.4764 59.7661 29.3103 59.6794C29.1443 59.5926 29.0059 59.4609 28.9111 59.2994C28.8162 59.1378 28.7687 58.9528 28.7738 58.7656C28.779 58.5783 28.8366 58.3962 28.9402 58.2401C30.5796 55.2771 31.4398 51.9464 31.4402 48.5601C31.4402 48.283 31.5503 48.0172 31.7463 47.8212C31.9423 47.6252 32.2081 47.5151 32.4852 47.5151C32.7624 47.5151 33.0282 47.6252 33.2242 47.8212C33.4201 48.0172 33.5302 48.283 33.5302 48.5601C33.529 52.2995 32.5794 55.9775 30.7702 59.2501C30.6835 59.4178 30.5511 59.5575 30.3883 59.653C30.2255 59.7486 30.0389 59.7961 29.8502 59.7901Z" fill="white"/>
<path d="M64.04 49.6C63.7748 49.6 63.5204 49.4947 63.3328 49.3071C63.1453 49.1196 63.04 48.8652 63.04 48.6C63.0413 46.1547 62.433 43.7477 61.2702 41.5966C60.1073 39.4455 58.4266 37.6182 56.38 36.28C56.1492 36.1275 55.9885 35.8896 55.9332 35.6186C55.8779 35.3476 55.9325 35.0658 56.085 34.835C56.2375 34.6043 56.4754 34.4436 56.7464 34.3883C57.0174 34.3329 57.2992 34.3875 57.53 34.54C59.8668 36.0684 61.7856 38.1554 63.1126 40.6121C64.4397 43.0689 65.133 45.8178 65.13 48.61C65.1291 48.7484 65.0996 48.8852 65.0432 49.0116C64.9868 49.138 64.9048 49.2513 64.8023 49.3443C64.6998 49.4374 64.5792 49.5082 64.448 49.5522C64.3167 49.5962 64.1778 49.6125 64.04 49.6Z" fill="white"/>
<path d="M56.9202 36.4C56.7173 36.4024 56.5185 36.3432 56.3502 36.23C54.5431 35.0399 52.4933 34.2678 50.3502 33.97C50.0757 33.9302 49.8282 33.783 49.6622 33.5608C49.4963 33.3385 49.4254 33.0595 49.4652 32.785C49.5049 32.5105 49.6521 32.263 49.8744 32.0971C50.0966 31.9311 50.3757 31.8602 50.6502 31.9C53.0864 32.2445 55.4158 33.1258 57.4702 34.48C57.7248 34.5556 57.9389 34.7292 58.0655 34.9627C58.1921 35.1962 58.2207 35.4704 58.1452 35.725C58.0696 35.9796 57.8959 36.1937 57.6625 36.3203C57.429 36.4469 57.1548 36.4756 56.9002 36.4H56.9202Z" fill="white"/>
<path d="M56.9201 62.7901C56.7558 62.7994 56.5916 62.768 56.4423 62.6987C56.293 62.6294 56.1632 62.5243 56.0643 62.3927C55.9653 62.2611 55.9004 62.1072 55.8753 61.9445C55.8501 61.7818 55.8655 61.6154 55.9201 61.4601C57.1306 57.2671 57.7432 52.9243 57.7401 48.5601C57.7401 48.283 57.8502 48.0172 58.0462 47.8212C58.2422 47.6252 58.508 47.5151 58.7851 47.5151C59.0623 47.5151 59.3281 47.6252 59.524 47.8212C59.72 48.0172 59.8301 48.283 59.8301 48.5601C59.827 53.1075 59.1841 57.6319 57.9201 62.0001C57.8713 62.2276 57.7448 62.4309 57.5622 62.575C57.3797 62.7192 57.1527 62.7953 56.9201 62.7901Z" fill="white"/>
<path d="M44.89 34.1797C44.6168 34.2089 44.3432 34.1283 44.1295 33.9558C43.9157 33.7833 43.7792 33.5329 43.75 33.2597C43.7208 32.9865 43.8014 32.713 43.9739 32.4992C44.1464 32.2854 44.3968 32.1489 44.67 32.1197C46.6412 31.6902 48.6736 31.6191 50.67 31.9097C50.8059 31.9294 50.9366 31.9757 51.0547 32.0459C51.1727 32.1161 51.2757 32.2089 51.3579 32.3189C51.4401 32.4289 51.4998 32.5541 51.5336 32.6872C51.5674 32.8203 51.5747 32.9588 51.555 33.0947C51.5353 33.2306 51.489 33.3613 51.4188 33.4794C51.3486 33.5974 51.2558 33.7004 51.1458 33.7826C51.0357 33.8648 50.9106 33.9245 50.7775 33.9583C50.6444 33.9921 50.5059 33.9994 50.37 33.9797C48.6162 33.7251 46.8309 33.7894 45.1 34.1697L44.89 34.1797Z" fill="white"/>
<path d="M50.4999 65.2201C50.3231 65.2378 50.1447 65.208 49.9832 65.1338C49.8216 65.0596 49.6827 64.9438 49.5809 64.7981C49.479 64.6524 49.4178 64.4823 49.4036 64.3051C49.3894 64.1279 49.4226 63.9501 49.4999 63.7901C50.2535 61.905 50.8652 59.9663 51.3299 57.99C51.3936 57.7248 51.56 57.4958 51.7925 57.3532C52.0251 57.2107 52.3047 57.1664 52.57 57.2301C52.8352 57.2937 53.0642 57.4601 53.2068 57.6926C53.3493 57.9252 53.3936 58.2048 53.3299 58.4701C52.8416 60.5448 52.1998 62.5804 51.4099 64.5601C51.3419 64.7486 51.2187 64.9123 51.0565 65.03C50.8942 65.1477 50.7003 65.2139 50.4999 65.2201Z" fill="white"/>
<path d="M40.0001 36.1501C39.7442 36.223 39.4697 36.1913 39.2372 36.0619C39.0046 35.9325 38.833 35.716 38.7601 35.4601C38.6872 35.2042 38.7189 34.9297 38.8483 34.6972C38.9777 34.4646 39.1942 34.293 39.4501 34.2201C41.0558 33.2311 42.8174 32.5211 44.6601 32.1201C44.7914 32.0912 44.9271 32.0885 45.0595 32.112C45.1919 32.1356 45.3184 32.185 45.4316 32.2574C45.5449 32.3299 45.6428 32.4239 45.7198 32.5342C45.7967 32.6444 45.8512 32.7688 45.8801 32.9001C45.909 33.0314 45.9117 33.1672 45.8882 33.2995C45.8646 33.4319 45.8152 33.5584 45.7428 33.6717C45.6703 33.7849 45.5763 33.8829 45.466 33.9598C45.3558 34.0367 45.2314 34.0912 45.1001 34.1201C43.4707 34.4795 41.9148 35.1154 40.5001 36.0001C40.3497 36.0935 40.1771 36.1453 40.0001 36.1501Z" fill="white"/>
<path d="M44.8902 64.9997C44.7105 65.0131 44.5306 64.9777 44.3694 64.8972C44.2082 64.8168 44.0717 64.6943 43.9744 64.5427C43.8771 64.391 43.8225 64.216 43.8165 64.0359C43.8105 63.8559 43.8532 63.6775 43.9402 63.5197C44.6675 61.9463 45.2791 60.322 45.7702 58.6597C45.8484 58.3945 46.0288 58.1712 46.2716 58.039C46.5145 57.9068 46.7999 57.8765 47.0652 57.9547C47.3304 58.0329 47.5536 58.2133 47.6859 58.4562C47.8181 58.6991 47.8484 58.9845 47.7702 59.2497C47.2525 61.0109 46.6074 62.7321 45.8402 64.3997C45.7601 64.5834 45.6268 64.7388 45.4574 64.8458C45.288 64.9527 45.0904 65.0064 44.8902 64.9997Z" fill="white"/>
<path d="M40.0003 63.0003C39.82 63.0128 39.6397 62.9763 39.4786 62.8946C39.3174 62.8129 39.1813 62.6891 39.0849 62.5362C38.9885 62.3834 38.9353 62.2073 38.931 62.0267C38.9266 61.846 38.9713 61.6675 39.0603 61.5103C39.8075 59.9257 40.4165 58.2796 40.8803 56.5903C40.9164 56.4589 40.9781 56.336 41.0617 56.2285C41.1453 56.121 41.2493 56.031 41.3677 55.9637C41.4861 55.8964 41.6165 55.853 41.7517 55.8361C41.8868 55.8192 42.024 55.8291 42.1553 55.8652C42.2866 55.9014 42.4096 55.963 42.5171 56.0466C42.6246 56.1302 42.7146 56.2342 42.7819 56.3526C42.8492 56.471 42.8925 56.6015 42.9094 56.7366C42.9263 56.8718 42.9164 57.0089 42.8803 57.1403C42.3858 58.9428 41.7367 60.6993 40.9403 62.3903C40.8625 62.5742 40.7313 62.7306 40.5638 62.8393C40.3963 62.948 40.2 63.0041 40.0003 63.0003Z" fill="white"/>
<path d="M35.8702 39.8299C35.6662 39.8507 35.4608 39.8082 35.2818 39.7084C35.1028 39.6085 34.9588 39.456 34.8694 39.2716C34.7799 39.0872 34.7492 38.8797 34.7816 38.6773C34.8139 38.4749 34.9077 38.2873 35.0502 38.14C36.2755 36.5853 37.7649 35.2584 39.4502 34.22C39.5671 34.151 39.6964 34.1058 39.8307 34.0868C39.9651 34.0678 40.1019 34.0755 40.2333 34.1094C40.3647 34.1433 40.4881 34.2027 40.5965 34.2843C40.7049 34.3659 40.7962 34.4681 40.8652 34.585C40.9341 34.7018 40.9794 34.8311 40.9983 34.9655C41.0173 35.0999 41.0096 35.2367 40.9757 35.3681C40.9418 35.4995 40.8824 35.6229 40.8008 35.7313C40.7192 35.8397 40.617 35.931 40.5002 36C39.0215 36.9111 37.7149 38.0755 36.6402 39.44C36.5491 39.5583 36.4327 39.6548 36.2994 39.7223C36.1662 39.7898 36.0195 39.8266 35.8702 39.8299Z" fill="white"/>
<path d="M32.5001 49.6003C32.2349 49.6003 31.9805 49.4949 31.793 49.3074C31.6055 49.1198 31.5001 48.8655 31.5001 48.6003C31.4871 44.8211 32.7602 41.15 35.1101 38.1903C35.1948 38.0826 35.2999 37.9926 35.4193 37.9255C35.5388 37.8585 35.6703 37.8156 35.8063 37.7994C35.9424 37.7831 36.0803 37.7938 36.2122 37.8309C36.3441 37.8679 36.4674 37.9306 36.5751 38.0153C36.6828 38.1 36.7727 38.205 36.8398 38.3245C36.9069 38.444 36.9498 38.5755 36.966 38.7115C36.9823 38.8475 36.9716 38.9854 36.9345 39.1174C36.8975 39.2493 36.8348 39.3726 36.7501 39.4803C34.6926 42.0737 33.5783 45.2898 33.5901 48.6003C33.5907 48.7395 33.5621 48.8773 33.5064 49.0049C33.4506 49.1325 33.3688 49.2471 33.2662 49.3412C33.1635 49.4353 33.0424 49.507 32.9105 49.5516C32.7786 49.5962 32.6388 49.6128 32.5001 49.6003Z" fill="white"/>
<path d="M35.8701 59.3599C35.6932 59.3776 35.5148 59.3478 35.3533 59.2737C35.1917 59.1995 35.0529 59.0836 34.951 58.9379C34.8492 58.7923 34.7879 58.6221 34.7737 58.4449C34.7595 58.2677 34.7927 58.0899 34.8701 57.9299C36.0642 54.947 36.6752 51.7629 36.6701 48.5499C36.6701 48.2727 36.7802 48.0069 36.9761 47.8109C37.1721 47.615 37.4379 47.5049 37.7151 47.5049C37.9922 47.5049 38.258 47.615 38.454 47.8109C38.65 48.0069 38.7601 48.2727 38.7601 48.5499C38.7643 52.0267 38.1023 55.4721 36.8101 58.6999C36.7402 58.8932 36.6125 59.0602 36.4443 59.1783C36.2761 59.2964 36.0756 59.3598 35.8701 59.3599Z" fill="white"/>
<path d="M58.7801 49.6001C58.5149 49.6001 58.2606 49.4947 58.073 49.3072C57.8855 49.1197 57.7801 48.8653 57.7801 48.6001C57.7804 46.7447 57.2355 44.93 56.2133 43.3815C55.1911 41.833 53.7364 40.619 52.0301 39.8901C51.7755 39.7814 51.5745 39.5759 51.4714 39.319C51.3682 39.0621 51.3714 38.7747 51.4801 38.5201C51.5889 38.2655 51.7943 38.0645 52.0512 37.9614C52.3081 37.8582 52.5955 37.8614 52.8501 37.9701C54.9291 38.8626 56.7005 40.3455 57.9448 42.235C59.1891 44.1246 59.8516 46.3377 59.8501 48.6001C59.8505 48.7375 59.8225 48.8736 59.7679 48.9997C59.7133 49.1258 59.6333 49.2393 59.5329 49.3332C59.4325 49.427 59.3139 49.4991 59.1843 49.5451C59.0548 49.591 58.9172 49.6097 58.7801 49.6001Z" fill="white"/>
<path d="M52.4002 39.9302C52.2587 39.9295 52.1189 39.8989 51.9902 39.8402C50.3911 39.1523 48.6329 38.9204 46.9102 39.1702C46.6357 39.21 46.3566 39.1391 46.1344 38.9731C45.9122 38.8071 45.765 38.5597 45.7252 38.2852C45.6854 38.0107 45.7563 37.7316 45.9223 37.5094C46.0882 37.2872 46.3357 37.14 46.6102 37.1002C48.712 36.7919 50.8581 37.0722 52.8102 37.9102C53.0754 37.9646 53.3081 38.122 53.4572 38.348C53.6063 38.574 53.6595 38.85 53.6052 39.1152C53.5508 39.3804 53.3933 39.6131 53.1673 39.7622C52.9413 39.9113 52.6654 39.9646 52.4002 39.9102V39.9302Z" fill="white"/>
<path d="M52.4001 59.2699H52.1601C52.0239 59.2445 51.8945 59.191 51.7801 59.1129C51.6657 59.0348 51.5687 58.9338 51.4954 58.8163C51.422 58.6988 51.3739 58.5673 51.3541 58.4302C51.3342 58.2931 51.3431 58.1534 51.3801 58.0199C52.105 54.929 52.4707 51.7647 52.4701 48.5899C52.4701 48.3128 52.5801 48.047 52.7761 47.851C52.9721 47.655 53.2379 47.5449 53.5151 47.5449C53.7922 47.5449 54.058 47.655 54.254 47.851C54.45 48.047 54.5601 48.3128 54.5601 48.5899C54.5594 51.9265 54.1735 55.2518 53.4101 58.4999C53.3569 58.7254 53.2272 58.9254 53.043 59.0658C52.8588 59.2063 52.6315 59.2784 52.4001 59.2699Z" fill="white"/>
<path d="M46.7702 59.9999C46.6046 60.0099 46.4392 59.9785 46.2888 59.9087C46.1384 59.8388 46.0077 59.7327 45.9085 59.5998C45.8093 59.4669 45.7448 59.3114 45.7206 59.1473C45.6965 58.9832 45.7135 58.8157 45.7702 58.6599C46.2527 57.0215 46.617 55.3505 46.8602 53.6599C46.8792 53.524 46.9249 53.3931 46.9945 53.2748C47.0641 53.1566 47.1563 53.0531 47.2659 52.9705C47.3755 52.8878 47.5002 52.8276 47.6331 52.7932C47.7659 52.7588 47.9043 52.7508 48.0402 52.7699C48.1761 52.7889 48.307 52.8345 48.4252 52.9041C48.5435 52.9738 48.647 53.066 48.7296 53.1756C48.8122 53.2851 48.8725 53.4099 48.9069 53.5428C48.9413 53.6756 48.9492 53.814 48.9302 53.9499C48.675 55.7485 48.2907 57.5264 47.7802 59.2699C47.7193 59.4879 47.5863 59.6788 47.4028 59.8114C47.2193 59.944 46.9963 60.0105 46.7702 59.9999Z" fill="white"/>
<path d="M41.8803 41.2397C41.6464 41.2778 41.4066 41.2316 41.2037 41.1093C41.0007 40.987 40.8477 40.7965 40.7721 40.572C40.6964 40.3474 40.7029 40.1033 40.7905 39.8831C40.8781 39.6629 41.0411 39.481 41.2503 39.3697C42.8178 38.1699 44.6666 37.3918 46.6203 37.1097C46.7562 37.0907 46.8946 37.0986 47.0274 37.133C47.1603 37.1674 47.2851 37.2277 47.3946 37.3103C47.5042 37.393 47.5964 37.4964 47.6661 37.6147C47.7357 37.733 47.7813 37.8638 47.8003 37.9997C47.8193 38.1356 47.8114 38.274 47.777 38.4068C47.7426 38.5397 47.6824 38.6645 47.5997 38.774C47.5171 38.8836 47.4136 38.9758 47.2954 39.0454C47.1771 39.115 47.0462 39.1607 46.9103 39.1797C45.3089 39.3992 43.7905 40.0259 42.5003 40.9997C42.3271 41.1481 42.1083 41.2328 41.8803 41.2397Z" fill="white"/>
<path d="M37.7403 49.6C37.4751 49.6 37.2207 49.4946 37.0332 49.3071C36.8457 49.1195 36.7403 48.8652 36.7403 48.6C36.7352 46.8204 37.1436 45.064 37.9332 43.4692C38.7228 41.8744 39.872 40.4848 41.2903 39.41C41.394 39.3235 41.5142 39.259 41.6436 39.2203C41.7729 39.1815 41.9088 39.1694 42.043 39.1846C42.1772 39.1998 42.3069 39.242 42.4243 39.3087C42.5417 39.3754 42.6444 39.4652 42.7262 39.5726C42.808 39.6801 42.8671 39.803 42.9001 39.934C42.9331 40.0649 42.9392 40.2012 42.9181 40.3346C42.897 40.468 42.8491 40.5957 42.7773 40.71C42.7055 40.8244 42.6113 40.923 42.5003 41C41.3382 41.8808 40.3964 43.0194 39.7491 44.326C39.1019 45.6327 38.7668 47.0718 38.7703 48.53C38.7802 48.6696 38.7606 48.8098 38.7129 48.9414C38.6651 49.073 38.5903 49.1932 38.4932 49.294C38.3961 49.3949 38.2789 49.4742 38.1492 49.5269C38.0195 49.5796 37.8802 49.6045 37.7403 49.6Z" fill="white"/>
<path d="M41.8802 57.9999C41.717 58.0086 41.5542 57.9771 41.406 57.9083C41.2578 57.8395 41.1287 57.7354 41.03 57.6052C40.9314 57.4749 40.8661 57.3225 40.84 57.1612C40.8139 56.9999 40.8277 56.8346 40.8802 56.6799C41.6 54.0436 41.9632 51.3227 41.9602 48.5899C41.9602 48.3128 42.0703 48.047 42.2663 47.851C42.4623 47.655 42.7281 47.5449 43.0052 47.5449C43.2824 47.5449 43.5482 47.655 43.7441 47.851C43.9401 48.047 44.0502 48.3128 44.0502 48.5899C44.0512 51.5088 43.6611 54.4147 42.8902 57.2299C42.8371 57.4554 42.7073 57.6554 42.5231 57.7958C42.3389 57.9363 42.1117 58.0084 41.8802 57.9999Z" fill="white"/>
<path d="M53.5001 49.5999C53.2349 49.5999 52.9805 49.4945 52.793 49.307C52.6055 49.1194 52.5001 48.8651 52.5001 48.5999C52.5001 47.4807 52.0555 46.4073 51.2641 45.6159C50.4727 44.8245 49.3993 44.3799 48.2801 44.3799H48.0001L47.9001 43.3799L47.8401 42.3799H48.2701C49.9401 42.3825 51.541 43.0471 52.722 44.228C53.9029 45.4089 54.5675 47.0098 54.5701 48.6799C54.5496 48.9435 54.4256 49.1884 54.225 49.3608C54.0245 49.5332 53.7638 49.6192 53.5001 49.5999Z" fill="white"/>
<path d="M43 49.6001C42.7348 49.6001 42.4804 49.4947 42.2929 49.3072C42.1054 49.1196 42 48.8653 42 48.6001C42.0059 47.0076 42.6127 45.476 43.6992 44.3116C44.7857 43.1472 46.2717 42.436 47.86 42.3201C47.9966 42.3102 48.1338 42.3274 48.2637 42.3705C48.3937 42.4137 48.5138 42.482 48.6174 42.5716C48.7209 42.6613 48.8058 42.7704 48.8671 42.8928C48.9285 43.0152 48.9652 43.1485 48.975 43.2851C48.9849 43.4217 48.9677 43.5588 48.9245 43.6888C48.8814 43.8187 48.813 43.9389 48.7234 44.0424C48.6338 44.146 48.5247 44.2309 48.4023 44.2922C48.2799 44.3536 48.1466 44.3902 48.01 44.4001C46.9479 44.4781 45.9543 44.9539 45.2276 45.7325C44.5009 46.5111 44.0947 47.5351 44.09 48.6001C44.0906 48.7393 44.062 48.8772 44.0063 49.0047C43.9505 49.1323 43.8687 49.2469 43.7661 49.341C43.6634 49.4352 43.5423 49.5068 43.4104 49.5514C43.2785 49.5961 43.1387 49.6126 43 49.6001Z" fill="white"/>
</svg>
