<?xml version="1.0" encoding="UTF-8"?>
<svg id="_图层_2" data-name="图层 2" xmlns="http://www.w3.org/2000/svg" xmlns:xlink="http://www.w3.org/1999/xlink" viewBox="0 0 20.88 20.88">
  <defs>
    <style>
      .cls-1 {
        fill: #fff;
      }

      .cls-2 {
        fill: url(#_橙色_黄色);
      }
    </style>
    <linearGradient id="_橙色_黄色" data-name="橙色, 黄色" x1="6.76" y1="10.44" x2="14.13" y2="10.44" gradientUnits="userSpaceOnUse">
      <stop offset="0" stop-color="#fff21f"/>
      <stop offset=".01" stop-color="#feee1c"/>
      <stop offset=".1" stop-color="#fddc0c"/>
      <stop offset=".19" stop-color="#fcd003"/>
      <stop offset=".28" stop-color="#fccd00"/>
      <stop offset=".67" stop-color="#f1942e"/>
      <stop offset=".89" stop-color="#ea652d"/>
      <stop offset="1" stop-color="#e5352b"/>
    </linearGradient>
  </defs>
  <g id="_图层_1-2" data-name="图层 1">
    <g>
      <g>
        <path class="cls-1" d="m10.43,5.11c.37,0,.66-.3.66-.66h0v-1.71c0-.37-.3-.66-.66-.66s-.66.3-.66.66v1.71c0,.37.3.66.66.66Z"/>
        <path class="cls-1" d="m18.1,9.71h-1.71c-.37,0-.66.3-.66.66s.3.66.66.66h1.71c.37,0,.66-.3.66-.66s-.3-.66-.66-.66Z"/>
        <path class="cls-1" d="m4.5,9.71h-1.71c-.37,0-.66.3-.66.66s.3.66.66.66h1.71c.37,0,.66-.3.66-.66s-.3-.66-.66-.66Z"/>
        <path class="cls-1" d="m10.43,15.67c-.37,0-.66.3-.66.66h0v1.71c0,.37.3.66.66.66s.66-.3.66-.66h0v-1.71c0-.37-.3-.66-.66-.66h0Z"/>
      </g>
      <g>
        <path class="cls-1" d="m10.44,20.88C4.68,20.88,0,16.2,0,10.44S4.68,0,10.44,0s10.44,4.68,10.44,10.44c0,5.76-4.68,10.44-10.44,10.44Zm0-19.78C5.29,1.11,1.11,5.29,1.11,10.44s4.19,9.33,9.33,9.33,9.33-4.19,9.33-9.33c0-5.15-4.19-9.33-9.33-9.33Z"/>
        <path class="cls-1" d="m10.44,17.31c-3.79,0-6.86-3.08-6.86-6.86s3.08-6.86,6.86-6.86,6.86,3.08,6.86,6.86c0,3.78-3.08,6.86-6.86,6.86Zm0-12.62c-3.18,0-5.76,2.58-5.76,5.76s2.58,5.76,5.76,5.76,5.76-2.58,5.76-5.76-2.58-5.76-5.76-5.76Z"/>
      </g>
      <path class="cls-2" d="m9.92,6.16c.83.45,1.6.89,1.95,1.43.42.67.51,1.48.16,2.68-.13.46,0,.89.27,1.16.28.27.67.4,1.07.4.31,0,.52-.2.77-.35-.02,1.78-1.64,3.24-3.68,3.24s-3.69-1.48-3.69-3.27c0-.92.37-1.78.87-2.49s1.12-1.25,1.56-1.54c.42-.29.76-.78.72-1.26h0Z"/>
    </g>
  </g>
</svg>