<svg width="19" height="22" viewBox="0 0 19 22" xmlns="http://www.w3.org/2000/svg">
    <path d="M17.63 6.67999L12 1.59003C11.3145 0.970941 10.4237 0.628174 9.5 0.628174C8.57632 0.628174 7.6855 0.970941 7 1.59003L1.32 6.69C0.915858 7.03365 0.589229 7.45914 0.361687 7.93835C0.134144 8.41757 0.0108675 8.93959 0 9.46997V17.74C0 18.7319 0.394035 19.6832 1.09542 20.3846C1.79681 21.086 2.74809 21.48 3.74 21.48H6.74C6.89913 21.48 7.05174 21.4168 7.16426 21.3043C7.27679 21.1917 7.34 21.0391 7.34 20.88V16.13C7.34 15.5677 7.56336 15.0285 7.96093 14.6309C8.35851 14.2333 8.89774 14.01 9.46 14.01C10.0223 14.01 10.5615 14.2333 10.9591 14.6309C11.3566 15.0285 11.58 15.5677 11.58 16.13V20.88C11.58 21.0391 11.6432 21.1917 11.7557 21.3043C11.8683 21.4168 12.0209 21.48 12.18 21.48H15.18C16.1719 21.48 17.1232 21.086 17.8246 20.3846C18.526 19.6832 18.92 18.7319 18.92 17.74V9.46997C18.9143 8.94018 18.7963 8.41767 18.574 7.93677C18.3516 7.45587 18.0299 7.02752 17.63 6.67999ZM17.63 17.73C17.63 18.4063 17.3613 19.0549 16.8831 19.5331C16.4049 20.0114 15.7563 20.28 15.08 20.28H12.77V16.13C12.77 15.2521 12.4213 14.4102 11.8005 13.7895C11.1798 13.1687 10.3379 12.82 9.46 12.82C8.58213 12.82 7.74022 13.1687 7.11948 13.7895C6.49873 14.4102 6.15 15.2521 6.15 16.13V20.28H3.78C3.1037 20.28 2.4551 20.0114 1.97688 19.5331C1.49866 19.0549 1.23 18.4063 1.23 17.73V9.46002C1.23009 9.10136 1.30585 8.74671 1.45231 8.41931C1.59878 8.09191 1.81267 7.79911 2.08 7.56L7.76 2.46002C8.22711 2.037 8.83481 1.80273 9.465 1.80273C10.0952 1.80273 10.7029 2.037 11.17 2.46002L16.85 7.56C17.1173 7.79911 17.3312 8.09191 17.4777 8.41931C17.6242 8.74671 17.6999 9.10136 17.7 9.46002L17.63 17.73Z"/>
</svg>
