<?xml version="1.0" encoding="utf-8"?>
<!-- Generator: Adobe Illustrator 27.5.0, SVG Export Plug-In . SVG Version: 6.00 Build 0)  -->
<svg version="1.1" id="Layer_2" xmlns="http://www.w3.org/2000/svg" xmlns:xlink="http://www.w3.org/1999/xlink" x="0px" y="0px"
	 viewBox="0 0 100 100" style="enable-background:new 0 0 100 100;" xml:space="preserve">
<style type="text/css">
</style>
<path class="st0" d="M96.5,23.8H70.4c5.7-1.9,10.5-4.4,12.3-7.5l0.1-0.1c0.9-1.8,1.5-4.2-1.2-8.5s-5.2-4.8-6.9-4.8
	c-7.8,0-19.1,14.4-23.5,20.6L51,23.8h-2.1l-0.2-0.2C44.3,17.4,33.1,2.9,25.2,2.9c-2.3,0-4.6,1.6-6.7,4.8c-0.8,1.4-3.2,5.5-1.1,8.6
	l0.2,0.2c1.9,3.2,6.6,5.6,11.7,7.3H3.5c-1.4,0-2.5,1.1-2.5,2.5v16.5c0,1.4,1.1,2.5,2.5,2.5h2.8v49.2c0,1.4,1.1,2.5,2.5,2.5h82.4
	c1.4,0,2.5-1.1,2.5-2.5V45.3h2.8c1.4,0,2.5-1.1,2.5-2.5V26.3C99,25,97.9,23.8,96.5,23.8z M74.7,8c0.3,0,1.2,0,2.7,2.4
	c1.4,2.3,1.2,3,1,3.5c-1.5,2.5-8.9,5.7-19.4,7.7C66.3,12.3,72.1,8,74.7,8z M21.8,13.9l-0.2-0.3l-0.1-0.1c0-0.3,0.1-1.2,1.2-3.1
	C24,8.4,24.9,8,25.1,8c2.6,0,8.4,4.3,15.8,13.8C29.9,19.6,23.1,16.4,21.8,13.9z M6,39.9V29.4c0-0.3,0.2-0.5,0.5-0.5h41v11.5h-41
	C6.2,40.4,6,40.2,6,39.9z M11.3,45.4h36.2v46.7H11.3V45.4z M88.7,92.1H52.5V45.4h36.2V92.1z M93.5,40.4H52.4V28.9h41.1
	c0.3,0,0.5,0.2,0.5,0.5v10.5C94,40.2,93.8,40.4,93.5,40.4z"/>
</svg>
