<svg width="24" height="24" viewBox="0 0 24 24" xmlns="http://www.w3.org/2000/svg">
    <path d="M7 23C10.6291 23.7427 14.371 23.7427 18 23C19.3275 22.728 20.5459 22.0722 21.504 21.114C22.4622 20.1558 23.118 18.9374 23.39 17.61C24.1437 13.9551 24.1437 10.1849 23.39 6.53C23.118 5.20253 22.4622 3.98408 21.504 3.02591C20.5459 2.06774 19.3275 1.412 18 1.13998C14.3451 0.386281 10.5749 0.386281 6.92 1.13998C5.59253 1.412 4.37413 2.06774 3.41596 3.02591C2.45779 3.98408 1.80202 5.20253 1.53 6.53C0.776579 10.1849 0.776579 13.955 1.53 17.61C1.80762 18.9481 2.47526 20.1742 3.44873 21.1334C4.42219 22.0926 5.65789 22.7421 7 23ZM2.85 6.79996C3.07049 5.72367 3.60214 4.73581 4.379 3.95895C5.15585 3.1821 6.14372 2.65045 7.22001 2.42996C10.7001 1.71237 14.2899 1.71237 17.77 2.42996C18.8468 2.64924 19.8354 3.18049 20.6124 3.95755C21.3895 4.73461 21.9207 5.72313 22.14 6.79996C22.8576 10.28 22.8576 13.8699 22.14 17.3499C21.9195 18.4262 21.3879 19.4141 20.611 20.1909C19.8342 20.9678 18.8463 21.4995 17.77 21.7199C14.2899 22.4367 10.7002 22.4367 7.22001 21.7199C6.14372 21.4995 5.15585 20.9678 4.379 20.1909C3.60214 19.4141 3.07049 18.4262 2.85 17.3499C2.13269 13.8699 2.13269 10.28 2.85 6.79996Z"/>
    <path d="M6.00001 16.19C6.17226 16.1891 6.33735 16.1209 6.46001 16L10.66 11.8L13.27 14.41C13.3936 14.5327 13.5608 14.6016 13.735 14.6016C13.9092 14.6016 14.0764 14.5327 14.2 14.41L19.52 9.09001C19.5899 9.03111 19.6468 8.95831 19.6871 8.87627C19.7274 8.79423 19.7502 8.70471 19.7541 8.61339C19.758 8.52207 19.7429 8.43092 19.7097 8.34575C19.6765 8.26058 19.626 8.18327 19.5614 8.11864C19.4968 8.05401 19.4194 8.0035 19.3342 7.97032C19.2491 7.93715 19.1579 7.922 19.0666 7.92589C18.9753 7.92978 18.8858 7.95261 18.8037 7.99291C18.7217 8.0332 18.6489 8.09007 18.59 8.15996L13.71 13L11.1 10.4C10.9764 10.2773 10.8092 10.2084 10.635 10.2084C10.4608 10.2084 10.2936 10.2773 10.17 10.4L5.50001 15.07C5.41033 15.1622 5.34956 15.2786 5.32516 15.4049C5.30076 15.5312 5.31379 15.6619 5.36266 15.7809C5.41153 15.8999 5.4941 16.0019 5.60023 16.0746C5.70635 16.1473 5.83141 16.1874 5.96001 16.19H6.00001Z"/>
</svg>
