<svg width="18" height="16" viewBox="0 0 18 16" xmlns="http://www.w3.org/2000/svg">
    <path d="M1 1.99993H17C17.0846 2.01093 17.1706 2.00375 17.2522 1.97888C17.3338 1.95401 17.4092 1.91202 17.4733 1.85571C17.5374 1.7994 17.5888 1.73007 17.6239 1.65234C17.6591 1.57461 17.6773 1.49028 17.6773 1.40496C17.6773 1.31964 17.6591 1.23526 17.6239 1.15753C17.5888 1.0798 17.5374 1.01047 17.4733 0.954158C17.4092 0.897848 17.3338 0.855861 17.2522 0.830989C17.1706 0.806117 17.0846 0.79894 17 0.809932H1C0.91539 0.79894 0.829418 0.806117 0.747803 0.830989C0.666188 0.855861 0.590802 0.897848 0.526703 0.954158C0.462604 1.01047 0.411247 1.0798 0.376068 1.15753C0.340889 1.23526 0.322693 1.31964 0.322693 1.40496C0.322693 1.49028 0.340889 1.57461 0.376068 1.65234C0.411247 1.73007 0.462604 1.7994 0.526703 1.85571C0.590802 1.91202 0.666188 1.95401 0.747803 1.97888C0.829418 2.00375 0.91539 2.01093 1 1.99993Z"/>
    <path d="M1 8.65008H17C17.1445 8.63131 17.2773 8.56054 17.3735 8.45105C17.4697 8.34155 17.5227 8.20079 17.5227 8.05505C17.5227 7.90931 17.4697 7.76855 17.3735 7.65905C17.2773 7.54956 17.1445 7.47885 17 7.46008H1C0.91539 7.44909 0.829418 7.45626 0.747803 7.48114C0.666188 7.50601 0.590802 7.54799 0.526703 7.6043C0.462604 7.66062 0.411247 7.72994 0.376068 7.80767C0.340889 7.8854 0.322693 7.96973 0.322693 8.05505C0.322693 8.14037 0.340889 8.22469 0.376068 8.30242C0.411247 8.38016 0.462604 8.44948 0.526703 8.50579C0.590802 8.5621 0.666188 8.60415 0.747803 8.62902C0.829418 8.6539 0.91539 8.66107 1 8.65008Z"/>
    <path d="M1 15.3H12.65C12.7346 15.311 12.8206 15.3038 12.9022 15.2789C12.9838 15.2541 13.0592 15.2121 13.1233 15.1558C13.1874 15.0994 13.2387 15.0301 13.2739 14.9524C13.3091 14.8747 13.3273 14.7903 13.3273 14.705C13.3273 14.6197 13.3091 14.5353 13.2739 14.4576C13.2387 14.3798 13.1874 14.3105 13.1233 14.2542C13.0592 14.1979 12.9838 14.1559 12.9022 14.131C12.8206 14.1062 12.7346 14.099 12.65 14.11H1C0.91539 14.099 0.829418 14.1062 0.747803 14.131C0.666188 14.1559 0.590802 14.1979 0.526703 14.2542C0.462604 14.3105 0.411247 14.3798 0.376068 14.4576C0.340889 14.5353 0.322693 14.6197 0.322693 14.705C0.322693 14.7903 0.340889 14.8747 0.376068 14.9524C0.411247 15.0301 0.462604 15.0994 0.526703 15.1558C0.590802 15.2121 0.666188 15.2541 0.747803 15.2789C0.829418 15.3038 0.91539 15.311 1 15.3Z"/>
</svg>
