<svg width="19" height="25" viewBox="0 0 19 25" xmlns="http://www.w3.org/2000/svg">
    <path d="M1.24001 11.39C0.67842 14.1113 0.67842 16.9187 1.24001 19.64C1.44815 20.6573 1.95053 21.591 2.68476 22.3253C3.41899 23.0595 4.35272 23.5619 5.37001 23.77C8.09136 24.3313 10.8986 24.3313 13.62 23.77C14.6373 23.5619 15.571 23.0595 16.3053 22.3253C17.0395 21.591 17.5419 20.6573 17.75 19.64C18.3113 16.9187 18.3113 14.1114 17.75 11.39C17.5419 10.3727 17.0395 9.439 16.3053 8.70477C15.571 7.97054 14.6373 7.46816 13.62 7.26001C10.9794 6.73227 8.26056 6.73227 5.62001 7.26001C5.52697 6.64457 5.48683 6.02231 5.50001 5.40002C5.5356 4.39852 5.95341 3.44862 6.66759 2.74561C7.38176 2.04259 8.33807 1.63981 9.34001 1.62H9.68001C10.6819 1.63981 11.6383 2.04259 12.3524 2.74561C13.0666 3.44862 13.4844 4.39852 13.52 5.40002C13.5403 5.56744 13.6211 5.72164 13.7474 5.8335C13.8736 5.94535 14.0364 6.00708 14.205 6.00708C14.3736 6.00708 14.5364 5.94535 14.6627 5.8335C14.7889 5.72164 14.8697 5.56744 14.89 5.40002C14.8442 4.04463 14.2806 2.75833 13.3152 1.80591C12.3497 0.853484 11.0559 0.307403 9.70001 0.280029H9.32001C7.96411 0.307403 6.6703 0.853484 5.70485 1.80591C4.73941 2.75833 4.17579 4.04463 4.13001 5.40002C4.11576 6.16365 4.17267 6.92692 4.30001 7.67999C3.53355 8.01331 2.8568 8.5232 2.32499 9.16797C1.79318 9.81274 1.42141 10.5741 1.24001 11.39ZM5.65001 8.59998C8.18995 8.07613 10.8101 8.07613 13.35 8.59998C14.1067 8.75352 14.8014 9.12662 15.3474 9.67261C15.8934 10.2186 16.2665 10.9133 16.42 11.67C16.9439 14.2099 16.9439 16.8301 16.42 19.37C16.2665 20.1267 15.8934 20.8214 15.3474 21.3674C14.8014 21.9134 14.1067 22.2865 13.35 22.44C10.8101 22.9639 8.18995 22.9639 5.65001 22.44C4.89329 22.2865 4.19857 21.9134 3.65259 21.3674C3.1066 20.8214 2.73355 20.1267 2.58001 19.37C2.05616 16.8301 2.05616 14.2099 2.58001 11.67C2.73355 10.9133 3.1066 10.2186 3.65259 9.67261C4.19857 9.12662 4.89329 8.75352 5.65001 8.59998Z"/>
    <path d="M8.81001 16.7499V18.7499C8.83027 18.9174 8.91115 19.0716 9.03735 19.1834C9.16356 19.2953 9.32636 19.357 9.495 19.357C9.66364 19.357 9.82645 19.2953 9.95266 19.1834C10.0789 19.0716 10.1597 18.9174 10.18 18.7499V16.7499C10.7929 16.5839 11.3247 16.2009 11.6764 15.6722C12.0281 15.1435 12.1759 14.505 12.0921 13.8755C12.0084 13.2461 11.6989 12.6684 11.2211 12.2501C10.7434 11.8317 10.13 11.6011 9.495 11.6011C8.85998 11.6011 8.24658 11.8317 7.76886 12.2501C7.29114 12.6684 6.98163 13.2461 6.89789 13.8755C6.81414 14.505 6.96187 15.1435 7.31358 15.6722C7.6653 16.2009 8.19708 16.5839 8.81001 16.7499ZM9.50001 12.9999C9.74723 12.9999 9.98891 13.0733 10.1945 13.2106C10.4 13.348 10.5602 13.5432 10.6549 13.7716C10.7495 14 10.7742 14.2513 10.726 14.4938C10.6778 14.7363 10.5587 14.959 10.3839 15.1339C10.2091 15.3087 9.98634 15.4277 9.74387 15.4759C9.50139 15.5241 9.25006 15.4994 9.02165 15.4048C8.79324 15.3102 8.59802 15.15 8.46067 14.9444C8.32332 14.7388 8.25 14.4972 8.25 14.2499C8.25262 13.9192 8.38516 13.6028 8.61901 13.369C8.85287 13.1351 9.16929 13.0026 9.50001 12.9999Z"/>
</svg>
