<svg width="18" height="24" viewBox="0 0 18 24" xmlns="http://www.w3.org/2000/svg">
    <path d="M8.78001 23.32C7.45654 23.3202 6.13645 23.1862 4.84001 22.92C3.87055 22.7242 2.97975 22.2485 2.27773 21.5518C1.57571 20.8551 1.09326 19.9679 0.890015 19C0.354044 16.4007 0.354044 13.7193 0.890015 11.12C1.088 10.1466 1.56812 9.25295 2.27054 8.55053C2.97295 7.84812 3.86658 7.36799 4.84001 7.17001C7.43931 6.63376 10.1207 6.63376 12.72 7.17001C13.6935 7.36799 14.5871 7.84812 15.2895 8.55053C15.9919 9.25295 16.472 10.1466 16.67 11.12C17.2063 13.7193 17.2063 16.4007 16.67 19C16.472 19.9734 15.9919 20.8671 15.2895 21.5695C14.5871 22.2719 13.6935 22.752 12.72 22.95C11.4226 23.2061 10.1025 23.33 8.78001 23.32ZM8.78001 8.04999C7.54366 8.05202 6.31069 8.17934 5.10001 8.42999C4.37831 8.57765 3.71588 8.93406 3.19498 9.45495C2.67409 9.97585 2.31768 10.6383 2.17001 11.36C1.66934 13.7878 1.66934 16.2922 2.17001 18.72C2.31768 19.4417 2.67409 20.1041 3.19498 20.625C3.71588 21.1459 4.37831 21.5023 5.10001 21.65C7.52777 22.1509 10.0323 22.1509 12.46 21.65C13.1817 21.5023 13.8442 21.1459 14.3651 20.625C14.8859 20.1041 15.2424 19.4417 15.39 18.72C15.891 16.2922 15.891 13.7877 15.39 11.36C15.2424 10.6383 14.8859 9.97585 14.3651 9.45495C13.8442 8.93406 13.1817 8.57765 12.46 8.42999C11.2511 8.16253 10.0181 8.01847 8.78001 8V8.04999Z"/>
    <path d="M13 8.43011H12.87C12.7858 8.41342 12.7057 8.3802 12.6343 8.33237C12.563 8.28454 12.5019 8.22306 12.4544 8.15146C12.407 8.07986 12.3743 7.99959 12.358 7.91525C12.3418 7.83092 12.3425 7.7442 12.36 7.66013C12.5168 6.89374 12.5872 6.11218 12.57 5.33011C12.5369 4.37289 12.1377 3.46487 11.4549 2.79321C10.7721 2.12156 9.85762 1.73748 8.89999 1.72012H8.57999C7.64146 1.75959 6.75215 2.15076 6.08885 2.81592C5.42555 3.48107 5.03683 4.37148 4.99999 5.31012C4.98264 6.0922 5.05308 6.87377 5.20999 7.64014C5.21876 7.79841 5.17027 7.95452 5.0734 8.07999C4.97652 8.20545 4.83772 8.29187 4.68237 8.32343C4.52703 8.35498 4.36552 8.32959 4.22737 8.25186C4.08922 8.17414 3.98366 8.04927 3.92999 7.90012C3.75241 7.03848 3.67191 6.15968 3.68999 5.28012C3.7361 3.97893 4.28103 2.74535 5.21187 1.83499C6.14271 0.924632 7.3881 0.407296 8.68999 0.390137H8.99999C10.3019 0.407296 11.5473 0.924632 12.4781 1.83499C13.4089 2.74535 13.9539 3.97893 14 5.28012C14.018 6.15967 13.9375 7.03847 13.76 7.90012C13.7283 8.07057 13.6308 8.22172 13.4886 8.32089C13.3464 8.42007 13.1709 8.4593 13 8.43011Z"/>
    <path d="M8.78002 16.29C8.28359 16.29 7.79831 16.1428 7.38554 15.867C6.97277 15.5912 6.65106 15.1992 6.46108 14.7406C6.2711 14.2819 6.2214 13.7772 6.31825 13.2903C6.4151 12.8034 6.65416 12.3562 7.00519 12.0052C7.35622 11.6541 7.80345 11.4151 8.29034 11.3183C8.77723 11.2214 9.28191 11.2711 9.74055 11.4611C10.1992 11.6511 10.5912 11.9728 10.867 12.3855C11.1428 12.7983 11.29 13.2836 11.29 13.78C11.29 14.4457 11.0256 15.0841 10.5549 15.5549C10.0841 16.0256 9.44571 16.29 8.78002 16.29ZM8.78002 12.59C8.54268 12.59 8.31068 12.6604 8.11334 12.7923C7.916 12.9241 7.76219 13.1115 7.67136 13.3308C7.58054 13.5501 7.55678 13.7913 7.60308 14.0241C7.64938 14.2569 7.76367 14.4707 7.93149 14.6385C8.09932 14.8064 8.31313 14.9207 8.54591 14.967C8.77869 15.0133 9.01997 14.9895 9.23924 14.8987C9.45851 14.8078 9.64593 14.654 9.77778 14.4567C9.90964 14.2594 9.98002 14.0274 9.98002 13.79C9.98002 13.6324 9.94898 13.4764 9.88868 13.3308C9.82837 13.1852 9.73998 13.0529 9.62855 12.9415C9.51712 12.8301 9.38483 12.7417 9.23924 12.6814C9.09365 12.621 8.93761 12.59 8.78002 12.59Z"/>
    <path d="M8.77995 18.7701C8.6929 18.7714 8.60647 18.7553 8.52579 18.7226C8.4451 18.6899 8.37181 18.6414 8.31025 18.5798C8.24869 18.5182 8.20013 18.4449 8.16744 18.3643C8.13475 18.2836 8.1186 18.1971 8.11995 18.1101V15.6301C8.11995 15.4564 8.18896 15.2898 8.31179 15.1669C8.43463 15.0441 8.60123 14.9751 8.77495 14.9751C8.94867 14.9751 9.11526 15.0441 9.2381 15.1669C9.36094 15.2898 9.42995 15.4564 9.42995 15.6301V18.1101C9.43128 18.1963 9.41544 18.2819 9.38337 18.3619C9.3513 18.4419 9.30363 18.5148 9.24314 18.5762C9.18265 18.6376 9.11054 18.6864 9.03102 18.7197C8.9515 18.753 8.86615 18.7701 8.77995 18.7701Z"/>
</svg>
