<svg width="26" height="24" viewBox="0 0 26 24" xmlns="http://www.w3.org/2000/svg">
    <path d="M1.27001 23.0601C1.45698 23.0984 1.65155 23.061 1.81094 22.956C1.97032 22.851 2.08149 22.687 2.12 22.5001C2.37597 21.2514 2.99284 20.1054 3.89411 19.2042C4.79538 18.3029 5.94139 17.686 7.19001 17.43C11.2143 16.5995 15.3657 16.5995 19.39 17.43C20.6386 17.686 21.7846 18.3029 22.6859 19.2042C23.5872 20.1054 24.204 21.2514 24.46 22.5001C24.4922 22.6625 24.5794 22.8088 24.7069 22.9145C24.8344 23.0201 24.9944 23.0786 25.16 23.08H25.31C25.497 23.0415 25.661 22.9304 25.766 22.771C25.871 22.6116 25.9084 22.417 25.87 22.2301C25.5513 20.7084 24.7961 19.3126 23.6968 18.2133C22.5975 17.114 21.2016 16.3588 19.68 16.0401C15.4644 15.1699 11.1156 15.1699 6.9 16.0401C5.37835 16.3588 3.98255 17.114 2.88323 18.2133C1.78391 19.3126 1.02874 20.7084 0.710014 22.2301C0.677428 22.414 0.717625 22.6034 0.82212 22.7583C0.926615 22.9132 1.08722 23.0214 1.27001 23.0601Z"/>
    <path d="M6.64001 6.7301C6.64001 8.04535 7.03003 9.33103 7.76074 10.4246C8.49145 11.5182 9.53003 12.3706 10.7452 12.8739C11.9603 13.3772 13.2974 13.5089 14.5874 13.2523C15.8773 12.9957 17.0623 12.3624 17.9923 11.4323C18.9223 10.5023 19.5556 9.31741 19.8122 8.02744C20.0688 6.73746 19.9371 5.40037 19.4338 4.18524C18.9305 2.97011 18.0781 1.93152 16.9846 1.20081C15.891 0.470094 14.6053 0.0800781 13.29 0.0800781C11.5271 0.0827231 9.83723 0.784218 8.59068 2.03076C7.34414 3.27731 6.64266 4.96723 6.64001 6.7301ZM18.5 6.7301C18.5 7.76054 18.1945 8.76782 17.622 9.6246C17.0495 10.4814 16.2358 11.1492 15.2838 11.5435C14.3318 11.9379 13.2842 12.041 12.2736 11.84C11.2629 11.639 10.3346 11.1428 9.60599 10.4141C8.87736 9.68549 8.38116 8.75716 8.18013 7.74652C7.9791 6.73588 8.08228 5.6883 8.47661 4.7363C8.87094 3.78429 9.53871 2.97061 10.3955 2.39813C11.2523 1.82565 12.2596 1.52008 13.29 1.52008C14.6727 1.52008 15.9989 2.06869 16.9776 3.04547C17.9562 4.02225 18.5074 5.34741 18.51 6.7301H18.5Z"/>
</svg>
