<svg width="46" height="46" viewBox="0 0 46 46" xmlns="http://www.w3.org/2000/svg">
<!--    <path d="M23.38 45.1C17.4126 45.1 11.6897 42.7295 7.47009 38.5099C3.25052 34.2903 0.880005 28.5673 0.880005 22.6C0.880005 16.6326 3.25052 10.9096 7.47009 6.69006C11.6897 2.47049 17.4126 0.0999756 23.38 0.0999756C29.3474 0.0999756 35.0703 2.47049 39.2899 6.69006C43.5095 10.9096 45.88 16.6326 45.88 22.6C45.88 28.5673 43.5095 34.2903 39.2899 38.5099C35.0703 42.7295 29.3474 45.1 23.38 45.1Z"/>-->
    <path d="M31.08 17.07H28.52V18.99H31.08V17.07ZM33.57 18.07C32.904 17.4219 32.0093 17.0625 31.08 17.07V18.99C31.5041 18.9907 31.9105 19.1598 32.21 19.46L33.57 18.07ZM34.57 20.56C34.5774 19.6307 34.2181 18.736 33.57 18.07L32.21 19.43C32.5102 19.7295 32.6793 20.1359 32.68 20.56H34.57ZM34.57 29.56V20.56H32.68V29.56H34.57ZM33.57 32.05C34.2181 31.384 34.5774 30.4893 34.57 29.56H32.68C32.6793 29.9841 32.5102 30.3905 32.21 30.69L33.57 32.05ZM31.08 33.05C32.0093 33.0574 32.904 32.6981 33.57 32.05L32.21 30.69C31.9105 30.9902 31.5041 31.1593 31.08 31.16V33.05ZM15.7 33.05H31.08V31.18H15.69L15.7 33.05ZM13.21 32.05C13.876 32.6981 14.7707 33.0574 15.7 33.05V31.18C15.2759 31.1793 14.8695 31.0102 14.57 30.71L13.21 32.05ZM12.21 29.56C12.2026 30.4893 12.5619 31.384 13.21 32.05L14.57 30.69C14.2698 30.3905 14.1007 29.9841 14.1 29.56H12.21ZM12.21 20.56V29.56H14.08V20.56H12.21ZM13.21 18.07C12.5619 18.736 12.2026 19.6307 12.21 20.56H14.08C14.0807 20.1359 14.2498 19.7295 14.55 19.43L13.21 18.07ZM15.7 17.07C14.7707 17.0625 13.876 17.4219 13.21 18.07L14.57 19.43C14.8695 19.1298 15.2759 18.9607 15.7 18.96V17.07ZM18.26 17.07H15.7V18.99H18.26V17.07ZM28.52 17.07C28.371 17.0265 28.2139 17.0183 28.0611 17.0461C27.9084 17.0739 27.7642 17.1369 27.64 17.23C27.5158 17.3231 27.415 17.4439 27.3456 17.5828C27.2762 17.7216 27.24 17.8747 27.24 18.03C27.24 18.1852 27.2762 18.3383 27.3456 18.4772C27.415 18.616 27.5158 18.7368 27.64 18.83C27.7642 18.9231 27.9084 18.9861 28.0611 19.0139C28.2139 19.0416 28.371 19.0335 28.52 18.99V17.07ZM18.21 18.97C18.359 19.0135 18.5161 19.0216 18.6689 18.9939C18.8216 18.9661 18.9658 18.9032 19.09 18.81C19.2142 18.7169 19.315 18.596 19.3844 18.4572C19.4539 18.3183 19.49 18.1652 19.49 18.01C19.49 17.8547 19.4539 17.7016 19.3844 17.5628C19.315 17.4239 19.2142 17.3031 19.09 17.21C18.9658 17.1168 18.8216 17.0539 18.6689 17.0261C18.5161 16.9984 18.359 17.0065 18.21 17.05V18.97Z"/>
    <path d="M27.91 12.23L24.08 8.37994L22.72 9.73999L26.57 13.59L27.91 12.23ZM22.7 8.37994L18.85 12.23L20.21 13.59L24.06 9.73999L22.7 8.37994ZM24.34 27.0099V9.06H22.42V27.0099H24.34ZM26.54 13.59C26.6152 13.7252 26.7208 13.8411 26.8484 13.9286C26.976 14.0162 27.1222 14.0728 27.2754 14.0942C27.4287 14.1157 27.5848 14.1012 27.7315 14.0521C27.8783 14.0029 28.0116 13.9204 28.121 13.811C28.2304 13.7016 28.3129 13.5682 28.3621 13.4215C28.4112 13.2748 28.4257 13.1187 28.4043 12.9655C28.3828 12.8122 28.3261 12.666 28.2386 12.5384C28.1511 12.4108 28.0352 12.3052 27.9 12.23L26.54 13.59ZM18.85 12.23C18.7443 12.42 18.7034 12.6392 18.7335 12.8545C18.7636 13.0698 18.863 13.2694 19.0168 13.4232C19.1705 13.5769 19.3701 13.6763 19.5854 13.7064C19.8007 13.7365 20.02 13.6956 20.21 13.59L18.85 12.23ZM23.38 9.06L24.06 8.37994C23.8751 8.20845 23.6322 8.11316 23.38 8.11316C23.1278 8.11316 22.8849 8.20845 22.7 8.37994L23.38 9.06ZM22.38 27.0099C22.4406 27.2177 22.5669 27.4001 22.74 27.53C22.9131 27.6598 23.1236 27.73 23.34 27.73C23.5563 27.73 23.7669 27.6598 23.94 27.53C24.1131 27.4001 24.2394 27.2177 24.3 27.0099H22.38Z"/>
</svg>
