<svg width="25" height="24" viewBox="0 0 25 24" xmlns="http://www.w3.org/2000/svg">
    <path d="M6.91 23.3499C10.5721 24.0991 14.3479 24.0991 18.01 23.3499C19.3662 23.0862 20.6141 22.427 21.5964 21.4554C22.5787 20.4838 23.2514 19.2432 23.53 17.89C23.8697 16.2438 24.0605 14.5704 24.1 12.89C24.122 11.9955 23.9633 11.1059 23.6334 10.2742C23.3035 9.4426 22.8092 8.68604 22.18 8.04994C20.9225 6.76445 19.2081 6.02768 17.41 5.99995H16.93C16.2443 6.00162 15.5737 5.79896 15.0038 5.4178C14.4338 5.03664 13.9903 4.49425 13.73 3.85994C13.3364 2.88912 12.6323 2.07603 11.7277 1.54774C10.8231 1.01945 9.76893 0.805737 8.73 0.939953C8.1 1.01995 7.47 1.12996 6.84 1.25996C5.51023 1.54511 4.29233 2.21141 3.33512 3.1775C2.37791 4.14359 1.72285 5.36762 1.45 6.69996C0.68956 10.3878 0.68956 14.1921 1.45 17.88C1.72259 19.227 2.38571 20.4641 3.35666 21.4368C4.3276 22.4095 5.56342 23.0749 6.91 23.3499ZM2.75 6.99995C2.96708 5.91796 3.49682 4.92342 4.27359 4.13954C5.05036 3.35566 6.04002 2.81691 7.12 2.58998C7.71 2.46998 8.32 2.35998 8.92 2.27998C9.0665 2.27016 9.2135 2.27016 9.36 2.27998C10.0403 2.28572 10.7036 2.49299 11.2661 2.87568C11.8285 3.25838 12.2649 3.79927 12.52 4.42994C12.7828 5.02394 13.1639 5.55815 13.64 5.99995H8.53C8.37021 6.01973 8.22318 6.09721 8.11655 6.21785C8.00993 6.33848 7.95108 6.49398 7.95108 6.65498C7.95108 6.81598 8.00993 6.97142 8.11655 7.09205C8.22318 7.21269 8.37021 7.29017 8.53 7.30995H17.27C18.0149 7.304 18.7533 7.44891 19.4408 7.73591C20.1282 8.02292 20.7504 8.44606 21.27 8.97993C21.7749 9.49162 22.1714 10.0998 22.436 10.7682C22.7006 11.4366 22.8278 12.1513 22.81 12.8699C22.7717 14.4629 22.591 16.0492 22.27 17.6099C22.0393 18.7104 21.4894 19.7184 20.6891 20.5081C19.8887 21.2977 18.8734 21.834 17.77 22.0499C14.2795 22.7641 10.6805 22.7641 7.19 22.0499C6.10117 21.8274 5.10173 21.2899 4.3159 20.504C3.53007 19.7182 2.9925 18.7188 2.77 17.63C2.0421 14.1247 2.03529 10.5079 2.75 6.99995Z"/>
</svg>
