<svg width="31" height="28" viewBox="0 0 31 28" xmlns="http://www.w3.org/2000/svg">
    <path d="M19.53 13.45L16.2 16.4501C15.5892 16.9966 15.2115 17.7565 15.1445 18.5733C15.0775 19.3901 15.3264 20.2015 15.84 20.8401L19.93 25.9401C20.0659 26.1117 20.2454 26.2436 20.4498 26.3219C20.6542 26.4003 20.8759 26.4222 21.0917 26.3854C21.3075 26.3486 21.5094 26.2544 21.6762 26.1127C21.8431 25.971 21.9687 25.7871 22.04 25.5801L29.91 3.24008C29.9892 3.01981 30.0034 2.78136 29.9508 2.55325C29.8983 2.32514 29.7812 2.11698 29.6136 1.95358C29.446 1.79018 29.2349 1.67847 29.0055 1.63174C28.7762 1.58501 28.5382 1.60523 28.32 1.69003L2.43 11.5C2.2062 11.5832 2.01172 11.7302 1.87067 11.9229C1.72962 12.1155 1.64819 12.3453 1.63648 12.5838C1.62477 12.8222 1.68329 13.0589 1.80478 13.2644C1.92628 13.47 2.10541 13.6354 2.31998 13.7401L8.09998 16.62C8.25111 16.6947 8.38513 16.8 8.49356 16.9291C8.602 17.0582 8.68249 17.2083 8.72998 17.37L10.95 24.99" stroke="#E6E6E6" stroke-width="2" stroke-linecap="round" stroke-linejoin="round"/>
</svg>
