<svg width="22" height="22" viewBox="0 0 22 22" xmlns="http://www.w3.org/2000/svg">
    <path d="M2.57996 15.68C2.5826 16.7056 2.99118 17.6884 3.71637 18.4136C4.44156 19.1388 5.42441 19.5473 6.44998 19.55C6.80257 19.5476 7.15212 19.6153 7.4783 19.7492C7.80448 19.8831 8.10078 20.0806 8.34998 20.33C8.70947 20.6904 9.13651 20.9763 9.60669 21.1714C10.0769 21.3666 10.5809 21.467 11.09 21.467C11.599 21.467 12.1031 21.3666 12.5732 21.1714C13.0434 20.9763 13.4705 20.6904 13.83 20.33C14.0783 20.0788 14.3743 19.8795 14.7005 19.7438C15.0267 19.6082 15.3767 19.5389 15.73 19.54C16.7556 19.5373 17.7384 19.1288 18.4636 18.4036C19.1888 17.6784 19.5973 16.6956 19.6 15.67C19.5989 15.3167 19.6682 14.9667 19.8038 14.6405C19.9394 14.3143 20.1387 14.0184 20.39 13.77C21.1154 13.0427 21.5228 12.0573 21.5228 11.03C21.5228 10.0027 21.1154 9.01733 20.39 8.28998C20.1387 8.04161 19.9394 7.74571 19.8038 7.41949C19.6682 7.09328 19.5989 6.74331 19.6 6.39001C19.5973 5.36444 19.1888 4.38163 18.4636 3.65643C17.7384 2.93124 16.7556 2.52266 15.73 2.52002C15.3767 2.52111 15.0267 2.4518 14.7005 2.31616C14.3743 2.18052 14.0783 1.98124 13.83 1.72998C13.1026 1.00452 12.1173 0.597168 11.09 0.597168C10.0627 0.597168 9.07732 1.00452 8.34998 1.72998C8.10161 1.98124 7.80568 2.18052 7.47946 2.31616C7.15324 2.4518 6.80327 2.52111 6.44998 2.52002C5.42441 2.52266 4.44156 2.93124 3.71637 3.65643C2.99118 4.38163 2.5826 5.36444 2.57996 6.39001C2.58236 6.7426 2.51464 7.09215 2.38074 7.41833C2.24683 7.74452 2.04941 8.04078 1.79996 8.28998C1.0745 9.01733 0.667114 10.0027 0.667114 11.03C0.667114 12.0573 1.0745 13.0427 1.79996 13.77C2.05062 14.0204 2.24875 14.3183 2.38269 14.6463C2.51663 14.9743 2.58369 15.3257 2.57996 15.68ZM2.63998 9.15002C3.00002 8.79062 3.28526 8.36337 3.47922 7.89307C3.67317 7.42277 3.77197 6.91869 3.76996 6.40997C3.76996 5.69919 4.05233 5.01755 4.55493 4.51495C5.05753 4.01236 5.7392 3.72998 6.44998 3.72998C6.9587 3.732 7.46278 3.63316 7.93307 3.43921C8.40337 3.24525 8.83057 2.96001 9.18997 2.59998C9.69257 2.09741 10.3742 1.81506 11.085 1.81506C11.7957 1.81506 12.4774 2.09741 12.98 2.59998C13.3394 2.96001 13.7666 3.24525 14.2369 3.43921C14.7072 3.63316 15.2113 3.732 15.72 3.72998C16.4308 3.72998 17.1124 4.01236 17.615 4.51495C18.1176 5.01755 18.4 5.69919 18.4 6.40997C18.3979 6.91869 18.4968 7.42277 18.6907 7.89307C18.8847 8.36337 19.1699 8.79062 19.53 9.15002C20.0325 9.65262 20.3149 10.3342 20.3149 11.045C20.3149 11.7557 20.0325 12.4374 19.53 12.94C19.1699 13.2994 18.8847 13.7266 18.6907 14.1969C18.4968 14.6672 18.3979 15.1713 18.4 15.68C18.4 16.3908 18.1176 17.0725 17.615 17.5751C17.1124 18.0777 16.4308 18.36 15.72 18.36C15.2139 18.3619 14.7132 18.4636 14.2465 18.6592C13.7798 18.8549 13.3562 19.1405 13 19.5C12.4974 20.0026 11.8157 20.2849 11.105 20.2849C10.3942 20.2849 9.71255 20.0026 9.20996 19.5C8.85055 19.14 8.42336 18.8547 7.95306 18.6608C7.48276 18.4668 6.97869 18.368 6.46997 18.37C5.75919 18.37 5.07752 18.0876 4.57492 17.585C4.07232 17.0824 3.78998 16.4008 3.78998 15.69C3.79199 15.1813 3.69316 14.6772 3.49921 14.2069C3.30525 13.7366 3.02001 13.3094 2.65997 12.95C2.15474 12.4501 1.8688 11.7699 1.86505 11.0591C1.8613 10.3484 2.14006 9.66521 2.63998 9.15997V9.15002Z"/>
    <path d="M7.64003 15.1C7.71778 15.1008 7.79491 15.0862 7.86699 15.057C7.93907 15.0278 8.00466 14.9847 8.06001 14.93L15 8.00005C15.0867 7.8845 15.1288 7.74158 15.1185 7.59752C15.1083 7.45345 15.0464 7.31793 14.9443 7.21581C14.8422 7.11368 14.7066 7.05179 14.5625 7.04155C14.4185 7.03131 14.2756 7.07336 14.16 7.16002L7.26002 14.06C7.18416 14.1446 7.13386 14.249 7.115 14.3611C7.09615 14.4731 7.10952 14.5882 7.15352 14.693C7.19752 14.7977 7.27033 14.8878 7.36354 14.9528C7.45675 15.0178 7.5665 15.055 7.68001 15.06L7.64003 15.1Z"/>
    <path d="M13.73 13.2099L13.24 13.6999C13.1533 13.8154 13.1113 13.9583 13.1215 14.1024C13.1317 14.2465 13.1936 14.382 13.2957 14.4841C13.3979 14.5862 13.5334 14.6481 13.6774 14.6584C13.8215 14.6686 13.9644 14.6265 14.08 14.5398L14.57 14.0498C14.6566 13.9343 14.6987 13.7914 14.6885 13.6473C14.6782 13.5033 14.6164 13.3677 14.5142 13.2656C14.4121 13.1635 14.2766 13.1016 14.1325 13.0914C13.9885 13.0811 13.8455 13.1232 13.73 13.2099Z"/>
    <path d="M7.99996 9.06993C8.07772 9.07067 8.15484 9.05602 8.22692 9.02684C8.299 8.99767 8.36462 8.95456 8.41997 8.89995L8.90996 8.4099C8.99662 8.29435 9.0387 8.15144 9.02846 8.00737C9.01822 7.8633 8.95636 7.72778 8.85424 7.62566C8.75211 7.52353 8.61656 7.4617 8.47249 7.45146C8.32843 7.44122 8.18551 7.48327 8.06997 7.56993L7.57995 8.05992C7.50408 8.14451 7.45381 8.2489 7.43496 8.36095C7.4161 8.47299 7.42944 8.5881 7.47344 8.69286C7.51744 8.79761 7.59028 8.8877 7.68349 8.95268C7.7767 9.01766 7.88645 9.05487 7.99996 9.05992V9.06993Z"/>
</svg>
