<svg width="24" height="24" viewBox="0 0 24 24" xmlns="http://www.w3.org/2000/svg">
    <path d="M6.00001 22.4599C9.65489 23.2136 13.4251 23.2136 17.08 22.4599C18.4075 22.1879 19.6259 21.5321 20.584 20.5739C21.5422 19.6157 22.198 18.3974 22.47 17.0699C23.2237 13.415 23.2237 9.64475 22.47 5.98987C22.1942 4.64987 21.5273 3.42171 20.5537 2.46057C19.5801 1.49943 18.3434 0.848472 17 0.589902C13.3452 -0.164082 9.57486 -0.164082 5.92001 0.589902C4.59721 0.870333 3.38556 1.53212 2.43475 2.49359C1.48395 3.45505 0.83567 4.67403 0.570008 5.99988C-0.183696 9.65476 -0.183696 13.425 0.570008 17.0799C0.8466 18.4109 1.50908 19.6309 2.47476 20.5876C3.44044 21.5444 4.66654 22.1956 6.00001 22.4599ZM1.89001 6.24988C2.10928 5.17304 2.64054 4.18453 3.4176 3.40747C4.19466 2.63041 5.18318 2.09915 6.26001 1.87988C9.74007 1.16229 13.3299 1.16229 16.81 1.87988C17.8868 2.09915 18.8754 2.63041 19.6524 3.40747C20.4295 4.18453 20.9607 5.17304 21.18 6.24988C21.8976 9.72993 21.8976 13.3198 21.18 16.7999C20.9595 17.8762 20.4279 18.864 19.651 19.6409C18.8742 20.4177 17.8863 20.9494 16.81 21.1699C13.3299 21.8869 9.74012 21.8869 6.26001 21.1699C5.18372 20.9494 4.19586 20.4177 3.419 19.6409C2.64215 18.864 2.11049 17.8762 1.89001 16.7999C1.15922 13.3225 1.1456 9.73266 1.85001 6.24988H1.89001Z"/>
    <path d="M6.81001 16.8699C6.98226 16.869 7.14734 16.8009 7.27001 16.6799L16.64 7.30992C16.7465 7.1835 16.8018 7.02173 16.7947 6.85656C16.7877 6.69138 16.7189 6.5348 16.602 6.4179C16.4851 6.30099 16.3286 6.23224 16.1634 6.22521C15.9982 6.21817 15.8364 6.27339 15.71 6.37993L6.34001 15.7499C6.25033 15.8421 6.18956 15.9585 6.16515 16.0848C6.14075 16.2111 6.15378 16.3418 6.20265 16.4608C6.25152 16.5798 6.3341 16.6819 6.44022 16.7546C6.54635 16.8273 6.6714 16.8674 6.80001 16.8699H6.81001Z"/>
    <path d="M15.19 14.5601L14.53 15.2201C14.4235 15.3465 14.3683 15.5083 14.3753 15.6735C14.3823 15.8387 14.4511 15.9952 14.568 16.1121C14.6849 16.229 14.8414 16.2978 15.0066 16.3048C15.1718 16.3118 15.3336 16.2567 15.46 16.1501L16.12 15.4901C16.2265 15.3637 16.2818 15.2019 16.2747 15.0367C16.2677 14.8716 16.1989 14.715 16.082 14.5981C15.9651 14.4812 15.8086 14.4124 15.6434 14.4054C15.4782 14.3983 15.3164 14.4536 15.19 14.5601Z"/>
    <path d="M7.34001 8.67992C7.4254 8.68002 7.50998 8.66333 7.58891 8.63073C7.66784 8.59812 7.73957 8.55025 7.80001 8.48992L8.46001 7.82994C8.56655 7.70352 8.62176 7.54169 8.61472 7.37651C8.60769 7.21134 8.53892 7.05482 8.42201 6.93792C8.30511 6.82101 8.14859 6.75226 7.98341 6.74523C7.81823 6.73819 7.65643 6.79341 7.53001 6.89995L6.87001 7.55992C6.78033 7.65214 6.71955 7.76853 6.69515 7.89482C6.67075 8.02112 6.68378 8.15181 6.73265 8.2708C6.78152 8.38979 6.8641 8.49188 6.97022 8.56456C7.07635 8.63725 7.2014 8.67736 7.33001 8.67992H7.34001Z"/>
</svg>
