<?xml version="1.0" encoding="UTF-8"?>
<svg id="_图层_2" data-name="图层 2" xmlns="http://www.w3.org/2000/svg" xmlns:xlink="http://www.w3.org/1999/xlink" viewBox="0 0 62.54 62.52">
  <defs>
    <style>
      .cls-1 {
        fill: #fff;
      }

      .cls-2 {
        fill: url(#_未命名的渐变_46);
      }
    </style>
    <linearGradient id="_未命名的渐变_46" data-name="未命名的渐变 46" x1="31.22" y1="51.66" x2="31.22" y2="3.38" gradientUnits="userSpaceOnUse">
      <stop offset="0" stop-color="#5700b4"/>
      <stop offset=".5" stop-color="#b12abf"/>
      <stop offset=".62" stop-color="#921bbb"/>
      <stop offset=".78" stop-color="#720cb7"/>
      <stop offset=".91" stop-color="#5e03b4"/>
      <stop offset="1" stop-color="#5700b4"/>
    </linearGradient>
  </defs>
  <g id="_图层_1-2" data-name="图层 1">
    <g>
      <path class="cls-1" d="m62.51,62.52H.02V18.4h15.57v33.25l15.68-5.01,15.61,5.01V18.13h15.63v44.39Zm-59.11-3.38h55.73V21.51h-8.86v34.78l-19-6.1-19.06,6.09V21.79H3.4v37.35Z"/>
      <path class="cls-1" d="m62.54,16.29H0L13.32,0h35.99l13.23,16.29Zm-46.95-3.38h31.3l-.05-9.53H15.56l.03,9.53Z"/>
      <polyline class="cls-2" points="46.88 12.91 46.88 51.65 31.27 46.64 15.59 51.66 15.59 12.91 15.59 9.23 15.56 3.38 46.83 3.38"/>
      <path class="cls-1" d="m34.19,33.14h-6.93v-2.71c0-1.38.13-2.5.4-3.36.27-.86.67-1.65,1.2-2.36.53-.71,1.72-1.96,3.57-3.76.99-.94,1.48-1.8,1.48-2.58s-.2-1.39-.59-1.83c-.39-.43-.99-.65-1.8-.65-.86,0-1.58.33-2.14,1-.57.67-.93,1.84-1.09,3.5l-7.08-1.02c.24-3.05,1.19-5.5,2.84-7.35s4.18-2.79,7.58-2.79c2.65,0,4.79.65,6.42,1.94,2.21,1.75,3.32,4.09,3.32,7,0,1.21-.29,2.38-.86,3.5s-1.74,2.5-3.5,4.12c-1.23,1.14-2,2.05-2.33,2.74-.32.69-.48,3.49-.48,4.6Zm-7.17,2.41h7.43v7.66h-7.43v-7.66Z"/>
    </g>
  </g>
</svg>