<svg width="28" height="23" viewBox="0 0 28 23" xmlns="http://www.w3.org/2000/svg">
    <path d="M27.21 9.46989C27.3151 9.46144 27.4173 9.43151 27.5103 9.38194C27.6034 9.33237 27.6852 9.26418 27.7509 9.18168C27.8165 9.09918 27.8645 9.00412 27.8919 8.90232C27.9192 8.80052 27.9254 8.69417 27.91 8.58988C27.7979 7.82214 27.6444 7.06106 27.45 6.30991C26.77 3.68991 24.23 1.65987 20.98 1.13987C16.6084 0.432869 12.1516 0.432869 7.78001 1.13987C4.53001 1.66987 1.98999 3.69991 1.30999 6.30991C1.11536 7.061 0.961808 7.82209 0.849999 8.58988C0.8346 8.69417 0.840768 8.80052 0.868141 8.90232C0.895515 9.00412 0.943508 9.09918 1.00913 9.18168C1.07476 9.26418 1.15662 9.33237 1.24966 9.38194C1.34269 9.43151 1.44492 9.46144 1.55 9.46989C1.8542 9.4281 2.16381 9.45194 2.45802 9.53983C2.75222 9.62773 3.0242 9.77766 3.25562 9.97947C3.48705 10.1813 3.67257 10.4303 3.79969 10.7098C3.92681 10.9893 3.99256 11.2928 3.99256 11.5999C3.99256 11.9069 3.92681 12.2105 3.79969 12.49C3.67257 12.7695 3.48705 13.0185 3.25562 13.2203C3.0242 13.4221 2.75222 13.572 2.45802 13.6599C2.16381 13.7478 1.8542 13.7717 1.55 13.7299C1.44492 13.7383 1.34269 13.7683 1.24966 13.8178C1.15662 13.8674 1.07476 13.9355 1.00913 14.018C0.943508 14.1005 0.895515 14.1957 0.868141 14.2975C0.840768 14.3993 0.8346 14.5056 0.849999 14.6099C0.961906 15.3777 1.11546 16.1388 1.30999 16.8899C1.98999 19.5099 4.53001 21.5399 7.78001 22.0599C12.1515 22.768 16.6085 22.768 20.98 22.0599C24.23 21.5399 26.77 19.5099 27.45 16.8899C27.6443 16.1387 27.7979 15.3776 27.91 14.6099C27.9254 14.5056 27.9192 14.3993 27.8919 14.2975C27.8645 14.1957 27.8165 14.1005 27.7509 14.018C27.6852 13.9355 27.6034 13.8674 27.5103 13.8178C27.4173 13.7683 27.3151 13.7383 27.21 13.7299C26.9058 13.7717 26.5962 13.7478 26.3019 13.6599C26.0077 13.572 25.7358 13.4221 25.5044 13.2203C25.2729 13.0185 25.0874 12.7695 24.9603 12.49C24.8332 12.2105 24.7674 11.9069 24.7674 11.5999C24.7674 11.2928 24.8332 10.9893 24.9603 10.7098C25.0874 10.4303 25.2729 10.1813 25.5044 9.97947C25.7358 9.77766 26.0077 9.62773 26.3019 9.53983C26.5962 9.45194 26.9058 9.4281 27.21 9.46989ZM26.21 15.1399C26.12 15.6199 26.02 16.0699 25.91 16.5099C25.38 18.5099 23.33 20.1199 20.69 20.5099L20.04 20.6099V20.4999C20.04 20.2943 19.9583 20.0972 19.813 19.9519C19.6677 19.8065 19.4705 19.7249 19.265 19.7249C19.0594 19.7249 18.8623 19.8065 18.717 19.9519C18.5716 20.0972 18.49 20.2943 18.49 20.4999V20.7999C14.9893 21.1691 11.455 21.0716 7.97999 20.5099C5.33999 20.0799 3.28999 18.5099 2.75999 16.5099C2.64999 16.0699 2.55 15.6099 2.46 15.1399C3.3007 15.0053 4.06592 14.5755 4.61832 13.9277C5.17073 13.2798 5.47416 12.4563 5.47416 11.6049C5.47416 10.7535 5.17073 9.92994 4.61832 9.28208C4.06592 8.63422 3.3007 8.20443 2.46 8.06986C2.55 7.58986 2.64999 7.13987 2.75999 6.69987C3.28999 4.69987 5.33999 3.08987 7.97999 2.69987C11.455 2.13803 14.9893 2.04053 18.49 2.40989V2.70988C18.49 2.91542 18.5716 3.11257 18.717 3.25791C18.8623 3.40325 19.0594 3.4849 19.265 3.4849C19.4705 3.4849 19.6677 3.40325 19.813 3.25791C19.9583 3.11257 20.04 2.91542 20.04 2.70988V2.59989L20.69 2.69987C23.33 3.12987 25.38 4.69987 25.91 6.69987C26.02 7.13987 26.12 7.58986 26.21 8.06986C25.3693 8.20443 24.6041 8.63422 24.0517 9.28208C23.4993 9.92994 23.1958 10.7535 23.1958 11.6049C23.1958 12.4563 23.4993 13.2798 24.0517 13.9277C24.6041 14.5755 25.3693 15.0053 26.21 15.1399Z"/>
</svg>
