<svg width="17" height="19" viewBox="0 0 17 19" xmlns="http://www.w3.org/2000/svg">
    <path d="M9.67001 2.07996L10.44 1.30996C10.4983 1.26214 10.5459 1.20265 10.5798 1.13532C10.6137 1.06799 10.6331 0.994312 10.6368 0.919027C10.6405 0.843742 10.6284 0.768519 10.6012 0.698194C10.5741 0.627869 10.5325 0.564001 10.4792 0.510702C10.4259 0.457403 10.3621 0.415851 10.2917 0.388723C10.2214 0.361595 10.1462 0.349492 10.0709 0.353189C9.99564 0.356887 9.92197 0.376304 9.85464 0.410192C9.78732 0.444081 9.72781 0.49169 9.67999 0.549955L8.10001 2.12996C8.03767 2.17859 7.98723 2.24078 7.95255 2.31183C7.91786 2.38288 7.89984 2.4609 7.89984 2.53996C7.89984 2.61902 7.91786 2.69703 7.95255 2.76808C7.98723 2.83913 8.03767 2.90133 8.10001 2.94996L9.67999 4.52995C9.72821 4.58294 9.78684 4.62539 9.85223 4.65464C9.91762 4.6839 9.98836 4.69932 10.06 4.69996C10.2 4.67976 10.3316 4.62088 10.44 4.52995C10.5402 4.42884 10.5963 4.29228 10.5963 4.14996C10.5963 4.00764 10.5402 3.87107 10.44 3.76996L9.91 3.23996C11.2839 3.51094 12.5526 4.16673 13.5681 5.13092C14.5837 6.09512 15.3045 7.32803 15.6464 8.68604C15.9883 10.0441 15.9373 11.4713 15.4993 12.8014C15.0614 14.1316 14.2545 15.3099 13.1727 16.1991C12.0908 17.0884 10.7786 17.652 9.38885 17.8242C7.99909 17.9964 6.58901 17.7702 5.32285 17.1719C4.05668 16.5737 2.98658 15.6279 2.23718 14.4449C1.48778 13.2619 1.08993 11.8903 1.09 10.49C1.09 10.3441 1.03204 10.2042 0.928894 10.101C0.825749 9.9979 0.685878 9.93996 0.540009 9.93996C0.394139 9.93996 0.254238 9.9979 0.151093 10.101C0.0479475 10.2042 -0.0100098 10.3441 -0.0100098 10.49C-0.00484129 12.1104 0.465598 13.6952 1.34534 15.056C2.22508 16.4168 3.47711 17.4963 4.95258 18.1662C6.42804 18.8361 8.06485 19.0681 9.66837 18.8348C11.2719 18.6014 12.7746 17.9124 13.998 16.8498C15.2213 15.7871 16.1137 14.3955 16.569 12.8404C17.0244 11.2853 17.0236 9.6321 16.5667 8.07745C16.1097 6.52279 15.216 5.13206 13.9916 4.07063C12.7672 3.0092 11.2638 2.32173 9.66 2.08996L9.67001 2.07996Z"/>
</svg>
