<svg width="107" height="12" viewBox="0 0 107 12" fill="none" xmlns="http://www.w3.org/2000/svg">
    <path fill-rule="evenodd" clip-rule="evenodd" d="M0.0500488 0.390015H47.1501L55.25 6.13002L47.1501 11.74H0.0500488V0.390015Z" fill="#9F60F4"/>
    <path fill-rule="evenodd" clip-rule="evenodd" d="M52.91 0.390015H61.7L69.8 6.13002L61.7 11.74H52.91L61.01 6.13002L52.91 0.390015Z" fill="#AB75F5"/>
    <path fill-rule="evenodd" clip-rule="evenodd" d="M67.47 1.32001H74.82L81.59 6.12L74.82 10.81H67.47L74.24 6.12L67.47 1.32001Z" fill="#C29BF4"/>
    <path fill-rule="evenodd" clip-rule="evenodd" d="M79.25 1.95001H85.63L91.5 6.11002L85.63 10.18H79.25L85.13 6.11002L79.25 1.95001Z" fill="#EAE1F6"/>
    <path fill-rule="evenodd" clip-rule="evenodd" d="M89.17 2.41003H94.83L100.04 6.11003L94.83 9.72003H89.17L94.3801 6.11003L89.17 2.41003Z" fill="#8A3BF4"/>
    <path fill-rule="evenodd" clip-rule="evenodd" d="M97.7 3.26001H102.05L106.05 6.10002L102.05 8.87001H97.7L101.71 6.10002L97.7 3.26001Z" fill="#C094F8"/>
</svg>
