<svg width="12" height="13" viewBox="0 0 12 13" xmlns="http://www.w3.org/2000/svg">
    <path d="M10.49 7.71003L4.65001 11.08L1.83002 12.71C1.6502 12.8163 1.44576 12.8738 1.23692 12.8768C1.02808 12.8798 0.822068 12.8283 0.639252 12.7273C0.456435 12.6263 0.303154 12.4793 0.19455 12.3009C0.0859455 12.1225 0.0257846 11.9188 0.0200195 11.71V1.71003C0.0257846 1.50124 0.0859455 1.29758 0.19455 1.11917C0.303154 0.940769 0.456435 0.793794 0.639252 0.692791C0.822068 0.591787 1.02808 0.540255 1.23692 0.543278C1.44576 0.5463 1.6502 0.603774 1.83002 0.710026L10.49 5.71003C10.653 5.82102 10.7863 5.97015 10.8784 6.14444C10.9706 6.31872 11.0188 6.51288 11.0188 6.71003C11.0188 6.90717 10.9706 7.10133 10.8784 7.27562C10.7863 7.4499 10.653 7.59903 10.49 7.71003Z"/>
</svg>
