<svg width="51" height="51" viewBox="0 0 51 51" fill="none" xmlns="http://www.w3.org/2000/svg">
    <path d="M25.9 50.79C39.7071 50.79 50.9 39.5971 50.9 25.79C50.9 11.9829 39.7071 0.789978 25.9 0.789978C12.0929 0.789978 0.900024 11.9829 0.900024 25.79C0.900024 39.5971 12.0929 50.79 25.9 50.79Z" fill="#663DF4"/>
    <path d="M25.9 47.36C37.8127 47.36 47.47 37.7028 47.47 25.79C47.47 13.8772 37.8127 4.21997 25.9 4.21997C13.9872 4.21997 4.32996 13.8772 4.32996 25.79C4.32996 37.7028 13.9872 47.36 25.9 47.36Z" fill="#725EF5"/>
    <path d="M45.05 26C45.05 22.598 42.2921 19.84 38.89 19.84C35.4879 19.84 32.73 22.598 32.73 26V26.82C32.73 30.2221 35.4879 32.98 38.89 32.98C42.2921 32.98 45.05 30.2221 45.05 26.82V26Z" fill="#3B25BC"/>
    <path d="M19.07 26C19.07 22.598 16.3121 19.84 12.91 19.84C9.50793 19.84 6.75 22.598 6.75 26V26.82C6.75 30.2221 9.50793 32.98 12.91 32.98C16.3121 32.98 19.07 30.2221 19.07 26.82V26Z" fill="#3B25BC"/>
    <path d="M42.38 24.3C42.38 34.48 35.03 39.14 25.95 39.14C16.87 39.14 9.52002 34.48 9.52002 24.3C9.52002 15.5 19.52 13.44 25.95 13.44C32.38 13.44 42.38 15.5 42.38 24.3Z" fill="#E6E6E6"/>
    <path d="M31.56 19.29H20.22C15.6195 19.29 11.89 23.0194 11.89 27.62V27.63C11.89 32.2305 15.6195 35.96 20.22 35.96H31.56C36.1605 35.96 39.89 32.2305 39.89 27.63V27.62C39.89 23.0194 36.1605 19.29 31.56 19.29Z" fill="#3B25BC"/>
    <path d="M17.17 25.88C17.0397 25.7469 16.8841 25.6412 16.7123 25.5691C16.5406 25.4969 16.3563 25.4598 16.17 25.4598C15.9838 25.4598 15.7994 25.4969 15.6277 25.5691C15.4559 25.6412 15.3004 25.7469 15.17 25.88C14.63 26.43 14.41 27.63 15.17 27.51C15.8334 27.416 16.5067 27.416 17.17 27.51C17.93 27.64 17.71 26.43 17.17 25.88Z" fill="#C6C9F7"/>
    <path d="M36.41 25.88C36.2797 25.7469 36.1241 25.6412 35.9524 25.5691C35.7807 25.4969 35.5963 25.4598 35.41 25.4598C35.2238 25.4598 35.0394 25.4969 34.8677 25.5691C34.6959 25.6412 34.5404 25.7469 34.41 25.88C33.87 26.43 33.65 27.63 34.41 27.51C35.0734 27.416 35.7467 27.416 36.41 27.51C37.17 27.64 37 26.43 36.41 25.88Z" fill="#C6C9F7"/>
    <path d="M21.12 29.48C22.05 28.76 24.06 29.48 25.99 29.35C27.91 29.46 29.93 28.75 30.86 29.48C31.79 30.21 30.1 33.6 25.99 33.64C21.88 33.68 20.1 30.13 21.12 29.48Z" fill="#C6C9F7"/>
    <path d="M26 33.24C23.31 33.24 21.63 31.58 21.3 30.43C21.22 30.14 21.23 29.89 21.3 29.82C21.6266 29.6105 22.0135 29.5156 22.4 29.55C22.81 29.55 23.27 29.55 23.75 29.65C24.3409 29.7201 24.935 29.7602 25.53 29.77H26.37C26.965 29.7602 27.5591 29.7202 28.15 29.65C28.63 29.6 29.09 29.55 29.5 29.55C29.8743 29.5156 30.2497 29.6033 30.57 29.8C30.71 29.89 30.73 30.14 30.65 30.43C30.36 31.58 28.68 33.21 26 33.24Z" fill="#3B25BC"/>
    <path d="M21.78 10.36C22.2439 10.36 22.62 9.98391 22.62 9.51999C22.62 9.05607 22.2439 8.67999 21.78 8.67999C21.3161 8.67999 20.94 9.05607 20.94 9.51999C20.94 9.98391 21.3161 10.36 21.78 10.36Z" fill="#E6E6E6"/>
    <path d="M25.96 10.36C26.4239 10.36 26.8 9.98391 26.8 9.51999C26.8 9.05607 26.4239 8.67999 25.96 8.67999C25.4961 8.67999 25.12 9.05607 25.12 9.51999C25.12 9.98391 25.4961 10.36 25.96 10.36Z" fill="#E6E6E6"/>
    <path d="M30.14 10.36C30.6039 10.36 30.98 9.98391 30.98 9.51999C30.98 9.05607 30.6039 8.67999 30.14 8.67999C29.6761 8.67999 29.3 9.05607 29.3 9.51999C29.3 9.98391 29.6761 10.36 30.14 10.36Z" fill="#E6E6E6"/>
</svg>
