<svg width="25" height="25" viewBox="0 0 25 25" xmlns="http://www.w3.org/2000/svg">
<path d="M11.0601 0.449951C8.34424 0.449951 5.73965 1.52881 3.81927 3.44918C1.8989 5.36955 0.820068 7.97414 0.820068 10.69C0.820068 13.4058 1.8989 16.0104 3.81927 17.9307C5.73965 19.8511 8.34424 20.9299 11.0601 20.9299C11.2497 20.9299 11.4316 20.8546 11.5656 20.7205C11.6997 20.5864 11.7751 20.4046 11.7751 20.215C11.7751 20.0253 11.6997 19.8435 11.5656 19.7094C11.4316 19.5753 11.2497 19.5 11.0601 19.5C9.31761 19.5 7.61429 18.9833 6.1655 18.0152C4.7167 17.0471 3.58749 15.6712 2.92068 14.0614C2.25388 12.4516 2.07941 10.6802 2.41934 8.97121C2.75928 7.26223 3.59834 5.69244 4.83044 4.46034C6.06254 3.22824 7.63234 2.38917 9.34131 2.04923C11.0503 1.7093 12.8217 1.88377 14.4315 2.55058C16.0413 3.21738 17.4173 4.34658 18.3853 5.79538C19.3534 7.24418 19.8701 8.9475 19.8701 10.69C19.8701 10.8796 19.9454 11.0615 20.0795 11.1955C20.2136 11.3296 20.3954 11.405 20.5851 11.405C20.7747 11.405 20.9565 11.3296 21.0906 11.1955C21.2247 11.0615 21.3 10.8796 21.3 10.69C21.2974 7.97495 20.2177 5.3719 18.2979 3.4521C16.3781 1.5323 13.7751 0.452599 11.0601 0.449951Z" />
<path d="M11.2201 20.93C12.5648 20.909 13.8922 20.6233 15.1266 20.0893C16.3609 19.5553 17.478 18.7834 18.414 17.8176C19.35 16.8519 20.0866 15.7113 20.5818 14.4608C21.077 13.2104 21.3211 11.8747 21.3 10.53C21.279 9.18525 20.9934 7.85782 20.4594 6.62349C19.9253 5.38915 19.1534 4.27209 18.1877 3.33607C17.222 2.40006 16.0813 1.66342 14.8309 1.16823C13.5805 0.673031 12.2448 0.428969 10.9001 0.44998C10.7104 0.44998 10.5286 0.525311 10.3945 0.6594C10.2604 0.793488 10.1851 0.975355 10.1851 1.16498C10.1851 1.35461 10.2604 1.53647 10.3945 1.67056C10.5286 1.80465 10.7104 1.87998 10.9001 1.87998C12.6422 1.85252 14.3534 2.34225 15.8172 3.28725C17.281 4.23225 18.4318 5.59008 19.1239 7.18905C19.8161 8.78803 20.0186 10.5563 19.7058 12.2704C19.393 13.9845 18.579 15.5673 17.3667 16.8187C16.1544 18.0702 14.5983 18.9341 12.895 19.3011C11.1918 19.6682 9.41792 19.522 7.79776 18.881C6.1776 18.24 4.78388 17.133 3.79285 15.6999C2.80181 14.2669 2.25798 12.5721 2.23007 10.83C2.23007 10.6404 2.15472 10.4585 2.02063 10.3244C1.88654 10.1903 1.70471 10.115 1.51508 10.115C1.32545 10.115 1.14358 10.1903 1.00949 10.3244C0.875402 10.4585 0.800049 10.6404 0.800049 10.83C0.819587 12.1778 1.1048 13.5085 1.63931 14.7459C2.17382 15.9834 2.94715 17.1032 3.91504 18.0414C4.88293 18.9795 6.02635 19.7176 7.27985 20.2133C8.53335 20.7089 9.87231 20.9525 11.2201 20.93Z" />
<path d="M16.95 18.35L22.7299 24.13C22.833 24.2331 22.9554 24.3149 23.0901 24.3707C23.2248 24.4265 23.3692 24.4552 23.515 24.4552C23.6607 24.4552 23.8051 24.4265 23.9398 24.3707C24.0745 24.3149 24.1968 24.2331 24.2999 24.13C24.403 24.0269 24.4848 23.9046 24.5406 23.7699C24.5964 23.6352 24.6251 23.4908 24.6251 23.345C24.6251 23.1992 24.5964 23.0549 24.5406 22.9202C24.4848 22.7855 24.403 22.6631 24.2999 22.56L18.5199 16.78" />
</svg>
