<svg width="73" height="62" viewBox="0 0 73 62" xmlns="http://www.w3.org/2000/svg">
    <path d="M31.49 62C48.6108 62 62.49 48.1208 62.49 31C62.49 13.8792 48.6108 0 31.49 0C14.3692 0 0.48999 13.8792 0.48999 31C0.48999 48.1208 14.3692 62 31.49 62Z"/>
    <path d="M21.5401 33.6301L14.0001 31.1601C14.0001 31.1601 13.1001 30.7901 13.3901 29.9601C13.4501 29.7901 13.5701 29.6401 13.9301 29.3901C15.6101 28.2201 44.9301 17.6701 44.9301 17.6701C45.3541 17.5226 45.8099 17.4915 46.2501 17.5801C46.3717 17.6166 46.4813 17.685 46.5675 17.7782C46.6536 17.8714 46.7132 17.986 46.7401 18.1101C46.7944 18.3291 46.818 18.5546 46.8101 18.7801C46.8101 18.9701 46.8101 19.1501 46.8101 19.4401C46.6301 22.3201 41.2801 43.8501 41.2801 43.8501C41.2801 43.8501 40.9601 45.1101 39.8101 45.1501C39.5285 45.1594 39.248 45.112 38.9851 45.0106C38.7223 44.9093 38.4825 44.7561 38.2801 44.5601C36.0301 42.6201 28.2801 37.4001 26.5301 36.2501C26.4919 36.2238 26.4597 36.1897 26.4356 36.1501C26.4114 36.1104 26.3959 36.0661 26.3901 36.0201C26.3901 35.9001 26.5001 35.7501 26.5001 35.7501C26.5001 35.7501 40.0401 23.7501 40.4001 22.4501C40.4001 22.3501 40.3201 22.3001 40.1801 22.3501C39.2801 22.6801 23.6901 32.5301 21.9701 33.6201C21.8301 33.6612 21.6818 33.6646 21.5401 33.6301Z"/>
    <path d="M64.51 23.3C69.1989 23.3 73 19.499 73 14.8101C73 10.1212 69.1989 6.32007 64.51 6.32007C59.8211 6.32007 56.02 10.1212 56.02 14.8101C56.02 19.499 59.8211 23.3 64.51 23.3Z"/>
    <path d="M64.7799 19C64.8158 18.9629 64.8441 18.9191 64.863 18.871C64.8819 18.8229 64.891 18.7716 64.8899 18.72V10.87C64.8899 10.8187 64.8798 10.7681 64.8602 10.7207C64.8406 10.6734 64.8118 10.6304 64.7756 10.5942C64.7394 10.558 64.6965 10.5292 64.6491 10.5096C64.6018 10.49 64.5511 10.48 64.4999 10.48C64.4487 10.48 64.3979 10.49 64.3506 10.5096C64.3033 10.5292 64.2603 10.558 64.2241 10.5942C64.1879 10.6304 64.1592 10.6734 64.1396 10.7207C64.12 10.7681 64.1099 10.8187 64.1099 10.87V18.72C64.1101 18.7963 64.1328 18.8709 64.1751 18.9344C64.2173 18.998 64.2773 19.0478 64.3476 19.0776C64.4178 19.1074 64.4953 19.1159 64.5704 19.1021C64.6454 19.0883 64.7148 19.0528 64.7699 19H64.7799Z"/>
    <path d="M68.7099 14.53C68.6729 14.494 68.629 14.4658 68.581 14.4469C68.5329 14.428 68.4816 14.4189 68.4299 14.42H60.5799C60.4765 14.42 60.3773 14.4611 60.3042 14.5342C60.231 14.6074 60.1899 14.7066 60.1899 14.81C60.1899 14.9134 60.231 15.0126 60.3042 15.0858C60.3773 15.1589 60.4765 15.2 60.5799 15.2H68.4299C68.5063 15.1997 68.5808 15.177 68.6444 15.1348C68.708 15.0925 68.7577 15.0326 68.7875 14.9623C68.8173 14.892 68.8259 14.8146 68.8121 14.7395C68.7983 14.6644 68.7628 14.5951 68.7099 14.54V14.53Z"/>
    <defs>
        <linearGradient id="paint0_linear_0_1" x1="31.49" y1="62" x2="31.49" y2="0" gradientUnits="userSpaceOnUse">
            <stop stop-color="#1D92D1"/>
            <stop offset="1" stop-color="#38AFE2"/>
        </linearGradient>
    </defs>
</svg>
