<svg width="23" height="26" viewBox="0 0 23 26" xmlns="http://www.w3.org/2000/svg">
<path d="M19 9.76001H16.46V11.68H19V9.76001ZM21.49 10.76C20.824 10.1119 19.9293 9.75259 19 9.76001V11.68C19.4241 11.6807 19.8305 11.8498 20.13 12.15L21.49 10.76ZM22.49 13.25C22.4974 12.3207 22.1381 11.426 21.49 10.76L20.13 12.12C20.4302 12.4195 20.5993 12.8259 20.6 13.25H22.49ZM22.49 22.25V13.25H20.63V22.25H22.49ZM21.49 24.74C22.1381 24.074 22.4974 23.1793 22.49 22.25H20.63C20.6293 22.6741 20.4602 23.0805 20.16 23.38L21.49 24.74ZM19 25.74C19.9293 25.7474 20.824 25.3881 21.49 24.74L20.13 23.38C19.8305 23.6802 19.4241 23.8492 19 23.85V25.74ZM3.61999 25.74H19V23.82H3.63999L3.61999 25.74ZM1.13 24.74C1.79601 25.3881 2.69072 25.7474 3.61999 25.74V23.82C3.19593 23.8193 2.78949 23.6502 2.49 23.35L1.13 24.74ZM0.129995 22.25C0.122577 23.1793 0.4819 24.074 1.13 24.74L2.49 23.38C2.18977 23.0805 2.02072 22.6741 2.01999 22.25H0.129995ZM0.129995 13.25V22.25H1.99999V13.25H0.129995ZM1.13 10.76C0.4819 11.426 0.122577 12.3207 0.129995 13.25H1.99999C2.00072 12.8259 2.16977 12.4195 2.47 12.12L1.13 10.76ZM3.61999 9.76001C2.69072 9.75259 1.79601 10.1119 1.13 10.76L2.49 12.12C2.78949 11.8198 3.19593 11.6508 3.61999 11.65V9.76001ZM6.17999 9.76001H3.63999V11.68H6.2L6.17999 9.76001ZM16.44 9.76001C16.2323 9.82059 16.0498 9.9469 15.92 10.12C15.7902 10.2931 15.72 10.5036 15.72 10.72C15.72 10.9363 15.7902 11.1469 15.92 11.32C16.0498 11.4931 16.2323 11.6194 16.44 11.68V9.76001ZM6.18999 11.66C6.39771 11.5994 6.58017 11.4731 6.70999 11.3C6.83982 11.1269 6.90999 10.9164 6.90999 10.7C6.90999 10.4836 6.83982 10.2731 6.70999 10.1C6.58017 9.92688 6.39771 9.80057 6.18999 9.73999V11.66Z" />
<path d="M15.86 4.90997L12 1.06L10.64 2.41998L14.49 6.27002L15.86 4.90997ZM10.65 1.06L6.80004 4.90997L8.16004 6.27002L12 2.41998L10.65 1.06ZM12.29 19.69V1.73999H10.37V19.69H12.29ZM14.49 6.27002C14.5653 6.40525 14.6708 6.52114 14.7984 6.60864C14.9261 6.69615 15.0723 6.75287 15.2255 6.77429C15.3787 6.79571 15.5349 6.78127 15.6816 6.73212C15.8283 6.68296 15.9616 6.60044 16.0711 6.49103C16.1805 6.38161 16.263 6.24829 16.3122 6.10156C16.3613 5.95484 16.3757 5.79869 16.3543 5.64545C16.3329 5.4922 16.2762 5.346 16.1887 5.21838C16.1012 5.09076 15.9853 4.98519 15.85 4.90997L14.49 6.27002ZM6.80004 4.90997C6.66481 4.98519 6.54889 5.09076 6.46138 5.21838C6.37388 5.346 6.31719 5.4922 6.29576 5.64545C6.27434 5.79869 6.28877 5.95484 6.33793 6.10156C6.38708 6.24829 6.46961 6.38161 6.57903 6.49103C6.68844 6.60044 6.82176 6.68296 6.96848 6.73212C7.1152 6.78127 7.27133 6.79571 7.42458 6.77429C7.57782 6.75287 7.72401 6.69615 7.85163 6.60864C7.97925 6.52114 8.08482 6.40525 8.16004 6.27002L6.80004 4.90997ZM11.33 1.73999L12.01 1.06C11.8251 0.888502 11.5822 0.793213 11.33 0.793213C11.0778 0.793213 10.835 0.888502 10.65 1.06L11.33 1.73999ZM10.33 19.69C10.3906 19.8977 10.5169 20.0802 10.69 20.21C10.8631 20.3398 11.0737 20.41 11.29 20.41C11.5064 20.41 11.7169 20.3398 11.89 20.21C12.0631 20.0802 12.1895 19.8977 12.25 19.69H10.33Z" />
</svg>
