<svg width="110" height="109" viewBox="0 0 110 109" xmlns="http://www.w3.org/2000/svg">
    <g style="mix-blend-mode:screen">
        <path d="M54.55 109C43.7709 109 33.2339 105.804 24.2714 99.8151C15.309 93.8266 8.32355 85.3148 4.19858 75.3562C0.0736022 65.3977 -1.00568 54.4396 1.09721 43.8676C3.20011 33.2956 8.39073 23.5847 16.0127 15.9627C23.6347 8.34073 33.3456 3.15012 43.9176 1.04722C54.4896 -1.05567 65.4477 0.0236259 75.4063 4.1486C85.3648 8.27358 93.8766 15.2589 99.8651 24.2214C105.854 33.1839 109.05 43.7209 109.05 54.5C109.034 68.9494 103.287 82.8025 93.0698 93.0198C82.8525 103.237 68.9994 108.984 54.55 109ZM54.55 5.10002C44.7796 5.10002 35.2286 7.99725 27.1048 13.4254C18.9811 18.8535 12.6493 26.5688 8.91037 35.5954C5.1714 44.6221 4.19312 54.5548 6.09923 64.1375C8.00534 73.7202 12.7102 82.5224 19.6189 89.4311C26.5277 96.3398 35.3299 101.045 44.9126 102.951C54.4952 104.857 64.4279 103.879 73.4546 100.14C82.4812 96.4007 90.1965 90.069 95.6246 81.9452C101.053 73.8214 103.95 64.2704 103.95 54.5C103.937 41.4014 98.7282 28.843 89.4671 19.58C80.2059 10.317 67.6486 5.10589 54.55 5.09001V5.10002Z"/>
        <path d="M79.38 54.5L40.9 76.72V32.28L79.38 54.5Z"/>
    </g>
</svg>
