<svg width="18" height="22" viewBox="0 0 18 22" xmlns="http://www.w3.org/2000/svg">
    <path d="M3.18 19C4.78058 20.6006 6.95144 21.4998 9.215 21.4998C11.4786 21.4998 13.6494 20.6006 15.25 19C16.8506 17.3995 17.7498 15.2286 17.7498 12.9651C17.7498 10.7015 16.8506 8.53062 15.25 6.93004C15.1345 6.84338 14.9915 6.80133 14.8475 6.81157C14.7034 6.82181 14.5679 6.88364 14.4657 6.98576C14.3636 7.08789 14.3017 7.22347 14.2915 7.36754C14.2813 7.5116 14.3233 7.65452 14.41 7.77007C15.4366 8.79656 16.1357 10.1044 16.4189 11.5282C16.7022 12.9521 16.5569 14.4279 16.0013 15.7691C15.4458 17.1104 14.505 18.2568 13.2979 19.0633C12.0909 19.8699 10.6717 20.3004 9.22 20.3004C7.76827 20.3004 6.34913 19.8699 5.14206 19.0633C3.935 18.2568 2.99421 17.1104 2.43868 15.7691C1.88314 14.4279 1.73782 12.9521 2.02108 11.5282C2.30433 10.1044 3.00344 8.79656 4.03 7.77007C4.11666 7.65452 4.15872 7.5116 4.14849 7.36754C4.13825 7.22347 4.07639 7.08789 3.97426 6.98576C3.87213 6.88364 3.7366 6.82181 3.59253 6.81157C3.44847 6.80133 3.30555 6.84338 3.19001 6.93004C1.58937 8.52997 0.689256 10.6999 0.687381 12.963C0.685506 15.2261 1.58202 17.3975 3.18 19Z" />
    <path d="M3.48998 2.99985L3.43998 3.06986C3.4151 3.11077 3.39498 3.15439 3.37998 3.19986V3.25986C3.3786 3.28317 3.3786 3.30655 3.37998 3.32987C3.37814 3.3565 3.37814 3.38319 3.37998 3.40982V3.48984V3.56986L3.44997 3.65982L8.75997 8.96982C8.87213 9.07975 9.02292 9.14139 9.17997 9.14139C9.33702 9.14139 9.48783 9.07975 9.59998 8.96982L14.91 3.65982C15.0199 3.54766 15.0815 3.39689 15.0815 3.23984C15.0815 3.08279 15.0199 2.93201 14.91 2.81986C13.3675 1.33764 11.3019 0.524912 9.16291 0.558626C7.02397 0.592339 4.98499 1.46976 3.48998 2.99985ZM9.20998 7.88986L5.70998 4.38986L9.09998 5.04984H9.20998C9.35249 5.0406 9.48702 4.98086 9.58941 4.88132C9.6918 4.78178 9.75534 4.64899 9.76859 4.50681C9.78185 4.36462 9.74395 4.22237 9.66172 4.10562C9.57949 3.98887 9.45832 3.90526 9.31998 3.86984L5.22997 3.06986C6.47726 2.1944 7.97864 1.75513 9.50111 1.82022C11.0236 1.88532 12.482 2.45112 13.65 3.42984L9.20998 7.88986Z" />
</svg>
