<svg width="31" height="26" viewBox="0 0 31 26" xmlns="http://www.w3.org/2000/svg">
    <path d="M17.59 0.749974C17.131 0.530927 16.6227 0.435983 16.1156 0.474583C15.6086 0.513183 15.1205 0.684012 14.7 0.970006C12.84 2.27001 10.81 3.83997 8.69998 5.49997L8.58998 5.57999C8.22772 5.86144 7.78807 6.02547 7.32998 6.05002C6.32998 6.10002 5.26998 6.16999 4.23998 6.26999C3.25141 6.36925 2.32682 6.80468 1.62065 7.50357C0.914474 8.20247 0.469474 9.12253 0.35998 10.11C0.26998 12.02 0.26998 13.97 0.35998 15.88C0.472021 16.8672 0.919403 17.7861 1.6274 18.4832C2.33539 19.1803 3.26113 19.6133 4.24998 19.71C5.24998 19.8 6.29998 19.88 7.32998 19.93C7.78807 19.9546 8.22772 20.1185 8.58998 20.4L8.69998 20.48C10.85 22.14 12.88 23.72 14.7 25C15.1587 25.3342 15.7124 25.5129 16.28 25.51C16.7341 25.5039 17.1825 25.4088 17.6 25.23C18.3911 24.8806 19.087 24.347 19.6298 23.6738C20.1726 23.0006 20.5464 22.2072 20.72 21.36C21.4837 15.7928 21.4837 10.1473 20.72 4.57999C20.5403 3.73873 20.1627 2.95244 19.6183 2.28635C19.074 1.62026 18.3786 1.09354 17.59 0.749974ZM19.02 21.12C18.8921 21.6749 18.6379 22.1928 18.2771 22.6333C17.9163 23.0739 17.4588 23.4252 16.94 23.66C16.7475 23.7677 16.5306 23.8243 16.31 23.8243C16.0894 23.8243 15.8725 23.7677 15.68 23.66C13.86 22.39 11.84 20.83 9.67998 19.18L9.56998 19.1C8.93796 18.6146 8.17536 18.3291 7.37998 18.28C6.37998 18.23 5.37998 18.16 4.37998 18.07C3.80183 17.9934 3.26444 17.7303 2.84936 17.3207C2.43427 16.911 2.16415 16.3771 2.07998 15.8C1.98998 13.94 1.98998 12.05 2.07998 10.19C2.17613 9.61606 2.45646 9.08908 2.87861 8.68857C3.30077 8.28807 3.84181 8.03583 4.41998 7.97001C5.41998 7.88001 6.41998 7.79998 7.41998 7.75998C8.22575 7.71683 8.99963 7.43097 9.63998 6.93998L9.74998 6.86002C11.88 5.21002 13.89 3.65003 15.75 2.37003C15.941 2.26318 16.1561 2.20707 16.375 2.20707C16.5938 2.20707 16.809 2.26318 17 2.37003C17.5146 2.60402 17.9688 2.95278 18.3276 3.38962C18.6864 3.82646 18.9404 4.33972 19.07 4.88999C19.7885 10.2773 19.7717 15.7373 19.02 21.12Z"/>
    <path d="M25.8599 6.44994C25.7399 6.43694 25.6185 6.4494 25.5035 6.48644C25.3886 6.52348 25.2828 6.58431 25.1929 6.66497C25.103 6.74562 25.0312 6.84425 24.982 6.95452C24.9328 7.06479 24.9073 7.18423 24.9073 7.30498C24.9073 7.42573 24.9328 7.54511 24.982 7.65538C25.0312 7.76566 25.103 7.86434 25.1929 7.945C25.2828 8.02565 25.3886 8.08648 25.5035 8.12352C25.6185 8.16057 25.7399 8.17296 25.8599 8.15996C27.1099 8.15996 28.49 10.1599 28.49 12.9999C28.49 15.8399 27.0999 17.84 25.8599 17.84C25.7399 17.827 25.6185 17.8394 25.5035 17.8764C25.3886 17.9134 25.2828 17.9743 25.1929 18.0549C25.103 18.1356 25.0312 18.2343 24.982 18.3445C24.9328 18.4548 24.9073 18.5742 24.9073 18.6949C24.9073 18.8157 24.9328 18.9351 24.982 19.0454C25.0312 19.1557 25.103 19.2543 25.1929 19.335C25.2828 19.4156 25.3886 19.4764 25.5035 19.5135C25.6185 19.5505 25.7399 19.563 25.8599 19.55C28.2999 19.55 30.2099 16.6699 30.2099 12.9999C30.2099 9.32993 28.2999 6.44994 25.8599 6.44994Z"/>
</svg>
